<svg width="288" height="116" viewBox="0 0 288 116" fill="none" xmlns="http://www.w3.org/2000/svg">
<path d="M283.5 15H4.5V103H283.5V15Z" stroke="#536750" stroke-width="0.5" stroke-linecap="round" stroke-dasharray="4 4"/>
<path d="M7.5 10H2.5C1.39543 10 0.5 10.8954 0.5 12V17C0.5 18.1046 1.39543 19 2.5 19H7.5C8.60457 19 9.5 18.1046 9.5 17V12C9.5 10.8954 8.60457 10 7.5 10Z" fill="#051A12" stroke="#536750" stroke-width="0.5"/>
<path d="M285.5 10H280.5C279.395 10 278.5 10.8954 278.5 12V17C278.5 18.1046 279.395 19 280.5 19H285.5C286.605 19 287.5 18.1046 287.5 17V12C287.5 10.8954 286.605 10 285.5 10Z" fill="#051A12" stroke="#536750" stroke-width="0.5"/>
<path d="M7.5 98H2.5C1.39543 98 0.5 98.8954 0.5 100V105C0.5 106.105 1.39543 107 2.5 107H7.5C8.60457 107 9.5 106.105 9.5 105V100C9.5 98.8954 8.60457 98 7.5 98Z" fill="#051A12" stroke="#536750" stroke-width="0.5"/>
<path d="M285.5 98H280.5C279.395 98 278.5 98.8954 278.5 100V105C278.5 106.105 279.395 107 280.5 107H285.5C286.605 107 287.5 106.105 287.5 105V100C287.5 98.8954 286.605 98 285.5 98Z" fill="#051A12" stroke="#536750" stroke-width="0.5"/>
<path d="M213.5 0H75.5C72.1863 0 69.5 2.68629 69.5 6V28C69.5 31.3137 72.1863 34 75.5 34H213.5C216.814 34 219.5 31.3137 219.5 28V6C219.5 2.68629 216.814 0 213.5 0Z" fill="#051A12"/>
<path d="M213.5 0.25H75.5C72.3244 0.25 69.75 2.82436 69.75 6V28C69.75 31.1756 72.3244 33.75 75.5 33.75H213.5C216.676 33.75 219.25 31.1756 219.25 28V6C219.25 2.82436 216.676 0.25 213.5 0.25Z" stroke="#536750" stroke-width="0.5"/>
<path d="M213.5 41H75.5C72.1863 41 69.5 43.6863 69.5 47V110C69.5 113.314 72.1863 116 75.5 116H213.5C216.814 116 219.5 113.314 219.5 110V47C219.5 43.6863 216.814 41 213.5 41Z" fill="#051A12"/>
<path d="M213.5 41.25H75.5C72.3244 41.25 69.75 43.8244 69.75 47V110C69.75 113.176 72.3244 115.75 75.5 115.75H213.5C216.676 115.75 219.25 113.176 219.25 110V47C219.25 43.8244 216.676 41.25 213.5 41.25Z" stroke="#536750" stroke-width="0.5"/>
<path d="M168.5 41V116" stroke="#536750" stroke-width="0.5"/>
<path d="M89.6654 14.3347C89.6654 15.5313 88.6953 16.5013 87.4987 16.5013C86.3021 16.5013 85.332 15.5313 85.332 14.3347C85.332 13.138 86.3021 12.168 87.4987 12.168C88.6953 12.168 89.6654 13.138 89.6654 14.3347Z" fill="#75886F" stroke="#75886F" stroke-width="1.2" stroke-linecap="round" stroke-linejoin="round"/>
<path d="M84.0635 21.834H90.9335C91.6948 21.834 92.2812 21.1794 91.9257 20.5063C91.4027 19.516 90.2105 18.334 87.4985 18.334C84.7865 18.334 83.5943 19.516 83.0713 20.5063C82.7158 21.1794 83.3022 21.834 84.0635 21.834Z" fill="#75886F" stroke="#75886F" stroke-width="1.2" stroke-linecap="round" stroke-linejoin="round"/>
<path d="M148.5 14H102.5C100.843 14 99.5 15.3431 99.5 17C99.5 18.6569 100.843 20 102.5 20H148.5C150.157 20 151.5 18.6569 151.5 17C151.5 15.3431 150.157 14 148.5 14Z" fill="#536750"/>
<path d="M139.5 52H102.5C100.843 52 99.5 53.3431 99.5 55C99.5 56.6569 100.843 58 102.5 58H139.5C141.157 58 142.5 56.6569 142.5 55C142.5 53.3431 141.157 52 139.5 52Z" fill="#536750"/>
<path d="M89.5181 50.1719C89.5181 52.0161 88.524 53.6781 86.6797 53.6781C88.524 53.6781 89.5181 55.3401 89.5181 57.1844C89.5181 55.3401 90.5123 53.6781 92.3565 53.6781C90.5123 53.6781 89.5181 52.0161 89.5181 50.1719Z" fill="#12B769" stroke="#12B769"/>
<path d="M84.8424 55.5156C84.8424 56.6222 83.7784 57.6862 82.6719 57.6862C83.7784 57.6862 84.8424 58.7501 84.8424 59.8567C84.8424 58.7501 85.9064 57.6862 87.0129 57.6862C85.9064 57.6862 84.8424 56.6222 84.8424 55.5156Z" fill="#12B769" stroke="#12B769"/>
<path d="M89.5181 50.1719C89.5181 52.0161 88.524 53.6781 86.6797 53.6781C88.524 53.6781 89.5181 55.3401 89.5181 57.1844C89.5181 55.3401 90.5123 53.6781 92.3565 53.6781C90.5123 53.6781 89.5181 52.0161 89.5181 50.1719Z" stroke="#12B769" stroke-width="1.20214" stroke-linecap="round" stroke-linejoin="round"/>
<path d="M84.8424 55.5156C84.8424 56.6222 83.7784 57.6862 82.6719 57.6862C83.7784 57.6862 84.8424 58.7501 84.8424 59.8567C84.8424 58.7501 85.9064 57.6862 87.0129 57.6862C85.9064 57.6862 84.8424 56.6222 84.8424 55.5156Z" stroke="#12B769" stroke-width="1.20214" stroke-linecap="round" stroke-linejoin="round"/>
<path d="M126.5 75H102.5C100.843 75 99.5 76.3431 99.5 78C99.5 79.6569 100.843 81 102.5 81H126.5C128.157 81 129.5 79.6569 129.5 78C129.5 76.3431 128.157 75 126.5 75Z" fill="#536750"/>
<path fill-rule="evenodd" clip-rule="evenodd" d="M82.1657 74.4029C82.068 74.604 82.0137 74.8272 82.0137 75.0621V80.0233C82.0137 80.9098 82.7876 81.6284 83.7422 81.6284H90.3422C91.2969 81.6284 92.0708 80.9098 92.0708 80.0233V75.0621C92.0708 74.8272 92.0164 74.604 91.9188 74.4029L87.3588 78.063C87.1792 78.2072 86.9053 78.2072 86.7257 78.063L82.1657 74.4029ZM91.3326 73.7464C91.0521 73.564 90.7106 73.457 90.3422 73.457H83.7422C83.3739 73.457 83.0324 73.564 82.7519 73.7464L87.0422 77.1901L91.3326 73.7464Z" fill="#75886F"/>
<path d="M154.5 98H102.5C100.843 98 99.5 99.3431 99.5 101C99.5 102.657 100.843 104 102.5 104H154.5C156.157 104 157.5 102.657 157.5 101C157.5 99.3431 156.157 98 154.5 98Z" fill="#536750"/>
<path fill-rule="evenodd" clip-rule="evenodd" d="M86.7773 104.491C86.7774 104.491 86.7775 104.491 87.0426 104.101L86.7773 104.491ZM87.3082 104.491L87.3091 104.49L87.3119 104.488L87.3217 104.482L87.3574 104.457C87.3881 104.435 87.4324 104.404 87.4883 104.363C87.6 104.282 87.7584 104.164 87.9479 104.015C88.3262 103.718 88.8323 103.293 89.3402 102.785C89.8465 102.278 90.3652 101.679 90.7598 101.032C91.1522 100.389 91.4426 99.6636 91.4426 98.9156C91.4426 96.4456 89.3767 94.5156 87.0426 94.5156C84.7085 94.5156 82.6426 96.4456 82.6426 98.9156C82.6426 99.6636 82.9329 100.389 83.3253 101.032C83.7199 101.679 84.2386 102.278 84.7449 102.785C85.2529 103.293 85.759 103.718 86.1373 104.015C86.3268 104.164 86.4852 104.282 86.5969 104.363C86.6528 104.404 86.697 104.435 86.7278 104.457L86.7635 104.482L86.7733 104.488L86.7761 104.49L86.7773 104.491C86.9373 104.6 87.1482 104.6 87.3082 104.491ZM87.0426 104.101L87.3082 104.491C87.3081 104.491 87.3077 104.491 87.0426 104.101ZM85.3156 98.9156C85.3156 97.9606 86.0895 97.1866 87.0441 97.1866C87.9988 97.1866 88.7727 97.9606 88.7727 98.9156C88.7727 99.8696 87.9988 100.644 87.0441 100.644C86.0895 100.644 85.3156 99.8696 85.3156 98.9156Z" fill="#12B769"/>
</svg>
