<svg width="1440" height="900" viewBox="0 0 1440 900" fill="none" xmlns="http://www.w3.org/2000/svg">
<mask id="mask0_285_3123" style="mask-type:alpha" maskUnits="userSpaceOnUse" x="-82" y="-352" width="1604" height="1604">
<circle cx="720" cy="450" r="802" fill="url(#paint0_radial_285_3123)"/>
</mask>
<g mask="url(#mask0_285_3123)">
<line x1="2.62268e-08" y1="112.2" x2="1440" y2="112.2" stroke="white" stroke-opacity="0.09" stroke-width="0.6"/>
<line x1="2.62268e-08" y1="224.7" x2="1440" y2="224.7" stroke="white" stroke-opacity="0.09" stroke-width="0.6"/>
<line x1="2.62268e-08" y1="337.2" x2="1440" y2="337.2" stroke="white" stroke-opacity="0.09" stroke-width="0.6"/>
<line x1="2.62268e-08" y1="449.7" x2="1440" y2="449.7" stroke="white" stroke-opacity="0.09" stroke-width="0.6"/>
<line x1="2.62268e-08" y1="562.2" x2="1440" y2="562.2" stroke="white" stroke-opacity="0.09" stroke-width="0.6"/>
<line x1="2.62268e-08" y1="674.7" x2="1440" y2="674.7" stroke="white" stroke-opacity="0.09" stroke-width="0.6"/>
<line x1="2.62268e-08" y1="787.2" x2="1440" y2="787.2" stroke="white" stroke-opacity="0.09" stroke-width="0.6"/>
<line x1="2.62268e-08" y1="899.7" x2="1440" y2="899.7" stroke="white" stroke-opacity="0.09" stroke-width="0.6"/>
<line x1="110.47" y1="900" x2="110.47" y2="-540" stroke="white" stroke-opacity="0.09" stroke-width="0.6"/>
<line x1="221.239" y1="900" x2="221.239" y2="-540" stroke="white" stroke-opacity="0.09" stroke-width="0.6"/>
<line x1="332.009" y1="900" x2="332.009" y2="-540" stroke="white" stroke-opacity="0.09" stroke-width="0.6"/>
<line x1="442.776" y1="900" x2="442.776" y2="-540" stroke="white" stroke-opacity="0.09" stroke-width="0.6"/>
<line x1="553.546" y1="900" x2="553.546" y2="-540" stroke="white" stroke-opacity="0.09" stroke-width="0.6"/>
<line x1="664.315" y1="900" x2="664.315" y2="-540" stroke="white" stroke-opacity="0.09" stroke-width="0.6"/>
<line x1="775.085" y1="900" x2="775.085" y2="-540" stroke="white" stroke-opacity="0.09" stroke-width="0.6"/>
<line x1="885.854" y1="900" x2="885.854" y2="-540" stroke="white" stroke-opacity="0.09" stroke-width="0.6"/>
<line x1="996.624" y1="900" x2="996.624" y2="-540" stroke="white" stroke-opacity="0.09" stroke-width="0.6"/>
<line x1="1107.39" y1="900" x2="1107.39" y2="-540" stroke="white" stroke-opacity="0.09" stroke-width="0.6"/>
<line x1="1218.16" y1="900" x2="1218.16" y2="-540" stroke="white" stroke-opacity="0.09" stroke-width="0.6"/>
<line x1="1328.93" y1="900" x2="1328.93" y2="-540" stroke="white" stroke-opacity="0.09" stroke-width="0.6"/>
<line x1="1439.7" y1="900" x2="1439.7" y2="-540" stroke="white" stroke-opacity="0.09" stroke-width="0.6"/>
<path d="M110.5 100.5L110.5 124.5" stroke="url(#paint1_linear_285_3123)"/>
<path d="M122.5 112.5L98.5 112.5" stroke="url(#paint2_linear_285_3123)"/>
<rect opacity="0.47" x="332.5" y="112.5" width="110" height="112" fill="white" fill-opacity="0.07" stroke="#37393A"/>
<rect opacity="0.47" x="886.5" y="1.5" width="110" height="110" fill="white" fill-opacity="0.07" stroke="#37393A"/>
<rect opacity="0.47" x="1218.5" y="225.5" width="110" height="111" fill="white" fill-opacity="0.07" stroke="#37393A"/>
<path d="M1218 101L1218 125" stroke="url(#paint3_linear_285_3123)"/>
<path d="M1230 113L1206 113" stroke="url(#paint4_linear_285_3123)"/>
</g>
<defs>
<radialGradient id="paint0_radial_285_3123" cx="0" cy="0" r="1" gradientUnits="userSpaceOnUse" gradientTransform="translate(720 294.5) rotate(90) scale(957.5)">
<stop stop-color="#D9D9D9"/>
<stop offset="1" stop-color="#D9D9D9" stop-opacity="0"/>
</radialGradient>
<linearGradient id="paint1_linear_285_3123" x1="110.5" y1="124.5" x2="110.5" y2="100.5" gradientUnits="userSpaceOnUse">
<stop stop-color="#C34124" stop-opacity="0"/>
<stop offset="0.50284" stop-color="#F99A85"/>
<stop offset="1" stop-color="#C34124" stop-opacity="0"/>
</linearGradient>
<linearGradient id="paint2_linear_285_3123" x1="98.5" y1="112.5" x2="122.5" y2="112.5" gradientUnits="userSpaceOnUse">
<stop stop-color="#C34124" stop-opacity="0"/>
<stop offset="0.50284" stop-color="#F99A85"/>
<stop offset="1" stop-color="#C34124" stop-opacity="0"/>
</linearGradient>
<linearGradient id="paint3_linear_285_3123" x1="1218" y1="125" x2="1218" y2="101" gradientUnits="userSpaceOnUse">
<stop stop-color="white" stop-opacity="0"/>
<stop offset="0.50284" stop-color="white"/>
<stop offset="1" stop-color="white" stop-opacity="0"/>
</linearGradient>
<linearGradient id="paint4_linear_285_3123" x1="1206" y1="113" x2="1230" y2="113" gradientUnits="userSpaceOnUse">
<stop stop-color="white" stop-opacity="0"/>
<stop offset="0.50284" stop-color="white"/>
<stop offset="1" stop-color="white" stop-opacity="0"/>
</linearGradient>
</defs>
</svg>
