<svg width="480" height="462" viewBox="0 0 480 462" fill="none" xmlns="http://www.w3.org/2000/svg">
<rect width="480" height="462" rx="12" fill="#F9F9F9"/>
<path d="M190.991 132.706V178.062C190.991 181.385 193.379 184.187 196.492 184.808C196.909 184.914 197.426 184.914 197.843 184.914H309.519C309.728 184.914 310.039 184.914 310.246 184.914C313.775 184.601 316.474 181.592 316.474 178.062V132.706C316.888 132.706 317.305 132.395 317.305 131.877C317.305 131.357 316.992 131.047 316.474 131.047V124.818C316.474 120.978 313.361 117.865 309.519 117.865H197.946C194.106 117.865 190.991 120.978 190.991 124.818V131.047C190.577 131.047 190.16 131.357 190.16 131.877C190.266 132.291 190.577 132.706 190.991 132.706Z" fill="white"/>
<mask id="mask0_291_2689" style="mask-type:luminance" maskUnits="userSpaceOnUse" x="16" y="92" width="446" height="277">
<path d="M16 92H461.681V369H16V92Z" fill="white"/>
</mask>
<g mask="url(#mask0_291_2689)">
<path d="M461.569 238.677C461.88 236.187 461.155 233.799 459.597 232.034C458.04 230.27 455.757 229.232 453.265 229.232H297.892C292.807 229.232 288.136 233.385 287.512 238.47L277.133 322.437C277.03 322.955 277.03 323.475 277.133 323.992H259.801C260.215 323.578 260.425 323.164 260.632 322.644C260.942 321.606 260.735 320.465 260.425 319.635C261.149 319.635 262.084 319.427 262.707 318.804C263.434 318.18 263.745 317.246 263.745 316.001C263.538 312.058 256.792 303.443 253.676 300.121C250.253 296.384 245.789 297.215 245.685 297.215L208.943 301.262L201.887 300.017C224.927 284.137 257.309 262.134 259.074 261.407C262.397 260.162 265.406 257.153 267.378 254.868C268.726 253.313 270.804 250.094 272.879 246.774C274.747 243.868 276.616 240.858 278.171 238.886C280.249 236.187 284.607 232.034 287.409 229.335C288.967 227.78 290.108 226.742 290.522 226.222C291.562 224.978 291.353 223.213 291.146 222.486C292.08 221.345 294.986 217.401 295.402 215.636C295.713 214.702 295.402 213.975 295.089 213.664C294.882 213.354 294.572 213.144 294.362 213.041C295.089 212.107 296.127 210.448 296.023 209.097C296.023 208.474 295.713 207.853 295.296 207.436C294.052 206.295 291.873 206.815 290.108 207.54C290.628 206.191 290.939 204.427 290.004 202.765C289.901 202.558 289.588 202.144 288.967 202.041C285.437 201.21 271.738 209.824 266.858 212.937C266.858 210.238 266.651 205.154 265.095 203.699C264.679 203.389 264.265 203.182 263.745 203.285C261.98 203.492 260.942 206.502 259.491 210.551C258.347 213.871 257.102 217.608 255.234 219.787C251.29 224.561 247.554 235.044 247.45 235.46C245.271 240.649 243.194 241.689 243.194 241.689L158.812 275.316L155.596 267.219L158.502 266.391H158.605L157.154 262.238L141.066 217.298C140.857 216.57 140.65 215.947 140.442 215.222C140.235 214.495 140.026 213.871 139.819 213.144C139.092 210.758 138.264 208.994 137.64 207.54C137.433 207.229 137.329 206.815 137.12 206.605C136.602 205.671 136.186 205.05 135.772 204.53C135.979 202.765 136.292 200.69 136.602 198.304C136.913 195.916 137.224 193.32 137.537 190.414C137.744 188.443 137.951 186.574 138.158 184.915C139.092 185.226 139.922 185.537 140.753 185.64C142.311 185.953 143.869 186.16 145.32 186.16C146.047 186.16 146.668 186.16 147.396 186.16C148.019 186.16 148.746 186.057 149.264 185.953C151.132 185.64 152.69 185.019 154.142 184.085C154.558 183.772 155.076 183.461 155.492 183.047C156.634 182.007 157.671 180.659 158.502 179.207C159.332 177.753 159.954 175.988 160.267 174.223C160.577 172.459 160.681 170.903 160.577 169.449C160.577 169.242 160.474 168.931 160.474 168.515C160.474 168.308 160.37 168.101 160.37 167.894C160.37 167.788 160.37 167.684 160.37 167.581C160.267 167.063 160.37 166.647 160.577 166.44C160.784 166.233 160.994 166.129 161.201 165.92C161.408 165.712 161.615 165.505 161.822 165.402C162.238 164.985 162.549 164.675 162.862 164.364C164.21 162.91 166.182 160.835 165.351 158.863C165.248 158.552 165.041 158.343 164.834 158.032C163.9 156.995 162.965 155.853 162.135 154.816C160.681 153.051 159.539 151.39 159.022 150.352C158.916 149.832 158.812 149.211 158.709 148.587C158.605 147.966 158.502 147.136 158.398 146.305C158.295 145.474 158.191 144.644 158.088 143.813C157.878 142.465 157.671 141.114 157.464 140.18C157.154 138.832 156.841 137.587 156.53 136.443C156.323 135.822 156.219 135.302 156.01 134.679C155.803 134.161 155.699 133.537 155.492 133.02C156.01 130.528 156.841 125.34 155.285 121.187C153.831 117.036 149.471 115.895 147.396 115.685C147.292 115.064 147.189 114.544 146.982 113.923C146.774 113.403 146.461 112.779 146.047 112.262C145.217 111.224 143.972 110.29 142.104 109.666C139.198 108.629 137.016 108.629 135.358 108.939C134.734 109.043 134.111 109.356 133.593 109.563C133.383 109.666 133.073 109.873 132.866 109.977C131.101 111.12 130.581 112.779 130.581 112.779C127.675 110.911 125.186 110.29 123.214 110.393C117.296 110.6 115.324 117.139 115.324 117.139C113.769 117.139 112.418 117.243 111.277 117.346C110.863 117.346 110.55 117.45 110.136 117.553C109.929 117.346 109.719 117.139 109.512 116.829C109.616 116.619 109.616 116.516 109.616 116.309C109.616 116.102 109.616 115.998 109.616 115.791C109.616 115.582 109.512 115.478 109.409 115.375C109.305 115.271 109.202 115.064 108.995 114.961C108.682 114.751 108.267 114.647 107.851 114.647C108.995 114.337 110.032 113.817 110.863 113.196C111.173 112.989 111.484 112.779 111.693 112.572L111.797 112.469C112.004 112.262 112.211 112.055 112.418 111.742C112.522 111.638 112.522 111.535 112.628 111.431C112.835 111.224 112.938 111.014 113.145 110.807C113.249 110.6 113.352 110.497 113.456 110.29C113.559 110.08 113.665 109.977 113.769 109.77C113.976 109.459 114.079 109.043 114.183 108.732C114.599 107.591 114.703 106.346 114.599 105.099C114.493 104.478 114.39 103.958 114.079 103.334C113.976 103.024 113.769 102.817 113.665 102.504C113.559 102.193 113.352 101.986 113.145 101.779C112.315 100.845 111.07 100.428 109.825 100.325C108.891 100.325 108.06 100.532 107.333 101.052C107.126 101.259 106.917 101.466 106.71 101.675C107.851 100.221 108.06 98.1459 107.54 96.3811C107.437 95.9671 107.23 95.447 107.023 95.0329C106.917 94.8234 106.813 94.6164 106.606 94.4093C105.879 93.4752 104.945 92.6445 103.804 92.334C103.077 92.334 102.663 92.2305 102.143 92.2305C101.208 92.2305 100.274 92.334 99.4461 92.7481C98.5119 93.0611 97.7848 93.5787 97.0577 94.3058C96.8507 94.5128 96.7472 94.6164 96.5401 94.8234C95.813 95.7575 95.293 96.7952 95.1894 98.0424C94.6718 96.7952 93.7377 95.654 92.6976 94.8234C91.8694 94.0988 90.8293 93.5787 89.7916 93.1646C89.1705 92.9551 88.4434 92.8516 87.8198 92.8516C87.4057 92.8516 86.8856 92.8516 86.4716 92.9551C84.7068 93.3717 83.2526 94.7199 82.4244 96.3811C82.2149 96.7952 82.1114 97.2118 82.0079 97.6258C81.9044 98.0424 81.9044 98.4565 81.9044 98.9765C81.9044 99.8072 82.2149 100.638 82.735 101.362C80.4526 99.7036 77.0266 99.9107 74.9513 101.675C74.6382 101.882 74.3277 102.193 74.1206 102.504C73.083 103.751 72.7699 105.412 72.9794 107.071C73.1865 108.629 73.9136 110.186 75.1583 111.224C72.7699 111.014 70.4876 113.196 70.5911 115.582C70.5911 116.619 71.1112 117.657 71.8358 118.384C72.0453 118.591 72.2523 118.697 72.4594 118.904C73.083 119.318 73.9136 119.631 74.6382 119.631C74.3277 120.565 74.2242 121.603 74.4312 122.537C74.7418 124.196 75.6759 125.65 77.1301 126.481C77.4407 126.688 77.7537 126.791 78.0643 126.895C80.3466 127.622 83.0455 126.895 84.4997 124.923C84.2927 126.064 84.4997 127.208 85.0173 128.246C85.1209 128.453 85.2269 128.556 85.3304 128.763C85.6409 129.283 86.055 129.697 86.4716 130.114C87.3022 130.839 88.4434 131.359 89.5846 131.462C90.0011 131.462 90.3117 131.462 90.7257 131.359C92.18 131.048 93.5282 130.01 94.3588 128.763C94.9824 127.829 95.293 126.584 95.1894 125.443C95.5 125.547 95.813 125.65 96.1236 125.754C96.0201 125.961 96.0201 126.274 96.0201 126.481C96.0201 126.481 96.0201 126.481 96.0201 126.584C96.0201 126.688 96.0201 126.791 96.1236 126.895V126.998C96.1236 127.102 96.2271 127.208 96.3306 127.311C96.6436 127.726 97.1612 128.036 97.5778 128.036C97.8884 128.036 98.1989 127.933 98.4059 127.726C98.4059 127.726 98.6155 127.622 98.8225 127.415C99.2366 128.036 99.7566 128.556 100.171 129.076C99.1331 130.321 98.1989 132.5 97.7848 134.992C97.4718 136.443 97.3683 138.105 97.3683 139.766C97.3683 140.907 97.6813 142.152 97.7848 143.606C97.7848 144.02 97.8884 144.333 97.8884 144.747C97.9919 145.474 98.0954 146.305 98.3024 147.136C98.6155 148.794 98.926 150.559 99.2366 152.324C99.9637 155.957 100.794 159.694 101.521 163.12C102.039 165.298 102.456 167.27 102.973 169.138C103.183 169.866 103.286 170.487 103.493 171.214C103.597 171.524 103.597 171.837 103.7 172.148C103.804 172.772 104.011 173.289 104.117 173.809C104.531 175.47 104.841 176.508 104.841 176.508C105.258 176.612 105.672 176.715 106.192 176.715C105.672 179.414 104.945 182.527 104.324 185.64C91.1423 187.198 67.6851 217.401 60.0049 243.141C55.4377 258.501 25.2345 342.468 16.1026 367.897C15.9966 368.104 16.1026 368.415 16.2061 368.624C16.3096 368.831 16.6202 368.935 16.8272 368.935H147.396C147.603 368.935 147.812 368.831 147.916 368.728C148.019 368.624 148.123 368.415 148.123 368.208C148.019 365.509 147.916 361.876 147.812 357.518C147.709 353.158 147.603 348.073 147.499 342.779H460.842V331.985H449.632C449.738 331.882 449.842 331.778 449.945 331.778C450.049 331.675 450.256 331.465 450.359 331.258C451.397 329.807 451.501 327.835 450.672 326.174C450.566 325.966 450.463 325.861 450.359 325.653C450.776 324.719 451.087 323.785 451.19 322.747L461.569 238.677Z" fill="white"/>
</g>
<path d="M348.546 207.436H446.005C454.412 207.436 461.262 200.586 461.262 192.179C461.262 183.771 454.412 176.922 446.005 176.922H348.546C340.139 176.922 333.289 183.771 333.289 192.179C333.289 200.586 340.035 207.436 348.546 207.436Z" fill="white"/>
<path d="M453.268 230.063H297.894C293.12 230.063 288.866 233.903 288.242 238.678L277.863 322.645C277.76 323.475 277.76 324.203 277.863 324.927H254.199C254.303 323.682 253.369 322.231 253.369 322.231C253.369 322.231 255.86 325.551 258.456 324.099C261.049 322.645 258.973 319.012 258.973 319.012C258.973 319.012 262.917 319.842 262.71 316.313C262.503 312.786 256.067 304.378 252.851 300.849C249.735 297.423 245.481 298.253 245.481 298.253L208.636 302.303L199.605 300.745C208.325 294.726 256.171 261.928 258.559 260.994C261.256 259.956 264.058 257.568 266.55 254.662C269.042 251.756 274.127 242.831 277.343 238.678C280.562 234.527 288.657 227.364 289.8 226.016C290.941 224.668 290.214 222.59 290.214 222.59C290.214 222.59 294.054 217.609 294.574 215.741C295.092 213.872 293.017 213.665 293.017 213.665C293.017 213.665 296.546 209.929 294.678 208.267C292.913 206.606 287.828 209.825 287.828 209.825C287.828 209.825 290.838 206.399 289.177 203.39C287.515 200.484 265.926 214.703 265.926 214.703C265.926 214.703 266.24 204.013 263.644 204.324C261.049 204.634 259.597 215.844 255.757 220.618C251.917 225.393 248.077 236.188 248.077 236.188C245.688 241.897 243.406 242.831 243.406 242.831L158.298 276.771L151.759 260.37L147.191 265.351C146.361 249.057 143.765 228.612 138.888 213.872C137.226 208.787 135.671 206.296 134.737 205.154C135.361 200.691 135.982 195.502 136.605 190.728C136.916 188.443 137.123 186.161 137.332 184.189C138.577 184.707 139.718 185.123 140.756 185.33C145.427 186.264 151.032 186.264 154.768 182.942C157.156 180.763 158.608 177.754 159.232 174.537C159.542 173.083 159.646 171.525 159.542 169.97C159.439 168.932 158.815 167.167 159.749 166.337C160.373 165.817 161.204 165.092 161.931 164.262C163.799 162.29 165.251 160.525 163.903 159.071C161.411 156.372 158.815 152.845 157.881 151.183C157.467 148.899 156.843 143.607 156.222 140.908C155.702 138.729 155.182 136.757 154.561 134.992C152.796 135.72 150.824 136.134 148.54 136.03C135.982 135.823 133.386 135.51 132.972 135.407C133.179 136.134 134.426 141.842 132.662 147.447C130.17 145.993 126.537 144.955 123.007 148.278C118.546 152.532 119.167 157.723 121.866 161.356C118.753 166.96 112.628 176.196 107.026 177.13C106.402 180.246 105.675 183.669 104.948 186.992C92.3899 187.613 68.5186 217.816 60.7349 243.972C56.1677 259.332 26.068 343.092 16.8301 368.728H147.398C147.191 360.321 146.777 346.102 146.568 332.09C171.583 332.297 197.115 332.504 208.115 332.504L447.56 332.61C448.39 332.61 449.221 332.193 449.741 331.363V331.259C450.882 329.701 450.569 327.523 449.428 326.278C449.948 325.344 450.259 324.306 450.362 323.165L460.741 239.198C461.365 233.903 458.042 230.063 453.268 230.063ZM345.119 277.912H388.711C388.815 277.912 388.918 278.015 389.022 278.015C389.128 278.119 389.128 278.222 389.128 278.326L384.871 313.096C384.871 313.303 384.664 313.51 384.457 313.51H340.865C340.759 313.51 340.656 313.407 340.552 313.407C340.449 313.303 340.449 313.2 340.449 313.096L344.705 278.326C344.705 278.015 344.912 277.912 345.119 277.912ZM302.255 242.831C302.255 242.621 302.462 242.414 302.669 242.414H342.733C342.837 242.414 343.044 242.518 343.044 242.621C343.148 242.727 343.148 242.831 343.148 243.038L338.27 282.997C338.27 283.204 338.063 283.413 337.853 283.413H297.791C297.687 283.413 297.48 283.307 297.48 283.204C297.377 283.1 297.377 282.997 297.377 282.79L302.255 242.831ZM348.129 307.802C348.232 307.906 348.232 307.906 348.129 307.802C348.232 307.906 348.232 307.906 348.232 307.906C348.232 307.906 348.232 307.906 348.336 307.906C348.442 308.011 348.649 308.011 348.752 308.011H377.918C378.332 308.011 378.643 307.698 378.749 307.284L381.655 284.034C381.655 284.034 381.655 284.034 381.655 283.931V283.827C381.655 283.62 381.551 283.517 381.445 283.413C381.341 283.204 381.031 283.1 380.824 283.1H351.658C351.244 283.1 351.035 283.307 350.931 283.724V283.827L348.025 307.077C347.922 307.388 348.025 307.595 348.129 307.802ZM349.997 307.077L364.633 296.592L376.464 307.077H349.997ZM377.814 306.764L365.567 295.971L380.407 285.281L377.814 306.764ZM379.993 284.347L364.84 295.244L352.385 284.347H379.993ZM351.762 285.072L363.906 295.868L349.166 306.454L351.762 285.072ZM325.088 268.05C328.305 265.041 328.721 260.267 326.022 257.464C323.323 254.662 318.549 254.765 315.333 257.777C312.114 260.787 311.7 265.561 314.399 268.363C317.095 271.166 321.872 271.062 325.088 268.05ZM318.756 259.643L323.947 262.965L317.926 266.182L318.756 259.643ZM334.013 192.18C334.013 184.189 340.552 177.65 348.545 177.65H446.005C453.995 177.65 460.534 184.189 460.534 192.18C460.534 200.173 453.995 206.712 446.005 206.712H348.545C340.449 206.606 334.013 200.173 334.013 192.18ZM190.266 131.879C190.266 131.463 190.576 131.049 191.094 131.049H316.577C316.991 131.049 317.408 131.359 317.408 131.879C317.408 132.397 317.095 132.708 316.577 132.708H190.99C190.576 132.708 190.266 132.294 190.266 131.879ZM237.488 145.786L217.146 157.306L237.488 167.685C237.905 167.895 238.008 168.309 237.801 168.723C237.698 169.036 237.385 169.139 237.074 169.139C236.97 169.139 236.867 169.139 236.763 169.036L215.175 157.93C214.967 157.826 214.758 157.515 214.758 157.202C214.758 156.892 214.862 156.685 215.175 156.475L236.763 144.23C237.177 144.021 237.594 144.124 237.801 144.541C238.008 145.059 237.905 145.579 237.488 145.786ZM269.767 167.685L290.111 157.306L269.767 145.786C269.353 145.579 269.249 145.059 269.456 144.748C269.663 144.334 270.183 144.23 270.494 144.437L292.083 156.685C292.29 156.788 292.497 157.099 292.497 157.409C292.497 157.723 292.29 157.93 292.083 158.137L270.39 169.139C270.287 169.243 270.183 169.243 270.08 169.243C269.767 169.243 269.56 169.139 269.353 168.829C269.145 168.412 269.353 167.895 269.767 167.685ZM256.795 146.099L245.481 169.657C245.378 169.97 245.065 170.073 244.754 170.073C244.651 170.073 244.547 170.073 244.444 169.97C244.027 169.763 243.924 169.346 244.027 168.932L255.34 145.372C255.547 144.955 255.964 144.852 256.378 144.955C256.795 145.268 257.002 145.682 256.795 146.099ZM251.604 169.036L262.917 145.475C263.124 145.059 263.541 144.955 263.955 145.059C264.371 145.268 264.475 145.682 264.371 146.099L253.058 169.657C252.954 169.97 252.641 170.073 252.331 170.073C252.227 170.073 252.124 170.073 252.02 169.97C251.5 169.866 251.397 169.346 251.604 169.036Z" fill="white"/>
<mask id="mask1_291_2689" style="mask-type:luminance" maskUnits="userSpaceOnUse" x="16" y="92" width="446" height="277">
<path d="M16 92H461.681V369H16V92Z" fill="white"/>
</mask>
<g mask="url(#mask1_291_2689)">
<path d="M461.571 238.675C461.882 236.185 461.157 233.797 459.599 232.032C458.042 230.267 455.759 229.23 453.267 229.23H297.894C292.809 229.23 288.138 233.383 287.514 238.468L277.135 322.435C277.032 322.952 277.032 323.472 277.135 323.99H259.803C260.217 323.576 260.427 323.162 260.634 322.642C260.944 321.604 260.737 320.463 260.427 319.632C261.151 319.632 262.085 319.425 262.709 318.802C263.436 318.178 263.747 317.244 263.747 315.999C263.54 312.056 256.794 303.441 253.678 300.119C250.255 296.382 245.791 297.213 245.687 297.213L208.945 301.26L201.889 300.015C224.929 284.135 257.311 262.132 259.076 261.405C262.398 260.16 265.408 257.15 267.38 254.866C268.728 253.31 270.806 250.091 272.881 246.771C274.749 243.865 276.618 240.856 278.173 238.884C280.251 236.185 284.608 232.032 287.411 229.333C288.969 227.778 290.11 226.74 290.524 226.22C291.564 224.975 291.355 223.211 291.147 222.484C292.082 221.342 294.988 217.399 295.404 215.634C295.715 214.7 295.404 213.973 295.091 213.662C294.884 213.352 294.574 213.142 294.364 213.039C295.091 212.104 296.129 210.446 296.025 209.095C296.025 208.471 295.715 207.85 295.298 207.434C294.053 206.293 291.875 206.813 290.11 207.537C290.63 206.189 290.94 204.424 290.006 202.763C289.903 202.556 289.59 202.142 288.969 202.038C285.439 201.208 271.74 209.822 266.86 212.935C266.86 210.236 266.653 205.151 265.097 203.697C264.681 203.387 264.267 203.18 263.747 203.283C261.982 203.49 260.944 206.5 259.493 210.549C258.349 213.869 257.104 217.606 255.236 219.785C251.292 224.559 247.556 235.042 247.452 235.458C245.273 240.646 243.196 241.687 243.196 241.687L158.814 275.313L155.598 267.217L158.607 266.285L140.962 217.192C140.548 215.738 140.134 214.389 139.717 213.039C138.16 208.264 136.708 205.669 135.67 204.321C136.188 200.688 136.811 196.12 137.435 190.205C137.642 188.233 137.849 186.365 138.056 184.704C138.99 185.017 139.821 185.327 140.651 185.431C147.087 186.676 152.068 185.847 155.391 182.835C157.777 180.76 159.438 177.647 160.165 174.014C160.476 172.249 160.579 170.694 160.476 169.24C160.476 169.033 160.372 168.72 160.372 168.306C160.269 167.579 160.062 166.644 160.372 166.23C161.099 165.607 162.033 164.673 162.654 164.051C164.212 162.39 166.601 159.898 164.626 157.719C162.137 155.021 159.645 151.595 158.711 150.039C158.504 149.105 158.297 147.547 158.09 145.99C157.777 143.707 157.466 141.425 157.05 139.867C156.428 137.168 155.805 134.886 155.078 132.811C155.598 130.319 156.428 125.128 154.871 120.977C153.419 116.827 149.059 115.683 146.983 115.476C146.67 113.09 145.426 110.805 141.689 109.56C132.451 106.344 130.169 112.673 130.169 112.673C118.442 105.41 114.912 117.034 114.912 117.034C112.837 117.034 111.175 117.137 109.721 117.448C109.514 117.241 109.307 117.034 109.1 116.723C109.411 116.099 109.204 115.269 108.58 114.855C108.269 114.645 107.853 114.542 107.439 114.542C110.345 113.711 112.94 111.532 113.978 108.626C114.808 106.344 114.601 103.542 112.94 101.777C111.279 100.012 108.062 99.8049 106.505 101.673C108.893 98.6613 107.232 93.5765 103.599 92.3318C99.9656 91.0846 95.7114 93.993 95.2949 97.8331C93.7396 94.5106 90.1066 92.0187 86.577 92.8494C83.0475 93.5765 80.6616 98.3507 82.8405 101.257C80.2451 99.2849 76.1979 99.9084 74.2261 102.398C72.2543 104.993 72.7719 109.04 75.2638 111.012C72.8779 110.805 70.593 112.986 70.6966 115.269C70.8001 117.344 72.6684 119.212 74.7437 119.316C73.8096 121.808 74.9532 124.921 77.2356 126.166C79.6239 127.516 82.944 126.789 84.6052 124.61C83.9816 127.723 86.577 130.942 89.69 131.046C92.8055 131.149 95.7114 128.14 95.3984 125.024C95.7114 125.128 96.022 125.234 96.3326 125.337C96.1255 125.855 96.1255 126.375 96.4361 126.893C96.7491 127.309 97.2667 127.62 97.6833 127.62C97.9938 127.62 98.3044 127.516 98.5139 127.309C98.5139 127.309 98.7209 127.206 98.928 126.996C99.342 127.62 99.8621 128.14 100.276 128.657C98.5139 130.733 97.3702 134.886 97.3702 139.347C97.3702 140.491 97.6833 141.735 97.7868 143.187C99.2385 155.021 104.843 175.986 104.843 175.986C105.26 176.089 105.674 176.193 106.194 176.193C105.674 179.412 104.947 182.525 104.326 185.638C91.1442 187.196 67.6871 217.399 60.0069 243.138C55.4397 258.499 25.2365 342.466 16.1045 367.895C15.9985 368.102 16.1045 368.412 16.208 368.622C16.3115 368.829 16.6221 368.932 16.8291 368.932H147.398C147.605 368.932 147.814 368.829 147.918 368.725C148.021 368.622 148.125 368.412 148.125 368.205C147.918 362.807 147.711 353.363 147.501 342.776H460.844V331.983H449.634C449.947 331.776 450.154 331.463 450.361 331.153C451.399 329.698 451.503 327.727 450.674 326.068C450.568 325.858 450.465 325.755 450.361 325.548C450.778 324.614 451.089 323.679 451.192 322.642L461.571 238.675Z" fill="white"/>
</g>
<path d="M348.543 207.436H446.002C454.41 207.436 461.259 200.586 461.259 192.179C461.259 183.771 454.41 176.922 446.002 176.922H348.543C340.136 176.922 333.286 183.771 333.286 192.179C333.18 200.586 340.032 207.436 348.543 207.436Z" fill="white"/>
<path d="M190.991 132.706V178.062C190.991 181.902 194.106 185.018 197.946 185.018H309.625C313.465 185.018 316.578 181.902 316.578 178.062V132.706C316.992 132.706 317.409 132.395 317.409 131.877C317.409 131.357 317.095 131.047 316.578 131.047V124.818C316.578 120.978 313.465 117.865 309.625 117.865H197.946C194.106 117.865 190.991 120.978 190.991 124.818V131.047C190.577 131.047 190.16 131.357 190.16 131.877C190.16 132.395 190.577 132.706 190.991 132.706Z" fill="white"/>
<path d="M343.15 242.621C343.047 242.518 342.943 242.414 342.839 242.414H302.775C302.568 242.414 302.361 242.621 302.361 242.831L297.483 282.789C297.483 282.893 297.483 283.1 297.586 283.203C297.69 283.307 297.793 283.413 297.897 283.413H337.856C338.065 283.413 338.272 283.203 338.272 282.996L343.15 243.038C343.254 242.831 343.254 242.727 343.15 242.621ZM325.091 268.05C321.874 271.062 317.097 271.166 314.401 268.363C311.702 265.561 312.116 260.786 315.335 257.777C318.552 254.765 323.326 254.661 326.025 257.464C328.724 260.266 328.307 264.937 325.091 268.05ZM324.053 262.965L318.032 266.182L318.862 259.749L324.053 262.965ZM145.949 331.883H460.847V342.676H145.949V331.883Z" fill="#049155"/>
<path d="M364.736 296.592L376.567 307.077H350.101L364.736 296.592ZM379.993 284.347H352.385L364.736 295.244L379.993 284.347ZM351.762 285.072L349.166 306.454L363.906 295.867L351.762 285.072ZM377.814 306.764L380.407 285.281L365.567 295.971L377.814 306.764ZM389.231 278.429L384.975 313.2C384.975 313.407 384.767 313.614 384.56 313.614H340.969C340.865 313.614 340.759 313.51 340.656 313.51C340.552 313.407 340.552 313.303 340.552 313.2L344.809 278.429C344.809 278.222 345.016 278.015 345.223 278.015H388.815C388.918 278.015 389.022 278.119 389.128 278.119C389.231 278.119 389.231 278.222 389.231 278.429ZM381.654 284.241C381.654 284.138 381.654 284.138 381.654 284.241C381.654 284.138 381.654 284.138 381.654 284.034C381.654 283.827 381.551 283.724 381.445 283.62C381.341 283.413 381.031 283.307 380.824 283.307H351.658C351.244 283.307 351.035 283.517 350.931 283.931V284.034L348.025 307.284C348.025 307.491 348.025 307.595 348.129 307.802V307.905C348.129 307.905 348.232 307.905 348.232 308.011C348.232 308.011 348.232 308.011 348.336 308.011C348.442 308.115 348.649 308.115 348.752 308.115H377.918C378.332 308.115 378.643 307.802 378.749 307.388L381.654 284.241ZM190.99 131.152H316.474V124.924C316.474 121.084 313.361 117.971 309.518 117.971H197.946C194.106 117.971 190.99 121.084 190.99 124.924V131.152ZM316.474 132.708V178.064C316.474 181.904 313.361 185.02 309.518 185.02H197.946C194.106 185.02 190.99 181.904 190.99 178.064V132.708H316.474ZM237.488 167.685L217.146 157.306L237.488 145.786C237.905 145.579 238.008 145.058 237.801 144.748C237.594 144.437 237.074 144.23 236.763 144.437L215.174 156.685C214.967 156.788 214.758 157.099 214.758 157.409C214.758 157.722 214.967 157.929 215.174 158.136L236.763 169.243C236.867 169.346 236.97 169.346 237.074 169.346C237.384 169.346 237.594 169.243 237.801 168.932C238.008 168.412 237.905 167.894 237.488 167.685ZM245.585 169.657L256.898 146.099C257.105 145.682 256.898 145.268 256.481 145.058C256.067 144.851 255.653 145.058 255.444 145.475L244.131 169.036C243.923 169.45 244.131 169.866 244.547 170.073C244.651 170.177 244.754 170.177 244.858 170.177C245.171 170.073 245.378 169.97 245.585 169.657ZM263.851 145.058C263.437 144.851 263.02 145.058 262.813 145.475L251.604 169.036C251.397 169.45 251.604 169.866 252.02 170.073C252.124 170.177 252.227 170.177 252.331 170.177C252.641 170.177 252.851 169.97 253.058 169.763L264.371 146.202C264.475 145.682 264.268 145.268 263.851 145.058ZM292.497 157.409C292.497 157.099 292.393 156.892 292.083 156.685L270.494 144.437C270.08 144.23 269.663 144.334 269.456 144.748C269.249 145.164 269.352 145.579 269.767 145.786L290.111 157.306L269.767 167.685C269.352 167.894 269.249 168.309 269.456 168.723C269.56 169.036 269.873 169.139 270.183 169.139C270.287 169.139 270.39 169.139 270.494 169.036L292.083 157.929C292.29 157.929 292.497 157.619 292.497 157.409Z" fill="#1A2E35"/>
<mask id="mask2_291_2689" style="mask-type:luminance" maskUnits="userSpaceOnUse" x="16" y="92" width="446" height="277">
<path d="M16 92H461.681V369H16V92Z" fill="white"/>
</mask>
<g mask="url(#mask2_291_2689)">
<path d="M387.047 242.518L356.326 242.207C356.016 242.207 355.806 242.414 355.806 242.621L351.759 273.345C351.759 273.448 351.759 273.655 351.863 273.759C351.966 273.862 352.07 273.968 352.279 273.968L383 274.279C383.207 274.279 383.52 274.072 383.52 273.862L387.567 243.141C387.567 243.038 387.567 242.831 387.464 242.727C387.36 242.621 387.151 242.518 387.047 242.518ZM356.74 243.348L386.426 243.661L385.906 247.916H356.119L356.74 243.348ZM382.482 273.241L352.797 272.931L356.016 248.85H385.802L382.482 273.241ZM336.502 286.837H296.336C296.023 286.837 295.816 287.044 295.816 287.253L292.703 312.68C292.703 312.786 292.703 312.993 292.807 313.096C292.91 313.2 293.014 313.303 293.221 313.303H333.286C333.596 313.303 333.803 313.096 333.803 312.889L336.916 287.46C336.916 287.357 336.916 287.15 336.813 287.044C336.709 286.837 336.606 286.837 336.502 286.837ZM332.869 312.266H293.844L296.854 287.874H335.879L332.869 312.266ZM444.444 241.897H399.918C399.608 241.897 399.398 242.104 399.398 242.311L390.68 313.407C390.68 313.51 390.68 313.72 390.784 313.823C390.887 313.927 390.993 314.03 391.2 314.03H435.726C436.037 314.03 436.244 313.823 436.244 313.614L444.964 242.518C444.964 242.414 444.964 242.207 444.858 242.104C444.755 242 444.548 241.897 444.444 241.897ZM435.206 312.993H391.718L400.332 242.934H443.82L435.206 312.993ZM461.569 238.678C461.88 236.188 461.155 233.8 459.597 232.035C458.04 230.27 455.757 229.233 453.265 229.233H297.892C292.807 229.233 288.136 233.386 287.512 238.471L277.133 322.438C277.03 322.955 277.03 323.475 277.133 323.993H259.801C260.215 323.579 260.425 323.165 260.632 322.645C260.942 321.607 260.735 320.466 260.425 319.635C261.149 319.635 262.084 319.428 262.707 318.805C263.434 318.181 263.745 317.247 263.745 316.002C263.538 312.059 256.792 303.444 253.676 300.122C250.253 296.385 245.789 297.216 245.685 297.216L208.943 301.263L201.887 300.018C224.927 284.138 257.309 262.135 259.074 261.408C262.397 260.163 265.406 257.154 267.378 254.869C268.726 253.313 270.804 250.094 272.879 246.774C274.747 243.868 276.616 240.859 278.171 238.887C280.249 236.188 284.607 232.035 287.409 229.336C288.967 227.781 290.108 226.743 290.522 226.223C291.562 224.979 291.353 223.214 291.146 222.487C292.08 221.345 294.986 217.402 295.402 215.637C295.713 214.703 295.402 213.976 295.089 213.665C294.882 213.355 294.572 213.145 294.362 213.042C295.089 212.108 296.127 210.449 296.023 209.098C296.023 208.474 295.713 207.853 295.296 207.437C294.052 206.296 291.873 206.816 290.108 207.54C290.628 206.192 290.939 204.427 290.004 202.766C289.901 202.559 289.588 202.145 288.967 202.041C285.437 201.211 271.738 209.825 266.858 212.938C266.858 210.239 266.651 205.154 265.095 203.7C264.679 203.39 264.265 203.183 263.745 203.286C261.98 203.493 260.942 206.503 259.491 210.552C258.347 213.872 257.102 217.609 255.234 219.788C251.29 224.562 247.554 235.045 247.45 235.461C245.271 240.65 243.194 241.69 243.194 241.69L158.812 275.316L155.596 267.22L154.142 267.636L157.775 276.561C157.982 276.978 158.398 277.185 158.812 276.978L243.921 243.038C244.234 242.934 246.62 241.793 249.111 235.979C249.111 235.875 252.952 225.289 256.688 220.722C258.66 218.336 260.008 214.392 261.149 210.966C261.98 208.371 263.227 204.844 264.055 204.738C264.055 204.738 264.161 204.738 264.161 204.844C265.199 205.778 265.51 210.863 265.406 214.183C265.095 214.91 263.745 218.025 263.538 221.76C263.538 222.176 263.538 222.903 263.538 223.628C263.641 230.063 263.745 245.217 249.526 251.342C249.111 251.549 248.902 251.963 249.111 252.379C249.215 252.69 249.526 252.897 249.836 252.897C249.942 252.897 250.046 252.897 250.149 252.793C265.199 246.254 265.095 229.856 265.095 223.734C265.095 223.007 265.095 222.383 265.095 221.969C265.303 218.647 266.444 215.741 266.754 215.014C278.898 207.023 287.616 202.872 288.76 203.597C290.108 205.882 287.826 208.788 287.512 209.098L271.321 223.007C269.973 221.866 269.039 221.242 268.936 221.138C268.519 220.931 268.105 221.035 267.898 221.449C267.688 221.866 267.792 222.28 268.208 222.487C268.312 222.487 276.303 227.261 276.823 238.16C275.369 240.132 273.5 243.038 271.632 245.84C269.66 249.057 267.481 252.276 266.237 253.831C263.538 256.947 260.839 259.125 258.556 259.956C256.065 260.89 210.294 292.338 199.705 299.604L147.603 290.366C147.709 289.743 147.709 289.225 147.812 288.912C149.887 278.119 147.916 237.744 139.922 213.042C138.367 208.267 136.913 205.672 135.875 204.324C136.395 200.691 137.016 196.124 137.64 190.208C137.847 188.236 138.054 186.368 138.264 184.707C139.198 185.02 140.026 185.33 140.857 185.434C147.292 186.679 152.273 185.85 155.596 182.838C157.982 180.763 159.643 177.65 160.37 174.017C160.681 172.252 160.784 170.697 160.681 169.243C160.681 169.036 160.577 168.723 160.577 168.309C160.474 167.582 160.267 166.647 160.577 166.233C161.304 165.61 162.238 164.676 162.862 164.055C164.417 162.393 166.806 159.901 164.834 157.723C162.342 155.024 159.85 151.598 158.916 150.042C158.709 149.108 158.502 147.55 158.295 145.993C157.982 143.71 157.671 141.428 157.257 139.87C156.634 137.171 156.01 134.889 155.285 132.814C155.803 130.322 156.634 125.131 155.076 120.98C153.624 116.83 149.264 115.686 147.189 115.479C146.878 113.093 145.631 110.808 141.894 109.564C132.659 106.347 130.374 112.677 130.374 112.677C118.647 105.413 115.117 117.037 115.117 117.037C113.042 117.037 111.38 117.14 109.929 117.451C109.409 116.83 108.785 116.206 108.267 115.582C107.957 115.272 107.747 114.961 107.437 114.648C110.446 113.924 113.145 111.639 114.183 108.733C115.014 106.451 114.806 103.648 113.145 101.883C111.484 100.119 108.267 99.9115 106.71 101.78C109.098 98.7703 107.437 93.6831 103.804 92.4383C100.171 91.1936 95.9165 94.0996 95.5 97.9397C93.9447 94.6172 90.3117 92.1278 86.7821 92.9559C83.2526 93.6831 80.8667 98.4573 83.0455 101.363C80.4526 99.3914 76.403 100.015 74.4312 102.504C72.4594 105.1 72.9794 109.149 75.4689 111.121C73.083 110.912 70.7981 113.093 70.9016 115.375C71.0076 117.451 72.8759 119.319 74.9513 119.423C74.0171 121.914 75.1583 125.027 77.4407 126.275C79.829 127.623 83.1491 126.896 84.8103 124.717C84.1867 127.83 86.7821 131.049 89.8951 131.152C93.0106 131.256 95.9165 128.246 95.606 125.131C96.4341 125.444 97.3683 125.651 98.3024 125.755C99.0295 126.792 99.8602 127.83 100.691 128.764C98.926 130.839 97.7848 134.992 97.7848 139.456C97.7848 140.597 98.0954 141.842 98.1989 143.296C99.6531 155.127 105.258 176.092 105.258 176.092C105.672 176.196 106.089 176.299 106.606 176.299C105.672 179.415 104.945 182.528 104.324 185.641C91.1423 187.199 67.6851 217.402 60.0049 243.141C55.4377 258.502 25.2345 342.469 16.1026 367.898C15.9966 368.105 16.1026 368.415 16.2061 368.625C16.3096 368.832 16.6202 368.936 16.8272 368.936H147.396C147.603 368.936 147.812 368.832 147.916 368.728C148.019 368.625 148.123 368.415 148.123 368.208C147.916 361.048 147.499 346.829 147.292 332.297C168.881 332.504 190.78 332.713 203.338 332.713C205.103 332.713 206.661 332.713 208.009 332.713L447.557 332.817C448.595 332.817 449.632 332.297 450.359 331.259C451.397 329.807 451.501 327.833 450.672 326.174C450.566 325.967 450.463 325.861 450.359 325.654C450.776 324.72 451.087 323.786 451.19 322.748L461.569 238.678ZM289.381 225.186C289.07 225.602 287.826 226.743 286.371 228.195C283.776 230.687 280.456 233.8 278.171 236.499C278.068 235.461 277.86 234.527 277.653 233.593L289.797 223.734C289.797 224.251 289.797 224.771 289.381 225.186ZM294.052 215.223C293.637 216.675 290.939 220.308 289.901 221.76L277.237 231.932C276.823 230.583 276.199 229.336 275.578 228.299L293.428 214.183C293.637 214.289 293.844 214.392 294.052 214.496C294.155 214.703 294.155 214.91 294.052 215.223ZM294.362 208.474C294.882 208.995 294.468 210.032 294.052 210.863C293.534 211.797 292.807 212.628 292.703 212.835L274.747 227.054C274.02 225.913 273.19 224.979 272.463 224.148L288.55 210.136C290.418 208.891 293.428 207.646 294.362 208.474ZM278.691 322.645L289.07 238.678C289.588 234.32 293.637 230.79 297.995 230.79H453.369C455.447 230.79 457.315 231.621 458.56 233.073C459.804 234.527 460.428 236.499 460.117 238.574L449.738 322.541C449.632 323.268 449.425 323.89 449.218 324.513C448.698 324.203 448.181 324.099 447.661 324.099H278.588C278.588 323.579 278.588 323.059 278.691 322.645ZM154.765 134.162C154.765 134.265 154.662 134.369 154.662 134.472C154.765 134.369 154.765 134.265 154.765 134.162ZM121.967 160.732C119.27 157.099 118.647 152.014 123.11 147.654C126.637 144.334 130.27 145.372 132.762 146.823C134.527 141.115 133.28 135.51 133.073 134.785C133.489 134.889 136.082 135.2 148.643 135.407C150.718 135.407 152.377 135.096 153.935 134.576C154.455 136.341 154.972 138.209 155.492 140.39C155.803 141.842 156.219 144.23 156.426 146.409C156.634 148.071 156.841 149.729 157.048 150.663C157.048 150.767 157.048 150.873 157.154 150.873C158.191 152.741 160.888 156.268 163.276 158.864C164.003 159.694 163.587 160.732 161.408 163.014C160.577 163.845 159.85 164.572 159.332 165.092C158.295 166.026 158.502 167.478 158.709 168.619C158.812 168.932 158.812 169.139 158.812 169.346C158.916 170.591 158.812 172.045 158.502 173.707C157.878 176.923 156.323 179.829 154.245 181.594C151.339 184.189 146.774 184.916 140.857 183.773C139.922 183.566 138.781 183.255 137.64 182.735C137.433 182.631 137.12 182.631 136.913 182.735C136.706 182.838 136.602 183.048 136.499 183.359C136.289 185.33 135.979 187.613 135.772 189.898C135.148 195.189 134.631 199.446 134.111 202.766L105.879 185.744C106.606 182.528 107.23 179.311 107.851 176.299C113.352 174.744 118.957 166.026 121.967 160.732ZM146.668 367.378H17.9708C27.5193 340.808 56.9955 258.815 61.4567 243.555C68.9298 218.232 92.9071 187.302 105.154 187.095L133.593 204.22C133.593 204.22 135.875 206.089 138.264 213.458C145.944 237.019 148.226 277.808 146.151 288.601C146.047 289.018 146.047 289.536 145.944 290.056L118.336 285.175L120.098 276.978L118.543 276.771L116.675 285.592C116.675 285.799 116.675 286.006 116.778 286.216C116.882 286.423 117.089 286.526 117.296 286.526L208.736 302.821C208.84 302.821 208.84 302.821 208.943 302.821L245.892 298.774C245.996 298.774 249.733 298.046 252.535 301.159C255.858 304.896 261.98 312.993 262.187 316.106C262.187 316.833 262.084 317.35 261.669 317.664C261.149 318.078 260.215 318.181 259.594 318.078C257.933 315.275 252.121 306.143 248.902 304.585C245.271 302.821 234.579 303.341 234.165 303.341C233.749 303.341 233.438 303.755 233.438 304.171C233.438 304.585 233.855 304.896 234.269 304.896C237.278 304.793 245.582 304.689 248.281 305.934C250.876 307.181 256.168 315.379 258.453 319.115V319.219C258.763 319.739 259.387 321.191 259.074 322.231C258.971 322.645 258.66 322.955 258.243 323.268C256.688 324.099 255.13 322.645 254.403 322.021C254.093 321.607 246.516 312.473 243.403 310.814C240.184 309.153 231.673 310.087 231.363 310.087C230.946 310.087 230.636 310.501 230.636 310.917C230.636 311.332 231.052 311.642 231.466 311.642C233.749 311.435 240.391 311.021 242.676 312.162C244.958 313.303 250.46 319.635 252.848 322.438C253.262 323.059 253.886 324.513 253.469 325.137C253.159 325.654 252.121 325.861 250.667 325.654C249.215 324.203 241.742 317.143 237.902 316.002C233.749 314.758 226.796 315.275 226.485 315.275C226.068 315.275 225.758 315.692 225.758 316.106C225.758 316.522 226.172 316.833 226.588 316.833C226.692 316.833 233.542 316.313 237.382 317.456C241.118 318.598 249.422 326.692 249.733 327.005C249.733 327.626 249.629 328.56 249.215 328.873C249.008 329.08 248.488 329.08 247.864 328.873C247.034 328.56 245.789 328.043 244.441 327.419C240.601 325.758 235.41 323.372 231.777 324.099C230.012 324.41 228.56 325.344 226.796 326.381C223.786 328.25 220.153 330.532 212.887 330.742C201.47 331.156 85.3304 329.807 84.1867 329.807C84.0832 329.807 75.1583 329.391 67.7887 321.193L67.6851 321.087C67.3746 320.777 59.2778 314.341 62.9109 300.122L70.6946 270.128L69.1393 269.919L61.4567 299.708C59.3813 307.698 60.9391 313.303 62.6003 316.729C64.2591 320.153 66.3369 321.918 66.751 322.231C74.5347 330.845 83.7726 331.259 84.1867 331.363C84.8103 331.363 114.806 331.676 145.84 331.986C146.047 345.375 146.358 358.66 146.668 367.378ZM449.011 330.221C448.595 330.742 448.077 331.156 447.453 331.156H221.398C223.993 330.221 225.965 329.08 227.626 328.043C229.184 327.108 230.532 326.174 232.09 325.967C235.306 325.344 240.184 327.523 243.817 329.184C245.271 329.807 246.413 330.325 247.347 330.636C248.798 331.156 249.629 330.742 250.149 330.325C250.98 329.598 251.187 328.353 251.187 327.523C252.848 327.523 253.989 327.108 254.61 326.174C254.716 326.071 254.82 325.861 254.82 325.758H447.453C448.388 325.758 449.011 326.588 449.115 326.901C449.738 327.626 449.842 329.08 449.011 330.221ZM348.543 207.437H446.002C454.409 207.437 461.259 200.587 461.259 192.18C461.259 183.773 454.409 176.923 446.002 176.923H348.543C340.135 176.923 333.286 183.773 333.286 192.18C333.18 200.587 340.032 207.437 348.543 207.437ZM348.543 178.377H446.002C453.578 178.377 459.701 184.5 459.701 192.076C459.701 199.653 453.578 205.778 446.002 205.778H348.543C340.966 205.778 334.841 199.653 334.841 192.076C334.737 184.603 340.966 178.377 348.543 178.377ZM344.806 196.851L349.477 192.18L344.806 187.509C344.493 187.199 344.493 186.679 344.806 186.368C345.117 186.057 345.637 186.057 345.947 186.368L350.618 191.039L355.289 186.368C355.599 186.057 356.119 186.057 356.43 186.368C356.74 186.679 356.74 187.199 356.43 187.509L351.759 192.18L356.43 196.851C356.74 197.161 356.74 197.681 356.43 197.992C356.326 198.095 356.119 198.201 355.91 198.201C355.703 198.201 355.496 198.095 355.392 197.992L350.721 193.321L346.051 197.992C345.947 198.095 345.74 198.201 345.533 198.201C345.324 198.201 345.117 198.095 345.013 197.992C344.493 197.578 344.493 197.058 344.806 196.851ZM148.019 149.729C148.746 148.588 149.367 149.005 149.887 149.522C150.302 150.042 150.615 150.767 150.615 151.494C150.718 152.428 150.615 153.779 149.471 153.882C147.916 154.089 147.189 151.08 148.019 149.729ZM142.414 144.124C142.207 143.814 142.311 143.296 142.621 143.087C147.603 139.663 152.273 141.739 152.483 141.842C152.897 142.049 153 142.466 152.897 142.88C152.69 143.296 152.273 143.4 151.859 143.296C151.652 143.19 147.709 141.532 143.452 144.437C143.348 144.541 143.141 144.541 143.038 144.541C142.828 144.437 142.621 144.334 142.414 144.124ZM155.492 171.942C155.803 171.735 156.323 171.735 156.53 172.149C156.737 172.459 156.737 172.979 156.323 173.186C154.869 174.224 153.311 174.537 151.963 174.537C149.887 174.537 148.33 173.81 148.226 173.707C147.812 173.497 147.709 173.083 147.812 172.669C148.019 172.252 148.433 172.149 148.85 172.252C148.953 172.356 152.483 174.017 155.492 171.942Z" fill="#1A2E35"/>
</g>
<path d="M363.386 254.038C366.398 254.038 366.915 259.537 369.2 261.509C371.482 263.483 373.661 259.227 377.501 259.85C380.511 260.368 381.342 267.323 381.342 267.323L355.395 267.114C355.395 267.217 359.339 254.142 363.386 254.038ZM371.793 255.907C372.52 256.631 373.765 256.631 374.699 255.801C375.53 254.973 375.737 253.725 375.012 252.895C374.285 252.064 373.04 252.17 372.106 252.998C371.275 253.829 371.066 255.18 371.793 255.907ZM307.963 308.527L317.926 293.79L323.947 303.129C324.051 303.235 324.154 303.339 324.258 303.339C324.361 303.339 324.568 303.339 324.568 303.235L331.211 297.007C331.42 296.8 331.42 296.59 331.211 296.383C331.004 296.176 330.797 296.176 330.59 296.383L324.361 302.301L318.342 292.856C318.239 292.75 318.135 292.646 317.926 292.646C317.822 292.646 317.615 292.75 317.512 292.856L307.65 307.489L300.697 296.176C300.593 295.969 300.283 295.865 300.073 296.072C299.866 296.176 299.763 296.487 299.97 296.696L307.236 308.63C307.339 308.734 307.443 308.837 307.65 308.837C307.756 308.734 307.963 308.734 307.963 308.527ZM308.17 308.63L317.926 294.101L323.844 303.339C323.947 303.442 324.051 303.546 324.258 303.649C324.465 303.649 324.568 303.649 324.672 303.546L331.314 297.317C331.42 297.214 331.524 297.11 331.524 296.903C331.524 296.8 331.42 296.59 331.314 296.487C331.107 296.28 330.693 296.28 330.486 296.487L324.361 302.301L318.342 292.959C318.239 292.75 318.029 292.646 317.926 292.646C317.719 292.646 317.512 292.75 317.408 292.856L307.653 307.386L300.8 296.176C300.593 295.865 300.283 295.865 299.97 295.969C299.866 296.072 299.763 296.176 299.659 296.28C299.659 296.383 299.659 296.593 299.763 296.696L307.029 308.63C307.132 308.837 307.339 308.943 307.547 308.943C307.86 308.837 307.963 308.837 308.17 308.63ZM300.593 296.176L307.547 307.489L307.653 307.696L317.719 292.856C317.719 292.75 317.822 292.75 317.926 292.75C318.029 292.75 318.135 292.75 318.239 292.856L324.361 302.508L330.693 296.487C330.797 296.383 331.004 296.383 331.107 296.487C331.211 296.59 331.211 296.59 331.211 296.696C331.211 296.8 331.211 296.903 331.107 296.903L324.465 303.129C324.361 303.235 324.258 303.235 324.258 303.235C324.154 303.235 324.051 303.129 324.051 303.129L317.926 293.581L307.86 308.423C307.756 308.527 307.756 308.527 307.547 308.527C307.443 308.527 307.339 308.423 307.236 308.423L299.97 296.487C299.97 296.383 299.866 296.383 299.97 296.28C299.97 296.176 300.076 296.176 300.076 296.072C300.076 296.072 300.179 296.072 300.283 296.072C300.49 296.072 300.593 296.072 300.593 296.176ZM438.218 252.481C438.218 252.274 438.011 252.064 437.701 252.064H403.241C403.034 252.064 402.723 252.274 402.723 252.481C402.723 252.688 402.93 252.895 403.241 252.895H437.804C438.011 252.895 438.218 252.688 438.218 252.481ZM437.494 258.293C437.494 258.086 437.284 257.878 436.974 257.878H402.413C402.203 257.878 401.893 258.086 401.893 258.293C401.893 258.5 402.1 258.707 402.413 258.707H436.974C437.284 258.813 437.494 258.603 437.494 258.293ZM436.767 264.104C436.767 263.897 436.56 263.69 436.247 263.69H401.686C401.479 263.69 401.166 263.897 401.166 264.104C401.166 264.312 401.375 264.521 401.686 264.521H436.247C436.56 264.625 436.767 264.418 436.767 264.104ZM436.04 270.02C436.04 269.813 435.833 269.606 435.522 269.606H400.959C400.752 269.606 400.441 269.813 400.441 270.02C400.441 270.229 400.648 270.436 400.959 270.436H435.522C435.833 270.436 436.04 270.229 436.04 270.02ZM435.312 275.834C435.312 275.625 435.105 275.418 434.795 275.418H400.232C400.024 275.418 399.714 275.625 399.714 275.834C399.714 276.041 399.921 276.248 400.232 276.248H434.795C435.105 276.352 435.312 276.041 435.312 275.834ZM416.319 281.646C416.319 281.437 416.112 281.23 415.801 281.23H399.61C399.401 281.23 399.09 281.437 399.09 281.646C399.09 281.853 399.297 282.06 399.61 282.06H415.801C416.112 282.164 416.319 281.957 416.319 281.646ZM415.594 287.562C415.594 287.355 415.385 287.148 415.074 287.148H398.883C398.676 287.148 398.363 287.355 398.363 287.562C398.363 287.769 398.573 287.976 398.883 287.976H415.074C415.385 287.976 415.594 287.769 415.594 287.562ZM414.867 293.374C414.867 293.167 414.66 292.959 414.347 292.959H398.156C397.949 292.959 397.639 293.167 397.639 293.374C397.639 293.581 397.846 293.79 398.156 293.79H414.347C414.66 293.79 414.867 293.581 414.867 293.374ZM414.14 299.185C414.14 298.978 413.933 298.771 413.62 298.771H397.429C397.222 298.771 396.911 298.978 396.911 299.185C396.911 299.393 397.118 299.602 397.429 299.602H413.62C413.933 299.706 414.14 299.499 414.14 299.185ZM413.413 305.101C413.413 304.894 413.206 304.687 412.895 304.687H396.704C396.495 304.687 396.184 304.894 396.184 305.101C396.184 305.31 396.391 305.517 396.704 305.517H412.895C413.206 305.517 413.413 305.31 413.413 305.101ZM431.785 305.101L434.691 281.333C434.691 281.23 434.691 281.023 434.588 280.919C434.482 280.816 434.378 280.712 434.275 280.712H418.811C418.604 280.712 418.394 280.919 418.394 281.126L415.488 304.894C415.488 304.997 415.488 305.207 415.594 305.31C415.698 305.414 415.801 305.517 415.905 305.517H431.265C431.472 305.517 431.682 305.31 431.785 305.101ZM419.121 281.75H433.654L430.851 304.583H416.319L419.121 281.75ZM141.069 217.193C145.53 233.071 147.815 253.725 148.333 269.295L158.712 266.283L141.069 217.193ZM98.5149 127.621C98.7219 127.414 104.327 123.677 108.894 117.138C109.412 116.411 109.205 115.477 108.477 114.959C107.75 114.439 106.816 114.646 106.299 115.373C102.042 121.392 96.7501 125.025 96.7501 125.025C96.023 125.545 95.8159 126.479 96.3335 127.207C96.6466 127.621 97.1642 127.931 97.5807 127.931C97.9948 127.828 98.3054 127.828 98.5149 127.621ZM66.5469 269.813L127.16 278.013L134.217 232.45C136.398 217.917 126.744 204.322 112.318 201.519C98.4089 198.924 84.8132 207.228 80.8696 220.72L66.5469 269.813Z" fill="#049155"/>
</svg>
