<svg width="1440" height="1463" viewBox="0 0 1440 1463" fill="none" xmlns="http://www.w3.org/2000/svg">
<line x1="-358" y1="562.7" x2="1082" y2="562.7" stroke="black" stroke-opacity="0.09" stroke-width="0.6"/>
<line x1="-358" y1="675.2" x2="1082" y2="675.2" stroke="black" stroke-opacity="0.09" stroke-width="0.6"/>
<line x1="-358" y1="787.7" x2="1082" y2="787.7" stroke="black" stroke-opacity="0.09" stroke-width="0.6"/>
<line x1="-358" y1="900.2" x2="1082" y2="900.2" stroke="black" stroke-opacity="0.09" stroke-width="0.6"/>
<line x1="-358" y1="1012.7" x2="1082" y2="1012.7" stroke="black" stroke-opacity="0.09" stroke-width="0.6"/>
<line x1="-358" y1="1125.2" x2="1082" y2="1125.2" stroke="black" stroke-opacity="0.09" stroke-width="0.6"/>
<line x1="-358" y1="1237.7" x2="1082" y2="1237.7" stroke="black" stroke-opacity="0.09" stroke-width="0.6"/>
<line x1="-358" y1="1350.2" x2="1082" y2="1350.2" stroke="black" stroke-opacity="0.09" stroke-width="0.6"/>
<line x1="-358" y1="1462.7" x2="1082" y2="1462.7" stroke="black" stroke-opacity="0.09" stroke-width="0.6"/>
<line x1="84.7771" y1="1463" x2="84.7772" y2="23" stroke="black" stroke-opacity="0.09" stroke-width="0.6"/>
<line x1="195.546" y1="1463" x2="195.546" y2="23" stroke="black" stroke-opacity="0.09" stroke-width="0.6"/>
<line x1="306.315" y1="1463" x2="306.315" y2="23" stroke="black" stroke-opacity="0.09" stroke-width="0.6"/>
<line x1="417.085" y1="1463" x2="417.085" y2="23" stroke="black" stroke-opacity="0.09" stroke-width="0.6"/>
<line x1="527.854" y1="1463" x2="527.854" y2="23" stroke="black" stroke-opacity="0.09" stroke-width="0.6"/>
<line x1="638.623" y1="1463" x2="638.623" y2="23" stroke="black" stroke-opacity="0.09" stroke-width="0.6"/>
<line x1="749.392" y1="1463" x2="749.392" y2="23" stroke="black" stroke-opacity="0.09" stroke-width="0.6"/>
<line x1="860.161" y1="1463" x2="860.161" y2="23" stroke="black" stroke-opacity="0.09" stroke-width="0.6"/>
<line x1="970.93" y1="1463" x2="970.931" y2="23" stroke="black" stroke-opacity="0.09" stroke-width="0.6"/>
<line x1="1081.7" y1="1463" x2="1081.7" y2="23" stroke="black" stroke-opacity="0.09" stroke-width="0.6"/>
<rect opacity="0.47" x="-25.5" y="675.5" width="110" height="112" fill="#F0F3FF" stroke="#B9B9B9"/>
<rect opacity="0.47" x="528.5" y="564.5" width="110" height="110" fill="#F0F3FF" stroke="#B9B9B9"/>
<rect opacity="0.47" x="860.5" y="788.5" width="110" height="111" fill="#F0F3FF" stroke="#B9B9B9"/>
<path d="M860 664L860 688" stroke="url(#paint0_linear_9_125)"/>
<path d="M872 676L848 676" stroke="url(#paint1_linear_9_125)"/>
<g opacity="0.75">
<path d="M1329 775L1329 799" stroke="url(#paint2_linear_9_125)"/>
<path d="M1341 787L1317 787" stroke="url(#paint3_linear_9_125)"/>
</g>
<path d="M110.5 100.5L110.5 124.5" stroke="url(#paint4_linear_9_125)"/>
<path d="M122.5 112.5L98.5 112.5" stroke="url(#paint5_linear_9_125)"/>
<defs>
<linearGradient id="paint0_linear_9_125" x1="860" y1="688" x2="860" y2="664" gradientUnits="userSpaceOnUse">
<stop stop-color="white" stop-opacity="0"/>
<stop offset="0.50284" stop-color="#00C670"/>
<stop offset="1" stop-color="white" stop-opacity="0"/>
</linearGradient>
<linearGradient id="paint1_linear_9_125" x1="848" y1="676" x2="872" y2="676" gradientUnits="userSpaceOnUse">
<stop stop-color="white" stop-opacity="0"/>
<stop offset="0.50284" stop-color="#00C670"/>
<stop offset="1" stop-color="white" stop-opacity="0"/>
</linearGradient>
<linearGradient id="paint2_linear_9_125" x1="1329" y1="799" x2="1329" y2="775" gradientUnits="userSpaceOnUse">
<stop stop-color="white" stop-opacity="0"/>
<stop offset="0.50284" stop-color="#4967FF"/>
<stop offset="1" stop-color="white" stop-opacity="0"/>
</linearGradient>
<linearGradient id="paint3_linear_9_125" x1="1317" y1="787" x2="1341" y2="787" gradientUnits="userSpaceOnUse">
<stop stop-color="white" stop-opacity="0"/>
<stop offset="0.50284" stop-color="#4967FF"/>
<stop offset="1" stop-color="white" stop-opacity="0"/>
</linearGradient>
<linearGradient id="paint4_linear_9_125" x1="110.5" y1="124.5" x2="110.5" y2="100.5" gradientUnits="userSpaceOnUse">
<stop stop-color="#4967FF" stop-opacity="0"/>
<stop offset="0.50284" stop-color="#4967FF"/>
<stop offset="1" stop-color="#4967FF" stop-opacity="0"/>
</linearGradient>
<linearGradient id="paint5_linear_9_125" x1="98.5" y1="112.5" x2="122.5" y2="112.5" gradientUnits="userSpaceOnUse">
<stop stop-color="#4967FF" stop-opacity="0"/>
<stop offset="0.50284" stop-color="#4967FF"/>
<stop offset="1" stop-color="#4967FF" stop-opacity="0"/>
</linearGradient>
</defs>
</svg>
