<svg width="412" height="413" viewBox="0 0 412 413" fill="none" xmlns="http://www.w3.org/2000/svg">
<path d="M206.002 403.674C295.676 403.674 368.371 362.378 368.371 311.436C368.371 260.494 295.676 219.197 206.002 219.197C116.328 219.197 43.6328 260.494 43.6328 311.436C43.6328 362.378 116.328 403.674 206.002 403.674Z" fill="#F5F5F5"/>
<path d="M273.569 369.594L152.367 299.612C151.301 298.997 150.415 298.113 149.799 297.048C149.184 295.982 148.859 294.773 148.859 293.543C148.859 292.312 149.184 291.104 149.799 290.038C150.415 288.973 151.301 288.088 152.367 287.474L164.323 279.935C166.387 278.746 168.727 278.12 171.109 278.12C173.49 278.12 175.83 278.746 177.894 279.935L299.113 349.925C300.179 350.539 301.065 351.424 301.68 352.489C302.296 353.555 302.62 354.763 302.62 355.994C302.62 357.224 302.296 358.433 301.68 359.499C301.065 360.564 300.179 361.448 299.113 362.063L287.157 369.594C285.092 370.789 282.748 371.418 280.363 371.418C277.977 371.418 275.634 370.789 273.569 369.594Z" fill="#E0E0E0"/>
<path d="M89.2786 305.792C103.805 305.792 115.581 299.03 115.581 290.688C115.581 282.346 103.805 275.584 89.2786 275.584C74.7524 275.584 62.9766 282.346 62.9766 290.688C62.9766 299.03 74.7524 305.792 89.2786 305.792Z" fill="#E6E6E6"/>
<path d="M316.55 309.252L328.086 315.885C328.086 315.885 322.194 297.37 325.334 278.707C326.52 271.653 329.066 268.151 329.956 266.264C330.846 264.377 337.743 252.718 331.604 247.378C325.465 242.039 311.185 252.775 311.96 281.508C312.312 290.913 313.854 300.235 316.55 309.252Z" fill="#32C27D"/>
<path opacity="0.5" d="M316.55 309.252L328.086 315.885C328.086 315.885 322.194 297.37 325.334 278.707C326.52 271.653 329.066 268.151 329.956 266.264C330.846 264.377 337.743 252.718 331.604 247.378C325.465 242.039 311.185 252.775 311.96 281.508C312.312 290.913 313.854 300.235 316.55 309.252Z" fill="#0D0D0D"/>
<path d="M321.911 312.746C321.827 312.748 321.745 312.723 321.675 312.676C321.606 312.629 321.553 312.561 321.524 312.482C321.483 312.358 317.074 300.312 317.214 280.948C317.354 261.584 327.531 251.069 327.63 250.97C327.668 250.932 327.713 250.901 327.764 250.88C327.814 250.859 327.868 250.849 327.922 250.849C327.976 250.849 328.03 250.859 328.081 250.88C328.131 250.901 328.176 250.932 328.215 250.97C328.253 251.009 328.284 251.054 328.305 251.105C328.326 251.155 328.336 251.209 328.336 251.263C328.336 251.317 328.326 251.371 328.305 251.421C328.284 251.472 328.253 251.517 328.215 251.556C328.116 251.654 318.178 261.856 318.038 280.956C317.898 300.056 322.249 312.087 322.298 312.202C322.335 312.305 322.33 312.418 322.284 312.517C322.237 312.616 322.154 312.692 322.051 312.729C322.006 312.743 321.958 312.749 321.911 312.746Z" fill="white"/>
<path d="M321.365 312.086L337.136 321.15C338.78 322.122 340.729 322.438 342.595 322.037C344.461 321.635 346.107 320.545 347.206 318.983C348.25 317.359 348.69 315.42 348.45 313.504C347.692 305.313 344.132 303.426 348.491 299.776C352.85 296.126 353.987 295.87 353.74 292.36C353.493 288.85 351.095 287.317 349.958 285.933C348.821 284.548 345.673 281.648 347.815 277.363C349.958 273.078 352.883 268.934 348.45 267.038C345.805 265.901 341.396 267.417 338.496 270.565C335.595 273.713 333.206 275.979 330.429 276.737C327.652 277.495 321.868 277.618 322.115 282.406C322.362 287.193 323.631 288.833 322.494 290.967C320.351 294.955 311.032 297.221 321.365 312.086Z" fill="#32C27D"/>
<path d="M329.157 316.965C329.054 316.961 328.956 316.921 328.88 316.852C328.805 316.782 328.757 316.688 328.745 316.586C328.745 316.305 326.322 288.026 345.769 269.206C345.849 269.139 345.951 269.106 346.055 269.112C346.159 269.118 346.256 269.163 346.328 269.238C346.4 269.313 346.441 269.413 346.443 269.517C346.444 269.621 346.407 269.722 346.337 269.799C327.171 288.347 329.544 316.231 329.569 316.511C329.578 316.619 329.544 316.727 329.475 316.81C329.405 316.893 329.306 316.946 329.198 316.956L329.157 316.965Z" fill="white"/>
<path d="M332.279 292.624C332.176 292.624 332.076 292.585 331.999 292.515C331.923 292.445 331.876 292.348 331.867 292.245C331.695 290.053 331.078 287.92 330.053 285.975C329.029 284.03 327.619 282.314 325.91 280.931C325.865 280.9 325.827 280.86 325.798 280.815C325.769 280.769 325.749 280.717 325.74 280.664C325.731 280.61 325.733 280.555 325.745 280.502C325.757 280.449 325.779 280.399 325.811 280.355C325.842 280.31 325.881 280.273 325.926 280.244C325.971 280.215 326.022 280.195 326.075 280.186C326.128 280.176 326.182 280.178 326.234 280.19C326.287 280.202 326.336 280.224 326.38 280.256C328.201 281.7 329.703 283.507 330.789 285.563C331.876 287.618 332.524 289.877 332.691 292.196C332.701 292.306 332.666 292.415 332.595 292.5C332.524 292.585 332.423 292.638 332.312 292.649L332.279 292.624Z" fill="white"/>
<path d="M330.936 297.477C330.836 297.478 330.74 297.443 330.664 297.378C330.582 297.305 330.532 297.203 330.524 297.094C330.517 296.985 330.552 296.877 330.623 296.793C330.821 296.562 335.69 291.19 347.103 292.615C347.211 292.63 347.309 292.686 347.375 292.773C347.442 292.859 347.471 292.969 347.457 293.077C347.443 293.185 347.386 293.284 347.3 293.352C347.214 293.42 347.105 293.451 346.996 293.439C336.036 292.063 331.282 297.287 331.233 297.337C331.195 297.379 331.149 297.413 331.098 297.437C331.048 297.461 330.992 297.475 330.936 297.477Z" fill="white"/>
<path d="M269.877 361.23L163.285 299.686C155.762 295.343 149.664 283.692 149.664 273.664V45.4157C149.664 35.3876 155.762 30.7815 163.285 35.124L269.877 96.6685C277.401 101.011 283.498 112.662 283.498 122.69V350.938C283.498 360.958 277.401 365.573 269.877 361.23Z" fill="#455A64"/>
<path d="M282.157 89.4915L175.557 27.947C172.343 26.093 169.393 25.8787 167.061 27.0158C166.776 27.1588 166.5 27.3212 166.237 27.502L154.289 34.4483C156.695 33.0063 159.843 33.1134 163.295 35.1075L269.888 96.6521C277.411 100.995 283.509 112.646 283.509 122.674V350.922C283.509 356.229 281.803 359.986 279.084 361.766L290.875 354.902C293.883 353.303 295.819 349.389 295.819 343.778V115.53C295.819 105.485 289.681 93.834 282.157 89.4915Z" fill="#37474F"/>
<path d="M283.495 122.673V350.921C283.495 356.228 281.79 359.985 279.07 361.765L290.87 354.901C293.878 353.303 295.814 349.389 295.814 343.777V115.529L283.536 122.657L283.495 122.673Z" fill="#0D0D0D"/>
<path d="M295.778 133.238L283.5 140.325V145.862L295.778 138.767V133.238Z" fill="#37474F"/>
<path d="M290.392 170.062C289.296 170.697 288.406 170.021 288.406 168.562V156.656C288.417 155.911 288.603 155.18 288.948 154.52C289.293 153.861 289.787 153.291 290.392 152.857C291.488 152.222 292.378 152.857 292.378 154.357V166.263C292.367 167.008 292.181 167.739 291.836 168.399C291.492 169.058 290.997 169.628 290.392 170.062Z" fill="#37474F"/>
<path d="M288.401 168.595V156.655C288.413 155.911 288.598 155.179 288.943 154.52C289.288 153.86 289.782 153.29 290.387 152.856C290.568 152.73 290.779 152.653 290.998 152.633C291.218 152.612 291.439 152.65 291.64 152.741L290.148 151.975C289.944 151.877 289.718 151.834 289.492 151.851C289.267 151.869 289.049 151.945 288.863 152.074C288.257 152.508 287.762 153.077 287.416 153.737C287.069 154.396 286.882 155.128 286.869 155.872V167.771C286.838 168.071 286.884 168.375 287.002 168.653C287.12 168.931 287.307 169.175 287.544 169.361L289.102 170.185C288.854 170.007 288.658 169.765 288.535 169.485C288.412 169.206 288.366 168.898 288.401 168.595Z" fill="#455A64"/>
<path d="M290.392 198.877C289.296 199.512 288.406 198.877 288.406 197.378V185.471C288.418 184.727 288.604 183.996 288.949 183.336C289.293 182.676 289.788 182.107 290.392 181.672C291.488 181.038 292.378 181.672 292.378 183.18V195.079C292.368 195.823 292.183 196.555 291.838 197.215C291.493 197.875 290.998 198.444 290.392 198.877Z" fill="#37474F"/>
<path d="M288.402 197.377V185.471C288.414 184.727 288.599 183.995 288.944 183.336C289.289 182.676 289.783 182.106 290.388 181.672C290.569 181.548 290.78 181.472 290.999 181.452C291.218 181.432 291.439 181.468 291.64 181.557L290.149 180.782C289.946 180.68 289.719 180.635 289.492 180.652C289.266 180.67 289.048 180.749 288.863 180.881C288.256 181.314 287.76 181.883 287.413 182.543C287.067 183.202 286.881 183.935 286.869 184.68V196.611C286.837 196.912 286.883 197.216 287.001 197.494C287.119 197.772 287.306 198.016 287.545 198.201L289.102 199.025C288.844 198.843 288.642 198.592 288.518 198.301C288.395 198.01 288.354 197.69 288.402 197.377Z" fill="#455A64"/>
<path d="M266.151 103.071L161.405 42.5727C160.967 42.3212 160.472 42.1884 159.968 42.1875C159.463 42.1866 158.968 42.3175 158.529 42.5674C158.091 42.8173 157.726 43.1773 157.47 43.6119C157.214 44.0465 157.076 44.5404 157.07 45.0447V273.664C157.07 281.294 162.484 290.663 169.092 294.478L271.268 353.501C271.753 353.78 272.302 353.926 272.861 353.926C273.421 353.925 273.97 353.778 274.454 353.498C274.938 353.219 275.34 352.817 275.62 352.333C275.899 351.849 276.047 351.3 276.048 350.741V120.235C276.089 113.939 271.623 106.218 266.151 103.071Z" fill="#32C27D"/>
<path opacity="0.9" d="M266.151 103.071L161.405 42.5727C160.967 42.3212 160.472 42.1884 159.968 42.1875C159.463 42.1866 158.968 42.3175 158.529 42.5674C158.091 42.8173 157.726 43.1773 157.47 43.6119C157.214 44.0465 157.076 44.5404 157.07 45.0447V273.664C157.07 281.294 162.484 290.663 169.092 294.478L271.268 353.501C271.753 353.78 272.302 353.926 272.861 353.926C273.421 353.925 273.97 353.778 274.454 353.498C274.938 353.219 275.34 352.817 275.62 352.333C275.899 351.849 276.047 351.3 276.048 350.741V120.235C276.089 113.939 271.623 106.218 266.151 103.071Z" fill="white"/>
<path d="M192.735 58.369L194.358 65.2L229.081 85.2232L235.08 82.0261L192.735 58.369Z" fill="#455A64"/>
<path d="M202.941 64.9695C202.941 66.1066 202.117 66.5598 201.161 65.9995C200.648 65.6588 200.222 65.2025 199.917 64.6673C199.613 64.1321 199.437 63.5329 199.406 62.9177C199.406 61.7888 200.23 61.3274 201.186 61.896C201.699 62.2349 202.125 62.6896 202.43 63.2235C202.735 63.7574 202.91 64.3555 202.941 64.9695Z" fill="#0D0D0D"/>
<path d="M226.341 79.4298C226.151 79.4282 225.964 79.3801 225.797 79.2897L208.065 69.4017C207.814 69.2546 207.631 69.0155 207.555 68.7355C207.478 68.4554 207.514 68.1565 207.655 67.9026C207.796 67.6487 208.031 67.46 208.309 67.3768C208.587 67.2935 208.887 67.3223 209.144 67.457L226.885 77.345C227.101 77.4649 227.27 77.6531 227.367 77.8799C227.464 78.1068 227.483 78.3594 227.421 78.5982C227.359 78.8369 227.219 79.0482 227.023 79.1987C226.828 79.3492 226.588 79.4305 226.341 79.4298Z" fill="#0D0D0D"/>
<path d="M179.036 90.151C177.957 89.5247 177.174 90.0686 177.174 91.4446C177.174 92.1328 177.344 92.8103 177.669 93.4169C177.994 94.0235 178.464 94.5405 179.036 94.9219C179.343 95.1081 179.695 95.2066 180.054 95.2066C180.413 95.2066 180.765 95.1081 181.072 94.9219L182.794 98.0366C182.188 98.3709 181.501 98.5302 180.81 98.4968C180.119 98.4633 179.451 98.2384 178.88 97.8471C177.481 96.9911 176.314 95.8035 175.484 94.3892C174.653 92.975 174.184 91.3778 174.117 89.739C174.117 86.6819 176.169 85.619 178.995 87.267C180.591 88.2948 181.899 89.7128 182.794 91.387L181.072 92.7548C180.647 91.7154 179.943 90.8141 179.036 90.151Z" fill="#32C27D"/>
<path d="M192.708 100.475C192.708 103.557 190.624 104.595 187.764 102.947C186.325 102.087 185.121 100.885 184.258 99.4473C183.396 98.0098 182.902 96.3814 182.82 94.707C182.82 91.6252 184.905 90.587 187.764 92.235C189.207 93.091 190.414 94.2923 191.277 95.7306C192.14 97.169 192.632 98.7993 192.708 100.475ZM185.877 96.5445C185.892 97.252 186.074 97.9459 186.409 98.5691C186.745 99.1923 187.223 99.7269 187.806 100.129C188.827 100.722 189.651 100.129 189.651 98.7281C189.648 98.0365 189.479 97.3558 189.158 96.7434C188.837 96.131 188.373 95.605 187.806 95.2096C186.767 94.6081 185.877 95.119 185.877 96.5445Z" fill="#32C27D"/>
<path d="M196.027 97.2043L199.586 104.62V99.2807L202.281 100.838V111.229L199.809 109.795L196.266 102.445V107.751L193.555 106.186V95.7705L196.027 97.2043Z" fill="#32C27D"/>
<path d="M211.092 105.897V108.616L208.521 107.133V114.812L205.547 113.09V105.411L202.992 103.936V101.225L211.092 105.897Z" fill="#32C27D"/>
<path d="M216.896 118.175L213.518 116.222L213.057 117.425L210.008 115.662L213.806 107.463L216.863 109.226L220.522 121.735L217.35 119.905L216.896 118.175ZM216.163 115.291L215.24 111.739L214.293 114.211L216.163 115.291Z" fill="#32C27D"/>
<path d="M225.24 116.824C224.16 116.206 223.377 116.741 223.377 118.126C223.379 118.814 223.549 119.491 223.874 120.097C224.199 120.703 224.668 121.221 225.24 121.603C225.549 121.787 225.902 121.885 226.261 121.885C226.621 121.885 226.974 121.787 227.283 121.603L229.005 124.718C228.397 125.048 227.709 125.205 227.018 125.172C226.326 125.138 225.657 124.916 225.083 124.528C223.683 123.671 222.516 122.482 221.685 121.067C220.854 119.651 220.385 118.052 220.32 116.412C220.32 113.355 222.38 112.292 225.198 113.94C226.792 114.973 228.101 116.389 229.005 118.06L227.283 119.419C226.849 118.385 226.143 117.488 225.24 116.824Z" fill="#32C27D"/>
<path d="M237.131 120.935V123.646L234.56 122.163V129.867L231.586 128.145V120.465L229.031 118.99V116.279L237.131 120.935Z" fill="#32C27D"/>
<path d="M245.922 133.691C246.655 134.112 247.216 133.782 247.216 132.752V126.762L250.198 128.475V134.466C250.198 137.226 248.55 138.05 245.914 136.542C244.643 135.837 243.575 134.817 242.812 133.581C242.049 132.344 241.616 130.932 241.555 129.481V123.49L244.538 125.212V131.203C244.549 131.699 244.681 132.185 244.922 132.618C245.163 133.052 245.507 133.42 245.922 133.691Z" fill="#32C27D"/>
<path d="M255.006 133.724C254.668 133.534 254.454 133.526 254.454 133.839C254.454 135.141 259.11 137.02 259.11 140.785C259.11 143.093 257.355 143.101 255.328 141.931C253.546 140.839 252.011 139.388 250.82 137.671L251.924 135.726C252.83 137.129 253.994 138.348 255.352 139.319C255.789 139.574 256.069 139.574 256.069 139.203C256.069 137.852 251.405 136.056 251.405 132.405C251.405 130.329 252.921 129.933 255.262 131.252C256.769 132.164 258.096 133.345 259.176 134.737L258.096 136.731C257.205 135.596 256.165 134.584 255.006 133.724Z" fill="#32C27D"/>
<path d="M164.053 141.354C167.396 137.248 169.079 132.038 168.77 126.752C168.46 121.466 166.181 116.487 162.381 112.799C158.582 109.111 153.538 106.981 148.245 106.829C142.951 106.677 137.794 108.515 133.789 111.979C129.784 115.443 127.223 120.282 126.611 125.542C125.999 130.802 127.38 136.1 130.482 140.391C133.585 144.682 138.183 147.655 143.369 148.723C148.556 149.79 153.954 148.875 158.499 146.158L168.816 150.641L164.053 141.354Z" fill="#32C27D"/>
<path opacity="0.4" d="M164.053 141.354C167.396 137.248 169.079 132.038 168.77 126.752C168.46 121.466 166.181 116.487 162.381 112.799C158.582 109.111 153.538 106.981 148.245 106.829C142.951 106.677 137.794 108.515 133.789 111.979C129.784 115.443 127.223 120.282 126.611 125.542C125.999 130.802 127.38 136.1 130.482 140.391C133.585 144.682 138.183 147.655 143.369 148.723C148.556 149.79 153.954 148.875 158.499 146.158L168.816 150.641L164.053 141.354Z" fill="#0D0D0D"/>
<path d="M139.792 126.852C139.792 126.53 139.561 126.349 139.141 126.349C138.166 126.477 137.256 126.906 136.537 127.577L135.367 125.302C136.599 124.376 138.087 123.852 139.627 123.803C141.605 123.803 143.105 124.841 143.105 126.39C143.105 127.494 142.281 128.557 141.226 129.62L139.751 131.079H143.236V133.501H135.746V131.515L139.083 128.063C139.443 127.745 139.691 127.321 139.792 126.852Z" fill="white"/>
<path d="M149.336 123.943L147.062 129.398H147.993V127.561H150.86V129.398H151.948V131.648H150.86V133.502H147.993V131.648H143.914V129.604L146.386 123.943H149.336Z" fill="white"/>
<path d="M160.797 128.747V133.502H157.732V129.629C157.75 129.503 157.74 129.374 157.704 129.252C157.668 129.13 157.606 129.017 157.522 128.921C157.439 128.825 157.336 128.748 157.22 128.695C157.104 128.643 156.978 128.615 156.851 128.615C156.249 128.615 155.87 129.085 155.87 129.81V133.502H152.805V123.399H155.87V127.116C156.11 126.737 156.444 126.426 156.84 126.216C157.236 126.005 157.679 125.9 158.128 125.913C158.495 125.903 158.86 125.971 159.2 126.113C159.539 126.254 159.844 126.465 160.096 126.733C160.348 127 160.541 127.318 160.662 127.665C160.783 128.012 160.829 128.381 160.797 128.747Z" fill="white"/>
<path d="M260.745 205.313V307.695C260.747 308.853 260.444 309.991 259.866 310.994C259.288 311.998 258.456 312.831 257.454 313.411C256.451 313.991 255.314 314.296 254.156 314.297C252.998 314.297 251.86 313.992 250.857 313.413L195.715 281.574L185.943 275.938C182.577 273.992 179.782 271.197 177.836 267.832C175.889 264.467 174.86 260.651 174.852 256.763V154.373C174.85 153.215 175.153 152.077 175.731 151.074C176.309 150.07 177.141 149.237 178.143 148.657C179.146 148.077 180.283 147.772 181.441 147.771C182.599 147.771 183.737 148.076 184.74 148.655L249.671 186.138C253.037 188.081 255.833 190.876 257.777 194.242C259.721 197.608 260.745 201.426 260.745 205.313Z" fill="#32C27D"/>
<path opacity="0.5" d="M260.745 205.313V307.695C260.747 308.853 260.444 309.991 259.866 310.994C259.288 311.998 258.456 312.831 257.454 313.411C256.451 313.991 255.314 314.296 254.156 314.297C252.998 314.297 251.86 313.992 250.857 313.413L195.715 281.574L185.943 275.938C182.577 273.992 179.782 271.197 177.836 267.832C175.889 264.467 174.86 260.651 174.852 256.763V154.373C174.85 153.215 175.153 152.077 175.731 151.074C176.309 150.07 177.141 149.237 178.143 148.657C179.146 148.077 180.283 147.772 181.441 147.771C182.599 147.771 183.737 148.076 184.74 148.655L249.671 186.138C253.037 188.081 255.833 190.876 257.777 194.242C259.721 197.608 260.745 201.426 260.745 205.313Z" fill="white"/>
<path d="M228.977 265.894C228.977 265.894 239.302 283.016 231.845 302.323L195.688 281.574L228.977 265.894Z" fill="#0D0D0D"/>
<path d="M245.443 188.962C246.224 182.616 241.713 176.839 235.367 176.057C229.021 175.276 223.243 179.787 222.462 186.133C221.68 192.479 226.191 198.257 232.537 199.038C238.883 199.819 244.661 195.308 245.443 188.962Z" fill="#0D0D0D"/>
<path d="M234.016 155.074C234.016 155.074 237.567 149.306 238.655 149.726C239.742 150.146 237.946 155.642 237.946 155.642C237.946 155.642 243.319 156.763 242.322 158.114C241.324 159.466 234.757 159.144 234.757 159.144L234.016 155.074Z" fill="#0D0D0D"/>
<path d="M236.489 169.938C234.017 188.511 218.361 188.511 218.361 188.511L185.565 174.075C185.565 174.075 183.093 171.908 182.335 166.931C182.044 164.892 182.044 162.822 182.335 160.784C182.335 160.784 182.335 160.743 182.335 160.726C183.382 152.915 189.224 144.518 201.947 141.939C204.735 141.376 207.573 141.1 210.417 141.115C211.793 141.11 213.169 141.179 214.537 141.321C224.425 142.293 231.355 146.908 234.659 154.085C235.403 155.704 235.956 157.405 236.307 159.152C236.978 162.711 237.039 166.359 236.489 169.938Z" fill="#0D0D0D"/>
<path d="M157.751 205.865C157.751 205.865 146.108 205.461 141.625 216.808C141.625 216.808 146.569 220.145 153.054 216.808C159.539 213.471 157.751 205.865 157.751 205.865Z" fill="#32C27D"/>
<path opacity="0.5" d="M157.751 205.865C157.751 205.865 146.108 205.461 141.625 216.808C141.625 216.808 146.569 220.145 153.054 216.808C159.539 213.471 157.751 205.865 157.751 205.865Z" fill="#0D0D0D"/>
<path d="M157.422 211.328C157.422 211.328 154.126 197.007 152.388 196.833C150.649 196.66 150.311 201.201 150.451 203.763L146.331 194.897C146.201 194.622 146.015 194.376 145.785 194.175C145.556 193.974 145.288 193.822 144.998 193.728C144.707 193.635 144.401 193.602 144.098 193.632C143.794 193.661 143.5 193.752 143.233 193.9C139.113 196.166 131.887 203.055 147.122 220.087L157.422 211.328Z" fill="#945959"/>
<path d="M199.612 201.424L197.14 201.102C194.649 200.772 192.114 201.111 189.797 202.084C187.48 203.057 185.464 204.629 183.956 206.64L169.248 226.218L157.712 205.865C157.712 205.865 156.327 219.708 141.586 216.808L157.415 243.448C158.417 245.134 159.811 246.554 161.479 247.586C163.148 248.617 165.04 249.231 166.997 249.374C168.953 249.518 170.915 249.186 172.716 248.408C174.516 247.63 176.103 246.429 177.339 244.906L190.886 228.253L199.612 201.424Z" fill="#32C27D"/>
<path d="M231.002 247.114C227.706 255.469 227.344 257.101 229.354 261.278C230.755 264.364 231.858 267.575 232.65 270.87C232.65 270.87 217.373 287.992 195.628 281.582L185.855 275.945C183.823 274.773 181.992 273.282 180.433 271.529L183.408 249.347C183.558 248.179 183.44 246.993 183.062 245.878L179.939 236.723C178.415 232.252 178.188 227.44 179.285 222.845C180.382 218.251 182.757 214.06 186.136 210.759L196.633 200.5L224.204 204.027L228.324 205.205C231.022 205.985 233.347 207.712 234.873 210.069C236.398 212.426 237.023 215.255 236.63 218.035C235.279 227.758 233.071 241.865 231.002 247.114Z" fill="#32C27D"/>
<path opacity="0.5" d="M231.002 247.114C227.706 255.469 227.344 257.101 229.354 261.278C230.755 264.364 231.858 267.575 232.65 270.87C232.65 270.87 217.373 287.992 195.628 281.582L185.855 275.945C183.823 274.773 181.992 273.282 180.433 271.529L183.408 249.347C183.558 248.179 183.44 246.993 183.062 245.878L179.939 236.723C178.415 232.252 178.188 227.44 179.285 222.845C180.382 218.251 182.757 214.06 186.136 210.759L196.633 200.5L224.204 204.027L228.324 205.205C231.022 205.985 233.347 207.712 234.873 210.069C236.398 212.426 237.023 215.255 236.63 218.035C235.279 227.758 233.071 241.865 231.002 247.114Z" fill="#0D0D0D"/>
<path d="M214.379 222.156L208.858 217.451C208.274 216.95 207.569 216.611 206.813 216.467C206.057 216.322 205.277 216.377 204.549 216.627L197.875 218.925L196.976 215.185C196.836 214.603 196.58 214.055 196.222 213.575C195.865 213.095 195.413 212.692 194.896 212.391C194.379 212.09 193.805 211.897 193.211 211.823C192.617 211.749 192.014 211.797 191.439 211.963L188.547 212.787L193.441 203.41C195.04 200.356 197.501 197.839 200.52 196.175L202.44 195.12L218.302 195.944C218.302 195.944 224.21 198.416 224.21 203.978L214.379 222.106" fill="#32C27D"/>
<path d="M218.364 202.973L202.461 215.366V175.904H218.364V202.973Z" fill="#945959"/>
<path d="M202.712 199.718L197.875 218.958L218.302 202.973L202.712 199.718Z" fill="#945959"/>
<path d="M202.461 196.859C205.998 195.546 209.23 193.527 211.963 190.927C214.695 188.326 216.87 185.197 218.356 181.73V175.904H202.453L202.461 196.859Z" fill="#703838"/>
<path d="M205.89 146.66C199.859 146.66 187.037 150.022 185.554 165.81C184.071 181.598 185.505 193.826 193.646 195.012C201.787 196.199 220.706 190.291 223.244 169.856C225.782 149.421 211.766 146.66 205.89 146.66Z" fill="#945959"/>
<path d="M196.4 172.493V181.796L190.945 180.123L196.4 172.493Z" fill="#703838"/>
<path d="M202.466 175.995C203.512 175.995 204.361 175.147 204.361 174.1C204.361 173.054 203.512 172.205 202.466 172.205C201.419 172.205 200.57 173.054 200.57 174.1C200.57 175.147 201.419 175.995 202.466 175.995Z" fill="#0D0D0D"/>
<path d="M191.884 172.781C191.883 173.156 191.77 173.521 191.561 173.832C191.351 174.143 191.055 174.384 190.709 174.526C190.362 174.669 189.981 174.705 189.614 174.631C189.247 174.557 188.91 174.376 188.646 174.11C188.382 173.845 188.202 173.507 188.13 173.14C188.057 172.772 188.095 172.392 188.239 172.046C188.382 171.7 188.625 171.405 188.937 171.197C189.248 170.989 189.614 170.878 189.989 170.878C190.239 170.878 190.486 170.927 190.716 171.023C190.947 171.119 191.156 171.259 191.332 171.436C191.508 171.613 191.647 171.823 191.742 172.054C191.837 172.284 191.885 172.532 191.884 172.781Z" fill="#0D0D0D"/>
<path d="M187.673 168.826L191.381 166.626C191.381 166.626 189.964 165.151 188.546 166.033C187.129 166.915 187.673 168.826 187.673 168.826Z" fill="#0D0D0D"/>
<path d="M193.836 185.57C195.642 185.702 197.439 185.22 198.936 184.202C198.936 184.202 199.291 186.897 197.033 187.408C194.775 187.918 193.836 185.57 193.836 185.57Z" fill="#703838"/>
<path d="M190.594 152.033C190.594 152.033 192.86 173.828 222.499 174.512C222.499 174.512 231.456 152.849 213.756 145.812C196.057 138.775 190.594 152.033 190.594 152.033Z" fill="#0D0D0D"/>
<path d="M231.224 171.249L227.582 169.139C226.198 168.315 224.286 168.431 222.168 169.65C217.966 172.073 214.555 177.981 214.555 182.834C214.555 185.265 215.379 186.954 216.796 187.778L220.372 189.838L220.578 189.954L220.702 190.028C222.053 190.687 223.858 190.53 225.843 189.385C230.046 186.913 233.457 181.054 233.457 176.201C233.433 173.745 232.584 172.048 231.224 171.249Z" fill="#32C27D"/>
<path d="M231.197 183.66C234.168 178.513 234.168 172.949 231.197 171.234C228.225 169.518 223.407 172.3 220.435 177.447C217.464 182.594 217.464 188.157 220.435 189.873C223.407 191.589 228.225 188.807 231.197 183.66Z" fill="#32C27D"/>
<path opacity="0.5" d="M231.197 183.66C234.168 178.513 234.168 172.949 231.197 171.234C228.225 169.518 223.407 172.3 220.435 177.447C217.464 182.594 217.464 188.157 220.435 189.873C223.407 191.589 228.225 188.807 231.197 183.66Z" fill="#0D0D0D"/>
<path d="M232.684 175.823L230.212 174.381C229.273 173.82 227.963 173.894 226.512 174.727C224.997 175.717 223.737 177.049 222.832 178.617C221.927 180.184 221.404 181.942 221.305 183.75C221.305 185.398 221.89 186.576 222.837 187.12L225.309 188.529C225.353 188.561 225.4 188.588 225.449 188.611L225.532 188.661C226.111 188.88 226.736 188.955 227.351 188.877C227.965 188.8 228.552 188.572 229.059 188.216C230.572 187.226 231.832 185.895 232.737 184.329C233.642 182.763 234.166 181.007 234.266 179.201C234.2 177.528 233.624 176.366 232.684 175.823Z" fill="#32C27D"/>
<path d="M234.205 179.184C234.104 180.989 233.58 182.746 232.676 184.312C231.771 185.878 230.511 187.209 228.997 188.198C226.113 189.846 223.781 188.511 223.781 185.191C223.879 183.383 224.402 181.625 225.309 180.058C226.215 178.492 227.479 177.162 228.997 176.176C231.873 174.512 234.205 175.855 234.205 179.184Z" fill="#32C27D"/>
<path opacity="0.3" d="M234.205 179.184C234.104 180.989 233.58 182.746 232.676 184.312C231.771 185.878 230.511 187.209 228.997 188.198C226.113 189.846 223.781 188.511 223.781 185.191C223.879 183.383 224.402 181.625 225.309 180.058C226.215 178.492 227.479 177.162 228.997 176.176C231.873 174.512 234.205 175.855 234.205 179.184Z" fill="#0D0D0D"/>
<path d="M219.917 142.409C217.555 140.584 214.662 139.58 211.677 139.549H210.944C207.921 139.517 204.904 139.793 201.938 140.373C202.481 140.373 203.025 140.373 203.586 140.373H201.938V141.906H203.47C208.752 142.086 213.757 144.312 217.428 148.115C221.098 151.918 223.146 156.998 223.139 162.284V168.768C223.139 169.025 223.192 169.278 223.296 169.513C223.401 169.747 223.553 169.957 223.743 170.128C223.933 170.3 224.158 170.43 224.401 170.509C224.645 170.589 224.903 170.616 225.158 170.59H225.347L226.995 170.079C226.886 170.113 226.772 170.135 226.657 170.145C227.149 170.078 227.598 169.833 227.921 169.456C228.243 169.079 228.415 168.597 228.404 168.101V162.086C228.388 151.201 223.683 145.35 219.917 142.409Z" fill="#32C27D"/>
<path d="M209.537 194.56C208.858 194.56 208.186 194.414 207.568 194.131L202.418 191.75C202.337 191.721 202.264 191.676 202.201 191.617C202.139 191.558 202.09 191.487 202.057 191.409C202.023 191.33 202.007 191.245 202.008 191.159C202.009 191.074 202.028 190.989 202.063 190.912C202.099 190.834 202.15 190.764 202.214 190.707C202.278 190.65 202.353 190.607 202.434 190.58C202.515 190.554 202.601 190.545 202.687 190.553C202.772 190.561 202.854 190.587 202.929 190.629L208.079 193.011C208.735 193.316 209.471 193.409 210.183 193.276C210.895 193.143 211.548 192.791 212.05 192.269L216.994 187.16C217.11 187.045 217.267 186.979 217.431 186.979C217.595 186.979 217.752 187.045 217.868 187.16C217.982 187.277 218.045 187.434 218.045 187.597C218.045 187.76 217.982 187.917 217.868 188.034L212.924 193.142C212.484 193.594 211.957 193.953 211.375 194.196C210.793 194.44 210.168 194.563 209.537 194.56Z" fill="#32C27D"/>
<path opacity="0.5" d="M209.537 194.56C208.858 194.56 208.186 194.414 207.568 194.131L202.418 191.75C202.337 191.721 202.264 191.676 202.201 191.617C202.139 191.558 202.09 191.487 202.057 191.409C202.023 191.33 202.007 191.245 202.008 191.159C202.009 191.074 202.028 190.989 202.063 190.912C202.099 190.834 202.15 190.764 202.214 190.707C202.278 190.65 202.353 190.607 202.434 190.58C202.515 190.554 202.601 190.545 202.687 190.553C202.772 190.561 202.854 190.587 202.929 190.629L208.079 193.011C208.735 193.316 209.471 193.409 210.183 193.276C210.895 193.143 211.548 192.791 212.05 192.269L216.994 187.16C217.11 187.045 217.267 186.979 217.431 186.979C217.595 186.979 217.752 187.045 217.868 187.16C217.982 187.277 218.045 187.434 218.045 187.597C218.045 187.76 217.982 187.917 217.868 188.034L212.924 193.142C212.484 193.594 211.957 193.953 211.375 194.196C210.793 194.44 210.168 194.563 209.537 194.56Z" fill="#0D0D0D"/>
<path d="M203.773 190.019C203.773 190.495 203.632 190.96 203.368 191.356C203.103 191.752 202.727 192.06 202.288 192.242C201.848 192.424 201.364 192.472 200.898 192.379C200.431 192.286 200.002 192.057 199.666 191.721C199.329 191.384 199.1 190.955 199.007 190.489C198.914 190.022 198.962 189.538 199.144 189.099C199.326 188.659 199.635 188.283 200.03 188.019C200.426 187.754 200.891 187.613 201.367 187.613C202.005 187.613 202.617 187.867 203.068 188.318C203.52 188.769 203.773 189.381 203.773 190.019Z" fill="#32C27D"/>
<path opacity="0.5" d="M203.773 190.019C203.773 190.495 203.632 190.96 203.368 191.356C203.103 191.752 202.727 192.06 202.288 192.242C201.848 192.424 201.364 192.472 200.898 192.379C200.431 192.286 200.002 192.057 199.666 191.721C199.329 191.384 199.1 190.955 199.007 190.489C198.914 190.022 198.962 189.538 199.144 189.099C199.326 188.659 199.635 188.283 200.03 188.019C200.426 187.754 200.891 187.613 201.367 187.613C202.005 187.613 202.617 187.867 203.068 188.318C203.52 188.769 203.773 189.381 203.773 190.019Z" fill="#0D0D0D"/>
<path d="M228.387 162.086V168.101C228.398 168.597 228.226 169.079 227.904 169.456C227.581 169.833 227.132 170.078 226.641 170.145C226.369 170.174 226.095 170.145 225.835 170.061C225.575 169.977 225.336 169.839 225.133 169.656C224.931 169.474 224.768 169.25 224.658 169.001C224.547 168.751 224.49 168.481 224.49 168.208V162.086C224.495 159.164 223.908 156.271 222.766 153.582C221.623 150.893 219.949 148.462 217.842 146.437C215.736 144.412 213.242 142.833 210.51 141.797C207.778 140.761 204.865 140.288 201.945 140.407C204.912 139.826 207.929 139.55 210.952 139.583H211.669C214.653 139.613 217.546 140.617 219.909 142.442C223.682 145.351 228.387 151.201 228.387 162.086Z" fill="#32C27D"/>
<path opacity="0.5" d="M228.387 162.086V168.101C228.398 168.597 228.226 169.079 227.904 169.456C227.581 169.833 227.132 170.078 226.641 170.145C226.369 170.174 226.095 170.145 225.835 170.061C225.575 169.977 225.336 169.839 225.133 169.656C224.931 169.474 224.768 169.25 224.658 169.001C224.547 168.751 224.49 168.481 224.49 168.208V162.086C224.495 159.164 223.908 156.271 222.766 153.582C221.623 150.893 219.949 148.462 217.842 146.437C215.736 144.412 213.242 142.833 210.51 141.797C207.778 140.761 204.865 140.288 201.945 140.407C204.912 139.826 207.929 139.55 210.952 139.583H211.669C214.653 139.613 217.546 140.617 219.909 142.442C223.682 145.351 228.387 151.201 228.387 162.086Z" fill="#0D0D0D"/>
<path d="M219.123 275.443C219.123 275.443 215.135 286.427 229.39 291.371C229.39 291.371 234.045 284.532 229.39 278.937C224.734 273.342 219.123 275.443 219.123 275.443Z" fill="#32C27D"/>
<path opacity="0.7" d="M219.123 275.443C219.123 275.443 215.135 286.427 229.39 291.371C229.39 291.371 234.045 284.532 229.39 278.937C224.734 273.342 219.123 275.443 219.123 275.443Z" fill="#0D0D0D"/>
<path d="M224.122 275.946C224.122 275.946 210.196 281.047 210.27 283.024C210.344 285.002 216.187 283.651 216.187 283.651L214.052 285.051C211.805 286.518 210.064 288.641 209.067 291.133C208.85 291.682 208.842 292.292 209.046 292.847C209.249 293.402 209.65 293.862 210.171 294.14L215.461 296.942C215.76 297.1 216.088 297.197 216.424 297.227C216.761 297.257 217.101 297.219 217.423 297.115C217.745 297.011 218.042 296.844 218.298 296.623C218.555 296.402 218.764 296.132 218.914 295.829C219.209 295.247 219.616 294.728 220.113 294.304C220.609 293.88 221.185 293.558 221.806 293.357C224.682 292.402 230.046 289.649 232.197 282.118L224.122 275.946Z" fill="#945959"/>
<path d="M228.304 205.189C228.304 205.189 220.888 209.309 224.827 221.818C228.766 234.326 236.157 253.731 236.157 253.731L219.125 275.444C220.945 275.663 222.698 276.264 224.269 277.207C225.841 278.149 227.196 279.413 228.247 280.915C229.253 282.442 229.881 284.187 230.081 286.005C230.28 287.823 230.044 289.663 229.392 291.372L250.536 264.18C252.491 261.667 253.789 258.706 254.313 255.565C254.837 252.425 254.569 249.203 253.535 246.192L244.471 219.725C243.363 216.492 241.522 213.559 239.092 211.156C236.662 208.753 233.709 206.945 230.463 205.873L228.304 205.189Z" fill="#32C27D"/>
<path d="M103.12 131.301L70.3499 112.349C69.9728 112.088 69.5365 111.925 69.0804 111.874C68.6243 111.824 68.1629 111.888 67.7378 112.061C67.6482 112.102 67.5627 112.152 67.4824 112.209L60.3548 116.387H60.4042C59.5061 116.898 58.9375 118.084 58.9375 119.782V156.235C58.9375 159.317 60.808 162.902 63.1234 164.236L95.8939 183.188C96.3097 183.489 96.8047 183.661 97.3173 183.683C97.83 183.705 98.3379 183.576 98.7779 183.312C98.7556 183.321 98.7358 183.335 98.7202 183.353L105.798 179.233C106.721 178.739 107.306 177.536 107.306 175.814V139.302C107.306 136.22 105.469 132.636 103.12 131.301Z" fill="#32C27D"/>
<path d="M106.133 134.754C105.47 133.344 104.425 132.148 103.117 131.301L70.3467 112.349C69.9696 112.088 69.5332 111.924 69.0772 111.874C68.6211 111.824 68.1597 111.888 67.7346 112.061C67.645 112.102 67.5595 112.152 67.4792 112.209L60.3516 116.387C60.7876 116.164 61.2765 116.065 61.7648 116.101C62.2531 116.138 62.722 116.308 63.1202 116.593L95.8907 135.545C97.2433 136.429 98.3153 137.681 98.9807 139.154L106.133 134.754Z" fill="#32C27D"/>
<path d="M100.078 179.983C100.078 181.631 99.551 182.777 98.7188 183.279L105.797 179.159C106.72 178.665 107.305 177.462 107.305 175.74V139.302C107.27 137.716 106.87 136.16 106.135 134.754L98.9824 139.154C99.6691 140.519 100.044 142.019 100.078 143.546V179.983Z" fill="#32C27D"/>
<path opacity="0.3" d="M106.133 134.754C105.47 133.344 104.425 132.148 103.117 131.301L70.3467 112.349C69.9696 112.088 69.5332 111.924 69.0772 111.874C68.6211 111.824 68.1597 111.888 67.7346 112.061C67.645 112.102 67.5595 112.152 67.4792 112.209L60.3516 116.387C60.7876 116.164 61.2765 116.065 61.7648 116.101C62.2531 116.138 62.722 116.308 63.1202 116.593L95.8907 135.545C97.2433 136.429 98.3153 137.681 98.9807 139.154L106.133 134.754Z" fill="#0D0D0D"/>
<path opacity="0.6" d="M100.078 179.983C100.078 181.631 99.551 182.777 98.7188 183.279L105.797 179.159C106.72 178.665 107.305 177.462 107.305 175.74V139.302C107.27 137.716 106.87 136.16 106.135 134.754L98.9824 139.154C99.6691 140.519 100.044 142.019 100.078 143.546V179.983Z" fill="#0D0D0D"/>
<path d="M90.4688 153.986C90.4688 158.708 88.5983 160.314 85.7967 158.691C85.0239 158.251 84.3481 157.659 83.8099 156.951C83.2718 156.243 82.8825 155.433 82.6655 154.571C81.8415 155.585 80.5643 155.65 78.768 154.612C75.8181 152.907 73.4944 148.844 73.4944 144.897C73.4944 140.95 75.7934 139.591 78.768 141.305C80.2774 142.194 81.4967 143.502 82.2783 145.07V143.513L85.3847 145.309V153.846C85.3385 154.295 85.4162 154.748 85.6094 155.157C85.8026 155.565 86.1039 155.912 86.4806 156.161C87.5271 156.771 88.1699 155.741 88.1699 152.684C88.1699 147.336 84.742 141.667 79.6744 138.742C74.6068 135.817 71.1872 137.852 71.1872 143.356C71.2536 146.277 72.0584 149.134 73.5266 151.659C74.9948 154.185 77.0786 156.298 79.5838 157.801C80.944 158.639 82.4886 159.131 84.0828 159.235L84.8162 162.078C82.9599 161.928 81.1661 161.338 79.5838 160.356C72.9918 156.54 68.6328 148.861 68.6328 141.906C68.6328 134.952 73.033 132.43 79.6744 136.27C86.0934 139.97 90.4688 147.378 90.4688 153.986ZM82.3277 150.023C82.3437 148.978 82.0888 147.947 81.5877 147.03C81.0866 146.113 80.3564 145.341 79.4684 144.79C77.8204 143.826 76.6421 144.502 76.6421 146.743C76.6209 147.79 76.8699 148.824 77.3649 149.746C77.86 150.669 78.5845 151.448 79.4684 152.008C81.1164 152.94 82.3277 152.338 82.3277 150.023Z" fill="#32C27D"/>
<g opacity="0.9">
<path d="M90.4688 153.986C90.4688 158.708 88.5983 160.314 85.7967 158.691C85.0239 158.251 84.3481 157.659 83.8099 156.951C83.2718 156.243 82.8825 155.433 82.6655 154.571C81.8415 155.585 80.5643 155.65 78.768 154.612C75.8181 152.907 73.4944 148.844 73.4944 144.897C73.4944 140.95 75.7934 139.591 78.768 141.305C80.2774 142.194 81.4967 143.502 82.2783 145.07V143.513L85.3847 145.309V153.846C85.3385 154.295 85.4162 154.748 85.6094 155.157C85.8026 155.565 86.1039 155.912 86.4806 156.161C87.5271 156.771 88.1699 155.741 88.1699 152.684C88.1699 147.336 84.742 141.667 79.6744 138.742C74.6068 135.817 71.1872 137.852 71.1872 143.356C71.2536 146.277 72.0584 149.134 73.5266 151.659C74.9948 154.185 77.0786 156.298 79.5838 157.801C80.944 158.639 82.4886 159.131 84.0828 159.235L84.8162 162.078C82.9599 161.928 81.1661 161.338 79.5838 160.356C72.9918 156.54 68.6328 148.861 68.6328 141.906C68.6328 134.952 73.033 132.43 79.6744 136.27C86.0934 139.97 90.4688 147.378 90.4688 153.986ZM82.3277 150.023C82.3437 148.978 82.0888 147.947 81.5877 147.03C81.0866 146.113 80.3564 145.341 79.4684 144.79C77.8204 143.826 76.6421 144.502 76.6421 146.743C76.6209 147.79 76.8699 148.824 77.3649 149.746C77.86 150.669 78.5845 151.448 79.4684 152.008C81.1164 152.94 82.3277 152.338 82.3277 150.023Z" fill="white"/>
</g>
<path d="M103.12 196.216L70.3499 177.264C69.9733 177.001 69.5364 176.838 69.0798 176.789C68.6232 176.74 68.1616 176.807 67.7378 176.984C67.6482 177.025 67.5627 177.075 67.4824 177.132L60.3548 181.31H60.4042C59.5061 181.821 58.9375 183.008 58.9375 184.697V221.134C58.9375 224.224 60.808 227.8 63.1234 229.135L95.8939 248.087C96.3088 248.39 96.804 248.563 97.3172 248.585C97.8304 248.607 98.3386 248.477 98.7779 248.211L98.7202 248.26L105.798 244.099C106.721 243.613 107.306 242.451 107.306 240.679V204.209C107.306 201.127 105.469 197.551 103.12 196.216Z" fill="#32C27D"/>
<path d="M106.133 199.669C105.472 198.257 104.427 197.061 103.117 196.216L70.3467 177.264C69.9701 177.001 69.5332 176.838 69.0766 176.789C68.62 176.74 68.1584 176.807 67.7346 176.984C67.645 177.025 67.5595 177.075 67.4792 177.132L60.3516 181.31C60.7866 181.085 61.2752 180.985 61.7637 181.019C62.2522 181.054 62.7216 181.223 63.1202 181.508L95.8907 200.46C97.2454 201.345 98.3178 202.601 98.9807 204.077L106.133 199.669Z" fill="#32C27D"/>
<path d="M100.078 244.889C100.078 246.537 99.551 247.682 98.7188 248.226L105.797 244.065C106.72 243.579 107.305 242.417 107.305 240.645V204.208C107.27 202.625 106.869 201.071 106.135 199.668L98.9824 204.068C99.669 205.43 100.043 206.927 100.078 208.452V244.889Z" fill="#32C27D"/>
<path opacity="0.3" d="M106.133 199.669C105.472 198.257 104.427 197.061 103.117 196.216L70.3467 177.264C69.9701 177.001 69.5332 176.838 69.0766 176.789C68.62 176.74 68.1584 176.807 67.7346 176.984C67.645 177.025 67.5595 177.075 67.4792 177.132L60.3516 181.31C60.7866 181.085 61.2752 180.985 61.7637 181.019C62.2522 181.054 62.7216 181.223 63.1202 181.508L95.8907 200.46C97.2454 201.345 98.3178 202.601 98.9807 204.077L106.133 199.669Z" fill="#0D0D0D"/>
<path opacity="0.6" d="M100.078 244.889C100.078 246.537 99.551 247.682 98.7188 248.226L105.797 244.065C106.72 243.579 107.305 242.417 107.305 240.645V204.208C107.27 202.625 106.869 201.071 106.135 199.668L98.9824 204.068C99.669 205.43 100.043 206.927 100.078 208.452V244.889Z" fill="#0D0D0D"/>
<path d="M75.8475 212.506L67.9453 199.668V217.063L75.8475 212.506Z" fill="#32C27D"/>
<path d="M83.1875 216.206L91.0732 229.86V212.49L83.1875 216.206Z" fill="#32C27D"/>
<path d="M69.1406 199.084L77.257 212.268C77.2914 212.297 77.3219 212.33 77.3477 212.367C77.3548 212.399 77.3548 212.433 77.3477 212.466L79.762 216.388L81.8055 215.424C81.8373 215.389 81.8733 215.359 81.9126 215.333C81.9932 215.286 82.0833 215.258 82.1763 215.251L90.4163 211.386L69.1406 199.084Z" fill="#32C27D"/>
<path d="M81.9916 216.766L79.7832 217.805C79.6982 217.844 79.6052 217.864 79.5113 217.862C79.3976 217.864 79.2855 217.835 79.1858 217.781C79.0862 217.726 79.0025 217.646 78.9428 217.549L76.5284 213.627L68.6016 218.208L89.9349 230.519L81.9916 216.766Z" fill="#32C27D"/>
<g opacity="0.9">
<path d="M75.8475 212.507L67.9453 199.669V217.064L75.8475 212.507Z" fill="white"/>
<path d="M83.1875 216.206L91.0732 229.86V212.49L83.1875 216.206Z" fill="white"/>
<path d="M69.1406 199.084L77.257 212.268C77.2914 212.297 77.3219 212.33 77.3477 212.367C77.3548 212.399 77.3548 212.433 77.3477 212.466L79.762 216.388L81.8055 215.424C81.8373 215.389 81.8733 215.359 81.9126 215.333C81.9932 215.286 82.0833 215.258 82.1763 215.251L90.4163 211.386L69.1406 199.084Z" fill="white"/>
<path d="M81.9916 216.766L79.7832 217.805C79.6982 217.844 79.6052 217.864 79.5113 217.862C79.3976 217.864 79.2855 217.835 79.1858 217.781C79.0862 217.726 79.0025 217.646 78.9428 217.549L76.5284 213.627L68.6016 218.208L89.9349 230.519L81.9916 216.766Z" fill="white"/>
</g>
<path d="M103.12 66.4194L70.3499 47.4674C69.9733 47.2046 69.5364 47.0411 69.0798 46.9921C68.6232 46.9431 68.1616 47.0103 67.7378 47.1872C67.6482 47.2286 67.5627 47.2783 67.4824 47.3356L60.3548 51.5132H60.4042C59.5061 52.0159 58.9375 53.2107 58.9375 54.8999V91.3372C58.9375 94.4189 60.808 98.0033 63.1234 99.3382L95.8939 118.29C96.3088 118.593 96.804 118.766 97.3172 118.788C97.8304 118.81 98.3386 118.68 98.7779 118.414L98.7202 118.455L105.798 114.335C106.721 113.849 107.306 112.687 107.306 110.915V74.3875C107.306 71.3057 105.469 67.7213 103.12 66.4194Z" fill="#32C27D"/>
<path d="M106.133 69.8472C105.472 68.4335 104.427 67.2342 103.117 66.3864L70.3467 47.4674C69.9701 47.2046 69.5332 47.0411 69.0766 46.9921C68.62 46.9431 68.1584 47.0103 67.7346 47.1872C67.645 47.2286 67.5595 47.2783 67.4792 47.3356L60.3516 51.5132C60.7866 51.2883 61.2752 51.1877 61.7637 51.2226C62.2522 51.2575 62.7216 51.4265 63.1202 51.711L95.8907 70.663C97.2454 71.5485 98.3178 72.8039 98.9807 74.2804L106.133 69.8472Z" fill="#32C27D"/>
<path d="M100.078 115.036C100.078 116.684 99.551 117.829 98.7188 118.332L105.797 114.212C106.72 113.726 107.305 112.564 107.305 110.792V74.3879C107.27 72.8045 106.869 71.2507 106.135 69.8477L98.9824 74.2478C99.669 75.6094 100.043 77.107 100.078 78.6315V115.036Z" fill="#32C27D"/>
<path opacity="0.3" d="M106.133 69.8472C105.472 68.4335 104.427 67.2342 103.117 66.3864L70.3467 47.4674C69.9701 47.2046 69.5332 47.0411 69.0766 46.9921C68.62 46.9431 68.1584 47.0103 67.7346 47.1872C67.645 47.2286 67.5595 47.2783 67.4792 47.3356L60.3516 51.5132C60.7866 51.2883 61.2752 51.1877 61.7637 51.2226C62.2522 51.2575 62.7216 51.4265 63.1202 51.711L95.8907 70.663C97.2454 71.5485 98.3178 72.8039 98.9807 74.2804L106.133 69.8472Z" fill="#0D0D0D"/>
<path opacity="0.6" d="M100.078 115.036C100.078 116.684 99.551 117.829 98.7188 118.332L105.797 114.212C106.72 113.726 107.305 112.564 107.305 110.792V74.3879C107.27 72.8045 106.869 71.2507 106.135 69.8477L98.9824 74.2478C99.669 75.6094 100.043 77.107 100.078 78.6315V115.036Z" fill="#0D0D0D"/>
<path d="M89.3562 99.3795C88.0955 97.303 86.8265 95.2595 85.5658 93.1665C85.3659 92.7701 85.0863 92.4192 84.7446 92.1356C84.403 91.8521 84.0065 91.642 83.58 91.5185C82.9702 91.3949 82.3605 91.2549 81.7342 91.0736C81.5112 90.9806 81.3236 90.819 81.1986 90.6121C79.1357 87.0814 77.4956 83.32 76.3123 79.4057C76.2871 79.3221 76.28 79.234 76.2914 79.1474C76.3027 79.0607 76.3323 78.9775 76.3782 78.9031C76.7655 78.5158 77.2022 78.1615 77.5977 77.8154C77.9933 77.4693 78.1993 76.6701 77.9109 75.6318C77.3011 73.4317 76.7161 71.2317 76.1063 69.0398C75.9883 68.417 75.7084 67.8363 75.2947 67.3561C74.881 66.8758 74.3481 66.513 73.7497 66.3041C72.4209 65.9347 71.0102 65.9865 69.7121 66.4525C69.2094 66.642 68.9457 67.0952 68.9375 67.878C69.1517 69.3859 69.2918 70.8773 69.5802 72.41C71.6128 83.4626 76.5018 93.6252 84.2474 102.898C84.4496 103.205 84.7213 103.461 85.0405 103.644C85.3597 103.828 85.7174 103.933 86.0849 103.953C87.3673 103.922 88.5993 103.447 89.5705 102.61C90.3038 101.95 90.2297 100.78 89.3562 99.3795Z" fill="#32C27D"/>
<path d="M89.2627 88.1488C89.0903 85.7787 88.437 83.4685 87.3427 81.359C86.5257 79.7112 85.486 78.1834 84.2527 76.8188C83.9314 76.4562 83.6595 76.3409 83.4947 76.6128C83.3299 76.8847 83.4947 77.272 83.8078 77.6263L84.1291 77.9971C86.4067 80.6261 87.842 83.8786 88.2491 87.333C88.2451 87.585 88.27 87.8366 88.3233 88.0829C88.4268 88.3663 88.593 88.6226 88.8095 88.8327C88.9825 88.9563 89.1803 88.8327 89.3203 88.8327C89.2709 88.4949 89.2791 88.3218 89.2627 88.1488Z" fill="#32C27D"/>
<path d="M81.7915 81.3837C82.8262 82.5218 83.455 83.9705 83.5796 85.5037C83.6338 85.7368 83.7198 85.9613 83.835 86.1711C84.3377 86.5831 84.5849 86.443 84.5849 85.9239C84.4087 83.9582 83.5957 82.1036 82.2694 80.6421C81.9563 80.3207 81.7009 80.2218 81.5525 80.4938C81.4992 80.649 81.4934 80.8167 81.536 80.9752C81.5786 81.1338 81.6675 81.276 81.7915 81.3837Z" fill="#32C27D"/>
<g opacity="0.9">
<path d="M89.3562 99.3795C88.0955 97.303 86.8265 95.2595 85.5658 93.1665C85.3659 92.7701 85.0863 92.4192 84.7446 92.1356C84.403 91.8521 84.0065 91.642 83.58 91.5185C82.9702 91.3949 82.3605 91.2549 81.7342 91.0736C81.5112 90.9806 81.3236 90.819 81.1986 90.6121C79.1357 87.0814 77.4956 83.32 76.3123 79.4057C76.2871 79.3221 76.28 79.234 76.2914 79.1474C76.3027 79.0607 76.3323 78.9775 76.3782 78.9031C76.7655 78.5158 77.2022 78.1615 77.5977 77.8154C77.9933 77.4693 78.1993 76.6701 77.9109 75.6318C77.3011 73.4317 76.7161 71.2317 76.1063 69.0398C75.9883 68.417 75.7084 67.8363 75.2947 67.3561C74.881 66.8758 74.3481 66.513 73.7497 66.3041C72.4209 65.9347 71.0102 65.9865 69.7121 66.4525C69.2094 66.642 68.9457 67.0952 68.9375 67.878C69.1517 69.3859 69.2918 70.8773 69.5802 72.41C71.6128 83.4626 76.5018 93.6252 84.2474 102.898C84.4496 103.205 84.7213 103.461 85.0405 103.644C85.3597 103.828 85.7174 103.933 86.0849 103.953C87.3673 103.922 88.5993 103.447 89.5705 102.61C90.3038 101.95 90.2297 100.78 89.3562 99.3795Z" fill="white"/>
<path d="M89.2548 88.1488C89.0825 85.7787 88.4292 83.4685 87.3349 81.359C86.5179 79.7112 85.4782 78.1834 84.2449 76.8188C83.9236 76.4562 83.6516 76.3409 83.4868 76.6128C83.322 76.8847 83.4868 77.272 83.8 77.6263L84.1213 77.9971C86.3989 80.6261 87.8342 83.8786 88.2413 87.333C88.2373 87.585 88.2622 87.8366 88.3155 88.0829C88.419 88.3663 88.5852 88.6226 88.8016 88.8327C88.9747 88.9563 89.1724 88.8327 89.3125 88.8327C89.2631 88.4949 89.2713 88.3218 89.2548 88.1488Z" fill="white"/>
<path d="M81.7915 81.3837C82.8262 82.5218 83.455 83.9705 83.5796 85.5037C83.6338 85.7368 83.7198 85.9613 83.835 86.1711C84.3377 86.5831 84.5849 86.443 84.5849 85.9239C84.4087 83.9582 83.5957 82.1036 82.2694 80.6421C81.9563 80.3207 81.7009 80.2218 81.5525 80.4938C81.4992 80.649 81.4934 80.8167 81.536 80.9752C81.5786 81.1338 81.6675 81.276 81.7915 81.3837Z" fill="white"/>
</g>
<path d="M271.264 44.567L278.985 48.9589V46.2232C278.985 46.0337 278.985 45.8359 278.985 45.6464C278.985 45.4569 278.985 45.2756 278.985 45.0943V44.9955C279.265 41.3781 282.009 39.9855 285.354 41.9219C286.869 42.8535 288.167 44.0981 289.161 45.5723C289.911 40.6283 293.924 38.8814 298.777 41.6747C304.166 44.7895 308.533 52.3867 308.533 58.5832V64.4336C308.525 64.9016 308.641 65.3634 308.868 65.7727C309.095 66.182 309.426 66.5244 309.827 66.7655L314.375 69.4271C315.357 70.0091 316.171 70.836 316.737 71.8268C317.303 72.8176 317.602 73.9385 317.605 75.0797C317.606 75.5532 317.481 76.0183 317.244 76.4283C317.007 76.8382 316.667 77.1786 316.256 77.415C315.846 77.6514 315.381 77.7756 314.908 77.775C314.434 77.7744 313.969 77.6491 313.56 77.4116L271.379 53.0295C270.26 52.3796 269.331 51.4483 268.683 50.328C268.035 49.2077 267.692 47.9374 267.688 46.6435C267.687 46.2246 267.797 45.813 268.006 45.4499C268.214 45.0868 268.515 44.785 268.877 44.5747C269.239 44.3643 269.651 44.2529 270.069 44.2516C270.488 44.2502 270.9 44.359 271.264 44.567Z" fill="#E6E6E6"/>
<path d="M330.119 43.4214L335.73 46.6432V44.6326C335.73 44.4926 335.73 44.3525 335.73 44.2124C335.73 44.0723 335.73 43.9405 335.73 43.8086V43.7592C335.936 41.1306 337.931 40.1171 340.361 41.5262C341.462 42.2006 342.406 43.1024 343.13 44.1712C343.682 40.595 346.599 39.3014 350.126 41.3366C354.048 43.6026 357.22 49.107 357.22 53.6307V57.8908C357.223 58.2247 357.313 58.5522 357.481 58.8411C357.648 59.13 357.888 59.3704 358.176 59.5388L361.472 61.4752C362.189 61.897 362.784 62.4993 363.196 63.2221C363.608 63.945 363.823 64.7632 363.821 65.5952C363.82 65.936 363.731 66.2707 363.561 66.5665C363.392 66.8622 363.149 67.1087 362.855 67.2817C362.562 67.4547 362.228 67.5483 361.887 67.5531C361.546 67.5579 361.21 67.4738 360.912 67.3091L330.201 49.5766C329.388 49.1058 328.712 48.4295 328.242 47.6153C327.772 46.8011 327.524 45.8776 327.523 44.9375C327.523 44.6332 327.602 44.3341 327.753 44.0701C327.905 43.8061 328.122 43.5863 328.385 43.4328C328.648 43.2794 328.946 43.1975 329.251 43.1955C329.555 43.1935 329.854 43.2714 330.119 43.4214Z" fill="#E6E6E6"/>
</svg>
