<svg width="272" height="350" viewBox="0 0 272 350" fill="none" xmlns="http://www.w3.org/2000/svg">
<g clip-path="url(#clip0_682_2174)">
<path opacity="0.5" d="M144.577 107.437C120.79 93.5584 101.125 106.53 97.6456 136.481C97.0405 141.662 100.974 148.507 105.776 151.306L183.378 196.611C188.181 199.41 192.114 197.141 191.509 191.241C188.03 157.319 168.327 121.316 144.577 107.437Z" fill="url(#paint0_linear_682_2174)"/>
<path opacity="0.5" d="M171.086 68.562C171.086 89.2482 159.136 99.0051 144.387 90.3827C129.638 81.7603 117.688 58.0488 117.688 37.3626C117.688 16.6764 129.638 6.91945 144.387 15.5418C159.136 24.1642 171.086 47.8758 171.086 68.562Z" fill="url(#paint1_linear_682_2174)"/>
<path opacity="0.07" d="M159.855 95.0351C136.067 81.1561 116.402 94.1275 112.923 124.079C112.318 129.26 116.251 136.105 121.054 138.903L198.655 184.209C203.458 187.007 207.391 184.738 206.786 178.839C203.307 144.916 183.642 108.914 159.855 95.0351Z" fill="url(#paint2_linear_682_2174)"/>
<path opacity="0.07" d="M186.365 56.1577C186.365 76.8439 174.415 86.6008 159.666 77.9784C144.917 69.356 132.967 45.6445 132.967 24.9583C132.967 4.27208 144.917 -5.48485 159.666 3.13755C174.415 11.7599 186.365 35.4715 186.365 56.1577Z" fill="url(#paint3_linear_682_2174)"/>
<path opacity="0.2" d="M237.758 211.852L170.557 173.051V208.07L237.758 246.871V211.852Z" fill="url(#paint4_linear_682_2174)"/>
<path d="M184.209 192.678C184.209 195.553 182.508 196.914 180.39 195.704C178.272 194.494 176.57 191.166 176.57 188.292C176.57 185.418 178.272 184.056 180.39 185.266C182.508 186.476 184.209 189.804 184.209 192.678Z" fill="#12B769"/>
<path opacity="0.15" d="M187.764 191.432L207.959 203.117V207.315L187.727 195.629L187.764 191.432Z" fill="white"/>
<path opacity="0.15" d="M187.764 199.865L230.8 224.711V228.985L187.764 204.139V199.865Z" fill="white"/>
<path opacity="0.2" d="M101.237 171.388L34.0352 132.625V167.644L101.237 206.445V171.388Z" fill="url(#paint5_linear_682_2174)"/>
<path d="M47.688 152.214C47.688 155.088 45.9862 156.449 43.8684 155.239C41.7506 154.029 40.0488 150.701 40.0488 147.827C40.0488 144.953 41.7506 143.591 43.8684 144.801C45.9862 146.012 47.688 149.34 47.688 152.214Z" fill="#6FE6A6"/>
<path opacity="0.15" d="M51.1289 151.156L63.3061 158.19V162.464L51.1289 155.43V151.156Z" fill="white"/>
<path opacity="0.15" d="M51.2422 159.588L94.2785 184.434V188.707L51.2422 163.861V159.588Z" fill="white"/>
<path opacity="0.3" d="M144.539 210.113L271.871 283.631L271.908 350L155.809 282.988L144.577 286.656L144.539 210.113Z" fill="url(#paint6_linear_682_2174)"/>
<path d="M170.405 247.287C170.405 252.771 167.191 255.305 163.182 252.998C159.173 250.691 155.959 244.375 155.959 238.93C155.959 233.446 159.173 230.912 163.182 233.219C167.153 235.526 170.405 241.842 170.405 247.287Z" fill="#12B769"/>
<path opacity="0.15" d="M177.289 245.17L205.198 261.28V267.104L177.289 250.994V245.17Z" fill="white"/>
<path opacity="0.15" d="M177.289 256.855L260.639 304.959V310.783L177.289 262.679V256.855Z" fill="white"/>
<path opacity="0.15" d="M177.289 268.541L242.449 306.169V311.993L177.289 274.365V268.541Z" fill="white"/>
<path opacity="0.3" d="M127.332 229.173L0 155.693L0.0378175 222.063L116.138 289.076L127.369 305.715L127.332 229.173Z" fill="url(#paint7_linear_682_2174)"/>
<path d="M101.465 236.472C101.465 241.955 104.717 248.233 108.688 250.54C112.697 252.847 115.911 250.275 115.911 244.792C115.911 239.308 112.659 233.03 108.688 230.723C104.717 228.454 101.465 231.026 101.465 236.472Z" fill="#6FE6A6"/>
<path opacity="0.15" d="M94.5812 226.45L66.6719 210.34V216.164L94.5812 232.274V226.45Z" fill="white"/>
<path opacity="0.15" d="M94.6194 238.098L11.2695 189.994V195.818L94.5815 243.922L94.6194 238.098Z" fill="white"/>
<path opacity="0.15" d="M94.6186 249.783L29.459 212.154V217.978L94.6186 255.607V249.783Z" fill="white"/>
<path opacity="0.2" d="M53.0206 270.507C55.2897 271.793 57.1049 274.97 57.1049 277.617V289.151L64.7441 293.538C67.0131 294.824 68.8283 298.001 68.8283 300.61C68.8283 303.22 67.0131 304.278 64.7441 302.993L57.1049 298.568V310.102C57.1049 312.712 55.2897 313.771 53.0206 312.485C50.7516 311.199 48.9363 308.022 48.9363 305.413V293.879L41.2972 289.492C39.0281 288.206 37.2129 285.029 37.2129 282.42C37.2129 279.81 39.0281 278.752 41.2972 280.037L48.9363 284.424V272.89C48.8985 270.243 50.7516 269.184 53.0206 270.507Z" fill="url(#paint8_linear_682_2174)"/>
<path opacity="0.2" d="M217.338 122.754L227.851 143.402C229.288 146.239 229.061 149.075 227.322 149.756C225.582 150.436 223.011 148.659 221.574 145.823L221.46 145.558V168.475C221.46 171.085 219.645 172.144 217.376 170.858C215.107 169.534 213.292 166.395 213.292 163.786V140.869L213.178 140.982C211.741 142.154 209.132 140.944 207.43 138.259C205.69 135.574 205.463 132.473 206.9 131.301L217.338 122.754Z" fill="url(#paint9_linear_682_2174)"/>
<path opacity="0.2" d="M127.332 159.668L111.146 150.327V144.881L127.332 154.222C128.656 154.978 130.585 156.529 132.211 158.911C133.988 161.445 135.236 164.659 135.236 168.139C135.236 171.996 134.253 174.189 132.4 174.795C130.66 175.362 128.58 174.379 127.332 173.66L120.677 169.803L120.639 169.765C120.071 169.424 119.164 169.084 118.445 169.311C117.84 169.5 117.197 170.067 117.197 172.223C117.197 174.379 117.878 175.664 118.407 176.459C119.088 177.442 119.996 178.122 120.563 178.425L120.639 178.463L140.985 190.224V195.67L120.752 183.984C119.353 183.266 117.349 181.715 115.609 179.295C113.718 176.61 112.432 173.244 112.432 169.5C112.432 165.756 113.718 163.865 115.571 163.336C117.311 162.844 119.315 163.563 120.714 164.395L127.295 168.214C128.24 168.782 128.959 169.008 129.45 168.857C129.828 168.744 130.509 168.214 130.509 165.454C130.509 163.638 129.942 162.466 129.375 161.71C128.732 160.689 127.9 159.97 127.332 159.668Z" fill="white"/>
<path d="M114.134 149.155C114.134 154.033 111.26 156.34 107.743 154.336C104.226 152.294 101.352 146.697 101.352 141.78C101.352 136.902 104.226 134.595 107.743 136.599C111.26 138.642 114.134 144.276 114.134 149.155Z" fill="#6FE6A6"/>
<path d="M149.304 197.561C149.304 202.44 146.43 204.746 142.913 202.742C139.396 200.7 136.521 195.103 136.521 190.187C136.521 185.308 139.396 183.001 142.913 185.006C146.43 187.048 149.304 192.683 149.304 197.561Z" fill="#12B769"/>
</g>
<defs>
<linearGradient id="paint0_linear_682_2174" x1="242.705" y1="84.8043" x2="146.102" y2="155.273" gradientUnits="userSpaceOnUse">
<stop stop-color="white"/>
<stop offset="1" stop-color="white" stop-opacity="0"/>
</linearGradient>
<linearGradient id="paint1_linear_682_2174" x1="193.473" y1="17.1626" x2="96.8701" y2="87.6314" gradientUnits="userSpaceOnUse">
<stop stop-color="white"/>
<stop offset="1" stop-color="white" stop-opacity="0"/>
</linearGradient>
<linearGradient id="paint2_linear_682_2174" x1="257.988" y1="72.3976" x2="161.385" y2="142.866" gradientUnits="userSpaceOnUse">
<stop stop-color="white"/>
<stop offset="1" stop-color="white" stop-opacity="0"/>
</linearGradient>
<linearGradient id="paint3_linear_682_2174" x1="208.759" y1="4.75365" x2="112.156" y2="75.2223" gradientUnits="userSpaceOnUse">
<stop stop-color="white"/>
<stop offset="1" stop-color="white" stop-opacity="0"/>
</linearGradient>
<linearGradient id="paint4_linear_682_2174" x1="211.731" y1="196.833" x2="196.572" y2="223.096" gradientUnits="userSpaceOnUse">
<stop stop-color="white"/>
<stop offset="1" stop-color="white" stop-opacity="0"/>
</linearGradient>
<linearGradient id="paint5_linear_682_2174" x1="75.21" y1="156.374" x2="60.0513" y2="182.637" gradientUnits="userSpaceOnUse">
<stop stop-color="white"/>
<stop offset="1" stop-color="white" stop-opacity="0"/>
</linearGradient>
<linearGradient id="paint6_linear_682_2174" x1="199.231" y1="212.274" x2="215.695" y2="345.806" gradientUnits="userSpaceOnUse">
<stop stop-color="white"/>
<stop offset="1" stop-color="white" stop-opacity="0"/>
</linearGradient>
<linearGradient id="paint7_linear_682_2174" x1="99.5663" y1="202.595" x2="33.8119" y2="254.079" gradientUnits="userSpaceOnUse">
<stop stop-color="white"/>
<stop offset="1" stop-color="white" stop-opacity="0"/>
</linearGradient>
<linearGradient id="paint8_linear_682_2174" x1="60.9073" y1="285.239" x2="41.1071" y2="300.866" gradientUnits="userSpaceOnUse">
<stop stop-color="white"/>
<stop offset="1" stop-color="white" stop-opacity="0"/>
</linearGradient>
<linearGradient id="paint9_linear_682_2174" x1="224.811" y1="143.584" x2="205.63" y2="154.276" gradientUnits="userSpaceOnUse">
<stop stop-color="white"/>
<stop offset="1" stop-color="white" stop-opacity="0"/>
</linearGradient>
<clipPath id="clip0_682_2174">
<rect width="271.908" height="350" fill="white"/>
</clipPath>
</defs>
</svg>
