<svg width="316" height="162" viewBox="0 0 316 162" fill="none" xmlns="http://www.w3.org/2000/svg">
<rect x="1" y="1" width="314" height="160" rx="12" fill="#051A12"/>
<rect x="1" y="1" width="314" height="160" rx="12" stroke="#536750" stroke-width="0.5"/>
<g clip-path="url(#clip0_682_2572)">
<path opacity="0.5" d="M161.83 53.9758C152.316 48.4241 144.45 53.6127 143.058 65.5933C142.816 67.6657 144.389 70.4037 146.31 71.5231L177.351 89.6453C179.272 90.7647 180.845 89.857 180.603 87.4972C179.211 73.9283 171.33 59.5274 161.83 53.9758Z" fill="url(#paint0_linear_682_2572)"/>
<path opacity="0.5" d="M172.436 38.424C172.436 46.6985 167.655 50.6013 161.756 47.1523C155.856 43.7034 151.076 34.2187 151.076 25.9442C151.076 17.6698 155.856 13.767 161.756 17.216C167.655 20.6649 172.436 30.1496 172.436 38.424Z" fill="url(#paint1_linear_682_2572)"/>
<path opacity="0.07" d="M167.942 49.0129C158.427 43.4613 150.561 48.6498 149.169 60.6304C148.927 62.7028 150.5 65.4408 152.421 66.5602L183.462 84.6824C185.383 85.8018 186.956 84.8941 186.714 82.5343C185.323 68.9654 177.457 54.5645 167.942 49.0129Z" fill="url(#paint2_linear_682_2572)"/>
<path opacity="0.07" d="M178.547 33.4631C178.547 41.7376 173.767 45.6403 167.867 42.1914C161.968 38.7424 157.188 29.2578 157.188 20.9833C157.188 12.7088 161.968 8.80606 167.867 12.255C173.767 15.704 178.547 25.1886 178.547 33.4631Z" fill="url(#paint3_linear_682_2572)"/>
<path opacity="0.2" d="M199.103 95.741L172.223 80.2207V94.2283L199.103 109.749V95.741Z" fill="url(#paint4_linear_682_2572)"/>
<path d="M177.685 88.0714C177.685 89.221 177.004 89.7656 176.157 89.2816C175.31 88.7975 174.629 87.4663 174.629 86.3167C174.629 85.167 175.31 84.6224 176.157 85.1065C177.004 85.5906 177.685 86.9217 177.685 88.0714Z" fill="#12B769"/>
<path opacity="0.15" d="M179.105 87.5723L187.183 92.2465V93.9256L179.09 89.2514L179.105 87.5723Z" fill="white"/>
<path opacity="0.15" d="M179.105 90.9453L196.32 100.884V102.593L179.105 92.6547V90.9453Z" fill="white"/>
<path opacity="0.2" d="M144.496 79.556L117.615 64.0508V78.0584L144.496 93.5787V79.556Z" fill="url(#paint5_linear_682_2572)"/>
<path d="M123.075 71.8858C123.075 73.0355 122.394 73.5801 121.547 73.096C120.7 72.6119 120.02 71.2808 120.02 70.1311C120.02 68.9815 120.7 68.4369 121.547 68.9209C122.394 69.405 123.075 70.7362 123.075 71.8858Z" fill="#6FE6A6"/>
<path opacity="0.15" d="M124.451 71.4629L129.322 74.2765V75.9859L124.451 73.1722V71.4629Z" fill="white"/>
<path opacity="0.15" d="M124.498 74.8359L141.713 84.7744V86.4837L124.498 76.5453V74.8359Z" fill="white"/>
<path opacity="0.3" d="M161.816 95.0449L212.749 124.452L212.764 151L166.324 124.195L161.832 125.662L161.816 95.0449Z" fill="url(#paint6_linear_682_2572)"/>
<path d="M172.161 109.915C172.161 112.109 170.876 113.122 169.272 112.2C167.669 111.277 166.383 108.751 166.383 106.572C166.383 104.379 167.669 103.365 169.272 104.288C170.86 105.211 172.161 107.737 172.161 109.915Z" fill="#12B769"/>
<path opacity="0.15" d="M174.916 109.068L186.08 115.512V117.842L174.916 111.398V109.068Z" fill="white"/>
<path opacity="0.15" d="M174.916 113.742L208.256 132.984V135.313L174.916 116.072V113.742Z" fill="white"/>
<path opacity="0.15" d="M174.916 118.416L200.98 133.467V135.797L174.916 120.746V118.416Z" fill="white"/>
<path opacity="0.3" d="M154.933 102.669L104 73.2773L104.015 99.8253L150.455 126.63L154.948 133.286L154.933 102.669Z" fill="url(#paint7_linear_682_2572)"/>
<path d="M144.586 105.588C144.586 107.782 145.887 110.293 147.475 111.216C149.079 112.138 150.364 111.11 150.364 108.916C150.364 106.723 149.064 104.212 147.475 103.289C145.887 102.381 144.586 103.41 144.586 105.588Z" fill="#6FE6A6"/>
<path opacity="0.15" d="M141.832 101.581L130.668 95.1367V97.4663L141.832 103.91V101.581Z" fill="white"/>
<path opacity="0.15" d="M141.848 106.24L108.508 86.998V89.3276L141.833 108.569L141.848 106.24Z" fill="white"/>
<path opacity="0.15" d="M141.847 110.913L115.783 95.8613V98.1909L141.847 113.242V110.913Z" fill="white"/>
<path opacity="0.2" d="M125.208 119.203C126.115 119.717 126.842 120.988 126.842 122.046V126.66L129.897 128.415C130.805 128.929 131.531 130.2 131.531 131.244C131.531 132.287 130.805 132.711 129.897 132.197L126.842 130.427V135.041C126.842 136.084 126.115 136.508 125.208 135.994C124.3 135.479 123.574 134.209 123.574 133.165V128.551L120.518 126.796C119.611 126.282 118.885 125.011 118.885 123.968C118.885 122.924 119.611 122.5 120.518 123.015L123.574 124.769V120.156C123.559 119.097 124.3 118.673 125.208 119.203Z" fill="url(#paint8_linear_682_2572)"/>
<path opacity="0.2" d="M190.935 60.1016L195.141 68.3609C195.715 69.4954 195.625 70.63 194.929 70.9023C194.233 71.1745 193.204 70.4636 192.629 69.329L192.584 69.2232V78.3901C192.584 79.4339 191.858 79.8574 190.95 79.3431C190.043 78.8137 189.317 77.5581 189.317 76.5144V67.3474L189.271 67.3928C188.696 67.8617 187.653 67.3777 186.972 66.3036C186.276 65.2296 186.185 63.9892 186.76 63.5203L190.935 60.1016Z" fill="url(#paint9_linear_682_2572)"/>
<path opacity="0.2" d="M154.933 74.8678L148.459 71.1314V68.9531L154.933 72.6895C155.463 72.992 156.234 73.6122 156.885 74.5652C157.596 75.5788 158.095 76.8646 158.095 78.2562C158.095 79.7992 157.702 80.6766 156.96 80.9186C156.265 81.1455 155.433 80.7522 154.933 80.4648L152.271 78.9218L152.256 78.9067C152.029 78.7706 151.666 78.6344 151.378 78.7252C151.136 78.8008 150.879 79.0277 150.879 79.89C150.879 80.7522 151.152 81.2665 151.363 81.5842C151.636 81.9775 151.999 82.2498 152.226 82.3708L152.256 82.3859L160.394 87.0904V89.2687L152.301 84.5945C151.742 84.307 150.94 83.6868 150.244 82.7187C149.488 81.6447 148.973 80.2984 148.973 78.8008C148.973 77.3032 149.488 76.5469 150.229 76.3351C150.925 76.1385 151.726 76.4259 152.286 76.7587L154.918 78.2865C155.296 78.5134 155.584 78.6042 155.78 78.5436C155.932 78.4983 156.204 78.2865 156.204 77.1822C156.204 76.4561 155.977 75.9872 155.75 75.6846C155.493 75.2762 155.16 74.9888 154.933 74.8678Z" fill="white"/>
<path d="M149.654 70.6627C149.654 72.6141 148.504 73.5368 147.097 72.7351C145.691 71.9182 144.541 69.6794 144.541 67.7129C144.541 65.7616 145.691 64.8388 147.097 65.6405C148.504 66.4574 149.654 68.7113 149.654 70.6627Z" fill="#6FE6A6"/>
<path d="M163.722 90.024C163.722 91.9754 162.573 92.8982 161.166 92.0964C159.759 91.2796 158.609 89.0408 158.609 87.0743C158.609 85.1229 159.759 84.2001 161.166 85.0019C162.573 85.8187 163.722 88.0726 163.722 90.024Z" fill="#12B769"/>
</g>
<defs>
<linearGradient id="paint0_linear_682_2572" x1="201.081" y1="44.9225" x2="162.44" y2="73.1101" gradientUnits="userSpaceOnUse">
<stop stop-color="white"/>
<stop offset="1" stop-color="white" stop-opacity="0"/>
</linearGradient>
<linearGradient id="paint1_linear_682_2572" x1="181.39" y1="17.8643" x2="142.749" y2="46.0518" gradientUnits="userSpaceOnUse">
<stop stop-color="white"/>
<stop offset="1" stop-color="white" stop-opacity="0"/>
</linearGradient>
<linearGradient id="paint2_linear_682_2572" x1="207.195" y1="39.9579" x2="168.554" y2="68.1454" gradientUnits="userSpaceOnUse">
<stop stop-color="white"/>
<stop offset="1" stop-color="white" stop-opacity="0"/>
</linearGradient>
<linearGradient id="paint3_linear_682_2572" x1="187.504" y1="12.9015" x2="148.863" y2="41.0889" gradientUnits="userSpaceOnUse">
<stop stop-color="white"/>
<stop offset="1" stop-color="white" stop-opacity="0"/>
</linearGradient>
<linearGradient id="paint4_linear_682_2572" x1="188.692" y1="89.7335" x2="182.629" y2="100.239" gradientUnits="userSpaceOnUse">
<stop stop-color="white"/>
<stop offset="1" stop-color="white" stop-opacity="0"/>
</linearGradient>
<linearGradient id="paint5_linear_682_2572" x1="134.085" y1="73.5504" x2="128.022" y2="84.0556" gradientUnits="userSpaceOnUse">
<stop stop-color="white"/>
<stop offset="1" stop-color="white" stop-opacity="0"/>
</linearGradient>
<linearGradient id="paint6_linear_682_2572" x1="183.693" y1="95.9091" x2="190.279" y2="149.322" gradientUnits="userSpaceOnUse">
<stop stop-color="white"/>
<stop offset="1" stop-color="white" stop-opacity="0"/>
</linearGradient>
<linearGradient id="paint7_linear_682_2572" x1="143.827" y1="92.0381" x2="117.525" y2="112.632" gradientUnits="userSpaceOnUse">
<stop stop-color="white"/>
<stop offset="1" stop-color="white" stop-opacity="0"/>
</linearGradient>
<linearGradient id="paint8_linear_682_2572" x1="128.363" y1="125.095" x2="120.442" y2="131.346" gradientUnits="userSpaceOnUse">
<stop stop-color="white"/>
<stop offset="1" stop-color="white" stop-opacity="0"/>
</linearGradient>
<linearGradient id="paint9_linear_682_2572" x1="193.925" y1="68.4335" x2="186.252" y2="72.7105" gradientUnits="userSpaceOnUse">
<stop stop-color="white"/>
<stop offset="1" stop-color="white" stop-opacity="0"/>
</linearGradient>
<clipPath id="clip0_682_2572">
<rect width="108.763" height="140" fill="white" transform="translate(104 11)"/>
</clipPath>
</defs>
</svg>
