<svg width="272" height="350" viewBox="0 0 114 140" fill="none" xmlns="http://www.w3.org/2000/svg">
<path opacity="0.07" d="M113.543 70.4145C111.567 69.263 110.135 69.2319 109.248 70.3211C108.361 71.3948 107.926 73.2153 107.926 75.7827V89.6157C107.926 92.2453 107.677 94.4237 107.194 96.1509C106.712 97.9403 105.887 99.2162 104.751 99.9631C103.647 100.726 102.153 100.928 100.255 100.57C98.4029 100.228 96.0845 99.2629 93.3148 97.6602L91.9922 96.8978V86.0057L93.6416 86.9549C95.6177 88.1063 96.9403 88.2464 97.6094 87.4061C98.3096 86.597 98.6675 84.9009 98.6675 82.3335V70.15C98.6675 66.9757 98.9787 64.4705 99.6011 62.6189C100.223 60.7672 101.453 59.6002 103.304 59.0712C101.453 56.4104 100.223 53.8119 99.6011 51.26C98.9787 48.7081 98.683 45.8451 98.683 42.6708V30.4873C98.683 27.9199 98.3251 25.8348 97.6249 24.201C96.9714 22.5983 95.6488 21.229 93.6571 20.0776L92.0077 19.1284V8.23633L93.3304 8.99877C96.1 10.6015 98.4185 12.2975 100.27 14.1025C102.168 15.923 103.662 17.868 104.767 19.9064C105.918 21.9759 106.728 24.1854 107.21 26.535C107.692 28.8223 107.941 31.2964 107.941 33.9105V47.7434C107.941 50.3108 108.377 52.6449 109.264 54.7299C110.151 56.8305 111.582 58.4488 113.558 59.5847L113.543 70.4145Z" fill="url(#paint0_linear_682_2639)"/>
<path opacity="0.07" d="M63.3613 30.348C65.3374 31.4994 66.7689 31.5305 67.6559 30.4413C68.5428 29.3677 68.9785 27.5472 68.9785 24.9797V11.1468C68.9785 8.51715 69.2274 6.33874 69.7098 4.61157C70.1921 2.82216 70.9857 1.53067 72.0905 0.768224C73.2419 0.0213395 74.7357 -0.180942 76.5873 0.16138C78.4857 0.519263 80.8197 1.49955 83.5894 3.10224L84.912 3.86468V14.7568L83.2626 13.8076C81.2865 12.6561 79.9328 12.5005 79.2326 13.3097C78.579 14.1499 78.2367 15.846 78.2367 18.4134V30.5969C78.2367 33.7712 77.9255 36.2764 77.3031 38.128C76.6807 39.9641 75.4515 41.1467 73.5998 41.6757C75.4515 44.3365 76.6807 46.935 77.3031 49.4869C77.9255 52.0388 78.2212 54.9018 78.2212 58.0761V70.2596C78.2212 72.827 78.5479 74.9121 79.217 76.5148C79.9172 78.1486 81.2709 79.5335 83.2471 80.6693L84.8964 81.6185V92.5106L83.5738 91.7481C80.8041 90.1454 78.4701 88.4338 76.5718 86.6133C74.7201 84.8083 73.2264 82.8789 72.0749 80.8094C70.9702 78.771 70.1766 76.577 69.6942 74.2119C69.2119 71.9246 68.9629 69.4505 68.9629 66.8364V53.0035C68.9629 50.4361 68.5272 48.102 67.6403 46.017C66.7534 43.9164 65.3218 42.2981 63.3457 41.1622L63.3613 30.348Z" fill="url(#paint1_linear_682_2639)"/>
<path opacity="0.4" d="M107.318 75.0825C105.342 73.931 103.911 73.8999 103.024 74.9891C102.137 76.0627 101.701 77.8833 101.701 80.4507V94.2836C101.701 96.9133 101.452 99.0917 100.97 100.819C100.487 102.608 99.6628 103.884 98.5269 104.631C97.4221 105.394 95.9283 105.596 94.03 105.238C92.1783 104.896 89.8599 103.931 87.0902 102.328L85.7676 101.566V90.6737L87.4169 91.6228C89.3931 92.7743 90.7157 92.9143 91.3848 92.0741C92.085 91.265 92.4429 89.5689 92.4429 87.0015V74.8179C92.4429 71.6437 92.7541 69.1385 93.3765 67.2868C93.9989 65.4352 95.2281 64.2682 97.0798 63.7391C95.2281 61.0784 93.9989 58.4798 93.3765 55.928C92.7541 53.3761 92.4584 50.5131 92.4584 47.3388V35.1552C92.4584 32.5878 92.1005 30.5028 91.4003 28.869C90.7468 27.2663 89.4242 25.897 87.4325 24.7455L85.7831 23.7964V12.9043L87.1057 13.6667C89.8754 15.2694 92.1939 16.9655 94.0456 18.7705C95.9439 20.591 97.4377 22.536 98.5424 24.5744C99.6939 26.6439 100.503 28.8534 100.985 31.203C101.468 33.4903 101.717 35.9644 101.717 38.5785V52.4114C101.717 54.9788 102.152 57.3128 103.039 59.3979C103.926 61.4985 105.358 63.1167 107.334 64.2526L107.318 75.0825Z" fill="url(#paint2_linear_682_2639)"/>
<path opacity="0.4" d="M57.1367 35.0159C59.1128 36.1674 60.5443 36.1985 61.4312 35.1093C62.3182 34.0357 62.7539 32.2151 62.7539 29.6477V15.8148C62.7539 13.1851 63.0028 11.0067 63.4852 9.27954C63.9675 7.49013 64.7611 6.19864 65.8659 5.43619C67.0173 4.68931 68.5111 4.48703 70.3627 4.82935C72.2611 5.18723 74.5951 6.16752 77.3648 7.77021L78.6874 8.53265V19.4247L77.038 18.4756C75.0619 17.3241 73.7082 17.1685 73.008 17.9776C72.3544 18.8179 72.0121 20.5139 72.0121 23.0813V35.2649C72.0121 38.4392 71.7009 40.9443 71.0785 42.796C70.4561 44.6321 69.2269 45.8146 67.3752 46.3437C69.2269 49.0045 70.4561 51.603 71.0785 54.1549C71.7009 56.7067 71.9965 59.5698 71.9965 62.744V74.9276C71.9965 77.495 72.3233 79.5801 72.9924 81.1828C73.6926 82.8166 75.0463 84.2014 77.0225 85.3373L78.6718 86.2865V97.1785L77.3492 96.4161C74.5795 94.8134 72.2455 93.1018 70.3472 91.2813C68.4955 89.4763 67.0018 87.5468 65.8503 85.4773C64.7455 83.439 63.952 81.245 63.4696 78.8799C62.9873 76.5925 62.7383 74.1185 62.7383 71.5044V57.6714C62.7383 55.104 62.3026 52.77 61.4157 50.685C60.5288 48.5844 59.0972 46.9661 57.1211 45.8302L57.1367 35.0159Z" fill="url(#paint3_linear_682_2639)"/>
<path opacity="0.15" d="M22.5937 1.9043L49.1859 17.2621L49.1703 80.9496L22.5781 65.5918L22.5937 1.9043Z" fill="url(#paint4_linear_682_2639)"/>
<path d="M17.5977 11.6914L38.7438 23.9061V29.7722L17.5977 17.5576V11.6914Z" fill="#12B769"/>
<path opacity="0.15" d="M25.877 37.1484L46.1984 48.8808V57.999L25.877 46.2667V37.1484Z" fill="white"/>
<path opacity="0.15" d="M25.8613 26.1152L46.2139 37.8631V39.9793L25.8613 28.247V26.1152Z" fill="white"/>
<path opacity="0.15" d="M25.8613 30.2539L43.4598 40.4147V42.5308L25.8613 32.3701V30.2539Z" fill="white"/>
<path opacity="0.2" d="M22.5938 1.9043L49.186 17.2621V25.8046L22.5938 10.4468V1.9043Z" fill="url(#paint5_linear_682_2639)"/>
<path opacity="0.2" d="M29.2379 10.058C29.2379 11.3495 28.4754 11.9563 27.5418 11.4273C26.6082 10.8827 25.8613 9.40445 25.8613 8.11296C25.8613 6.82147 26.6238 6.21463 27.5574 6.74367C28.4754 7.28828 29.2379 8.76649 29.2379 10.058Z" fill="white"/>
<path opacity="0.15" d="M55.2695 60.9551L81.8617 76.3129L81.8461 140L55.2539 124.643L55.2695 60.9551Z" fill="url(#paint6_linear_682_2639)"/>
<path d="M65.3984 79.4863L86.5445 91.6855V97.536L65.3828 85.3369L65.3984 79.4863Z" fill="#6FE6A6"/>
<path opacity="0.15" d="M58.5527 85.5391L78.8898 97.2869V106.39L58.5527 94.6417V85.5391Z" fill="white"/>
<path opacity="0.15" d="M58.5215 98.5488L78.8741 110.297V112.413L58.5215 100.681V98.5488Z" fill="white"/>
<path opacity="0.15" d="M58.5215 102.375L76.12 112.536V114.652L58.5215 104.491V102.375Z" fill="white"/>
<path opacity="0.2" d="M55.2695 60.9551L81.8617 76.3129V84.8554L55.2695 69.4976V60.9551Z" fill="url(#paint7_linear_682_2639)"/>
<path opacity="0.2" d="M61.9137 69.1244C61.9137 70.4159 61.1512 71.0227 60.2176 70.4937C59.284 69.9491 58.5371 68.4709 58.5371 67.1794C58.5371 65.8879 59.2996 65.281 60.2332 65.8101C61.1512 66.3391 61.9137 67.8329 61.9137 69.1244Z" fill="white"/>
<path opacity="0.3" d="M50.6643 69.7772L4.37305 43.0605L4.38861 67.1943L46.6032 91.5614L50.6955 97.6143L50.6643 69.7772Z" fill="url(#paint8_linear_682_2639)"/>
<path opacity="0.15" d="M38.7604 68.7822L28.6152 62.9316V65.0478L38.7604 70.8984V68.7822Z" fill="white"/>
<path opacity="0.15" d="M38.7605 73.0294L13.6465 58.5273V60.6435L38.776 75.1455L38.7605 73.0294Z" fill="white"/>
<path opacity="0.15" d="M38.7759 77.2766L8.44922 59.7715V61.8877L38.7759 79.3928V77.2766Z" fill="white"/>
<path d="M41.2656 72.4387C41.2656 74.4304 42.4482 76.7178 43.8953 77.558C45.3424 78.3983 46.5249 77.4647 46.5249 75.473C46.5249 73.4813 45.3424 71.1939 43.8953 70.3537C42.4326 69.5134 41.2656 70.4471 41.2656 72.4387Z" fill="#6FE6A6"/>
<path opacity="0.15" d="M8.94709 26.1152L2.81641 22.5675V20.498L8.94709 24.0458C9.44501 24.3414 10.1763 24.9171 10.7987 25.8196C11.4678 26.7843 11.9502 27.998 11.9502 29.3206C11.9502 30.7833 11.5767 31.608 10.8765 31.8569C10.2075 32.0748 9.42945 31.7013 8.94709 31.4212L6.42635 29.9586L6.41079 29.943C6.19295 29.8185 5.85063 29.6941 5.5861 29.7719C5.36826 29.8341 5.10374 30.0675 5.10374 30.8766C5.10374 31.6858 5.3527 32.1837 5.57054 32.4793C5.83507 32.8528 6.17739 33.1173 6.39523 33.2262L6.42635 33.2418L14.1442 37.692V39.7615L6.47303 35.3268C5.94399 35.0467 5.18154 34.471 4.52802 33.553C3.81225 32.5416 3.31433 31.2656 3.31433 29.8341C3.31433 28.4181 3.81225 27.6868 4.51246 27.4845C5.16598 27.2978 5.92843 27.5779 6.45747 27.8891L8.96265 29.3362C9.32053 29.5385 9.60061 29.6318 9.77177 29.5696C9.91181 29.5229 10.1608 29.3206 10.1608 28.2781C10.1608 27.5935 9.94293 27.1578 9.72509 26.8466C9.47613 26.5042 9.14937 26.2242 8.94709 26.1152Z" fill="white"/>
<path d="M4.63691 22.7864C4.63691 24.5602 3.59438 25.3849 2.31845 24.6536C1.04253 23.9223 0 21.8839 0 20.11C0 18.3362 1.04253 17.5115 2.31845 18.2428C3.59438 18.9897 4.63691 21.0281 4.63691 22.7864Z" fill="#12B769"/>
<path d="M16.9299 39.9016C16.9299 41.6755 15.8874 42.5001 14.6114 41.7688C13.3355 41.0375 12.293 38.9991 12.293 37.2253C12.293 35.4514 13.3355 34.6267 14.6114 35.3581C15.8874 36.1049 16.9299 38.1433 16.9299 39.9016Z" fill="#12B769"/>
<path opacity="0.2" d="M33.469 94.004C34.4026 94.5486 35.1495 95.8401 35.1495 96.9293V101.675L38.2926 103.48C39.2262 104.025 39.9731 105.316 39.9731 106.405C39.9731 107.479 39.2106 107.915 38.2926 107.386L35.1495 105.581V110.327C35.1495 111.4 34.387 111.836 33.469 111.307C32.5354 110.762 31.7885 109.471 31.7885 108.382V103.636L28.6453 101.831C27.7117 101.286 26.9648 99.9946 26.9648 98.9054C26.9648 97.8318 27.7273 97.3961 28.6453 97.9251L31.7885 99.7301V94.9843C31.7885 93.8951 32.5354 93.4594 33.469 94.004Z" fill="url(#paint9_linear_682_2639)"/>
<defs>
<linearGradient id="paint0_linear_682_2639" x1="123.332" y1="11.3823" x2="84.9564" y2="77.8936" gradientUnits="userSpaceOnUse">
<stop stop-color="white"/>
<stop offset="1" stop-color="white" stop-opacity="0"/>
</linearGradient>
<linearGradient id="paint1_linear_682_2639" x1="104.88" y1="0.448745" x2="66.5038" y2="66.96" gradientUnits="userSpaceOnUse">
<stop stop-color="white"/>
<stop offset="1" stop-color="white" stop-opacity="0"/>
</linearGradient>
<linearGradient id="paint2_linear_682_2639" x1="117.108" y1="16.0503" x2="78.7318" y2="82.5616" gradientUnits="userSpaceOnUse">
<stop stop-color="white"/>
<stop offset="1" stop-color="white" stop-opacity="0"/>
</linearGradient>
<linearGradient id="paint3_linear_682_2639" x1="98.655" y1="5.11668" x2="60.2791" y2="71.628" gradientUnits="userSpaceOnUse">
<stop stop-color="white"/>
<stop offset="1" stop-color="white" stop-opacity="0"/>
</linearGradient>
<linearGradient id="paint4_linear_682_2639" x1="49.6684" y1="17.5349" x2="24.2637" y2="61.5487" gradientUnits="userSpaceOnUse">
<stop stop-color="white"/>
<stop offset="1" stop-color="white" stop-opacity="0"/>
</linearGradient>
<linearGradient id="paint5_linear_682_2639" x1="31.7176" y1="2.03433" x2="39.8109" y2="24.982" gradientUnits="userSpaceOnUse">
<stop stop-color="white"/>
<stop offset="1" stop-color="white" stop-opacity="0"/>
</linearGradient>
<linearGradient id="paint6_linear_682_2639" x1="82.343" y1="76.5896" x2="56.9383" y2="120.603" gradientUnits="userSpaceOnUse">
<stop stop-color="white"/>
<stop offset="1" stop-color="white" stop-opacity="0"/>
</linearGradient>
<linearGradient id="paint7_linear_682_2639" x1="64.3922" y1="61.089" x2="72.4855" y2="84.0366" gradientUnits="userSpaceOnUse">
<stop stop-color="white"/>
<stop offset="1" stop-color="white" stop-opacity="0"/>
</linearGradient>
<linearGradient id="paint8_linear_682_2639" x1="40.5709" y1="60.1194" x2="16.6626" y2="78.8388" gradientUnits="userSpaceOnUse">
<stop stop-color="white"/>
<stop offset="1" stop-color="white" stop-opacity="0"/>
</linearGradient>
<linearGradient id="paint9_linear_682_2639" x1="36.7147" y1="100.067" x2="28.5655" y2="106.494" gradientUnits="userSpaceOnUse">
<stop stop-color="white"/>
<stop offset="1" stop-color="white" stop-opacity="0"/>
</linearGradient>
</defs>
</svg>
