<svg width="316" height="162" viewBox="0 0 316 162" fill="none" xmlns="http://www.w3.org/2000/svg">
<rect x="1" y="1" width="314" height="160" rx="12" fill="#051A12"/>
<rect x="1" y="1" width="314" height="160" rx="12" stroke="#536750" stroke-width="0.5"/>
<path opacity="0.07" d="M214.543 85.4145C212.567 84.263 211.135 84.2319 210.248 85.3211C209.361 86.3948 208.926 88.2153 208.926 90.7827V104.616C208.926 107.245 208.677 109.424 208.194 111.151C207.712 112.94 206.887 114.216 205.751 114.963C204.647 115.726 203.153 115.928 201.255 115.57C199.403 115.228 197.084 114.263 194.315 112.66L192.992 111.898V101.006L194.642 101.955C196.618 103.106 197.94 103.246 198.609 102.406C199.31 101.597 199.667 99.9009 199.667 97.3335V85.15C199.667 81.9757 199.979 79.4705 200.601 77.6189C201.223 75.7672 202.453 74.6002 204.304 74.0712C202.453 71.4104 201.223 68.8119 200.601 66.26C199.979 63.7081 199.683 60.8451 199.683 57.6708V45.4873C199.683 42.9199 199.325 40.8348 198.625 39.201C197.971 37.5983 196.649 36.229 194.657 35.0776L193.008 34.1284V23.2363L194.33 23.9988C197.1 25.6015 199.419 27.2975 201.27 29.1025C203.168 30.923 204.662 32.868 205.767 34.9064C206.918 36.9759 207.728 39.1854 208.21 41.535C208.692 43.8223 208.941 46.2964 208.941 48.9105V62.7434C208.941 65.3108 209.377 67.6449 210.264 69.7299C211.151 71.8305 212.582 73.4488 214.558 74.5847L214.543 85.4145Z" fill="url(#paint0_linear_682_2638)"/>
<path opacity="0.07" d="M164.361 45.348C166.337 46.4994 167.769 46.5305 168.656 45.4413C169.543 44.3677 169.978 42.5472 169.978 39.9797V26.1468C169.978 23.5172 170.227 21.3387 170.71 19.6116C171.192 17.8222 171.986 16.5307 173.09 15.7682C174.242 15.0213 175.736 14.8191 177.587 15.1614C179.486 15.5193 181.82 16.4995 184.589 18.1022L185.912 18.8647V29.7568L184.263 28.8076C182.286 27.6561 180.933 27.5005 180.233 28.3097C179.579 29.1499 179.237 30.846 179.237 33.4134V45.5969C179.237 48.7712 178.926 51.2764 178.303 53.128C177.681 54.9641 176.451 56.1467 174.6 56.6757C176.451 59.3365 177.681 61.935 178.303 64.4869C178.926 67.0388 179.221 69.9018 179.221 73.0761V85.2596C179.221 87.827 179.548 89.9121 180.217 91.5148C180.917 93.1486 182.271 94.5335 184.247 95.6693L185.896 96.6185V107.511L184.574 106.748C181.804 105.145 179.47 103.434 177.572 101.613C175.72 99.8083 174.226 97.8789 173.075 95.8094C171.97 93.771 171.177 91.577 170.694 89.2119C170.212 86.9246 169.963 84.4505 169.963 81.8364V68.0035C169.963 65.4361 169.527 63.102 168.64 61.017C167.753 58.9164 166.322 57.2981 164.346 56.1622L164.361 45.348Z" fill="url(#paint1_linear_682_2638)"/>
<path opacity="0.4" d="M208.318 90.0825C206.342 88.931 204.911 88.8999 204.024 89.9891C203.137 91.0627 202.701 92.8833 202.701 95.4507V109.284C202.701 111.913 202.452 114.092 201.97 115.819C201.487 117.608 200.663 118.884 199.527 119.631C198.422 120.394 196.928 120.596 195.03 120.238C193.178 119.896 190.86 118.931 188.09 117.328L186.768 116.566V105.674L188.417 106.623C190.393 107.774 191.716 107.914 192.385 107.074C193.085 106.265 193.443 104.569 193.443 102.001V89.8179C193.443 86.6437 193.754 84.1385 194.376 82.2868C194.999 80.4352 196.228 79.2682 198.08 78.7391C196.228 76.0784 194.999 73.4798 194.376 70.928C193.754 68.3761 193.458 65.5131 193.458 62.3388V50.1552C193.458 47.5878 193.101 45.5028 192.4 43.869C191.747 42.2663 190.424 40.897 188.433 39.7455L186.783 38.7964V27.9043L188.106 28.6667C190.875 30.2694 193.194 31.9655 195.046 33.7705C196.944 35.591 198.438 37.536 199.542 39.5744C200.694 41.6439 201.503 43.8534 201.985 46.203C202.468 48.4903 202.717 50.9644 202.717 53.5785V67.4114C202.717 69.9788 203.152 72.3128 204.039 74.3979C204.926 76.4985 206.358 78.1167 208.334 79.2526L208.318 90.0825Z" fill="url(#paint2_linear_682_2638)"/>
<path opacity="0.4" d="M158.137 50.0159C160.113 51.1674 161.544 51.1985 162.431 50.1093C163.318 49.0357 163.754 47.2151 163.754 44.6477V30.8148C163.754 28.1851 164.003 26.0067 164.485 24.2795C164.968 22.4901 165.761 21.1986 166.866 20.4362C168.017 19.6893 169.511 19.487 171.363 19.8293C173.261 20.1872 175.595 21.1675 178.365 22.7702L179.687 23.5327V34.4247L178.038 33.4756C176.062 32.3241 174.708 32.1685 174.008 32.9776C173.354 33.8179 173.012 35.5139 173.012 38.0813V50.2649C173.012 53.4392 172.701 55.9443 172.079 57.796C171.456 59.6321 170.227 60.8146 168.375 61.3437C170.227 64.0045 171.456 66.603 172.079 69.1549C172.701 71.7067 172.997 74.5698 172.997 77.744V89.9276C172.997 92.495 173.323 94.5801 173.992 96.1828C174.693 97.8166 176.046 99.2014 178.022 100.337L179.672 101.286V112.179L178.349 111.416C175.58 109.813 173.246 108.102 171.347 106.281C169.496 104.476 168.002 102.547 166.85 100.477C165.746 98.439 164.952 96.245 164.47 93.8799C163.987 91.5925 163.738 89.1185 163.738 86.5044V72.6714C163.738 70.104 163.303 67.77 162.416 65.685C161.529 63.5844 160.097 61.9661 158.121 60.8302L158.137 50.0159Z" fill="url(#paint3_linear_682_2638)"/>
<path opacity="0.15" d="M123.594 16.9043L150.186 32.2621L150.17 95.9496L123.578 80.5918L123.594 16.9043Z" fill="url(#paint4_linear_682_2638)"/>
<path d="M118.598 26.6914L139.744 38.9061V44.7722L118.598 32.5576V26.6914Z" fill="#12B769"/>
<path opacity="0.15" d="M126.877 52.1484L147.198 63.8808V72.999L126.877 61.2667V52.1484Z" fill="white"/>
<path opacity="0.15" d="M126.861 41.1152L147.214 52.8631V54.9793L126.861 43.247V41.1152Z" fill="white"/>
<path opacity="0.15" d="M126.861 45.2539L144.46 55.4147V57.5308L126.861 47.3701V45.2539Z" fill="white"/>
<path opacity="0.2" d="M123.594 16.9043L150.186 32.2621V40.8046L123.594 25.4468V16.9043Z" fill="url(#paint5_linear_682_2638)"/>
<path opacity="0.2" d="M130.238 25.058C130.238 26.3495 129.475 26.9563 128.542 26.4273C127.608 25.8827 126.861 24.4044 126.861 23.113C126.861 21.8215 127.624 21.2146 128.557 21.7437C129.475 22.2883 130.238 23.7665 130.238 25.058Z" fill="white"/>
<path opacity="0.15" d="M156.269 75.9551L182.862 91.3129L182.846 155L156.254 139.643L156.269 75.9551Z" fill="url(#paint6_linear_682_2638)"/>
<path d="M166.398 94.4863L187.545 106.685V112.536L166.383 100.337L166.398 94.4863Z" fill="#6FE6A6"/>
<path opacity="0.15" d="M159.553 100.539L179.89 112.287V121.39L159.553 109.642V100.539Z" fill="white"/>
<path opacity="0.15" d="M159.521 113.549L179.874 125.297V127.413L159.521 115.681V113.549Z" fill="white"/>
<path opacity="0.15" d="M159.521 117.375L177.12 127.536V129.652L159.521 119.491V117.375Z" fill="white"/>
<path opacity="0.2" d="M156.27 75.9551L182.862 91.3129V99.8554L156.27 84.4976V75.9551Z" fill="url(#paint7_linear_682_2638)"/>
<path opacity="0.2" d="M162.914 84.1244C162.914 85.4159 162.151 86.0227 161.218 85.4937C160.284 84.9491 159.537 83.4709 159.537 82.1794C159.537 80.8879 160.3 80.281 161.233 80.8101C162.151 81.3391 162.914 82.8329 162.914 84.1244Z" fill="white"/>
<path opacity="0.3" d="M151.664 84.7772L105.373 58.0605L105.389 82.1943L147.603 106.561L151.695 112.614L151.664 84.7772Z" fill="url(#paint8_linear_682_2638)"/>
<path opacity="0.15" d="M139.76 83.7822L129.615 77.9316V80.0478L139.76 85.8984V83.7822Z" fill="white"/>
<path opacity="0.15" d="M139.76 88.0294L114.646 73.5273V75.6435L139.776 90.1455L139.76 88.0294Z" fill="white"/>
<path opacity="0.15" d="M139.776 92.2766L109.449 74.7715V76.8877L139.776 94.3928V92.2766Z" fill="white"/>
<path d="M142.266 87.4387C142.266 89.4304 143.448 91.7178 144.895 92.558C146.342 93.3983 147.525 92.4647 147.525 90.473C147.525 88.4813 146.342 86.1939 144.895 85.3537C143.433 84.5134 142.266 85.4471 142.266 87.4387Z" fill="#6FE6A6"/>
<path opacity="0.15" d="M109.947 41.1152L103.816 37.5675V35.498L109.947 39.0458C110.445 39.3414 111.176 39.9171 111.799 40.8196C112.468 41.7843 112.95 42.998 112.95 44.3206C112.95 45.7833 112.577 46.608 111.877 46.8569C111.207 47.0748 110.429 46.7013 109.947 46.4212L107.426 44.9586L107.411 44.943C107.193 44.8185 106.851 44.6941 106.586 44.7719C106.368 44.8341 106.104 45.0675 106.104 45.8766C106.104 46.6858 106.353 47.1837 106.571 47.4793C106.835 47.8528 107.177 48.1173 107.395 48.2262L107.426 48.2418L115.144 52.692V54.7615L107.473 50.3268C106.944 50.0467 106.182 49.471 105.528 48.553C104.812 47.5416 104.314 46.2656 104.314 44.8341C104.314 43.4181 104.812 42.6868 105.512 42.4845C106.166 42.2978 106.928 42.5779 107.457 42.8891L109.963 44.3362C110.321 44.5385 110.601 44.6318 110.772 44.5696C110.912 44.5229 111.161 44.3206 111.161 43.2781C111.161 42.5935 110.943 42.1578 110.725 41.8466C110.476 41.5042 110.149 41.2242 109.947 41.1152Z" fill="white"/>
<path d="M105.637 37.7864C105.637 39.5602 104.594 40.3849 103.318 39.6536C102.043 38.9223 101 36.8839 101 35.11C101 33.3362 102.043 32.5115 103.318 33.2428C104.594 33.9897 105.637 36.0281 105.637 37.7864Z" fill="#12B769"/>
<path d="M117.93 54.9016C117.93 56.6755 116.887 57.5001 115.611 56.7688C114.335 56.0375 113.293 53.9991 113.293 52.2253C113.293 50.4514 114.335 49.6267 115.611 50.3581C116.887 51.1049 117.93 53.1433 117.93 54.9016Z" fill="#12B769"/>
<path opacity="0.2" d="M134.469 109.004C135.403 109.549 136.149 110.84 136.149 111.929V116.675L139.293 118.48C140.226 119.025 140.973 120.316 140.973 121.405C140.973 122.479 140.211 122.915 139.293 122.386L136.149 120.581V125.327C136.149 126.4 135.387 126.836 134.469 126.307C133.535 125.762 132.788 124.471 132.788 123.382V118.636L129.645 116.831C128.712 116.286 127.965 114.995 127.965 113.905C127.965 112.832 128.727 112.396 129.645 112.925L132.788 114.73V109.984C132.788 108.895 133.535 108.459 134.469 109.004Z" fill="url(#paint9_linear_682_2638)"/>
<defs>
<linearGradient id="paint0_linear_682_2638" x1="224.332" y1="26.3823" x2="185.956" y2="92.8936" gradientUnits="userSpaceOnUse">
<stop stop-color="white"/>
<stop offset="1" stop-color="white" stop-opacity="0"/>
</linearGradient>
<linearGradient id="paint1_linear_682_2638" x1="205.88" y1="15.4487" x2="167.504" y2="81.96" gradientUnits="userSpaceOnUse">
<stop stop-color="white"/>
<stop offset="1" stop-color="white" stop-opacity="0"/>
</linearGradient>
<linearGradient id="paint2_linear_682_2638" x1="218.108" y1="31.0503" x2="179.732" y2="97.5616" gradientUnits="userSpaceOnUse">
<stop stop-color="white"/>
<stop offset="1" stop-color="white" stop-opacity="0"/>
</linearGradient>
<linearGradient id="paint3_linear_682_2638" x1="199.655" y1="20.1167" x2="161.279" y2="86.628" gradientUnits="userSpaceOnUse">
<stop stop-color="white"/>
<stop offset="1" stop-color="white" stop-opacity="0"/>
</linearGradient>
<linearGradient id="paint4_linear_682_2638" x1="150.668" y1="32.5349" x2="125.264" y2="76.5487" gradientUnits="userSpaceOnUse">
<stop stop-color="white"/>
<stop offset="1" stop-color="white" stop-opacity="0"/>
</linearGradient>
<linearGradient id="paint5_linear_682_2638" x1="132.718" y1="17.0343" x2="140.811" y2="39.982" gradientUnits="userSpaceOnUse">
<stop stop-color="white"/>
<stop offset="1" stop-color="white" stop-opacity="0"/>
</linearGradient>
<linearGradient id="paint6_linear_682_2638" x1="183.343" y1="91.5896" x2="157.938" y2="135.603" gradientUnits="userSpaceOnUse">
<stop stop-color="white"/>
<stop offset="1" stop-color="white" stop-opacity="0"/>
</linearGradient>
<linearGradient id="paint7_linear_682_2638" x1="165.392" y1="76.089" x2="173.486" y2="99.0366" gradientUnits="userSpaceOnUse">
<stop stop-color="white"/>
<stop offset="1" stop-color="white" stop-opacity="0"/>
</linearGradient>
<linearGradient id="paint8_linear_682_2638" x1="141.571" y1="75.1194" x2="117.663" y2="93.8388" gradientUnits="userSpaceOnUse">
<stop stop-color="white"/>
<stop offset="1" stop-color="white" stop-opacity="0"/>
</linearGradient>
<linearGradient id="paint9_linear_682_2638" x1="137.715" y1="115.067" x2="129.566" y2="121.494" gradientUnits="userSpaceOnUse">
<stop stop-color="white"/>
<stop offset="1" stop-color="white" stop-opacity="0"/>
</linearGradient>
</defs>
</svg>
