<svg width="20" height="20" viewBox="0 0 25 25" fill="none" xmlns="http://www.w3.org/2000/svg">
<path d="M17.5 2.75H7.5C4.73858 2.75 2.5 4.98858 2.5 7.75V17.75C2.5 20.5114 4.73858 22.75 7.5 22.75H17.5C20.2614 22.75 22.5 20.5114 22.5 17.75V7.75C22.5 4.98858 20.2614 2.75 17.5 2.75Z" stroke="white" stroke-width="2" stroke-linecap="round" stroke-linejoin="round"/>
<path d="M16.4997 12.1203C16.6231 12.9525 16.481 13.8025 16.0935 14.5493C15.706 15.2961 15.0929 15.9017 14.3413 16.28C13.5898 16.6582 12.7382 16.7899 11.9075 16.6562C11.0768 16.5226 10.3095 16.1304 9.71455 15.5355C9.11962 14.9405 8.72744 14.1732 8.59377 13.3425C8.46011 12.5119 8.59177 11.6602 8.97003 10.9087C9.34829 10.1572 9.95389 9.54404 10.7007 9.15654C11.4475 8.76904 12.2975 8.62689 13.1297 8.7503C13.9786 8.87619 14.7646 9.27176 15.3714 9.87861C15.9782 10.4855 16.3738 11.2714 16.4997 12.1203Z" stroke="white" stroke-width="2" stroke-linecap="round" stroke-linejoin="round"/>
<path d="M18 7.25H18.01" stroke="white" stroke-width="2" stroke-linecap="round" stroke-linejoin="round"/>
</svg>
