<svg width="20" height="20" viewBox="0 0 25 25" fill="none" xmlns="http://www.w3.org/2000/svg">
<path d="M16.5 8.75C18.0913 8.75 19.6174 9.38214 20.7426 10.5074C21.8679 11.6326 22.5 13.1587 22.5 14.75V21.75H18.5V14.75C18.5 14.2196 18.2893 13.7109 17.9142 13.3358C17.5391 12.9607 17.0304 12.75 16.5 12.75C15.9696 12.75 15.4609 12.9607 15.0858 13.3358C14.7107 13.7109 14.5 14.2196 14.5 14.75V21.75H10.5V14.75C10.5 13.1587 11.1321 11.6326 12.2574 10.5074C13.3826 9.38214 14.9087 8.75 16.5 8.75Z" fill="white"/>
<path d="M6.5 9.75H2.5V21.75H6.5V9.75Z" fill="white"/>
<path d="M4.5 6.75C5.60457 6.75 6.5 5.85457 6.5 4.75C6.5 3.64543 5.60457 2.75 4.5 2.75C3.39543 2.75 2.5 3.64543 2.5 4.75C2.5 5.85457 3.39543 6.75 4.5 6.75Z" fill="white"/>
</svg>
