<svg width="141" height="25" viewBox="0 0 141 25" fill="none" xmlns="http://www.w3.org/2000/svg">
<g clip-path="url(#clip0_285_3167)">
<path d="M50.7734 24.2287H56.5503V14.6351H63.7785V10.1426H56.5503V5.14316H66.2107V0.515625H50.7734V24.2287Z" fill="white"/>
<path d="M80.8028 6.292C79.251 5.51431 77.5392 5.10938 75.8034 5.10938C74.0676 5.10938 72.3557 5.51431 70.8039 6.292C69.3331 7.06554 68.1142 8.2434 67.2907 9.68673C66.4354 11.1624 66.0078 12.8684 66.0078 14.8046C66.0078 16.7632 66.4299 18.4742 67.274 19.9377C68.0865 21.3722 69.2923 22.5443 70.7492 23.3158C72.2269 24.1002 73.8889 24.4924 75.735 24.4924C77.477 24.5165 79.1979 24.1103 80.7452 23.3097C82.2262 22.538 83.4569 21.3605 84.2932 19.915C85.1586 18.4413 85.5918 16.7358 85.5928 14.7986C85.5938 12.8613 85.1662 11.1554 84.3099 9.68066C83.4872 8.24041 82.2705 7.06484 80.8028 6.292ZM78.5559 18.2859C78.1975 18.6753 77.7611 18.9847 77.275 19.194C76.7889 19.4033 76.2642 19.5077 75.735 19.5005C75.2153 19.5119 74.6994 19.409 74.2238 19.1991C73.7482 18.9892 73.3244 18.6775 72.9825 18.2859C72.2507 17.4762 71.8848 16.3168 71.8848 14.8077C71.8848 13.2753 72.2568 12.1113 73.0007 11.3158C73.3607 10.9355 73.7947 10.6329 74.276 10.4267C74.7573 10.2204 75.2757 10.1148 75.7994 10.1164C76.323 10.1179 76.8408 10.2266 77.3209 10.4358C77.8009 10.6449 78.2331 10.9501 78.5908 11.3325C79.3438 12.1422 79.7209 13.3021 79.7219 14.8122C79.7229 16.3224 79.3342 17.4792 78.5559 18.2829V18.2859Z" fill="white"/>
<path d="M93.6403 8.52329V5.38209H87.8711V24.2308H93.6403V15.4813C93.6403 13.9287 94.0006 12.8426 94.7213 12.2232C95.4419 11.6038 96.5229 11.294 97.9642 11.294H99.5507V5.18017C98.3644 5.16575 97.1965 5.4749 96.1727 6.0744C95.1491 6.68191 94.2818 7.52057 93.6403 8.52329Z" fill="white"/>
<path d="M110.59 10.0421C112.077 10.0421 113.079 10.7622 113.596 12.2025H119.743C119.248 9.95148 118.207 8.20654 116.619 6.96767C115.031 5.72881 113.057 5.10937 110.698 5.10938C108.849 5.10938 107.211 5.50361 105.782 6.29207C104.364 7.06954 103.203 8.24341 102.442 9.6701C101.641 11.1337 101.241 12.8452 101.242 14.8047C101.243 16.7642 101.643 18.4753 102.442 19.9378C103.203 21.3648 104.363 22.5388 105.782 23.3159C107.212 24.1053 108.85 24.4996 110.698 24.4985C113.039 24.4985 115.009 23.868 116.608 22.6068C118.207 21.3457 119.254 19.6119 119.749 17.4054H113.596C113.077 18.8467 112.075 19.5669 110.59 19.5659C110.099 19.5806 109.613 19.4763 109.171 19.2619C108.73 19.0474 108.347 18.7293 108.056 18.3346C107.426 17.5117 107.111 16.3351 107.11 14.8047C107.109 13.2744 107.424 12.0977 108.056 11.2749C108.347 10.8799 108.73 10.5614 109.171 10.3467C109.613 10.132 110.099 10.0275 110.59 10.0421Z" fill="white"/>
<path d="M140.587 14.4996C140.587 12.6079 140.187 10.953 139.388 9.53498C138.618 8.14483 137.463 7.00698 136.061 6.25867C134.644 5.49348 133.025 5.11039 131.203 5.10938C129.335 5.10938 127.68 5.50361 126.238 6.29207C124.812 7.0648 123.643 8.23936 122.877 9.6701C122.078 11.1337 121.678 12.8452 121.678 14.8047C121.678 16.7642 122.083 18.4753 122.892 19.9378C123.667 21.3672 124.841 22.5408 126.27 23.3159C127.712 24.1053 129.355 24.4996 131.202 24.4985C132.631 24.5192 134.048 24.2313 135.355 23.6544C136.55 23.1242 137.608 22.3269 138.446 21.324C139.258 20.3524 139.841 19.2109 140.153 17.9839H134.001C133.437 19.1984 132.435 19.8057 130.994 19.8057C130.087 19.8293 129.207 19.495 128.545 18.8751C127.882 18.2566 127.505 17.3619 127.414 16.1909H140.485C140.552 15.6295 140.586 15.0648 140.587 14.4996ZM127.447 12.9813C127.605 11.9459 128.016 11.1463 128.68 10.5826C129.366 10.0127 130.237 9.71262 131.129 9.73842C132.141 9.73842 132.985 10.0314 133.663 10.6175C134.34 11.2035 134.678 11.9915 134.677 12.9813H127.447Z" fill="white"/>
<path d="M32.4937 0.5H27.6643L25.7422 10.127H32.4937V7.87247L38.2098 12.3725L32.4937 16.874V24.2298H47.0185V19.6022H38.2705V14.586H46.0059V10.127H38.2705V5.14423H47.0185V0.5167H32.4937V0.5Z" fill="#12B769"/>
<path d="M6.18219 0.5H0L2.4413 10.127H8.08451L6.18219 0.5Z" fill="#12B769"/>
<path d="M24.2181 17.7606L23.4726 14.586V14.5845L20.1644 0.5H13.8153L9.59309 17.7606L8.96454 14.586H3.57031L6.01161 24.2131H13.0045L16.923 8.60729L20.7049 24.2131H27.6978L30.2075 14.586H24.8527L24.2181 17.7606Z" fill="#12B769"/>
</g>
<defs>
<clipPath id="clip0_285_3167">
<rect width="140.587" height="24" fill="white" transform="translate(0 0.5)"/>
</clipPath>
</defs>
</svg>
