<svg width="1440" height="347" viewBox="0 0 1440 347" fill="none" xmlns="http://www.w3.org/2000/svg">
<rect width="1440" height="346" transform="translate(0 0.75)" fill="#32C27D"/>
<g clip-path="url(#clip0_9_1027)">
<mask id="path-1-inside-1_9_1027" fill="white">
<path d="M0 0.75H1440V346.75H0V0.75Z"/>
</mask>
<g clip-path="url(#clip1_9_1027)">
<g opacity="0.5">
<mask id="mask0_9_1027" style="mask-type:luminance" maskUnits="userSpaceOnUse" x="732" y="0" width="708" height="347">
<path d="M1440 0.441406H732V346.441H1440V0.441406Z" fill="white"/>
</mask>
<g mask="url(#mask0_9_1027)">
<path d="M840 -1.55859V456.441" stroke="#104E36" stroke-opacity="0.5" stroke-miterlimit="10"/>
<path d="M1080 232.441H1440" stroke="#104E36" stroke-opacity="0.5" stroke-miterlimit="10"/>
<path d="M1080 312.441H1440" stroke="#104E36" stroke-opacity="0.5" stroke-miterlimit="10"/>
<path d="M1080 272.441H1440" stroke="#104E36" stroke-opacity="0.5" stroke-miterlimit="10"/>
<path d="M1080 192.441H1440" stroke="#104E36" stroke-opacity="0.5" stroke-miterlimit="10"/>
<path d="M1080 192.5V398.44" stroke="#104E36" stroke-opacity="0.5" stroke-miterlimit="10"/>
<path d="M1200 192.5V398.44" stroke="#104E36" stroke-opacity="0.5" stroke-miterlimit="10"/>
<path d="M1320 192.5V398.44" stroke="#104E36" stroke-opacity="0.5" stroke-miterlimit="10"/>
<path d="M1320 -1.55859V192.441" stroke="#104E36" stroke-opacity="0.5" stroke-miterlimit="10"/>
<path d="M1025 243.941C1025 187.332 978.885 141.441 922 141.441C865.115 141.441 819 187.332 819 243.941C819 300.55 865.115 346.441 922 346.441C978.885 346.441 1025 300.55 1025 243.941Z" fill="#32C27D" stroke="#104E36" stroke-opacity="0.5" stroke-width="0.8" stroke-miterlimit="10"/>
<path d="M1147 324.357H994C980.745 324.357 970 335.103 970 348.357V388.357C970 401.612 980.745 412.357 994 412.357H1147C1160.25 412.357 1171 401.612 1171 388.357V348.357C1171 335.103 1160.25 324.357 1147 324.357Z" fill="#32C27D" stroke="#104E36" stroke-opacity="0.5" stroke-width="0.8" stroke-miterlimit="10"/>
<path d="M1005.98 29.5575L936.268 55.9898C929.753 58.4604 926.474 65.745 928.944 72.2604L955.376 141.968C957.847 148.484 965.132 151.763 971.647 149.292L1041.35 122.86C1047.87 120.389 1051.15 113.105 1048.68 106.589L1022.25 36.8814C1019.78 30.3659 1012.49 27.0869 1005.98 29.5575Z" fill="#32C27D" stroke="#104E36" stroke-opacity="0.5" stroke-width="0.8" stroke-miterlimit="10"/>
<path d="M1406.82 50.8346C1411.63 50.8346 1415.52 46.941 1415.52 42.138C1415.52 37.335 1411.63 33.4414 1406.82 33.4414C1402.02 33.4414 1398.13 37.335 1398.13 42.138C1398.13 46.941 1402.02 50.8346 1406.82 50.8346Z" fill="#32C27D" stroke="#104E36" stroke-opacity="0.5" stroke-width="0.8" stroke-miterlimit="10"/>
<path d="M1378.26 50.8346C1383.06 50.8346 1386.96 46.941 1386.96 42.138C1386.96 37.335 1383.06 33.4414 1378.26 33.4414C1373.46 33.4414 1369.56 37.335 1369.56 42.138C1369.56 46.941 1373.46 50.8346 1378.26 50.8346Z" fill="#32C27D" stroke="#104E36" stroke-opacity="0.5" stroke-width="0.8" stroke-miterlimit="10"/>
<path d="M1349.7 50.8346C1354.5 50.8346 1358.39 46.941 1358.39 42.138C1358.39 37.335 1354.5 33.4414 1349.7 33.4414C1344.89 33.4414 1341 37.335 1341 42.138C1341 46.941 1344.89 50.8346 1349.7 50.8346Z" fill="#32C27D" stroke="#104E36" stroke-opacity="0.5" stroke-width="0.8" stroke-miterlimit="10"/>
<path d="M1288.64 224.77C1288.66 221.414 1291.96 218.563 1295.62 219.7L1374.43 244.453C1377.21 245.319 1378.29 248.097 1377.62 250.425L1374.72 269.404C1374.32 271.876 1372.64 273.951 1370.31 274.853L1358.22 279.543L1343.2 285.371C1342.19 285.768 1341.39 286.526 1340.94 287.5L1330.73 309.943C1328.15 314.634 1321.4 314.598 1318.86 309.889L1289.25 246.69C1288.35 244.778 1287.94 242.667 1288.01 240.556L1288.64 224.77Z" fill="#32C27D" stroke="#104E36" stroke-opacity="0.5" stroke-width="1.8" stroke-miterlimit="10" stroke-linejoin="round"/>
<path d="M1341.72 266.102L1331.76 284.144C1329.18 288.835 1322.43 288.799 1319.89 284.09L1289.29 227.368C1287 223.128 1291.02 218.257 1295.62 219.7L1374.43 244.453C1378.86 245.842 1378.95 252.102 1374.55 253.636L1343.97 264.208C1343.02 264.533 1342.2 265.218 1341.7 266.121L1341.72 266.102Z" fill="#32C27D" stroke="#104E36" stroke-opacity="0.5" stroke-width="1.8" stroke-miterlimit="10" stroke-linejoin="round"/>
<path d="M1341.5 286.615L1343.09 264.623" stroke="#104E36" stroke-opacity="0.5" stroke-miterlimit="10" stroke-linejoin="round"/>
<path d="M1330.75 309.925L1333.87 280.193" stroke="#104E36" stroke-opacity="0.5" stroke-miterlimit="10" stroke-linejoin="round"/>
<path d="M1318.88 309.871L1318.17 281.131" stroke="#104E36" stroke-opacity="0.5" stroke-miterlimit="10" stroke-linejoin="round"/>
<path d="M1333.1 143.578L1306.7 185.376C1303.92 189.83 1299.04 192.542 1293.77 192.542H1239.38C1234.11 192.556 1229.23 189.83 1226.45 185.376L1200.33 143.578C1197.23 138.625 1197.23 132.358 1200.31 127.419L1226.71 85.6218C1229.5 81.1537 1234.37 78.4414 1239.62 78.4414H1294.03C1299.29 78.4414 1304.18 81.1537 1306.96 85.5932L1333.08 127.419C1336.18 132.358 1336.18 138.639 1333.1 143.578Z" fill="#32C27D" stroke="#104E36" stroke-opacity="0.5" stroke-width="1.8" stroke-miterlimit="10"/>
<path d="M1296.84 93.958C1297.77 92.4877 1299.31 92.3164 1299.92 92.3164C1300.55 92.3164 1302.08 92.4734 1303.01 93.958L1304.76 96.7845V96.7274L1325.52 129.945C1327.63 133.328 1327.63 137.697 1325.52 141.065L1315.77 156.582L1302.73 177.224C1301.81 178.695 1300.38 178.866 1299.81 178.852C1299.22 178.852 1297.78 178.695 1296.85 177.21L1274.34 141.165C1272.23 137.796 1272.21 133.443 1274.28 130.045L1296.84 93.958Z" fill="#32C27D" stroke="#104E36" stroke-opacity="0.5" stroke-miterlimit="10"/>
<path d="M969.014 250.998C968.868 247.182 969.887 243.337 971.985 239.973L1098.18 38.0037C1101.79 32.2219 1108.11 28.7266 1114.93 28.7266H1185.39C1192.2 28.7266 1198.54 32.2364 1202.15 38.0037L1204.8 42.2563L1205.75 43.7709L1219.12 65.1505L1236 92.1517C1237.99 95.3557 1239 98.982 1239 102.623C1239 106.249 1237.99 109.89 1236 113.094L1129.91 282.849L1112.5 310.724L1112.44 310.826L1109.82 315.049C1106.2 320.817 1099.87 324.326 1093.05 324.326H1022.58C1015.76 324.326 1009.43 320.802 1005.82 315.049L987.626 285.936L971.985 260.887C970.091 257.858 969.086 254.45 969.014 250.998Z" fill="#32C27D" stroke="#104E36" stroke-opacity="0.5" stroke-width="1.8" stroke-linejoin="round"/>
<path d="M1102.93 304.228C1102.16 304.228 1100.22 304.009 1098.98 302.043L1083.78 277.707L1072.18 259.575L1070.03 256.138C1068.69 253.997 1067.95 251.536 1067.89 249.06C1067.8 246.22 1068.54 243.482 1070.03 241.094L1126.72 150.362L1189.86 49.2461C1191.1 47.2654 1193.05 47.0469 1193.82 47.0469C1194.59 47.0469 1196.54 47.2654 1197.78 49.2461L1198.7 50.717L1226.78 95.1219C1229.63 99.6949 1229.63 105.607 1226.78 110.18L1106.92 301.941L1106.86 302.043C1105.62 304.009 1103.7 304.228 1102.91 304.228H1102.93Z" fill="#32C27D" stroke="#104E36" stroke-opacity="0.5" stroke-miterlimit="10" stroke-linejoin="round"/>
</g>
</g>
</g>
</g>
<path d="M1 346.75V0.75H-1V346.75H1Z" fill="#104E36" fill-opacity="0.5" mask="url(#path-1-inside-1_9_1027)"/>
<defs>
<clipPath id="clip0_9_1027">
<path d="M0 0.75H1440V346.75H0V0.75Z" fill="white"/>
</clipPath>
<clipPath id="clip1_9_1027">
<rect width="708" height="346" fill="white" transform="translate(732 0.441406)"/>
</clipPath>
</defs>
</svg>
