<svg width="622" height="346" viewBox="0 0 622 346" fill="none" xmlns="http://www.w3.org/2000/svg">
<path d="M22 -2.30859V455.691" stroke="#888BA8" stroke-opacity="0.4" stroke-miterlimit="10"/>
<path d="M262 231.691H622" stroke="#888BA8" stroke-opacity="0.4" stroke-miterlimit="10"/>
<path d="M262 311.691H622" stroke="#888BA8" stroke-opacity="0.4" stroke-miterlimit="10"/>
<path d="M262 271.691H622" stroke="#888BA8" stroke-opacity="0.4" stroke-miterlimit="10"/>
<path d="M262 191.691H622" stroke="#888BA8" stroke-opacity="0.4" stroke-miterlimit="10"/>
<path d="M262 191.75V397.69" stroke="#888BA8" stroke-opacity="0.4" stroke-miterlimit="10"/>
<path d="M382 191.75V397.69" stroke="#888BA8" stroke-opacity="0.4" stroke-miterlimit="10"/>
<path d="M502 191.75V397.69" stroke="#888BA8" stroke-opacity="0.4" stroke-miterlimit="10"/>
<path d="M502 -2.30859V191.691" stroke="#888BA8" stroke-opacity="0.4" stroke-miterlimit="10"/>
<path d="M207 243.191C207 186.582 160.885 140.691 104 140.691C47.115 140.691 1 186.582 1 243.191C1 299.8 47.115 345.691 104 345.691C160.885 345.691 207 299.8 207 243.191Z" fill="white" stroke="#888BA8" stroke-opacity="0.4" stroke-width="0.8" stroke-miterlimit="10"/>
<path d="M329 323.607H176C162.745 323.607 152 334.353 152 347.607V387.607C152 400.862 162.745 411.607 176 411.607H329C342.255 411.607 353 400.862 353 387.607V347.607C353 334.353 342.255 323.607 329 323.607Z" fill="white" stroke="#888BA8" stroke-opacity="0.4" stroke-width="0.8" stroke-miterlimit="10"/>
<path d="M187.976 28.8075L118.268 55.2398C111.753 57.7104 108.474 64.995 110.944 71.5104L137.376 141.218C139.847 147.734 147.132 151.013 153.647 148.542L223.355 122.11C229.87 119.639 233.149 112.355 230.678 105.839L204.246 36.1314C201.776 29.6159 194.491 26.3369 187.976 28.8075Z" fill="white" stroke="#888BA8" stroke-opacity="0.4" stroke-width="0.8" stroke-miterlimit="10"/>
<path d="M588.823 50.0846C593.626 50.0846 597.52 46.191 597.52 41.388C597.52 36.585 593.626 32.6914 588.823 32.6914C584.02 32.6914 580.127 36.585 580.127 41.388C580.127 46.191 584.02 50.0846 588.823 50.0846Z" fill="white" stroke="#888BA8" stroke-opacity="0.4" stroke-width="0.8" stroke-miterlimit="10"/>
<path d="M560.259 50.0846C565.062 50.0846 568.956 46.191 568.956 41.388C568.956 36.585 565.062 32.6914 560.259 32.6914C555.456 32.6914 551.562 36.585 551.562 41.388C551.562 46.191 555.456 50.0846 560.259 50.0846Z" fill="white" stroke="#888BA8" stroke-opacity="0.4" stroke-width="0.8" stroke-miterlimit="10"/>
<path d="M531.697 50.0846C536.5 50.0846 540.393 46.191 540.393 41.388C540.393 36.585 536.5 32.6914 531.697 32.6914C526.894 32.6914 523 36.585 523 41.388C523 46.191 526.894 50.0846 531.697 50.0846Z" fill="white" stroke="#888BA8" stroke-opacity="0.4" stroke-width="0.8" stroke-miterlimit="10"/>
<path d="M470.639 224.02C470.658 220.664 473.959 217.813 477.622 218.95L556.426 243.703C559.205 244.569 560.287 247.347 559.62 249.675L556.715 268.654C556.318 271.126 554.64 273.201 552.313 274.103L540.225 278.793L525.197 284.621C524.186 285.018 523.393 285.776 522.942 286.75L512.73 309.193C510.15 313.884 503.403 313.848 500.859 309.139L471.253 245.94C470.351 244.028 469.936 241.917 470.008 239.806L470.639 224.02Z" fill="white" stroke="#888BA8" stroke-opacity="0.4" stroke-width="1.8" stroke-miterlimit="10" stroke-linejoin="round"/>
<path d="M523.717 265.352L513.758 283.394C511.178 288.085 504.43 288.049 501.887 283.34L471.288 226.618C468.997 222.378 473.02 217.507 477.621 218.95L556.426 243.703C560.864 245.092 560.954 251.352 556.552 252.886L525.972 263.458C525.016 263.783 524.204 264.468 523.699 265.371L523.717 265.352Z" fill="white" stroke="#888BA8" stroke-opacity="0.4" stroke-width="1.8" stroke-miterlimit="10" stroke-linejoin="round"/>
<path d="M523.5 285.865L525.088 263.873" stroke="#888BA8" stroke-opacity="0.4" stroke-miterlimit="10" stroke-linejoin="round"/>
<path d="M512.748 309.175L515.869 279.443" stroke="#888BA8" stroke-opacity="0.4" stroke-miterlimit="10" stroke-linejoin="round"/>
<path d="M500.876 309.121L500.172 280.381" stroke="#888BA8" stroke-opacity="0.4" stroke-miterlimit="10" stroke-linejoin="round"/>
<path d="M515.098 142.828L488.703 184.626C485.919 189.08 481.037 191.792 475.77 191.792H421.382C416.114 191.806 411.232 189.08 408.448 184.626L382.325 142.828C379.227 137.875 379.227 131.608 382.311 126.669L408.705 84.8718C411.503 80.4037 416.371 77.6914 421.624 77.6914H476.027C481.294 77.6914 486.176 80.4037 488.96 84.8432L515.083 126.669C518.181 131.608 518.181 137.889 515.098 142.828Z" fill="white" stroke="#888BA8" stroke-opacity="0.4" stroke-width="1.8" stroke-miterlimit="10"/>
<path d="M478.838 93.208C479.766 91.7377 481.308 91.5664 481.922 91.5664C482.55 91.5664 484.077 91.7234 485.005 93.208L486.761 96.0345V95.9774L507.517 129.195C509.63 132.578 509.63 136.947 507.517 140.315L497.767 155.832L484.734 176.474C483.806 177.945 482.379 178.116 481.808 178.102C481.222 178.102 479.781 177.945 478.853 176.46L456.341 140.415C454.228 137.046 454.214 132.693 456.284 129.295L478.838 93.208Z" fill="white" stroke="#888BA8" stroke-opacity="0.4" stroke-miterlimit="10"/>
<path d="M151.014 250.248C150.868 246.432 151.887 242.587 153.985 239.223L280.18 37.2537C283.791 31.4719 290.112 27.9766 296.928 27.9766H367.387C374.203 27.9766 380.538 31.4864 384.15 37.2537L386.801 41.5063L387.747 43.0209L401.117 64.4005L417.996 91.4017C419.991 94.6057 420.996 98.232 420.996 101.873C420.996 105.499 419.991 109.14 417.996 112.344L311.914 282.099L294.496 309.974L294.437 310.076L291.816 314.299C288.204 320.067 281.869 323.576 275.053 323.576H204.579C197.763 323.576 191.428 320.052 187.816 314.299L169.626 285.186L153.985 260.137C152.091 257.108 151.086 253.7 151.014 250.248Z" fill="white" stroke="#888BA8" stroke-opacity="0.4" stroke-width="1.8" stroke-linejoin="round"/>
<path d="M284.928 303.478C284.156 303.478 282.219 303.259 280.981 301.293L265.777 276.957L254.184 258.825L252.029 255.388C250.689 253.247 249.946 250.786 249.888 248.31C249.8 245.47 250.543 242.732 252.029 240.344L308.725 149.612L371.859 48.4961C373.097 46.5154 375.049 46.2969 375.82 46.2969C376.592 46.2969 378.544 46.5154 379.782 48.4961L380.699 49.967L408.778 94.3719C411.633 98.9449 411.633 104.857 408.778 109.43L288.919 301.191L288.86 301.293C287.622 303.259 285.7 303.478 284.914 303.478H284.928Z" fill="white" stroke="#888BA8" stroke-opacity="0.4" stroke-miterlimit="10" stroke-linejoin="round"/>
</svg>
