<svg width="708" height="347" viewBox="0 0 708 347" fill="none" xmlns="http://www.w3.org/2000/svg">
<g clip-path="url(#clip0_285_3882)">
<g opacity="0.5">
<mask id="mask0_285_3882" style="mask-type:luminance" maskUnits="userSpaceOnUse" x="0" y="0" width="708" height="347">
<path d="M708 0.441406H0V346.441H708V0.441406Z" fill="white"/>
</mask>
<g mask="url(#mask0_285_3882)">
<path d="M108 -1.55859V456.441" stroke="#104E36" stroke-opacity="0.5" stroke-miterlimit="10"/>
<path d="M348 232.441H708" stroke="#104E36" stroke-opacity="0.5" stroke-miterlimit="10"/>
<path d="M348 312.441H708" stroke="#104E36" stroke-opacity="0.5" stroke-miterlimit="10"/>
<path d="M348 272.441H708" stroke="#104E36" stroke-opacity="0.5" stroke-miterlimit="10"/>
<path d="M348 192.441H708" stroke="#104E36" stroke-opacity="0.5" stroke-miterlimit="10"/>
<path d="M348 192.5V398.44" stroke="#104E36" stroke-opacity="0.5" stroke-miterlimit="10"/>
<path d="M468 192.5V398.44" stroke="#104E36" stroke-opacity="0.5" stroke-miterlimit="10"/>
<path d="M588 192.5V398.44" stroke="#104E36" stroke-opacity="0.5" stroke-miterlimit="10"/>
<path d="M588 -1.55859V192.441" stroke="#104E36" stroke-opacity="0.5" stroke-miterlimit="10"/>
<path d="M293 243.941C293 187.332 246.885 141.441 190 141.441C133.115 141.441 87 187.332 87 243.941C87 300.55 133.115 346.441 190 346.441C246.885 346.441 293 300.55 293 243.941Z" fill="#32C27D" stroke="#104E36" stroke-opacity="0.5" stroke-width="0.8" stroke-miterlimit="10"/>
<path d="M415 324.357H262C248.745 324.357 238 335.103 238 348.357V388.357C238 401.612 248.745 412.357 262 412.357H415C428.255 412.357 439 401.612 439 388.357V348.357C439 335.103 428.255 324.357 415 324.357Z" fill="#32C27D" stroke="#104E36" stroke-opacity="0.5" stroke-width="0.8" stroke-miterlimit="10"/>
<path d="M273.976 29.5575L204.268 55.9898C197.753 58.4604 194.474 65.745 196.944 72.2604L223.376 141.968C225.847 148.484 233.132 151.763 239.647 149.292L309.355 122.86C315.87 120.389 319.149 113.105 316.678 106.589L290.246 36.8814C287.776 30.3659 280.491 27.0869 273.976 29.5575Z" fill="#32C27D" stroke="#104E36" stroke-opacity="0.5" stroke-width="0.8" stroke-miterlimit="10"/>
<path d="M674.823 50.8346C679.626 50.8346 683.52 46.941 683.52 42.138C683.52 37.335 679.626 33.4414 674.823 33.4414C670.02 33.4414 666.127 37.335 666.127 42.138C666.127 46.941 670.02 50.8346 674.823 50.8346Z" fill="#32C27D" stroke="#104E36" stroke-opacity="0.5" stroke-width="0.8" stroke-miterlimit="10"/>
<path d="M646.259 50.8346C651.062 50.8346 654.956 46.941 654.956 42.138C654.956 37.335 651.062 33.4414 646.259 33.4414C641.456 33.4414 637.562 37.335 637.562 42.138C637.562 46.941 641.456 50.8346 646.259 50.8346Z" fill="#32C27D" stroke="#104E36" stroke-opacity="0.5" stroke-width="0.8" stroke-miterlimit="10"/>
<path d="M617.697 50.8346C622.5 50.8346 626.393 46.941 626.393 42.138C626.393 37.335 622.5 33.4414 617.697 33.4414C612.894 33.4414 609 37.335 609 42.138C609 46.941 612.894 50.8346 617.697 50.8346Z" fill="#32C27D" stroke="#104E36" stroke-opacity="0.5" stroke-width="0.8" stroke-miterlimit="10"/>
<path d="M556.639 224.77C556.658 221.414 559.959 218.563 563.622 219.7L642.426 244.453C645.205 245.319 646.287 248.097 645.62 250.425L642.715 269.404C642.318 271.876 640.64 273.951 638.313 274.853L626.225 279.543L611.197 285.371C610.186 285.768 609.393 286.526 608.942 287.5L598.73 309.943C596.15 314.634 589.403 314.598 586.859 309.889L557.253 246.69C556.351 244.778 555.936 242.667 556.008 240.556L556.639 224.77Z" fill="#32C27D" stroke="#104E36" stroke-opacity="0.5" stroke-width="1.8" stroke-miterlimit="10" stroke-linejoin="round"/>
<path d="M609.717 266.102L599.758 284.144C597.178 288.835 590.43 288.799 587.887 284.09L557.288 227.368C554.997 223.128 559.02 218.257 563.621 219.7L642.426 244.453C646.864 245.842 646.954 252.102 642.552 253.636L611.972 264.208C611.016 264.533 610.204 265.218 609.699 266.121L609.717 266.102Z" fill="#32C27D" stroke="#104E36" stroke-opacity="0.5" stroke-width="1.8" stroke-miterlimit="10" stroke-linejoin="round"/>
<path d="M609.5 286.615L611.088 264.623" stroke="#104E36" stroke-opacity="0.5" stroke-miterlimit="10" stroke-linejoin="round"/>
<path d="M598.748 309.925L601.869 280.193" stroke="#104E36" stroke-opacity="0.5" stroke-miterlimit="10" stroke-linejoin="round"/>
<path d="M586.876 309.871L586.172 281.131" stroke="#104E36" stroke-opacity="0.5" stroke-miterlimit="10" stroke-linejoin="round"/>
<path d="M601.098 143.578L574.703 185.376C571.919 189.83 567.037 192.542 561.77 192.542H507.382C502.114 192.556 497.232 189.83 494.448 185.376L468.325 143.578C465.227 138.625 465.227 132.358 468.311 127.419L494.705 85.6218C497.503 81.1537 502.371 78.4414 507.624 78.4414H562.027C567.294 78.4414 572.176 81.1537 574.96 85.5932L601.083 127.419C604.181 132.358 604.181 138.639 601.098 143.578Z" fill="#32C27D" stroke="#104E36" stroke-opacity="0.5" stroke-width="1.8" stroke-miterlimit="10"/>
<path d="M564.838 93.958C565.766 92.4877 567.308 92.3164 567.922 92.3164C568.55 92.3164 570.077 92.4734 571.005 93.958L572.761 96.7845V96.7274L593.517 129.945C595.63 133.328 595.63 137.697 593.517 141.065L583.767 156.582L570.734 177.224C569.806 178.695 568.379 178.866 567.808 178.852C567.222 178.852 565.781 178.695 564.853 177.21L542.341 141.165C540.228 137.796 540.214 133.443 542.284 130.045L564.838 93.958Z" fill="#32C27D" stroke="#104E36" stroke-opacity="0.5" stroke-miterlimit="10"/>
<path d="M237.014 250.998C236.868 247.182 237.887 243.337 239.985 239.973L366.18 38.0037C369.791 32.2219 376.112 28.7266 382.928 28.7266H453.387C460.203 28.7266 466.538 32.2364 470.15 38.0037L472.801 42.2563L473.747 43.7709L487.117 65.1505L503.996 92.1517C505.991 95.3557 506.996 98.982 506.996 102.623C506.996 106.249 505.991 109.89 503.996 113.094L397.914 282.849L380.496 310.724L380.437 310.826L377.816 315.049C374.204 320.817 367.869 324.326 361.053 324.326H290.579C283.763 324.326 277.428 320.802 273.816 315.049L255.626 285.936L239.985 260.887C238.091 257.858 237.086 254.45 237.014 250.998Z" fill="#32C27D" stroke="#104E36" stroke-opacity="0.5" stroke-width="1.8" stroke-linejoin="round"/>
<path d="M370.928 304.228C370.156 304.228 368.219 304.009 366.981 302.043L351.777 277.707L340.184 259.575L338.029 256.138C336.689 253.997 335.946 251.536 335.888 249.06C335.8 246.22 336.543 243.482 338.029 241.094L394.725 150.362L457.859 49.2461C459.097 47.2654 461.049 47.0469 461.82 47.0469C462.592 47.0469 464.544 47.2654 465.782 49.2461L466.699 50.717L494.778 95.1219C497.633 99.6949 497.633 105.607 494.778 110.18L374.919 301.941L374.86 302.043C373.622 304.009 371.7 304.228 370.914 304.228H370.928Z" fill="#32C27D" stroke="#104E36" stroke-opacity="0.5" stroke-miterlimit="10" stroke-linejoin="round"/>
</g>
</g>
</g>
<defs>
<clipPath id="clip0_285_3882">
<rect width="708" height="346" fill="white" transform="translate(0 0.441406)"/>
</clipPath>
</defs>
</svg>
