<svg width="1209" height="333" viewBox="0 0 1209 333" fill="none" xmlns="http://www.w3.org/2000/svg">
<g clip-path="url(#clip0_0_1)">
<mask id="mask0_0_1" style="mask-type:luminance" maskUnits="userSpaceOnUse" x="-16" y="0" width="1241" height="331">
<path d="M1224.5 0.25H-15.5V330.25H1224.5V0.25Z" fill="white"/>
</mask>
<g mask="url(#mask0_0_1)">
<mask id="mask1_0_1" style="mask-type:luminance" maskUnits="userSpaceOnUse" x="-16" y="20" width="21" height="291">
<path d="M-15.5 20.25H4.5V310.25H-15.5V20.25Z" fill="white"/>
</mask>
<g mask="url(#mask1_0_1)">
<path d="M-15.5 21.25H4.5V19.25H-15.5V21.25ZM4.5 309.25H-15.5V311.25H4.5V309.25Z" fill="#E4E7EB"/>
</g>
<mask id="mask2_0_1" style="mask-type:luminance" maskUnits="userSpaceOnUse" x="4" y="20" width="601" height="291">
<path d="M4.5 20.25H604.5V310.25H4.5V20.25Z" fill="white"/>
</mask>
<g mask="url(#mask2_0_1)">
<path d="M4.5 21.25H604.5V19.25H4.5V21.25ZM604.5 309.25H4.5V311.25H604.5V309.25Z" fill="#E4E7EB"/>
</g>
<mask id="mask3_0_1" style="mask-type:luminance" maskUnits="userSpaceOnUse" x="4" y="0" width="601" height="331">
<path d="M4.5 0.25H604.5V330.25H4.5V0.25Z" fill="white"/>
</mask>
<g mask="url(#mask3_0_1)">
<path d="M603.5 0.25V330.25H605.5V0.25H603.5ZM5.5 330.25V0.25H3.5V330.25H5.5Z" fill="#E4E7EB"/>
</g>
<path d="M604.5 0.25H1204.5V330.25H604.5V0.25Z" fill="white"/>
<mask id="mask4_0_1" style="mask-type:luminance" maskUnits="userSpaceOnUse" x="604" y="20" width="601" height="291">
<path d="M604.5 20.25H1204.5V310.25H604.5V20.25Z" fill="white"/>
</mask>
<g mask="url(#mask4_0_1)">
<path d="M604.5 20.25H1204.5V310.25H604.5V20.25Z" fill="white"/>
<path d="M604.5 60.25L1204.5 60.2501" stroke="#E4E7EB"/>
<path d="M844.5 60.25V20.25" stroke="#E4E7EB"/>
<path d="M724.5 60.25V20.25" stroke="#E4E7EB"/>
<path d="M964.5 60.25V20.25" stroke="#E4E7EB"/>
<path d="M1084.5 60.25V20.25" stroke="#E4E7EB"/>
</g>
<mask id="mask5_0_1" style="mask-type:luminance" maskUnits="userSpaceOnUse" x="604" y="20" width="601" height="291">
<path d="M604.5 20.25H1204.5V310.25H604.5V20.25Z" fill="white"/>
</mask>
<g mask="url(#mask5_0_1)">
<path d="M604.5 21.25H1204.5V19.25H604.5V21.25ZM1204.5 309.25H604.5V311.25H1204.5V309.25Z" fill="#E4E7EB"/>
</g>
<mask id="mask6_0_1" style="mask-type:luminance" maskUnits="userSpaceOnUse" x="604" y="0" width="601" height="331">
<path d="M604.5 0.25H1204.5V330.25H604.5V0.25Z" fill="white"/>
</mask>
<g mask="url(#mask6_0_1)">
<path d="M1203.5 0.25V330.25H1205.5V0.25H1203.5Z" fill="#E4E7EB"/>
</g>
<mask id="mask7_0_1" style="mask-type:luminance" maskUnits="userSpaceOnUse" x="1204" y="20" width="21" height="291">
<path d="M1204.5 20.25H1224.5V310.25H1204.5V20.25Z" fill="white"/>
</mask>
<g mask="url(#mask7_0_1)">
<path d="M1204.5 21.25H1224.5V19.25H1204.5V21.25ZM1224.5 309.25H1204.5V311.25H1224.5V309.25Z" fill="#E4E7EB"/>
</g>
</g>
</g>
<g clip-path="url(#clip1_0_1)">
<mask id="mask8_0_1" style="mask-type:luminance" maskUnits="userSpaceOnUse" x="-16" y="2" width="1241" height="331">
<path d="M1224.5 332.25H-15.5V2.25H1224.5V332.25Z" fill="white"/>
</mask>
<g mask="url(#mask8_0_1)">
<mask id="mask9_0_1" style="mask-type:luminance" maskUnits="userSpaceOnUse" x="-16" y="22" width="21" height="291">
<path d="M-15.5 312.25H4.5V22.25H-15.5V312.25Z" fill="white"/>
</mask>
<g mask="url(#mask9_0_1)">
<path d="M-15.5 311.25H4.5V313.25H-15.5V311.25ZM4.5 23.25H-15.5V21.25H4.5V23.25Z" fill="#E4E7EB"/>
</g>
<mask id="mask10_0_1" style="mask-type:luminance" maskUnits="userSpaceOnUse" x="4" y="22" width="601" height="291">
<path d="M4.5 312.25H604.5V22.25H4.5V312.25Z" fill="white"/>
</mask>
<g mask="url(#mask10_0_1)">
<path d="M4.5 311.25H604.5V313.25H4.5V311.25ZM604.5 23.25H4.5V21.25H604.5V23.25Z" fill="#E4E7EB"/>
</g>
<mask id="mask11_0_1" style="mask-type:luminance" maskUnits="userSpaceOnUse" x="4" y="2" width="601" height="331">
<path d="M4.5 332.25H604.5V2.25H4.5V332.25Z" fill="white"/>
</mask>
<g mask="url(#mask11_0_1)">
<path d="M603.5 332.25V2.25H605.5V332.25H603.5ZM5.5 2.25V332.25H3.5V2.25H5.5Z" fill="#E4E7EB"/>
</g>
<path d="M604.5 332.25H1204.5V2.25H604.5V332.25Z" fill="white"/>
<mask id="mask12_0_1" style="mask-type:luminance" maskUnits="userSpaceOnUse" x="604" y="22" width="601" height="291">
<path d="M604.5 312.25H1204.5V22.25H604.5V312.25Z" fill="white"/>
</mask>
<g mask="url(#mask12_0_1)">
<path d="M604.5 312.25H1204.5V22.25H604.5V312.25Z" fill="white"/>
<path d="M604.5 272.25L1204.5 272.25" stroke="#E4E7EB"/>
<path d="M844.5 272.25V312.25" stroke="#E4E7EB"/>
<path d="M724.5 272.25V312.25" stroke="#E4E7EB"/>
<path d="M964.5 272.25V312.25" stroke="#E4E7EB"/>
<path d="M1084.5 272.25V312.25" stroke="#E4E7EB"/>
</g>
<mask id="mask13_0_1" style="mask-type:luminance" maskUnits="userSpaceOnUse" x="604" y="22" width="601" height="291">
<path d="M604.5 312.25H1204.5V22.25H604.5V312.25Z" fill="white"/>
</mask>
<g mask="url(#mask13_0_1)">
<path d="M604.5 311.25H1204.5V313.25H604.5V311.25ZM1204.5 23.25H604.5V21.25H1204.5V23.25Z" fill="#E4E7EB"/>
</g>
<mask id="mask14_0_1" style="mask-type:luminance" maskUnits="userSpaceOnUse" x="604" y="2" width="601" height="331">
<path d="M604.5 332.25H1204.5V2.25H604.5V332.25Z" fill="white"/>
</mask>
<g mask="url(#mask14_0_1)">
<path d="M1203.5 332.25V2.25H1205.5V332.25H1203.5Z" fill="#E4E7EB"/>
</g>
<mask id="mask15_0_1" style="mask-type:luminance" maskUnits="userSpaceOnUse" x="1204" y="22" width="21" height="291">
<path d="M1204.5 312.25H1224.5V22.25H1204.5V312.25Z" fill="white"/>
</mask>
<g mask="url(#mask15_0_1)">
<path d="M1204.5 311.25H1224.5V313.25H1204.5V311.25ZM1224.5 23.25H1204.5V21.25H1224.5V23.25Z" fill="#E4E7EB"/>
</g>
</g>
</g>
<g clip-path="url(#clip2_0_1)">
<mask id="mask16_0_1" style="mask-type:luminance" maskUnits="userSpaceOnUse" x="-16" y="-212" width="1241" height="824">
<path d="M1224.5 -211.449H-15.5V611.751H1224.5V-211.449Z" fill="white"/>
</mask>
<g mask="url(#mask16_0_1)">
<path d="M1224.5 -211.449H-15.5V611.751H1224.5V-211.449Z" fill="white"/>
<mask id="mask17_0_1" style="mask-type:luminance" maskUnits="userSpaceOnUse" x="-16" y="-164" width="21" height="728">
<path d="M-15.5 -163.449H4.5V563.751H-15.5V-163.449Z" fill="white"/>
</mask>
<g mask="url(#mask17_0_1)">
<path d="M-15.5 -161.05H4.5V-165.85H-15.5V-161.05ZM4.5 561.35H-15.5V566.15H4.5V561.35Z" fill="#E4E7EB"/>
</g>
<path d="M4.5 -211.449H604.5V611.751H4.5V-211.449Z" fill="white"/>
<path d="M4.5 -163.449H604.5V563.751H4.5V-163.449Z" fill="white"/>
<mask id="mask18_0_1" style="mask-type:luminance" maskUnits="userSpaceOnUse" x="4" y="-164" width="601" height="728">
<path d="M4.5 -163.449H604.5V563.751H4.5V-163.449Z" fill="white"/>
</mask>
<g mask="url(#mask18_0_1)">
<path d="M4.5 -161.05H604.5V-165.85H4.5V-161.05ZM604.5 561.35H4.5V566.15H604.5V561.35Z" fill="#E4E7EB"/>
</g>
<mask id="mask19_0_1" style="mask-type:luminance" maskUnits="userSpaceOnUse" x="4" y="-212" width="601" height="824">
<path d="M4.5 -211.449H604.5V611.751H4.5V-211.449Z" fill="white"/>
</mask>
<g mask="url(#mask19_0_1)">
<path d="M603.5 -211.449V611.751H605.5V-211.449H603.5ZM5.5 611.751V-211.449H3.5V611.751H5.5Z" fill="#E4E7EB"/>
</g>
<path d="M604.5 -211.449H1204.5V611.751H604.5V-211.449Z" fill="white"/>
<mask id="mask20_0_1" style="mask-type:luminance" maskUnits="userSpaceOnUse" x="604" y="-164" width="601" height="728">
<path d="M604.5 -163.449H1204.5V563.751H604.5V-163.449Z" fill="white"/>
</mask>
<g mask="url(#mask20_0_1)">
<path d="M604.5 -163.449H1204.5V563.751H604.5V-163.449Z" fill="white"/>
</g>
<mask id="mask21_0_1" style="mask-type:luminance" maskUnits="userSpaceOnUse" x="604" y="-164" width="601" height="728">
<path d="M604.5 -163.449H1204.5V563.751H604.5V-163.449Z" fill="white"/>
</mask>
<g mask="url(#mask21_0_1)">
<path d="M604.5 -161.05H1204.5V-165.85H604.5V-161.05ZM1204.5 561.35H604.5V566.15H1204.5V561.35Z" fill="#E4E7EB"/>
</g>
<mask id="mask22_0_1" style="mask-type:luminance" maskUnits="userSpaceOnUse" x="604" y="-212" width="601" height="824">
<path d="M604.5 -211.449H1204.5V611.751H604.5V-211.449Z" fill="white"/>
</mask>
<g mask="url(#mask22_0_1)">
<path d="M1203.5 -211.449V611.751H1205.5V-211.449H1203.5Z" fill="#E4E7EB"/>
</g>
<mask id="mask23_0_1" style="mask-type:luminance" maskUnits="userSpaceOnUse" x="1204" y="-164" width="21" height="728">
<path d="M1204.5 -163.449H1224.5V563.751H1204.5V-163.449Z" fill="white"/>
</mask>
<g mask="url(#mask23_0_1)">
<path d="M1204.5 -161.05H1224.5V-165.85H1204.5V-161.05ZM1224.5 561.35H1204.5V566.15H1224.5V561.35Z" fill="#E4E7EB"/>
</g>
</g>
</g>
<defs>
<clipPath id="clip0_0_1">
<rect width="1209" height="70" fill="white" transform="translate(0 0.25)"/>
</clipPath>
<clipPath id="clip1_0_1">
<rect width="1209" height="70" fill="white" transform="matrix(1 0 0 -1 0 332.25)"/>
</clipPath>
<clipPath id="clip2_0_1">
<rect width="1209" height="192" fill="white" transform="translate(0 71.75)"/>
</clipPath>
</defs>
</svg>
