<svg width="80" height="80" viewBox="0 0 80 80" fill="none" xmlns="http://www.w3.org/2000/svg">
<rect width="80" height="80" rx="16" fill="#D0F4D8"/>
<g clip-path="url(#clip0_291_2778)">
<g clip-path="url(#clip1_291_2778)">
<path opacity="0.5" fill-rule="evenodd" clip-rule="evenodd" d="M49.1578 28C45.155 28 41.91 31.2449 41.91 35.2478C41.91 38.5912 44.1739 41.4059 47.2524 42.2425C43.0244 42.7064 39.8113 44.9208 37.618 48.1613C35.1638 51.7873 34 56.6674 34 61.7927C34 62.2566 34.3761 62.6327 34.84 62.6327H63.0412C63.5051 62.6327 63.8812 62.2566 63.8812 61.7927C63.8812 56.5432 63.0795 51.6508 60.7905 48.048C58.7528 44.8409 55.5879 42.7363 51.0109 42.2565C54.116 41.4377 56.4056 38.6101 56.4056 35.2478C56.4056 31.2449 53.1606 28 49.1578 28ZM34.8508 60.9527C34.9916 55.4791 36.5166 50.4485 39.4941 47.1125C36.365 50.6185 34.8402 55.9961 34.8402 61.7925C34.8402 61.5114 34.8436 61.2316 34.8508 60.9527Z" fill="url(#paint0_radial_291_2778)"/>
<path fill-rule="evenodd" clip-rule="evenodd" d="M41.1168 23C37.114 23 33.869 26.2449 33.869 30.2478C33.869 33.5912 36.1329 36.4059 39.2114 37.2425C34.9834 37.7064 31.7703 39.9208 29.577 43.1613C27.1228 46.7873 25.959 51.6674 25.959 56.7927C25.959 57.2566 26.3351 57.6327 26.799 57.6327H55.0002C55.4641 57.6327 55.8402 57.2566 55.8402 56.7927C55.8402 51.5432 55.0385 46.6508 52.7495 43.048C50.7118 39.8409 47.5469 37.7363 42.9699 37.2565C46.075 36.4377 48.3646 33.6101 48.3646 30.2478C48.3646 26.2449 45.1196 23 41.1168 23ZM26.8098 55.9527C26.9506 50.4791 28.4756 45.4485 31.4531 42.1125C28.324 45.6185 26.7992 50.9961 26.7992 56.7925C26.7992 56.5114 26.8026 56.2316 26.8098 55.9527Z" fill="url(#paint1_radial_291_2778)"/>
<mask id="mask0_291_2778" style="mask-type:luminance" maskUnits="userSpaceOnUse" x="15" y="16" width="32" height="37">
<path d="M46.6035 16H15.6035V53H46.6035V16Z" fill="white"/>
<path fill-rule="evenodd" clip-rule="evenodd" d="M31.5342 17C27.4925 17 24.216 20.2764 24.216 24.3181C24.216 28.3598 27.4925 31.6362 31.5342 31.6362C35.5759 31.6362 38.8523 28.3598 38.8523 24.3181C38.8523 20.2764 35.5759 17 31.5342 17ZM45.6039 51.7924C45.6039 42.8809 42.3805 35.6566 31.3664 35.6566C21.7362 35.6566 17.1289 43.1867 17.1289 51.7924H45.6039Z" fill="white"/>
</mask>
<g mask="url(#mask0_291_2778)">
<path d="M45.6039 51.7924H46.6039C46.6039 52.3447 46.1562 52.7924 45.6039 52.7924V51.7924ZM17.1289 51.7924V52.7924C16.5766 52.7924 16.1289 52.3447 16.1289 51.7924H17.1289ZM23.216 24.3181C23.216 19.7242 26.9402 16 31.5342 16V18C28.0448 18 25.216 20.8287 25.216 24.3181H23.216ZM31.5342 32.6362C26.9402 32.6362 23.216 28.9121 23.216 24.3181H25.216C25.216 27.8075 28.0448 30.6362 31.5342 30.6362V32.6362ZM39.8523 24.3181C39.8523 28.9121 36.1281 32.6362 31.5342 32.6362V30.6362C35.0236 30.6362 37.8523 27.8075 37.8523 24.3181H39.8523ZM31.5342 16C36.1281 16 39.8523 19.7242 39.8523 24.3181H37.8523C37.8523 20.8287 35.0236 18 31.5342 18V16ZM31.3664 34.6566C37.1121 34.6566 41.0034 36.5558 43.4164 39.784C45.7874 42.956 46.6039 47.2467 46.6039 51.7924H44.6039C44.6039 47.4266 43.8087 43.6494 41.8144 40.9814C39.8622 38.3696 36.6347 36.6566 31.3664 36.6566V34.6566ZM16.1289 51.7924C16.1289 47.3248 17.3234 43.0525 19.854 39.8745C22.4079 36.6672 26.2607 34.6566 31.3664 34.6566V36.6566C26.8418 36.6566 23.5759 38.4111 21.4186 41.1203C19.238 43.8587 18.1289 47.6543 18.1289 51.7924H16.1289ZM45.6039 52.7924H17.1289V50.7924H45.6039V52.7924Z" fill="#167E4C"/>
</g>
</g>
</g>
<defs>
<radialGradient id="paint0_radial_291_2778" cx="0" cy="0" r="1" gradientUnits="userSpaceOnUse" gradientTransform="translate(49.0415 -14.5) rotate(90) scale(84 171.739)">
<stop stop-color="#C9F7D2"/>
<stop offset="1" stop-color="#20A666"/>
</radialGradient>
<radialGradient id="paint1_radial_291_2778" cx="0" cy="0" r="1" gradientUnits="userSpaceOnUse" gradientTransform="translate(41.0005 -19.5) rotate(90) scale(84 171.739)">
<stop stop-color="#C9F7D2"/>
<stop offset="1" stop-color="#20A666"/>
</radialGradient>
<clipPath id="clip0_291_2778">
<rect width="48" height="48" fill="white" transform="translate(16 16)"/>
</clipPath>
<clipPath id="clip1_291_2778">
<rect width="48" height="48" fill="white" transform="translate(16 16)"/>
</clipPath>
</defs>
</svg>
