<svg width="543" height="589" viewBox="0 0 543 589" fill="none" xmlns="http://www.w3.org/2000/svg">
<rect x="0.0664062" y="407" width="295.188" height="182" rx="10" fill="white" fill-opacity="0.1"/>
<ellipse cx="32.1961" cy="437" rx="6.02424" ry="6" fill="#FC165B"/>
<ellipse cx="51.2723" cy="437" rx="6.02424" ry="6" fill="#FCA016"/>
<ellipse cx="70.3504" cy="437" rx="6.02424" ry="6" fill="#16FCA9"/>
<path d="M33.9118 471.344H29.9678L29.1998 474H27.3118L30.8238 462.96H33.1278L36.6478 474H34.6798L33.9118 471.344ZM30.3518 469.912H33.5198L31.9438 464.4L30.3518 469.912ZM44.8895 462.96V464.376H42.5055V472.576H44.8895V474H38.2495V472.576H40.6335V464.376H38.2495V462.96H44.8895ZM47.8593 469.728V468.256H54.4673V469.728H47.8593ZM63.037 466.44C63.037 465.933 62.9384 465.528 62.741 465.224C62.549 464.92 62.2744 464.699 61.917 464.56C61.565 464.421 61.149 464.352 60.669 464.352H59.341V468.648H60.693C61.157 468.648 61.565 468.579 61.917 468.44C62.269 468.301 62.5437 468.072 62.741 467.752C62.9384 467.432 63.037 466.995 63.037 466.44ZM64.989 466.424C64.989 467.283 64.805 467.979 64.437 468.512C64.0744 469.045 63.5677 469.437 62.917 469.688C62.2664 469.939 61.5197 470.064 60.677 470.064H59.341V474H57.485V462.96H60.549C61.9357 462.96 63.021 463.245 63.805 463.816C64.5944 464.381 64.989 465.251 64.989 466.424ZM70.3588 465.328C71.1854 465.328 71.8814 465.512 72.4468 465.88C73.0121 466.248 73.4388 466.763 73.7268 467.424C74.0201 468.085 74.1668 468.864 74.1668 469.76C74.1668 470.651 74.0174 471.432 73.7188 472.104C73.4254 472.771 72.9934 473.291 72.4228 473.664C71.8574 474.032 71.1668 474.216 70.3508 474.216C69.5348 474.216 68.8414 474.037 68.2708 473.68C67.7054 473.317 67.2734 472.803 66.9748 472.136C66.6814 471.469 66.5348 470.683 66.5348 469.776C66.5348 468.896 66.6814 468.123 66.9748 467.456C67.2734 466.789 67.7081 466.269 68.2788 465.896C68.8494 465.517 69.5428 465.328 70.3588 465.328ZM70.3588 466.72C69.7134 466.72 69.2281 466.968 68.9028 467.464C68.5774 467.955 68.4148 468.725 68.4148 469.776C68.4148 470.821 68.5748 471.592 68.8948 472.088C69.2201 472.584 69.7054 472.832 70.3508 472.832C70.9961 472.832 71.4788 472.584 71.7988 472.088C72.1241 471.592 72.2868 470.816 72.2868 469.76C72.2868 468.72 72.1268 467.955 71.8068 467.464C71.4868 466.968 71.0041 466.72 70.3588 466.72ZM83.1765 474H80.9365L79.9845 468L78.9605 474H76.7685L75.3365 465.552H77.0645L77.9445 472.888L79.1205 466.624H80.9125L82.0085 472.888L82.8885 465.552H84.5525L83.1765 474ZM87.6503 470.352C87.6876 470.928 87.8103 471.4 88.0183 471.768C88.2263 472.131 88.4983 472.397 88.8343 472.568C89.1756 472.739 89.5489 472.824 89.9543 472.824C90.3703 472.824 90.7543 472.76 91.1063 472.632C91.4583 472.504 91.8129 472.323 92.1703 472.088L92.9463 473.16C92.5516 473.48 92.0903 473.736 91.5623 473.928C91.0343 474.12 90.4689 474.216 89.8663 474.216C88.9916 474.216 88.2503 474.029 87.6423 473.656C87.0396 473.283 86.5809 472.763 86.2663 472.096C85.9516 471.429 85.7943 470.659 85.7943 469.784C85.7943 468.936 85.9489 468.179 86.2583 467.512C86.5676 466.84 87.0103 466.309 87.5863 465.92C88.1623 465.525 88.8503 465.328 89.6503 465.328C90.4023 465.328 91.0476 465.499 91.5863 465.84C92.1303 466.181 92.5489 466.667 92.8423 467.296C93.1409 467.92 93.2903 468.672 93.2903 469.552C93.2903 469.696 93.2849 469.84 93.2743 469.984C93.2689 470.123 93.2609 470.245 93.2503 470.352H87.6503ZM89.6663 466.656C89.1063 466.656 88.6423 466.856 88.2743 467.256C87.9116 467.656 87.7009 468.28 87.6423 469.128H91.5543C91.5383 468.333 91.3676 467.723 91.0423 467.296C90.7223 466.869 90.2636 466.656 89.6663 466.656ZM95.836 474V472.72H97.076V466.824H95.836V465.552H98.444L98.772 467.512C99.0867 466.803 99.476 466.264 99.94 465.896C100.409 465.523 101.012 465.336 101.748 465.336C101.999 465.336 102.223 465.357 102.42 465.4C102.623 465.437 102.823 465.488 103.02 465.552L102.484 467.088C102.313 467.04 102.153 467.005 102.004 466.984C101.855 466.957 101.689 466.944 101.508 466.944C100.895 466.944 100.364 467.173 99.916 467.632C99.4734 468.091 99.124 468.741 98.868 469.584V472.72H100.572V474H95.836ZM101.436 468.664V466.584L101.66 465.552H103.02L102.716 468.664H101.436ZM106.838 470.352C106.875 470.928 106.998 471.4 107.206 471.768C107.414 472.131 107.686 472.397 108.022 472.568C108.363 472.739 108.736 472.824 109.142 472.824C109.558 472.824 109.942 472.76 110.294 472.632C110.646 472.504 111 472.323 111.358 472.088L112.134 473.16C111.739 473.48 111.278 473.736 110.75 473.928C110.222 474.12 109.656 474.216 109.054 474.216C108.179 474.216 107.438 474.029 106.83 473.656C106.227 473.283 105.768 472.763 105.454 472.096C105.139 471.429 104.982 470.659 104.982 469.784C104.982 468.936 105.136 468.179 105.446 467.512C105.755 466.84 106.198 466.309 106.774 465.92C107.35 465.525 108.038 465.328 108.838 465.328C109.59 465.328 110.235 465.499 110.774 465.84C111.318 466.181 111.736 466.667 112.03 467.296C112.328 467.92 112.478 468.672 112.478 469.552C112.478 469.696 112.472 469.84 112.462 469.984C112.456 470.123 112.448 470.245 112.438 470.352H106.838ZM108.854 466.656C108.294 466.656 107.83 466.856 107.462 467.256C107.099 467.656 106.888 468.28 106.83 469.128H110.742C110.726 468.333 110.555 467.723 110.23 467.296C109.91 466.869 109.451 466.656 108.854 466.656ZM119.904 461.96L121.696 462.16V474H120.12L119.992 472.96C119.704 473.36 119.36 473.669 118.96 473.888C118.56 474.107 118.112 474.216 117.616 474.216C116.89 474.216 116.293 474.032 115.824 473.664C115.354 473.291 115.005 472.771 114.776 472.104C114.552 471.432 114.44 470.656 114.44 469.776C114.44 468.917 114.573 468.155 114.84 467.488C115.106 466.816 115.488 466.288 115.984 465.904C116.48 465.52 117.077 465.328 117.776 465.328C118.218 465.328 118.616 465.408 118.968 465.568C119.32 465.723 119.632 465.949 119.904 466.248V461.96ZM118.248 466.704C117.645 466.704 117.176 466.955 116.84 467.456C116.504 467.952 116.336 468.725 116.336 469.776C116.336 470.496 116.405 471.083 116.544 471.536C116.682 471.984 116.882 472.315 117.144 472.528C117.405 472.736 117.72 472.84 118.088 472.84C118.493 472.84 118.845 472.723 119.144 472.488C119.442 472.253 119.696 471.971 119.904 471.64V467.64C119.696 467.341 119.453 467.112 119.176 466.952C118.898 466.787 118.589 466.704 118.248 466.704ZM141.483 470.88C141.483 471.531 141.315 472.109 140.979 472.616C140.648 473.117 140.168 473.509 139.539 473.792C138.915 474.075 138.16 474.216 137.275 474.216C136.379 474.216 135.592 474.083 134.915 473.816C134.243 473.544 133.675 473.184 133.211 472.736L134.227 471.6C134.622 471.957 135.067 472.24 135.563 472.448C136.059 472.651 136.627 472.752 137.267 472.752C137.683 472.752 138.064 472.688 138.411 472.56C138.758 472.427 139.035 472.229 139.243 471.968C139.451 471.701 139.555 471.368 139.555 470.968C139.555 470.643 139.488 470.368 139.355 470.144C139.222 469.92 138.99 469.717 138.659 469.536C138.334 469.355 137.878 469.179 137.291 469.008C136.512 468.773 135.859 468.512 135.331 468.224C134.803 467.936 134.403 467.592 134.131 467.192C133.864 466.787 133.731 466.296 133.731 465.72C133.731 465.123 133.894 464.6 134.219 464.152C134.55 463.704 135 463.357 135.571 463.112C136.147 462.861 136.798 462.736 137.523 462.736C138.323 462.736 139.022 462.851 139.619 463.08C140.216 463.309 140.75 463.637 141.219 464.064L140.243 465.168C139.854 464.827 139.435 464.579 138.987 464.424C138.544 464.269 138.094 464.192 137.635 464.192C137.262 464.192 136.923 464.245 136.619 464.352C136.315 464.459 136.075 464.616 135.899 464.824C135.723 465.032 135.635 465.296 135.635 465.616C135.635 465.899 135.712 466.141 135.867 466.344C136.027 466.547 136.294 466.736 136.667 466.912C137.046 467.083 137.563 467.267 138.219 467.464C138.838 467.645 139.392 467.869 139.883 468.136C140.379 468.403 140.768 468.752 141.051 469.184C141.339 469.616 141.483 470.181 141.483 470.88ZM147.109 465.328C147.935 465.328 148.631 465.512 149.197 465.88C149.762 466.248 150.189 466.763 150.477 467.424C150.77 468.085 150.917 468.864 150.917 469.76C150.917 470.651 150.767 471.432 150.469 472.104C150.175 472.771 149.743 473.291 149.173 473.664C148.607 474.032 147.917 474.216 147.101 474.216C146.285 474.216 145.591 474.037 145.021 473.68C144.455 473.317 144.023 472.803 143.725 472.136C143.431 471.469 143.285 470.683 143.285 469.776C143.285 468.896 143.431 468.123 143.725 467.456C144.023 466.789 144.458 466.269 145.029 465.896C145.599 465.517 146.293 465.328 147.109 465.328ZM147.109 466.72C146.463 466.72 145.978 466.968 145.653 467.464C145.327 467.955 145.165 468.725 145.165 469.776C145.165 470.821 145.325 471.592 145.645 472.088C145.97 472.584 146.455 472.832 147.101 472.832C147.746 472.832 148.229 472.584 148.549 472.088C148.874 471.592 149.037 470.816 149.037 469.76C149.037 468.72 148.877 467.955 148.557 467.464C148.237 466.968 147.754 466.72 147.109 466.72ZM157.031 462.16V471.696C157.031 472.085 157.148 472.363 157.383 472.528C157.623 472.688 157.932 472.768 158.311 472.768C158.556 472.768 158.788 472.741 159.007 472.688C159.225 472.635 159.439 472.568 159.647 472.488L160.103 473.736C159.852 473.864 159.543 473.976 159.175 474.072C158.812 474.168 158.396 474.216 157.927 474.216C157.079 474.216 156.417 473.979 155.943 473.504C155.473 473.024 155.239 472.368 155.239 471.536V463.48H152.687V462.16H157.031ZM164.704 465.552V471.456C164.704 471.957 164.803 472.315 165 472.528C165.203 472.741 165.507 472.848 165.912 472.848C166.296 472.848 166.667 472.733 167.024 472.504C167.382 472.275 167.664 471.995 167.872 471.664V465.552H169.664V474H168.12L168.008 472.92C167.694 473.341 167.296 473.664 166.816 473.888C166.336 474.107 165.846 474.216 165.344 474.216C164.528 474.216 163.918 473.992 163.512 473.544C163.112 473.091 162.912 472.469 162.912 471.68V465.552H164.704ZM179.562 473.552C179.253 473.749 178.882 473.909 178.45 474.032C178.018 474.155 177.567 474.216 177.098 474.216C176.117 474.216 175.37 473.963 174.858 473.456C174.351 472.944 174.098 472.272 174.098 471.44V466.856H172.218V465.552H174.098V463.664L175.89 463.448V465.552H178.738L178.538 466.856H175.89V471.424C175.89 471.877 176.002 472.216 176.226 472.44C176.455 472.659 176.829 472.768 177.346 472.768C177.655 472.768 177.941 472.731 178.202 472.656C178.463 472.581 178.701 472.485 178.914 472.368L179.562 473.552ZM186.716 465.552V472.688H189.012V474H182.396V472.688H184.924V466.864H182.476V465.552H186.716ZM185.468 461.416C185.82 461.416 186.102 461.523 186.316 461.736C186.534 461.949 186.644 462.216 186.644 462.536C186.644 462.856 186.534 463.125 186.316 463.344C186.102 463.563 185.82 463.672 185.468 463.672C185.126 463.672 184.846 463.563 184.628 463.344C184.409 463.125 184.3 462.856 184.3 462.536C184.3 462.216 184.409 461.949 184.628 461.736C184.846 461.523 185.126 461.416 185.468 461.416ZM195.078 465.328C195.904 465.328 196.6 465.512 197.166 465.88C197.731 466.248 198.158 466.763 198.446 467.424C198.739 468.085 198.886 468.864 198.886 469.76C198.886 470.651 198.736 471.432 198.438 472.104C198.144 472.771 197.712 473.291 197.142 473.664C196.576 474.032 195.886 474.216 195.07 474.216C194.254 474.216 193.56 474.037 192.99 473.68C192.424 473.317 191.992 472.803 191.694 472.136C191.4 471.469 191.254 470.683 191.254 469.776C191.254 468.896 191.4 468.123 191.694 467.456C191.992 466.789 192.427 466.269 192.998 465.896C193.568 465.517 194.262 465.328 195.078 465.328ZM195.078 466.72C194.432 466.72 193.947 466.968 193.622 467.464C193.296 467.955 193.134 468.725 193.134 469.776C193.134 470.821 193.294 471.592 193.614 472.088C193.939 472.584 194.424 472.832 195.07 472.832C195.715 472.832 196.198 472.584 196.518 472.088C196.843 471.592 197.006 470.816 197.006 469.76C197.006 468.72 196.846 467.955 196.526 467.464C196.206 466.968 195.723 466.72 195.078 466.72ZM201.287 474V465.552H202.831L202.967 466.648C203.319 466.216 203.735 465.888 204.215 465.664C204.695 465.44 205.189 465.328 205.695 465.328C206.485 465.328 207.074 465.549 207.463 465.992C207.858 466.429 208.055 467.045 208.055 467.84V474H206.263V468.728C206.263 468.237 206.234 467.843 206.175 467.544C206.117 467.245 205.999 467.029 205.823 466.896C205.653 466.763 205.397 466.696 205.055 466.696C204.783 466.696 204.525 466.755 204.279 466.872C204.034 466.989 203.81 467.144 203.607 467.336C203.405 467.523 203.229 467.723 203.079 467.936V474H201.287ZM213.953 472.84C214.513 472.84 214.958 472.741 215.289 472.544C215.62 472.341 215.785 472.064 215.785 471.712C215.785 471.483 215.737 471.288 215.641 471.128C215.545 470.963 215.353 470.813 215.065 470.68C214.777 470.541 214.34 470.397 213.753 470.248C213.198 470.104 212.71 469.933 212.289 469.736C211.873 469.539 211.55 469.283 211.321 468.968C211.092 468.653 210.977 468.248 210.977 467.752C210.977 467.267 211.113 466.843 211.385 466.48C211.657 466.117 212.046 465.835 212.553 465.632C213.065 465.429 213.665 465.328 214.353 465.328C215.062 465.328 215.681 465.421 216.209 465.608C216.737 465.795 217.188 466.027 217.561 466.304L216.809 467.432C216.478 467.213 216.116 467.035 215.721 466.896C215.332 466.757 214.892 466.688 214.401 466.688C213.83 466.688 213.42 466.773 213.169 466.944C212.924 467.115 212.801 467.341 212.801 467.624C212.801 467.832 212.862 468.008 212.985 468.152C213.113 468.291 213.332 468.421 213.641 468.544C213.95 468.661 214.388 468.8 214.953 468.96C215.502 469.109 215.98 469.285 216.385 469.488C216.796 469.691 217.113 469.96 217.337 470.296C217.566 470.627 217.681 471.059 217.681 471.592C217.681 472.2 217.505 472.699 217.153 473.088C216.806 473.472 216.348 473.757 215.777 473.944C215.212 474.125 214.604 474.216 213.953 474.216C213.169 474.216 212.492 474.104 211.921 473.88C211.35 473.651 210.87 473.365 210.481 473.024L211.433 471.936C211.764 472.203 212.142 472.421 212.569 472.592C212.996 472.757 213.457 472.84 213.953 472.84Z" fill="white"/>
<path d="M34.5902 522H31.8098C29.2505 522 27.1758 524.066 27.1758 526.615V529.385C27.1758 531.934 29.2505 534 31.8098 534H34.5902C37.1495 534 39.2243 531.934 39.2243 529.385V526.615C39.2243 524.066 37.1495 522 34.5902 522Z" fill="white" fill-opacity="0.05"/>
<path d="M98.7913 522H50.943C48.3522 522 46.252 524.066 46.252 526.615V529.385C46.252 531.934 48.3522 534 50.943 534H98.7913C101.382 534 103.482 531.934 103.482 529.385V526.615C103.482 524.066 101.382 522 98.7913 522Z" fill="white" fill-opacity="0.05"/>
<path d="M151.985 522H115.225C112.622 522 110.512 524.066 110.512 526.615V529.385C110.512 531.934 112.622 534 115.225 534H151.985C154.588 534 156.698 531.934 156.698 529.385V526.615C156.698 524.066 154.588 522 151.985 522Z" fill="white" fill-opacity="0.05"/>
<path d="M85.7793 546H31.8269C29.2581 546 27.1758 548.066 27.1758 550.615V553.385C27.1758 555.934 29.2581 558 31.8269 558H85.7793C88.348 558 90.4303 555.934 90.4303 553.385V550.615C90.4303 548.066 88.348 546 85.7793 546Z" fill="white" fill-opacity="0.05"/>
<path d="M145.007 546H102.121C99.5461 546 97.459 548.066 97.459 550.615V553.385C97.459 555.934 99.5461 558 102.121 558H145.007C147.582 558 149.669 555.934 149.669 553.385V550.615C149.669 548.066 147.582 546 145.007 546Z" fill="white" fill-opacity="0.05"/>
<path d="M223.36 546H162.325C159.771 546 157.701 548.066 157.701 550.615V553.385C157.701 555.934 159.771 558 162.325 558H223.36C225.914 558 227.984 555.934 227.984 553.385V550.615C227.984 548.066 225.914 546 223.36 546Z" fill="white" fill-opacity="0.05"/>
<path d="M66.7517 498H31.7776C29.2361 498 27.1758 500.066 27.1758 502.615V505.385C27.1758 507.934 29.2361 510 31.7776 510H66.7517C69.2932 510 71.3536 507.934 71.3536 505.385V502.615C71.3536 500.066 69.2932 498 66.7517 498Z" fill="white" fill-opacity="0.05"/>
<path d="M141.052 498H83.9886C81.447 498 79.3867 500.066 79.3867 502.615V505.385C79.3867 507.934 81.447 510 83.9886 510H141.052C143.593 510 145.653 507.934 145.653 505.385V502.615C145.653 500.066 143.593 498 141.052 498Z" fill="white" fill-opacity="0.05"/>
<path d="M215.284 498H158.35C155.773 498 153.684 500.066 153.684 502.615V505.385C153.684 507.934 155.773 510 158.35 510H215.284C217.861 510 219.95 507.934 219.95 505.385V502.615C219.95 500.066 217.861 498 215.284 498Z" fill="white" fill-opacity="0.05"/>
<rect x="232.625" width="310" height="53" rx="10" fill="white" fill-opacity="0.05"/>
<rect x="233.125" y="0.5" width="309" height="52" rx="9.5" stroke="white" stroke-opacity="0.1"/>
<circle cx="8" cy="8" r="8" transform="matrix(1 0 0 -1 244.625 34.5)" fill="#66FFA3"/>
<path d="M277.009 19.96L278.801 20.16V32H277.225L277.097 30.96C276.809 31.36 276.465 31.6693 276.065 31.888C275.665 32.1067 275.217 32.216 274.721 32.216C273.996 32.216 273.398 32.032 272.929 31.664C272.46 31.2907 272.11 30.7707 271.881 30.104C271.657 29.432 271.545 28.656 271.545 27.776C271.545 26.9173 271.678 26.1547 271.945 25.488C272.212 24.816 272.593 24.288 273.089 23.904C273.585 23.52 274.182 23.328 274.881 23.328C275.324 23.328 275.721 23.408 276.073 23.568C276.425 23.7227 276.737 23.9493 277.009 24.248V19.96ZM275.353 24.704C274.75 24.704 274.281 24.9547 273.945 25.456C273.609 25.952 273.441 26.7253 273.441 27.776C273.441 28.496 273.51 29.0827 273.649 29.536C273.788 29.984 273.988 30.3147 274.249 30.528C274.51 30.736 274.825 30.84 275.193 30.84C275.598 30.84 275.95 30.7227 276.249 30.488C276.548 30.2533 276.801 29.9707 277.009 29.64V25.64C276.801 25.3413 276.558 25.112 276.281 24.952C276.004 24.7867 275.694 24.704 275.353 24.704ZM286.259 23.552V30.688H288.555V32H281.939V30.688H284.467V24.864H282.019V23.552H286.259ZM285.011 19.416C285.363 19.416 285.645 19.5227 285.859 19.736C286.077 19.9493 286.187 20.216 286.187 20.536C286.187 20.856 286.077 21.1253 285.859 21.344C285.645 21.5627 285.363 21.672 285.011 21.672C284.669 21.672 284.389 21.5627 284.171 21.344C283.952 21.1253 283.843 20.856 283.843 20.536C283.843 20.216 283.952 19.9493 284.171 19.736C284.389 19.5227 284.669 19.416 285.011 19.416ZM298.349 22.48L298.829 23.968C298.493 24.08 298.122 24.1547 297.717 24.192C297.317 24.2293 296.869 24.248 296.373 24.248C296.879 24.472 297.261 24.76 297.517 25.112C297.773 25.4587 297.901 25.8853 297.901 26.392C297.901 26.9413 297.767 27.432 297.501 27.864C297.234 28.296 296.853 28.6347 296.357 28.88C295.861 29.1253 295.266 29.248 294.573 29.248C294.327 29.248 294.114 29.2373 293.933 29.216C293.757 29.1947 293.583 29.16 293.413 29.112C293.306 29.1867 293.215 29.288 293.141 29.416C293.071 29.5387 293.037 29.6693 293.037 29.808C293.037 29.9787 293.106 30.128 293.245 30.256C293.389 30.3787 293.671 30.44 294.093 30.44H295.565C296.167 30.44 296.698 30.544 297.157 30.752C297.621 30.9547 297.983 31.2347 298.245 31.592C298.511 31.944 298.645 32.344 298.645 32.792C298.645 33.6347 298.282 34.288 297.557 34.752C296.831 35.216 295.786 35.448 294.421 35.448C293.455 35.448 292.698 35.3493 292.149 35.152C291.599 34.9547 291.213 34.6613 290.988 34.272C290.765 33.8827 290.653 33.4053 290.653 32.84H292.261C292.261 33.1333 292.317 33.376 292.429 33.568C292.546 33.76 292.762 33.904 293.077 34C293.391 34.096 293.845 34.144 294.437 34.144C295.029 34.144 295.498 34.0933 295.845 33.992C296.197 33.896 296.45 33.7547 296.605 33.568C296.765 33.3867 296.845 33.168 296.845 32.912C296.845 32.5707 296.695 32.3067 296.397 32.12C296.098 31.9333 295.698 31.84 295.197 31.84H293.749C292.949 31.84 292.362 31.6773 291.989 31.352C291.621 31.0267 291.437 30.648 291.437 30.216C291.437 29.928 291.517 29.6507 291.677 29.384C291.842 29.1173 292.077 28.8853 292.381 28.688C291.874 28.4213 291.503 28.0987 291.269 27.72C291.039 27.336 290.925 26.872 290.925 26.328C290.925 25.7307 291.074 25.208 291.373 24.76C291.671 24.312 292.085 23.9627 292.613 23.712C293.146 23.4613 293.759 23.336 294.453 23.336C295.13 23.336 295.695 23.3013 296.149 23.232C296.602 23.1573 296.997 23.0533 297.333 22.92C297.674 22.7867 298.013 22.64 298.349 22.48ZM294.469 24.568C293.898 24.568 293.469 24.7307 293.181 25.056C292.893 25.376 292.749 25.7947 292.749 26.312C292.749 26.8453 292.895 27.2747 293.189 27.6C293.487 27.92 293.922 28.08 294.493 28.08C295.021 28.08 295.423 27.9253 295.701 27.616C295.983 27.3067 296.125 26.8667 296.125 26.296C296.125 25.72 295.986 25.288 295.709 25C295.431 24.712 295.018 24.568 294.469 24.568ZM305.446 23.552V30.688H307.742V32H301.126V30.688H303.654V24.864H301.206V23.552H305.446ZM304.198 19.416C304.55 19.416 304.833 19.5227 305.046 19.736C305.265 19.9493 305.374 20.216 305.374 20.536C305.374 20.856 305.265 21.1253 305.046 21.344C304.833 21.5627 304.55 21.672 304.198 21.672C303.857 21.672 303.577 21.5627 303.358 21.344C303.14 21.1253 303.03 20.856 303.03 20.536C303.03 20.216 303.14 19.9493 303.358 19.736C303.577 19.5227 303.857 19.416 304.198 19.416ZM317.48 31.552C317.171 31.7493 316.8 31.9093 316.368 32.032C315.936 32.1547 315.485 32.216 315.016 32.216C314.035 32.216 313.288 31.9627 312.776 31.456C312.269 30.944 312.016 30.272 312.016 29.44V24.856H310.136V23.552H312.016V21.664L313.808 21.448V23.552H316.656L316.456 24.856H313.808V29.424C313.808 29.8773 313.92 30.216 314.144 30.44C314.373 30.6587 314.747 30.768 315.264 30.768C315.573 30.768 315.859 30.7307 316.12 30.656C316.381 30.5813 316.619 30.4853 316.832 30.368L317.48 31.552ZM326.474 29.928C326.474 30.2587 326.524 30.5013 326.626 30.656C326.727 30.8053 326.89 30.9173 327.114 30.992L326.714 32.208C326.298 32.16 325.94 32.0453 325.642 31.864C325.343 31.6827 325.116 31.408 324.962 31.04C324.652 31.4293 324.26 31.7227 323.786 31.92C323.311 32.1173 322.804 32.216 322.266 32.216C321.412 32.216 320.735 31.976 320.234 31.496C319.738 31.0107 319.49 30.376 319.49 29.592C319.49 28.7013 319.836 28.016 320.53 27.536C321.223 27.056 322.215 26.816 323.506 26.816H324.714V26.264C324.714 25.72 324.548 25.328 324.218 25.088C323.892 24.848 323.431 24.728 322.834 24.728C322.556 24.728 322.22 24.7653 321.826 24.84C321.431 24.9093 321.018 25.0187 320.586 25.168L320.146 23.904C320.674 23.7067 321.191 23.5627 321.698 23.472C322.204 23.376 322.674 23.328 323.106 23.328C324.236 23.328 325.079 23.5787 325.634 24.08C326.194 24.5813 326.474 25.2747 326.474 26.16V29.928ZM322.81 30.896C323.172 30.896 323.527 30.8 323.874 30.608C324.22 30.416 324.5 30.1467 324.714 29.8V27.936H323.722C322.879 27.936 322.276 28.0773 321.914 28.36C321.551 28.6373 321.37 29.0213 321.37 29.512C321.37 29.96 321.49 30.304 321.73 30.544C321.975 30.7787 322.335 30.896 322.81 30.896ZM333.324 20.16V29.696C333.324 30.0853 333.441 30.3627 333.676 30.528C333.916 30.688 334.225 30.768 334.604 30.768C334.849 30.768 335.081 30.7413 335.3 30.688C335.518 30.6347 335.732 30.568 335.94 30.488L336.396 31.736C336.145 31.864 335.836 31.976 335.468 32.072C335.105 32.168 334.689 32.216 334.22 32.216C333.372 32.216 332.71 31.9787 332.236 31.504C331.766 31.024 331.532 30.368 331.532 29.536V21.48H328.98V20.16H333.324ZM355.855 31.552C355.546 31.7493 355.175 31.9093 354.743 32.032C354.311 32.1547 353.86 32.216 353.391 32.216C352.41 32.216 351.663 31.9627 351.151 31.456C350.644 30.944 350.391 30.272 350.391 29.44V24.856H348.511V23.552H350.391V21.664L352.183 21.448V23.552H355.031L354.831 24.856H352.183V29.424C352.183 29.8773 352.295 30.216 352.519 30.44C352.748 30.6587 353.122 30.768 353.639 30.768C353.948 30.768 354.234 30.7307 354.495 30.656C354.756 30.5813 354.994 30.4853 355.207 30.368L355.855 31.552ZM358.473 32V30.72H359.713V24.824H358.473V23.552H361.081L361.409 25.512C361.723 24.8027 362.113 24.264 362.577 23.896C363.046 23.5227 363.649 23.336 364.385 23.336C364.635 23.336 364.859 23.3573 365.057 23.4C365.259 23.4373 365.459 23.488 365.657 23.552L365.121 25.088C364.95 25.04 364.79 25.0053 364.641 24.984C364.491 24.9573 364.326 24.944 364.145 24.944C363.531 24.944 363.001 25.1733 362.553 25.632C362.11 26.0907 361.761 26.7413 361.505 27.584V30.72H363.209V32H358.473ZM364.073 26.664V24.584L364.297 23.552H365.657L365.353 26.664H364.073ZM374.443 29.928C374.443 30.2587 374.493 30.5013 374.595 30.656C374.696 30.8053 374.859 30.9173 375.083 30.992L374.683 32.208C374.267 32.16 373.909 32.0453 373.611 31.864C373.312 31.6827 373.085 31.408 372.931 31.04C372.621 31.4293 372.229 31.7227 371.755 31.92C371.28 32.1173 370.773 32.216 370.235 32.216C369.381 32.216 368.704 31.976 368.203 31.496C367.707 31.0107 367.459 30.376 367.459 29.592C367.459 28.7013 367.805 28.016 368.499 27.536C369.192 27.056 370.184 26.816 371.475 26.816H372.683V26.264C372.683 25.72 372.517 25.328 372.187 25.088C371.861 24.848 371.4 24.728 370.803 24.728C370.525 24.728 370.189 24.7653 369.795 24.84C369.4 24.9093 368.987 25.0187 368.555 25.168L368.115 23.904C368.643 23.7067 369.16 23.5627 369.667 23.472C370.173 23.376 370.643 23.328 371.075 23.328C372.205 23.328 373.048 23.5787 373.603 24.08C374.163 24.5813 374.443 25.2747 374.443 26.16V29.928ZM370.779 30.896C371.141 30.896 371.496 30.8 371.843 30.608C372.189 30.416 372.469 30.1467 372.683 29.8V27.936H371.691C370.848 27.936 370.245 28.0773 369.883 28.36C369.52 28.6373 369.339 29.0213 369.339 29.512C369.339 29.96 369.459 30.304 369.699 30.544C369.944 30.7787 370.304 30.896 370.779 30.896ZM377.58 32V23.552H379.124L379.26 24.648C379.612 24.216 380.028 23.888 380.508 23.664C380.988 23.44 381.482 23.328 381.988 23.328C382.778 23.328 383.367 23.5493 383.756 23.992C384.151 24.4293 384.348 25.0453 384.348 25.84V32H382.556V26.728C382.556 26.2373 382.527 25.8427 382.468 25.544C382.41 25.2453 382.292 25.0293 382.116 24.896C381.946 24.7627 381.69 24.696 381.348 24.696C381.076 24.696 380.818 24.7547 380.572 24.872C380.327 24.9893 380.103 25.144 379.9 25.336C379.698 25.5227 379.522 25.7227 379.372 25.936V32H377.58ZM390.246 30.84C390.806 30.84 391.251 30.7413 391.582 30.544C391.913 30.3413 392.078 30.064 392.078 29.712C392.078 29.4827 392.03 29.288 391.934 29.128C391.838 28.9627 391.646 28.8133 391.358 28.68C391.07 28.5413 390.633 28.3973 390.046 28.248C389.491 28.104 389.003 27.9333 388.582 27.736C388.166 27.5387 387.843 27.2827 387.614 26.968C387.385 26.6533 387.27 26.248 387.27 25.752C387.27 25.2667 387.406 24.8427 387.678 24.48C387.95 24.1173 388.339 23.8347 388.846 23.632C389.358 23.4293 389.958 23.328 390.646 23.328C391.355 23.328 391.974 23.4213 392.502 23.608C393.03 23.7947 393.481 24.0267 393.854 24.304L393.102 25.432C392.771 25.2133 392.409 25.0347 392.014 24.896C391.625 24.7573 391.185 24.688 390.694 24.688C390.123 24.688 389.713 24.7733 389.462 24.944C389.217 25.1147 389.094 25.3413 389.094 25.624C389.094 25.832 389.155 26.008 389.278 26.152C389.406 26.2907 389.625 26.4213 389.934 26.544C390.243 26.6613 390.681 26.8 391.246 26.96C391.795 27.1093 392.273 27.2853 392.678 27.488C393.089 27.6907 393.406 27.96 393.63 28.296C393.859 28.6267 393.974 29.0587 393.974 29.592C393.974 30.2 393.798 30.6987 393.446 31.088C393.099 31.472 392.641 31.7573 392.07 31.944C391.505 32.1253 390.897 32.216 390.246 32.216C389.462 32.216 388.785 32.104 388.214 31.88C387.643 31.6507 387.163 31.3653 386.774 31.024L387.726 29.936C388.057 30.2027 388.435 30.4213 388.862 30.592C389.289 30.7573 389.75 30.84 390.246 30.84ZM401.904 19.96C402.421 19.96 402.882 20.0053 403.288 20.096C403.698 20.1813 404.077 20.2987 404.424 20.448L403.896 21.688C403.613 21.5707 403.317 21.4853 403.008 21.432C402.704 21.3787 402.394 21.352 402.08 21.352C401.525 21.352 401.114 21.4587 400.848 21.672C400.581 21.88 400.448 22.2107 400.448 22.664V24.16H403.272L403.08 25.48H400.448V32H398.664V25.48H396.744V24.16H398.664V22.648C398.664 22.1147 398.797 21.648 399.064 21.248C399.336 20.8427 399.714 20.528 400.2 20.304C400.685 20.0747 401.253 19.96 401.904 19.96ZM409.746 23.328C410.572 23.328 411.268 23.512 411.834 23.88C412.399 24.248 412.826 24.7627 413.114 25.424C413.407 26.0853 413.554 26.864 413.554 27.76C413.554 28.6507 413.404 29.432 413.106 30.104C412.812 30.7707 412.38 31.2907 411.81 31.664C411.244 32.032 410.554 32.216 409.738 32.216C408.922 32.216 408.228 32.0373 407.658 31.68C407.092 31.3173 406.66 30.8027 406.362 30.136C406.068 29.4693 405.922 28.6827 405.922 27.776C405.922 26.896 406.068 26.1227 406.362 25.456C406.66 24.7893 407.095 24.2693 407.666 23.896C408.236 23.5173 408.93 23.328 409.746 23.328ZM409.746 24.72C409.1 24.72 408.615 24.968 408.29 25.464C407.964 25.9547 407.802 26.7253 407.802 27.776C407.802 28.8213 407.962 29.592 408.282 30.088C408.607 30.584 409.092 30.832 409.738 30.832C410.383 30.832 410.866 30.584 411.186 30.088C411.511 29.592 411.674 28.816 411.674 27.76C411.674 26.72 411.514 25.9547 411.194 25.464C410.874 24.968 410.391 24.72 409.746 24.72ZM416.035 32V30.72H417.275V24.824H416.035V23.552H418.643L418.971 25.512C419.286 24.8027 419.675 24.264 420.139 23.896C420.609 23.5227 421.211 23.336 421.947 23.336C422.198 23.336 422.422 23.3573 422.619 23.4C422.822 23.4373 423.022 23.488 423.219 23.552L422.683 25.088C422.513 25.04 422.353 25.0053 422.203 24.984C422.054 24.9573 421.889 24.944 421.707 24.944C421.094 24.944 420.563 25.1733 420.115 25.632C419.673 26.0907 419.323 26.7413 419.067 27.584V30.72H420.771V32H416.035ZM421.635 26.664V24.584L421.859 23.552H423.219L422.915 26.664H421.635ZM431.373 23.328C431.693 23.328 431.981 23.3973 432.237 23.536C432.493 23.6747 432.693 23.9173 432.837 24.264C432.986 24.6107 433.061 25.096 433.061 25.72V32H431.469V25.968C431.469 25.5253 431.437 25.208 431.373 25.016C431.314 24.824 431.157 24.728 430.901 24.728C430.698 24.728 430.493 24.792 430.285 24.92C430.077 25.0427 429.866 25.256 429.653 25.56V32H428.205V25.968C428.205 25.5253 428.173 25.208 428.109 25.016C428.05 24.824 427.893 24.728 427.637 24.728C427.429 24.728 427.221 24.792 427.013 24.92C426.81 25.0427 426.602 25.256 426.389 25.56V32H424.789V23.552H426.141L426.261 24.464C426.501 24.128 426.762 23.856 427.045 23.648C427.328 23.4347 427.669 23.328 428.069 23.328C428.389 23.328 428.68 23.408 428.941 23.568C429.202 23.728 429.394 24.008 429.517 24.408C429.752 24.088 430.018 23.8293 430.317 23.632C430.616 23.4293 430.968 23.328 431.373 23.328ZM441.599 29.928C441.599 30.2587 441.649 30.5013 441.751 30.656C441.852 30.8053 442.015 30.9173 442.239 30.992L441.839 32.208C441.423 32.16 441.065 32.0453 440.767 31.864C440.468 31.6827 440.241 31.408 440.087 31.04C439.777 31.4293 439.385 31.7227 438.911 31.92C438.436 32.1173 437.929 32.216 437.391 32.216C436.537 32.216 435.86 31.976 435.359 31.496C434.863 31.0107 434.615 30.376 434.615 29.592C434.615 28.7013 434.961 28.016 435.655 27.536C436.348 27.056 437.34 26.816 438.631 26.816H439.839V26.264C439.839 25.72 439.673 25.328 439.343 25.088C439.017 24.848 438.556 24.728 437.959 24.728C437.681 24.728 437.345 24.7653 436.951 24.84C436.556 24.9093 436.143 25.0187 435.711 25.168L435.271 23.904C435.799 23.7067 436.316 23.5627 436.823 23.472C437.329 23.376 437.799 23.328 438.231 23.328C439.361 23.328 440.204 23.5787 440.759 24.08C441.319 24.5813 441.599 25.2747 441.599 26.16V29.928ZM437.935 30.896C438.297 30.896 438.652 30.8 438.999 30.608C439.345 30.416 439.625 30.1467 439.839 29.8V27.936H438.847C438.004 27.936 437.401 28.0773 437.039 28.36C436.676 28.6373 436.495 29.0213 436.495 29.512C436.495 29.96 436.615 30.304 436.855 30.544C437.1 30.7787 437.46 30.896 437.935 30.896ZM451.793 31.552C451.483 31.7493 451.113 31.9093 450.681 32.032C450.249 32.1547 449.798 32.216 449.329 32.216C448.347 32.216 447.601 31.9627 447.089 31.456C446.582 30.944 446.329 30.272 446.329 29.44V24.856H444.449V23.552H446.329V21.664L448.121 21.448V23.552H450.969L450.769 24.856H448.121V29.424C448.121 29.8773 448.233 30.216 448.457 30.44C448.686 30.6587 449.059 30.768 449.577 30.768C449.886 30.768 450.171 30.7307 450.433 30.656C450.694 30.5813 450.931 30.4853 451.145 30.368L451.793 31.552ZM458.946 23.552V30.688H461.242V32H454.626V30.688H457.154V24.864H454.706V23.552H458.946ZM457.698 19.416C458.05 19.416 458.333 19.5227 458.546 19.736C458.765 19.9493 458.874 20.216 458.874 20.536C458.874 20.856 458.765 21.1253 458.546 21.344C458.333 21.5627 458.05 21.672 457.698 21.672C457.357 21.672 457.077 21.5627 456.858 21.344C456.64 21.1253 456.53 20.856 456.53 20.536C456.53 20.216 456.64 19.9493 456.858 19.736C457.077 19.5227 457.357 19.416 457.698 19.416ZM467.308 23.328C468.135 23.328 468.831 23.512 469.396 23.88C469.961 24.248 470.388 24.7627 470.676 25.424C470.969 26.0853 471.116 26.864 471.116 27.76C471.116 28.6507 470.967 29.432 470.668 30.104C470.375 30.7707 469.943 31.2907 469.372 31.664C468.807 32.032 468.116 32.216 467.3 32.216C466.484 32.216 465.791 32.0373 465.22 31.68C464.655 31.3173 464.223 30.8027 463.924 30.136C463.631 29.4693 463.484 28.6827 463.484 27.776C463.484 26.896 463.631 26.1227 463.924 25.456C464.223 24.7893 464.657 24.2693 465.228 23.896C465.799 23.5173 466.492 23.328 467.308 23.328ZM467.308 24.72C466.663 24.72 466.177 24.968 465.852 25.464C465.527 25.9547 465.364 26.7253 465.364 27.776C465.364 28.8213 465.524 29.592 465.844 30.088C466.169 30.584 466.655 30.832 467.3 30.832C467.945 30.832 468.428 30.584 468.748 30.088C469.073 29.592 469.236 28.816 469.236 27.76C469.236 26.72 469.076 25.9547 468.756 25.464C468.436 24.968 467.953 24.72 467.308 24.72ZM473.518 32V23.552H475.062L475.198 24.648C475.55 24.216 475.966 23.888 476.446 23.664C476.926 23.44 477.419 23.328 477.926 23.328C478.715 23.328 479.304 23.5493 479.694 23.992C480.088 24.4293 480.286 25.0453 480.286 25.84V32H478.494V26.728C478.494 26.2373 478.464 25.8427 478.406 25.544C478.347 25.2453 478.23 25.0293 478.054 24.896C477.883 24.7627 477.627 24.696 477.286 24.696C477.014 24.696 476.755 24.7547 476.51 24.872C476.264 24.9893 476.04 25.144 475.838 25.336C475.635 25.5227 475.459 25.7227 475.31 25.936V32H473.518Z" fill="white"/>
<rect x="232.625" y="65" width="310" height="53" rx="10" fill="white" fill-opacity="0.05"/>
<rect x="233.125" y="65.5" width="309" height="52" rx="9.5" stroke="white" stroke-opacity="0.1"/>
<circle cx="8" cy="8" r="8" transform="matrix(1 0 0 -1 244.625 99.5)" fill="#EE7171"/>
<path d="M276.121 95.744C276.516 95.744 276.884 95.6773 277.225 95.544C277.566 95.4053 277.892 95.2267 278.201 95.008L279.033 96.16C278.665 96.4747 278.217 96.7307 277.689 96.928C277.166 97.12 276.625 97.216 276.065 97.216C275.201 97.216 274.462 97.0347 273.849 96.672C273.236 96.304 272.766 95.7893 272.441 95.128C272.116 94.4667 271.953 93.696 271.953 92.816C271.953 91.9573 272.116 91.192 272.441 90.52C272.772 89.8427 273.246 89.3093 273.865 88.92C274.484 88.5253 275.228 88.328 276.097 88.328C276.673 88.328 277.204 88.4133 277.689 88.584C278.174 88.7547 278.62 89.008 279.025 89.344L278.201 90.472C277.87 90.2427 277.532 90.0693 277.185 89.952C276.844 89.8293 276.492 89.768 276.129 89.768C275.462 89.768 274.916 90.0133 274.489 90.504C274.068 90.9947 273.857 91.7653 273.857 92.816C273.857 93.52 273.953 94.088 274.145 94.52C274.342 94.9467 274.612 95.2587 274.953 95.456C275.294 95.648 275.684 95.744 276.121 95.744ZM283.435 88.552V94.456C283.435 94.9573 283.533 95.3147 283.731 95.528C283.933 95.7413 284.237 95.848 284.643 95.848C285.027 95.848 285.397 95.7333 285.755 95.504C286.112 95.2747 286.395 94.9947 286.603 94.664V88.552H288.395V97H286.851L286.739 95.92C286.424 96.3413 286.027 96.664 285.547 96.888C285.067 97.1067 284.576 97.216 284.075 97.216C283.259 97.216 282.648 96.992 282.243 96.544C281.843 96.0907 281.643 95.4693 281.643 94.68V88.552H283.435ZM294.309 95.84C294.869 95.84 295.314 95.7413 295.645 95.544C295.975 95.3413 296.141 95.064 296.141 94.712C296.141 94.4827 296.093 94.288 295.997 94.128C295.901 93.9627 295.709 93.8133 295.421 93.68C295.133 93.5413 294.695 93.3973 294.109 93.248C293.554 93.104 293.066 92.9333 292.645 92.736C292.229 92.5387 291.906 92.2827 291.677 91.968C291.447 91.6533 291.333 91.248 291.333 90.752C291.333 90.2667 291.469 89.8427 291.741 89.48C292.013 89.1173 292.402 88.8347 292.909 88.632C293.421 88.4293 294.021 88.328 294.709 88.328C295.418 88.328 296.037 88.4213 296.565 88.608C297.093 88.7947 297.543 89.0267 297.917 89.304L297.165 90.432C296.834 90.2133 296.471 90.0347 296.077 89.896C295.687 89.7573 295.247 89.688 294.757 89.688C294.186 89.688 293.775 89.7733 293.525 89.944C293.279 90.1147 293.157 90.3413 293.157 90.624C293.157 90.832 293.218 91.008 293.341 91.152C293.469 91.2907 293.687 91.4213 293.997 91.544C294.306 91.6613 294.743 91.8 295.309 91.96C295.858 92.1093 296.335 92.2853 296.741 92.488C297.151 92.6907 297.469 92.96 297.693 93.296C297.922 93.6267 298.036 94.0587 298.036 94.592C298.036 95.2 297.861 95.6987 297.509 96.088C297.162 96.472 296.703 96.7573 296.133 96.944C295.567 97.1253 294.959 97.216 294.309 97.216C293.525 97.216 292.847 97.104 292.277 96.88C291.706 96.6507 291.226 96.3653 290.837 96.024L291.789 94.936C292.119 95.2027 292.498 95.4213 292.925 95.592C293.351 95.7573 293.813 95.84 294.309 95.84ZM307.886 96.552C307.577 96.7493 307.206 96.9093 306.774 97.032C306.342 97.1547 305.892 97.216 305.422 97.216C304.441 97.216 303.694 96.9627 303.182 96.456C302.676 95.944 302.422 95.272 302.422 94.44V89.856H300.542V88.552H302.422V86.664L304.214 86.448V88.552H307.062L306.862 89.856H304.214V94.424C304.214 94.8773 304.326 95.216 304.55 95.44C304.78 95.6587 305.153 95.768 305.67 95.768C305.98 95.768 306.265 95.7307 306.526 95.656C306.788 95.5813 307.025 95.4853 307.238 95.368L307.886 96.552ZM313.808 88.328C314.635 88.328 315.331 88.512 315.896 88.88C316.461 89.248 316.888 89.7627 317.176 90.424C317.469 91.0853 317.616 91.864 317.616 92.76C317.616 93.6507 317.467 94.432 317.168 95.104C316.875 95.7707 316.443 96.2907 315.872 96.664C315.307 97.032 314.616 97.216 313.8 97.216C312.984 97.216 312.291 97.0373 311.72 96.68C311.155 96.3173 310.723 95.8027 310.424 95.136C310.131 94.4693 309.984 93.6827 309.984 92.776C309.984 91.896 310.131 91.1227 310.424 90.456C310.723 89.7893 311.157 89.2693 311.728 88.896C312.299 88.5173 312.992 88.328 313.808 88.328ZM313.808 89.72C313.163 89.72 312.677 89.968 312.352 90.464C312.027 90.9547 311.864 91.7253 311.864 92.776C311.864 93.8213 312.024 94.592 312.344 95.088C312.669 95.584 313.155 95.832 313.8 95.832C314.445 95.832 314.928 95.584 315.248 95.088C315.573 94.592 315.736 93.816 315.736 92.76C315.736 91.72 315.576 90.9547 315.256 90.464C314.936 89.968 314.453 89.72 313.808 89.72ZM325.842 88.328C326.162 88.328 326.45 88.3973 326.706 88.536C326.962 88.6747 327.162 88.9173 327.306 89.264C327.455 89.6107 327.53 90.096 327.53 90.72V97H325.938V90.968C325.938 90.5253 325.906 90.208 325.842 90.016C325.783 89.824 325.626 89.728 325.37 89.728C325.167 89.728 324.962 89.792 324.754 89.92C324.546 90.0427 324.335 90.256 324.122 90.56V97H322.674V90.968C322.674 90.5253 322.642 90.208 322.578 90.016C322.519 89.824 322.362 89.728 322.106 89.728C321.898 89.728 321.69 89.792 321.482 89.92C321.279 90.0427 321.071 90.256 320.858 90.56V97H319.258V88.552H320.61L320.73 89.464C320.97 89.128 321.231 88.856 321.514 88.648C321.796 88.4347 322.138 88.328 322.538 88.328C322.858 88.328 323.148 88.408 323.41 88.568C323.671 88.728 323.863 89.008 323.986 89.408C324.22 89.088 324.487 88.8293 324.786 88.632C325.084 88.4293 325.436 88.328 325.842 88.328ZM342.277 95.84C342.837 95.84 343.283 95.7413 343.613 95.544C343.944 95.3413 344.109 95.064 344.109 94.712C344.109 94.4827 344.061 94.288 343.965 94.128C343.869 93.9627 343.677 93.8133 343.389 93.68C343.101 93.5413 342.664 93.3973 342.077 93.248C341.523 93.104 341.035 92.9333 340.613 92.736C340.197 92.5387 339.875 92.2827 339.645 91.968C339.416 91.6533 339.301 91.248 339.301 90.752C339.301 90.2667 339.437 89.8427 339.709 89.48C339.981 89.1173 340.371 88.8347 340.877 88.632C341.389 88.4293 341.989 88.328 342.677 88.328C343.387 88.328 344.005 88.4213 344.533 88.608C345.061 88.7947 345.512 89.0267 345.885 89.304L345.133 90.432C344.803 90.2133 344.44 90.0347 344.045 89.896C343.656 89.7573 343.216 89.688 342.725 89.688C342.155 89.688 341.744 89.7733 341.493 89.944C341.248 90.1147 341.125 90.3413 341.125 90.624C341.125 90.832 341.187 91.008 341.309 91.152C341.437 91.2907 341.656 91.4213 341.965 91.544C342.275 91.6613 342.712 91.8 343.277 91.96C343.827 92.1093 344.304 92.2853 344.709 92.488C345.12 92.6907 345.437 92.96 345.661 93.296C345.891 93.6267 346.005 94.0587 346.005 94.592C346.005 95.2 345.829 95.6987 345.477 96.088C345.131 96.472 344.672 96.7573 344.101 96.944C343.536 97.1253 342.928 97.216 342.277 97.216C341.493 97.216 340.816 97.104 340.245 96.88C339.675 96.6507 339.195 96.3653 338.805 96.024L339.757 94.936C340.088 95.2027 340.467 95.4213 340.893 95.592C341.32 95.7573 341.781 95.84 342.277 95.84ZM352.183 88.328C353.01 88.328 353.706 88.512 354.271 88.88C354.836 89.248 355.263 89.7627 355.551 90.424C355.844 91.0853 355.991 91.864 355.991 92.76C355.991 93.6507 355.842 94.432 355.543 95.104C355.25 95.7707 354.818 96.2907 354.247 96.664C353.682 97.032 352.991 97.216 352.175 97.216C351.359 97.216 350.666 97.0373 350.095 96.68C349.53 96.3173 349.098 95.8027 348.799 95.136C348.506 94.4693 348.359 93.6827 348.359 92.776C348.359 91.896 348.506 91.1227 348.799 90.456C349.098 89.7893 349.532 89.2693 350.103 88.896C350.674 88.5173 351.367 88.328 352.183 88.328ZM352.183 89.72C351.538 89.72 351.052 89.968 350.727 90.464C350.402 90.9547 350.239 91.7253 350.239 92.776C350.239 93.8213 350.399 94.592 350.719 95.088C351.044 95.584 351.53 95.832 352.175 95.832C352.82 95.832 353.303 95.584 353.623 95.088C353.948 94.592 354.111 93.816 354.111 92.76C354.111 91.72 353.951 90.9547 353.631 90.464C353.311 89.968 352.828 89.72 352.183 89.72ZM363.529 84.96C364.046 84.96 364.507 85.0053 364.913 85.096C365.323 85.1813 365.702 85.2987 366.049 85.448L365.521 86.688C365.238 86.5707 364.942 86.4853 364.633 86.432C364.329 86.3787 364.019 86.352 363.705 86.352C363.15 86.352 362.739 86.4587 362.473 86.672C362.206 86.88 362.073 87.2107 362.073 87.664V89.16H364.897L364.705 90.48H362.073V97H360.289V90.48H358.369V89.16H360.289V87.648C360.289 87.1147 360.422 86.648 360.689 86.248C360.961 85.8427 361.339 85.528 361.825 85.304C362.31 85.0747 362.878 84.96 363.529 84.96ZM375.043 96.552C374.733 96.7493 374.363 96.9093 373.931 97.032C373.499 97.1547 373.048 97.216 372.579 97.216C371.597 97.216 370.851 96.9627 370.339 96.456C369.832 95.944 369.579 95.272 369.579 94.44V89.856H367.699V88.552H369.579V86.664L371.371 86.448V88.552H374.219L374.019 89.856H371.371V94.424C371.371 94.8773 371.483 95.216 371.707 95.44C371.936 95.6587 372.309 95.768 372.827 95.768C373.136 95.768 373.421 95.7307 373.683 95.656C373.944 95.5813 374.181 95.4853 374.395 95.368L375.043 96.552ZM384.188 97H381.948L380.996 91L379.972 97H377.78L376.348 88.552H378.076L378.956 95.888L380.132 89.624H381.924L383.02 95.888L383.9 88.552H385.564L384.188 97ZM393.63 94.928C393.63 95.2587 393.681 95.5013 393.782 95.656C393.883 95.8053 394.046 95.9173 394.27 95.992L393.87 97.208C393.454 97.16 393.097 97.0453 392.798 96.864C392.499 96.6827 392.273 96.408 392.118 96.04C391.809 96.4293 391.417 96.7227 390.942 96.92C390.467 97.1173 389.961 97.216 389.422 97.216C388.569 97.216 387.891 96.976 387.39 96.496C386.894 96.0107 386.646 95.376 386.646 94.592C386.646 93.7013 386.993 93.016 387.686 92.536C388.379 92.056 389.371 91.816 390.662 91.816H391.87V91.264C391.87 90.72 391.705 90.328 391.374 90.088C391.049 89.848 390.587 89.728 389.99 89.728C389.713 89.728 389.377 89.7653 388.982 89.84C388.587 89.9093 388.174 90.0187 387.742 90.168L387.302 88.904C387.83 88.7067 388.347 88.5627 388.854 88.472C389.361 88.376 389.83 88.328 390.262 88.328C391.393 88.328 392.235 88.5787 392.79 89.08C393.35 89.5813 393.63 90.2747 393.63 91.16V94.928ZM389.966 95.896C390.329 95.896 390.683 95.8 391.03 95.608C391.377 95.416 391.657 95.1467 391.87 94.8V92.936H390.878C390.035 92.936 389.433 93.0773 389.07 93.36C388.707 93.6373 388.526 94.0213 388.526 94.512C388.526 94.96 388.646 95.304 388.886 95.544C389.131 95.7787 389.491 95.896 389.966 95.896ZM396.848 97V95.72H398.088V89.824H396.848V88.552H399.456L399.784 90.512C400.098 89.8027 400.488 89.264 400.952 88.896C401.421 88.5227 402.024 88.336 402.76 88.336C403.01 88.336 403.234 88.3573 403.432 88.4C403.634 88.4373 403.834 88.488 404.032 88.552L403.496 90.088C403.325 90.04 403.165 90.0053 403.016 89.984C402.866 89.9573 402.701 89.944 402.52 89.944C401.906 89.944 401.376 90.1733 400.928 90.632C400.485 91.0907 400.136 91.7413 399.88 92.584V95.72H401.584V97H396.848ZM402.448 91.664V89.584L402.672 88.552H404.032L403.728 91.664H402.448ZM407.85 93.352C407.887 93.928 408.01 94.4 408.218 94.768C408.426 95.1307 408.698 95.3973 409.034 95.568C409.375 95.7387 409.748 95.824 410.154 95.824C410.57 95.824 410.954 95.76 411.306 95.632C411.658 95.504 412.012 95.3227 412.37 95.088L413.146 96.16C412.751 96.48 412.29 96.736 411.762 96.928C411.234 97.12 410.668 97.216 410.066 97.216C409.191 97.216 408.45 97.0293 407.842 96.656C407.239 96.2827 406.78 95.7627 406.466 95.096C406.151 94.4293 405.993 93.6587 405.993 92.784C405.993 91.936 406.148 91.1787 406.458 90.512C406.767 89.84 407.21 89.3093 407.786 88.92C408.362 88.5253 409.05 88.328 409.85 88.328C410.602 88.328 411.247 88.4987 411.786 88.84C412.33 89.1813 412.748 89.6667 413.042 90.296C413.34 90.92 413.49 91.672 413.49 92.552C413.49 92.696 413.484 92.84 413.474 92.984C413.468 93.1227 413.46 93.2453 413.45 93.352H407.85ZM409.866 89.656C409.306 89.656 408.842 89.856 408.474 90.256C408.111 90.656 407.9 91.28 407.842 92.128H411.754C411.738 91.3333 411.567 90.7227 411.242 90.296C410.922 89.8693 410.463 89.656 409.866 89.656ZM430.509 84.96L432.301 85.16V97H430.725L430.597 95.96C430.309 96.36 429.965 96.6693 429.565 96.888C429.165 97.1067 428.717 97.216 428.221 97.216C427.496 97.216 426.898 97.032 426.429 96.664C425.96 96.2907 425.61 95.7707 425.381 95.104C425.157 94.432 425.045 93.656 425.045 92.776C425.045 91.9173 425.178 91.1547 425.445 90.488C425.712 89.816 426.093 89.288 426.589 88.904C427.085 88.52 427.682 88.328 428.381 88.328C428.824 88.328 429.221 88.408 429.573 88.568C429.925 88.7227 430.237 88.9493 430.509 89.248V84.96ZM428.853 89.704C428.25 89.704 427.781 89.9547 427.445 90.456C427.109 90.952 426.941 91.7253 426.941 92.776C426.941 93.496 427.01 94.0827 427.149 94.536C427.288 94.984 427.488 95.3147 427.749 95.528C428.01 95.736 428.325 95.84 428.693 95.84C429.098 95.84 429.45 95.7227 429.749 95.488C430.048 95.2533 430.301 94.9707 430.509 94.64V90.64C430.301 90.3413 430.058 90.112 429.781 89.952C429.504 89.7867 429.194 89.704 428.853 89.704ZM436.631 93.352C436.668 93.928 436.791 94.4 436.999 94.768C437.207 95.1307 437.479 95.3973 437.815 95.568C438.156 95.7387 438.529 95.824 438.935 95.824C439.351 95.824 439.735 95.76 440.087 95.632C440.439 95.504 440.793 95.3227 441.151 95.088L441.927 96.16C441.532 96.48 441.071 96.736 440.543 96.928C440.015 97.12 439.449 97.216 438.847 97.216C437.972 97.216 437.231 97.0293 436.623 96.656C436.02 96.2827 435.561 95.7627 435.247 95.096C434.932 94.4293 434.775 93.6587 434.775 92.784C434.775 91.936 434.929 91.1787 435.239 90.512C435.548 89.84 435.991 89.3093 436.567 88.92C437.143 88.5253 437.831 88.328 438.631 88.328C439.383 88.328 440.028 88.4987 440.567 88.84C441.111 89.1813 441.529 89.6667 441.823 90.296C442.121 90.92 442.271 91.672 442.271 92.552C442.271 92.696 442.265 92.84 442.255 92.984C442.249 93.1227 442.241 93.2453 442.231 93.352H436.631ZM438.647 89.656C438.087 89.656 437.623 89.856 437.255 90.256C436.892 90.656 436.681 91.28 436.623 92.128H440.535C440.519 91.3333 440.348 90.7227 440.023 90.296C439.703 89.8693 439.244 89.656 438.647 89.656ZM452.137 88.552L449.161 97H447.065L444.089 88.552H446.009L448.153 95.512L450.305 88.552H452.137ZM455.818 93.352C455.856 93.928 455.978 94.4 456.186 94.768C456.394 95.1307 456.666 95.3973 457.002 95.568C457.344 95.7387 457.717 95.824 458.122 95.824C458.538 95.824 458.922 95.76 459.274 95.632C459.626 95.504 459.981 95.3227 460.338 95.088L461.114 96.16C460.72 96.48 460.258 96.736 459.73 96.928C459.202 97.12 458.637 97.216 458.034 97.216C457.16 97.216 456.418 97.0293 455.81 96.656C455.208 96.2827 454.749 95.7627 454.434 95.096C454.12 94.4293 453.962 93.6587 453.962 92.784C453.962 91.936 454.117 91.1787 454.426 90.512C454.736 89.84 455.178 89.3093 455.754 88.92C456.33 88.5253 457.018 88.328 457.818 88.328C458.57 88.328 459.216 88.4987 459.754 88.84C460.298 89.1813 460.717 89.6667 461.01 90.296C461.309 90.92 461.458 91.672 461.458 92.552C461.458 92.696 461.453 92.84 461.442 92.984C461.437 93.1227 461.429 93.2453 461.418 93.352H455.818ZM457.834 89.656C457.274 89.656 456.81 89.856 456.442 90.256C456.08 90.656 455.869 91.28 455.81 92.128H459.722C459.706 91.3333 459.536 90.7227 459.21 90.296C458.89 89.8693 458.432 89.656 457.834 89.656ZM467.636 85.16V94.696C467.636 95.0853 467.753 95.3627 467.988 95.528C468.228 95.688 468.537 95.768 468.916 95.768C469.161 95.768 469.393 95.7413 469.612 95.688C469.831 95.6347 470.044 95.568 470.252 95.488L470.708 96.736C470.457 96.864 470.148 96.976 469.78 97.072C469.417 97.168 469.001 97.216 468.532 97.216C467.684 97.216 467.023 96.9787 466.548 96.504C466.079 96.024 465.844 95.368 465.844 94.536V86.48H463.292V85.16H467.636ZM476.902 88.328C477.728 88.328 478.424 88.512 478.99 88.88C479.555 89.248 479.982 89.7627 480.27 90.424C480.563 91.0853 480.71 91.864 480.71 92.76C480.71 93.6507 480.56 94.432 480.262 95.104C479.968 95.7707 479.536 96.2907 478.966 96.664C478.4 97.032 477.71 97.216 476.894 97.216C476.078 97.216 475.384 97.0373 474.814 96.68C474.248 96.3173 473.816 95.8027 473.518 95.136C473.224 94.4693 473.078 93.6827 473.078 92.776C473.078 91.896 473.224 91.1227 473.518 90.456C473.816 89.7893 474.251 89.2693 474.822 88.896C475.392 88.5173 476.086 88.328 476.902 88.328ZM476.902 89.72C476.256 89.72 475.771 89.968 475.446 90.464C475.12 90.9547 474.958 91.7253 474.958 92.776C474.958 93.8213 475.118 94.592 475.438 95.088C475.763 95.584 476.248 95.832 476.894 95.832C477.539 95.832 478.022 95.584 478.342 95.088C478.667 94.592 478.83 93.816 478.83 92.76C478.83 91.72 478.67 90.9547 478.35 90.464C478.03 89.968 477.547 89.72 476.902 89.72ZM487.232 88.328C487.978 88.328 488.576 88.512 489.024 88.88C489.472 89.2427 489.797 89.7573 490 90.424C490.202 91.0853 490.304 91.864 490.304 92.76C490.304 93.6187 490.181 94.384 489.936 95.056C489.69 95.728 489.325 96.256 488.84 96.64C488.36 97.024 487.762 97.216 487.048 97.216C486.162 97.216 485.448 96.904 484.904 96.28V100.248L483.112 100.448V88.552H484.672L484.784 89.64C485.104 89.2027 485.474 88.8747 485.896 88.656C486.322 88.4373 486.768 88.328 487.232 88.328ZM486.736 89.712C486.336 89.712 485.984 89.832 485.68 90.072C485.376 90.312 485.117 90.5947 484.904 90.92V94.872C485.106 95.176 485.346 95.4107 485.624 95.576C485.906 95.736 486.224 95.816 486.576 95.816C487.178 95.816 487.637 95.5733 487.952 95.088C488.266 94.6027 488.424 93.8293 488.424 92.768C488.424 92.048 488.36 91.464 488.232 91.016C488.109 90.5627 487.922 90.232 487.672 90.024C487.426 89.816 487.114 89.712 486.736 89.712ZM498.529 88.328C498.849 88.328 499.137 88.3973 499.393 88.536C499.649 88.6747 499.849 88.9173 499.993 89.264C500.143 89.6107 500.217 90.096 500.217 90.72V97H498.625V90.968C498.625 90.5253 498.593 90.208 498.529 90.016C498.471 89.824 498.313 89.728 498.057 89.728C497.855 89.728 497.649 89.792 497.441 89.92C497.233 90.0427 497.023 90.256 496.809 90.56V97H495.361V90.968C495.361 90.5253 495.329 90.208 495.265 90.016C495.207 89.824 495.049 89.728 494.793 89.728C494.585 89.728 494.377 89.792 494.169 89.92C493.967 90.0427 493.759 90.256 493.545 90.56V97H491.945V88.552H493.297L493.417 89.464C493.657 89.128 493.919 88.856 494.201 88.648C494.484 88.4347 494.825 88.328 495.225 88.328C495.545 88.328 495.836 88.408 496.097 88.568C496.359 88.728 496.551 89.008 496.673 89.408C496.908 89.088 497.175 88.8293 497.473 88.632C497.772 88.4293 498.124 88.328 498.529 88.328ZM503.787 93.352C503.824 93.928 503.947 94.4 504.155 94.768C504.363 95.1307 504.635 95.3973 504.971 95.568C505.312 95.7387 505.686 95.824 506.091 95.824C506.507 95.824 506.891 95.76 507.243 95.632C507.595 95.504 507.95 95.3227 508.307 95.088L509.083 96.16C508.688 96.48 508.227 96.736 507.699 96.928C507.171 97.12 506.606 97.216 506.003 97.216C505.128 97.216 504.387 97.0293 503.779 96.656C503.176 96.2827 502.718 95.7627 502.403 95.096C502.088 94.4293 501.931 93.6587 501.931 92.784C501.931 91.936 502.086 91.1787 502.395 90.512C502.704 89.84 503.147 89.3093 503.723 88.92C504.299 88.5253 504.987 88.328 505.787 88.328C506.539 88.328 507.184 88.4987 507.723 88.84C508.267 89.1813 508.686 89.6667 508.979 90.296C509.278 90.92 509.427 91.672 509.427 92.552C509.427 92.696 509.422 92.84 509.411 92.984C509.406 93.1227 509.398 93.2453 509.387 93.352H503.787ZM505.803 89.656C505.243 89.656 504.779 89.856 504.411 90.256C504.048 90.656 503.838 91.28 503.779 92.128H507.691C507.675 91.3333 507.504 90.7227 507.179 90.296C506.859 89.8693 506.4 89.656 505.803 89.656ZM511.893 97V88.552H513.437L513.573 89.648C513.925 89.216 514.341 88.888 514.821 88.664C515.301 88.44 515.794 88.328 516.301 88.328C517.09 88.328 517.679 88.5493 518.069 88.992C518.463 89.4293 518.661 90.0453 518.661 90.84V97H516.869V91.728C516.869 91.2373 516.839 90.8427 516.781 90.544C516.722 90.2453 516.605 90.0293 516.429 89.896C516.258 89.7627 516.002 89.696 515.661 89.696C515.389 89.696 515.13 89.7547 514.885 89.872C514.639 89.9893 514.415 90.144 514.213 90.336C514.01 90.5227 513.834 90.7227 513.685 90.936V97H511.893ZM528.543 96.552C528.233 96.7493 527.863 96.9093 527.431 97.032C526.999 97.1547 526.548 97.216 526.079 97.216C525.097 97.216 524.351 96.9627 523.839 96.456C523.332 95.944 523.079 95.272 523.079 94.44V89.856H521.199V88.552H523.079V86.664L524.871 86.448V88.552H527.719L527.519 89.856H524.871V94.424C524.871 94.8773 524.983 95.216 525.207 95.44C525.436 95.6587 525.809 95.768 526.327 95.768C526.636 95.768 526.921 95.7307 527.183 95.656C527.444 95.5813 527.681 95.4853 527.895 95.368L528.543 96.552Z" fill="white"/>
<rect x="232.625" y="130" width="310" height="53" rx="10" fill="white" fill-opacity="0.05"/>
<rect x="233.125" y="130.5" width="309" height="52" rx="9.5" stroke="white" stroke-opacity="0.1"/>
<circle cx="8" cy="8" r="8" transform="matrix(1 0 0 -1 244.625 164.5)" fill="white" fill-opacity="0.4"/>
<path d="M276.121 160.744C276.516 160.744 276.884 160.677 277.225 160.544C277.566 160.405 277.892 160.227 278.201 160.008L279.033 161.16C278.665 161.475 278.217 161.731 277.689 161.928C277.166 162.12 276.625 162.216 276.065 162.216C275.201 162.216 274.462 162.035 273.849 161.672C273.236 161.304 272.766 160.789 272.441 160.128C272.116 159.467 271.953 158.696 271.953 157.816C271.953 156.957 272.116 156.192 272.441 155.52C272.772 154.843 273.246 154.309 273.865 153.92C274.484 153.525 275.228 153.328 276.097 153.328C276.673 153.328 277.204 153.413 277.689 153.584C278.174 153.755 278.62 154.008 279.025 154.344L278.201 155.472C277.87 155.243 277.532 155.069 277.185 154.952C276.844 154.829 276.492 154.768 276.129 154.768C275.462 154.768 274.916 155.013 274.489 155.504C274.068 155.995 273.857 156.765 273.857 157.816C273.857 158.52 273.953 159.088 274.145 159.52C274.342 159.947 274.612 160.259 274.953 160.456C275.294 160.648 275.684 160.744 276.121 160.744ZM285.355 150.16V159.696C285.355 160.085 285.472 160.363 285.707 160.528C285.947 160.688 286.256 160.768 286.635 160.768C286.88 160.768 287.112 160.741 287.331 160.688C287.549 160.635 287.763 160.568 287.971 160.488L288.427 161.736C288.176 161.864 287.867 161.976 287.499 162.072C287.136 162.168 286.72 162.216 286.251 162.216C285.403 162.216 284.741 161.979 284.267 161.504C283.797 161.024 283.563 160.368 283.563 159.536V151.48H281.011V150.16H285.355ZM294.621 153.328C295.447 153.328 296.143 153.512 296.709 153.88C297.274 154.248 297.701 154.763 297.989 155.424C298.282 156.085 298.429 156.864 298.429 157.76C298.429 158.651 298.279 159.432 297.981 160.104C297.687 160.771 297.255 161.291 296.685 161.664C296.119 162.032 295.429 162.216 294.613 162.216C293.797 162.216 293.103 162.037 292.533 161.68C291.967 161.317 291.535 160.803 291.237 160.136C290.943 159.469 290.797 158.683 290.797 157.776C290.797 156.896 290.943 156.123 291.237 155.456C291.535 154.789 291.97 154.269 292.541 153.896C293.111 153.517 293.805 153.328 294.621 153.328ZM294.621 154.72C293.975 154.72 293.49 154.968 293.165 155.464C292.839 155.955 292.677 156.725 292.677 157.776C292.677 158.821 292.837 159.592 293.157 160.088C293.482 160.584 293.967 160.832 294.613 160.832C295.258 160.832 295.741 160.584 296.061 160.088C296.386 159.592 296.549 158.816 296.549 157.76C296.549 156.72 296.389 155.955 296.069 155.464C295.749 154.968 295.266 154.72 294.621 154.72ZM302.622 153.552V159.456C302.622 159.957 302.721 160.315 302.918 160.528C303.121 160.741 303.425 160.848 303.83 160.848C304.214 160.848 304.585 160.733 304.942 160.504C305.3 160.275 305.582 159.995 305.79 159.664V153.552H307.582V162H306.038L305.926 160.92C305.612 161.341 305.214 161.664 304.734 161.888C304.254 162.107 303.764 162.216 303.262 162.216C302.446 162.216 301.836 161.992 301.43 161.544C301.03 161.091 300.83 160.469 300.83 159.68V153.552H302.622ZM315.384 149.96L317.176 150.16V162H315.6L315.472 160.96C315.184 161.36 314.84 161.669 314.44 161.888C314.04 162.107 313.592 162.216 313.096 162.216C312.371 162.216 311.773 162.032 311.304 161.664C310.835 161.291 310.485 160.771 310.256 160.104C310.032 159.432 309.92 158.656 309.92 157.776C309.92 156.917 310.053 156.155 310.32 155.488C310.587 154.816 310.968 154.288 311.464 153.904C311.96 153.52 312.557 153.328 313.256 153.328C313.699 153.328 314.096 153.408 314.448 153.568C314.8 153.723 315.112 153.949 315.384 154.248V149.96ZM313.728 154.704C313.125 154.704 312.656 154.955 312.32 155.456C311.984 155.952 311.816 156.725 311.816 157.776C311.816 158.496 311.885 159.083 312.024 159.536C312.163 159.984 312.363 160.315 312.624 160.528C312.885 160.736 313.2 160.84 313.568 160.84C313.973 160.84 314.325 160.723 314.624 160.488C314.923 160.253 315.176 159.971 315.384 159.64V155.64C315.176 155.341 314.933 155.112 314.656 154.952C314.379 154.787 314.069 154.704 313.728 154.704ZM334.228 153.552V160.688H336.524V162H329.908V160.688H332.436V154.864H329.988V153.552H334.228ZM332.98 149.416C333.332 149.416 333.614 149.523 333.828 149.736C334.046 149.949 334.156 150.216 334.156 150.536C334.156 150.856 334.046 151.125 333.828 151.344C333.614 151.563 333.332 151.672 332.98 151.672C332.638 151.672 332.358 151.563 332.14 151.344C331.921 151.125 331.812 150.856 331.812 150.536C331.812 150.216 331.921 149.949 332.14 149.736C332.358 149.523 332.638 149.416 332.98 149.416ZM339.205 162V153.552H340.749L340.885 154.648C341.237 154.216 341.653 153.888 342.133 153.664C342.613 153.44 343.107 153.328 343.613 153.328C344.403 153.328 344.992 153.549 345.381 153.992C345.776 154.429 345.973 155.045 345.973 155.84V162H344.181V156.728C344.181 156.237 344.152 155.843 344.093 155.544C344.035 155.245 343.917 155.029 343.741 154.896C343.571 154.763 343.315 154.696 342.973 154.696C342.701 154.696 342.443 154.755 342.197 154.872C341.952 154.989 341.728 155.144 341.525 155.336C341.323 155.523 341.147 155.723 340.997 155.936V162H339.205ZM355.855 161.552C355.546 161.749 355.175 161.909 354.743 162.032C354.311 162.155 353.86 162.216 353.391 162.216C352.41 162.216 351.663 161.963 351.151 161.456C350.644 160.944 350.391 160.272 350.391 159.44V154.856H348.511V153.552H350.391V151.664L352.183 151.448V153.552H355.031L354.831 154.856H352.183V159.424C352.183 159.877 352.295 160.216 352.519 160.44C352.748 160.659 353.122 160.768 353.639 160.768C353.948 160.768 354.234 160.731 354.495 160.656C354.756 160.581 354.994 160.485 355.207 160.368L355.855 161.552ZM359.881 158.352C359.918 158.928 360.041 159.4 360.249 159.768C360.457 160.131 360.729 160.397 361.065 160.568C361.406 160.739 361.779 160.824 362.185 160.824C362.601 160.824 362.985 160.76 363.337 160.632C363.689 160.504 364.043 160.323 364.401 160.088L365.177 161.16C364.782 161.48 364.321 161.736 363.793 161.928C363.265 162.12 362.699 162.216 362.097 162.216C361.222 162.216 360.481 162.029 359.873 161.656C359.27 161.283 358.811 160.763 358.497 160.096C358.182 159.429 358.025 158.659 358.025 157.784C358.025 156.936 358.179 156.179 358.489 155.512C358.798 154.84 359.241 154.309 359.817 153.92C360.393 153.525 361.081 153.328 361.881 153.328C362.633 153.328 363.278 153.499 363.817 153.84C364.361 154.181 364.779 154.667 365.073 155.296C365.371 155.92 365.521 156.672 365.521 157.552C365.521 157.696 365.515 157.84 365.505 157.984C365.499 158.123 365.491 158.245 365.481 158.352H359.881ZM361.897 154.656C361.337 154.656 360.873 154.856 360.505 155.256C360.142 155.656 359.931 156.28 359.873 157.128H363.785C363.769 156.333 363.598 155.723 363.273 155.296C362.953 154.869 362.494 154.656 361.897 154.656ZM375.099 152.48L375.579 153.968C375.243 154.08 374.872 154.155 374.467 154.192C374.067 154.229 373.619 154.248 373.123 154.248C373.629 154.472 374.011 154.76 374.267 155.112C374.523 155.459 374.651 155.885 374.651 156.392C374.651 156.941 374.517 157.432 374.251 157.864C373.984 158.296 373.603 158.635 373.107 158.88C372.611 159.125 372.016 159.248 371.323 159.248C371.077 159.248 370.864 159.237 370.683 159.216C370.507 159.195 370.333 159.16 370.163 159.112C370.056 159.187 369.965 159.288 369.891 159.416C369.821 159.539 369.787 159.669 369.787 159.808C369.787 159.979 369.856 160.128 369.995 160.256C370.139 160.379 370.421 160.44 370.843 160.44H372.315C372.917 160.44 373.448 160.544 373.907 160.752C374.371 160.955 374.733 161.235 374.995 161.592C375.261 161.944 375.395 162.344 375.395 162.792C375.395 163.635 375.032 164.288 374.307 164.752C373.581 165.216 372.536 165.448 371.171 165.448C370.205 165.448 369.448 165.349 368.899 165.152C368.349 164.955 367.963 164.661 367.738 164.272C367.515 163.883 367.403 163.405 367.403 162.84H369.011C369.011 163.133 369.067 163.376 369.179 163.568C369.296 163.76 369.512 163.904 369.827 164C370.141 164.096 370.595 164.144 371.187 164.144C371.779 164.144 372.248 164.093 372.595 163.992C372.947 163.896 373.2 163.755 373.355 163.568C373.515 163.387 373.595 163.168 373.595 162.912C373.595 162.571 373.445 162.307 373.147 162.12C372.848 161.933 372.448 161.84 371.947 161.84H370.499C369.699 161.84 369.112 161.677 368.739 161.352C368.371 161.027 368.187 160.648 368.187 160.216C368.187 159.928 368.267 159.651 368.427 159.384C368.592 159.117 368.827 158.885 369.131 158.688C368.624 158.421 368.253 158.099 368.019 157.72C367.789 157.336 367.675 156.872 367.675 156.328C367.675 155.731 367.824 155.208 368.123 154.76C368.421 154.312 368.835 153.963 369.363 153.712C369.896 153.461 370.509 153.336 371.203 153.336C371.88 153.336 372.445 153.301 372.899 153.232C373.352 153.157 373.747 153.053 374.083 152.92C374.424 152.787 374.763 152.64 375.099 152.48ZM371.219 154.568C370.648 154.568 370.219 154.731 369.931 155.056C369.643 155.376 369.499 155.795 369.499 156.312C369.499 156.845 369.645 157.275 369.939 157.6C370.237 157.92 370.672 158.08 371.243 158.08C371.771 158.08 372.173 157.925 372.451 157.616C372.733 157.307 372.875 156.867 372.875 156.296C372.875 155.72 372.736 155.288 372.459 155C372.181 154.712 371.768 154.568 371.219 154.568ZM377.66 162V160.72H378.9V154.824H377.66V153.552H380.268L380.596 155.512C380.911 154.803 381.3 154.264 381.764 153.896C382.234 153.523 382.836 153.336 383.572 153.336C383.823 153.336 384.047 153.357 384.244 153.4C384.447 153.437 384.647 153.488 384.844 153.552L384.308 155.088C384.138 155.04 383.978 155.005 383.828 154.984C383.679 154.957 383.514 154.944 383.332 154.944C382.719 154.944 382.188 155.173 381.74 155.632C381.298 156.091 380.948 156.741 380.692 157.584V160.72H382.396V162H377.66ZM383.26 156.664V154.584L383.484 153.552H384.844L384.54 156.664H383.26ZM393.63 159.928C393.63 160.259 393.681 160.501 393.782 160.656C393.883 160.805 394.046 160.917 394.27 160.992L393.87 162.208C393.454 162.16 393.097 162.045 392.798 161.864C392.499 161.683 392.273 161.408 392.118 161.04C391.809 161.429 391.417 161.723 390.942 161.92C390.467 162.117 389.961 162.216 389.422 162.216C388.569 162.216 387.891 161.976 387.39 161.496C386.894 161.011 386.646 160.376 386.646 159.592C386.646 158.701 386.993 158.016 387.686 157.536C388.379 157.056 389.371 156.816 390.662 156.816H391.87V156.264C391.87 155.72 391.705 155.328 391.374 155.088C391.049 154.848 390.587 154.728 389.99 154.728C389.713 154.728 389.377 154.765 388.982 154.84C388.587 154.909 388.174 155.019 387.742 155.168L387.302 153.904C387.83 153.707 388.347 153.563 388.854 153.472C389.361 153.376 389.83 153.328 390.262 153.328C391.393 153.328 392.235 153.579 392.79 154.08C393.35 154.581 393.63 155.275 393.63 156.16V159.928ZM389.966 160.896C390.329 160.896 390.683 160.8 391.03 160.608C391.377 160.416 391.657 160.147 391.87 159.8V157.936H390.878C390.035 157.936 389.433 158.077 389.07 158.36C388.707 158.637 388.526 159.021 388.526 159.512C388.526 159.96 388.646 160.304 388.886 160.544C389.131 160.779 389.491 160.896 389.966 160.896ZM403.824 161.552C403.514 161.749 403.144 161.909 402.712 162.032C402.28 162.155 401.829 162.216 401.36 162.216C400.378 162.216 399.632 161.963 399.12 161.456C398.613 160.944 398.36 160.272 398.36 159.44V154.856H396.48V153.552H398.36V151.664L400.152 151.448V153.552H403L402.8 154.856H400.152V159.424C400.152 159.877 400.264 160.216 400.488 160.44C400.717 160.659 401.09 160.768 401.608 160.768C401.917 160.768 402.202 160.731 402.464 160.656C402.725 160.581 402.962 160.485 403.176 160.368L403.824 161.552ZM410.978 153.552V160.688H413.274V162H406.658V160.688H409.186V154.864H406.738V153.552H410.978ZM409.73 149.416C410.082 149.416 410.364 149.523 410.578 149.736C410.796 149.949 410.906 150.216 410.906 150.536C410.906 150.856 410.796 151.125 410.578 151.344C410.364 151.563 410.082 151.672 409.73 151.672C409.388 151.672 409.108 151.563 408.89 151.344C408.671 151.125 408.562 150.856 408.562 150.536C408.562 150.216 408.671 149.949 408.89 149.736C409.108 149.523 409.388 149.416 409.73 149.416ZM419.339 153.328C420.166 153.328 420.862 153.512 421.427 153.88C421.993 154.248 422.419 154.763 422.707 155.424C423.001 156.085 423.147 156.864 423.147 157.76C423.147 158.651 422.998 159.432 422.699 160.104C422.406 160.771 421.974 161.291 421.403 161.664C420.838 162.032 420.147 162.216 419.331 162.216C418.515 162.216 417.822 162.037 417.251 161.68C416.686 161.317 416.254 160.803 415.955 160.136C415.662 159.469 415.515 158.683 415.515 157.776C415.515 156.896 415.662 156.123 415.955 155.456C416.254 154.789 416.689 154.269 417.259 153.896C417.83 153.517 418.523 153.328 419.339 153.328ZM419.339 154.72C418.694 154.72 418.209 154.968 417.883 155.464C417.558 155.955 417.395 156.725 417.395 157.776C417.395 158.821 417.555 159.592 417.875 160.088C418.201 160.584 418.686 160.832 419.331 160.832C419.977 160.832 420.459 160.584 420.779 160.088C421.105 159.592 421.267 158.816 421.267 157.76C421.267 156.72 421.107 155.955 420.787 155.464C420.467 154.968 419.985 154.72 419.339 154.72ZM425.549 162V153.552H427.093L427.229 154.648C427.581 154.216 427.997 153.888 428.477 153.664C428.957 153.44 429.45 153.328 429.957 153.328C430.746 153.328 431.336 153.549 431.725 153.992C432.12 154.429 432.317 155.045 432.317 155.84V162H430.525V156.728C430.525 156.237 430.496 155.843 430.437 155.544C430.378 155.245 430.261 155.029 430.085 154.896C429.914 154.763 429.658 154.696 429.317 154.696C429.045 154.696 428.786 154.755 428.541 154.872C428.296 154.989 428.072 155.144 427.869 155.336C427.666 155.523 427.49 155.723 427.341 155.936V162H425.549Z" fill="white"/>
<ellipse cx="195.854" cy="274" rx="65.2626" ry="65" fill="white" fill-opacity="0.04"/>
<ellipse cx="195.855" cy="274" rx="53.2141" ry="53" fill="white" fill-opacity="0.08"/>
<ellipse cx="195.855" cy="274" rx="37.1495" ry="37" fill="white" fill-opacity="0.12"/>
<g clip-path="url(#clip0_285_4227)">
<path d="M188.133 278.886H190.567V274.889H193.613V273.017H190.567V270.934H194.638V269.006H188.133V278.886Z" fill="white"/>
<path d="M200.787 271.413C200.133 271.089 199.412 270.92 198.68 270.92C197.949 270.92 197.228 271.089 196.574 271.413C195.954 271.735 195.44 272.226 195.093 272.827C194.733 273.442 194.553 274.153 194.553 274.96C194.553 275.776 194.731 276.489 195.086 277.098C195.429 277.696 195.937 278.184 196.551 278.506C197.173 278.833 197.874 278.996 198.651 278.996C199.385 279.006 200.111 278.837 200.763 278.503C201.387 278.182 201.905 277.691 202.258 277.089C202.622 276.475 202.805 275.764 202.805 274.957C202.806 274.15 202.625 273.439 202.265 272.825C201.918 272.225 201.405 271.735 200.787 271.413ZM199.84 276.41C199.689 276.572 199.505 276.701 199.3 276.789C199.096 276.876 198.874 276.919 198.651 276.916C198.432 276.921 198.215 276.878 198.015 276.791C197.814 276.703 197.636 276.573 197.492 276.41C197.183 276.073 197.029 275.59 197.029 274.961C197.029 274.322 197.186 273.837 197.499 273.506C197.651 273.347 197.834 273.221 198.037 273.135C198.239 273.05 198.458 273.006 198.679 273.006C198.899 273.007 199.117 273.052 199.32 273.139C199.522 273.226 199.704 273.354 199.855 273.513C200.172 273.85 200.331 274.334 200.331 274.963C200.332 275.592 200.168 276.074 199.84 276.409V276.41Z" fill="white"/>
<path d="M206.195 272.342V271.034H203.764V278.887H206.195V275.242C206.195 274.595 206.346 274.142 206.65 273.884C206.954 273.626 207.409 273.497 208.017 273.497H208.685V270.949C208.185 270.943 207.693 271.072 207.262 271.322C206.83 271.575 206.465 271.925 206.195 272.342Z" fill="white"/>
<path d="M213.337 272.975C213.964 272.975 214.386 273.275 214.604 273.875H217.194C216.986 272.937 216.547 272.21 215.878 271.694C215.208 271.178 214.377 270.92 213.383 270.92C212.604 270.92 211.913 271.084 211.311 271.413C210.714 271.737 210.225 272.226 209.904 272.82C209.566 273.43 209.398 274.143 209.398 274.96C209.399 275.776 209.567 276.489 209.904 277.098C210.224 277.693 210.714 278.182 211.311 278.506C211.914 278.835 212.604 278.999 213.383 278.999C214.369 278.999 215.199 278.736 215.873 278.211C216.547 277.685 216.988 276.963 217.197 276.043H214.604C214.385 276.644 213.963 276.944 213.337 276.943C213.131 276.95 212.926 276.906 212.74 276.817C212.554 276.727 212.392 276.595 212.27 276.43C212.004 276.088 211.871 275.597 211.871 274.96C211.871 274.322 212.003 273.832 212.27 273.489C212.392 273.324 212.554 273.192 212.739 273.102C212.925 273.013 213.131 272.969 213.337 272.975Z" fill="white"/>
<path d="M225.978 274.832C225.978 274.044 225.809 273.355 225.472 272.764C225.148 272.185 224.661 271.711 224.071 271.399C223.473 271.08 222.791 270.92 222.023 270.92C221.236 270.92 220.539 271.084 219.931 271.413C219.33 271.735 218.838 272.224 218.515 272.82C218.178 273.43 218.01 274.143 218.01 274.96C218.01 275.776 218.18 276.489 218.522 277.098C218.848 277.694 219.343 278.183 219.945 278.506C220.552 278.835 221.245 278.999 222.023 278.999C222.625 279.007 223.222 278.887 223.773 278.647C224.277 278.426 224.722 278.094 225.076 277.676C225.418 277.271 225.663 276.796 225.795 276.284H223.202C222.965 276.79 222.542 277.043 221.935 277.043C221.553 277.053 221.182 276.914 220.903 276.656C220.624 276.398 220.465 276.025 220.427 275.537H225.935C225.963 275.303 225.977 275.068 225.978 274.832ZM220.441 274.2C220.507 273.768 220.68 273.435 220.96 273.2C221.249 272.963 221.616 272.838 221.992 272.849C222.419 272.849 222.774 272.971 223.06 273.215C223.345 273.459 223.488 273.787 223.487 274.2H220.441Z" fill="white"/>
<path d="M180.431 269H178.396L177.586 273.011H180.431V272.072L182.839 273.947L180.431 275.822V278.887H186.551V276.959H182.865V274.869H186.124V273.011H182.865V270.935H186.551V269.007H180.431V269Z" fill="#32C27D"/>
<path d="M169.343 269H166.738L167.767 273.011H170.145L169.343 269Z" fill="#32C27D"/>
<path d="M176.942 276.192L176.628 274.869V274.869L175.234 269H172.559L170.78 276.192L170.515 274.869H168.242L169.271 278.88H172.217L173.869 272.378L175.462 278.88H178.409L179.466 274.869H177.21L176.942 276.192Z" fill="#32C27D"/>
</g>
<path d="M139.128 402.5C136.617 402.5 134.609 404.5 134.609 407C134.609 409.5 136.617 411.5 139.128 411.5C141.638 411.5 143.646 409.5 143.646 407C143.646 404.5 141.638 402.5 139.128 402.5Z" fill="#6016FC"/>
<path d="M139.128 402.5C136.617 402.5 134.609 404.5 134.609 407C134.609 409.5 136.617 411.5 139.128 411.5C141.638 411.5 143.646 409.5 143.646 407C143.646 404.5 141.638 402.5 139.128 402.5ZM139.128 402.5V393C139.128 381.954 148.082 373 159.128 373H175.856C186.902 373 195.856 364.046 195.856 353V339" stroke="white" stroke-opacity="0.1" stroke-width="3"/>
<path d="M233.005 151.5C230.495 151.5 228.487 153.5 228.487 156C228.487 158.5 230.495 160.5 233.005 160.5C235.515 160.5 237.523 158.5 237.523 156C237.523 153.5 235.515 151.5 233.005 151.5Z" fill="#6016FC"/>
<path d="M228.487 156C228.487 153.5 230.495 151.5 233.005 151.5C235.515 151.5 237.523 153.5 237.523 156C237.523 158.5 235.515 160.5 233.005 160.5C230.495 160.5 228.487 158.5 228.487 156ZM228.487 156H215.855C204.81 156 195.855 164.954 195.855 176V209" stroke="white" stroke-opacity="0.1" stroke-width="3"/>
<defs>
<clipPath id="clip0_285_4227">
<rect width="59.2384" height="10" fill="white" transform="translate(166.738 269)"/>
</clipPath>
</defs>
</svg>
