<svg width="335" height="577" viewBox="0 0 335 577" fill="none" xmlns="http://www.w3.org/2000/svg">
<rect x="48" y="394.498" width="249" height="182" rx="10" fill="white" fill-opacity="0.1"/>
<ellipse cx="80.1219" cy="424.498" rx="6.02424" ry="6" fill="#FC165B"/>
<ellipse cx="99.1981" cy="424.498" rx="6.02424" ry="6" fill="#FCA016"/>
<ellipse cx="118.276" cy="424.498" rx="6.02424" ry="6" fill="#16FCA9"/>
<path d="M80.1575 455.506H77.1995L76.6235 457.498H75.2075L77.8415 449.218H79.5695L82.2095 457.498H80.7335L80.1575 455.506ZM77.4875 454.432H79.8635L78.6815 450.298L77.4875 454.432ZM88.3908 449.218V450.28H86.6028V456.43H88.3908V457.498H83.4108V456.43H85.1988V450.28H83.4108V449.218H88.3908ZM90.6181 454.294V453.19H95.5741V454.294H90.6181ZM102.001 451.828C102.001 451.448 101.927 451.144 101.779 450.916C101.635 450.688 101.429 450.522 101.161 450.418C100.897 450.314 100.585 450.262 100.225 450.262H99.2294V453.484H100.243C100.591 453.484 100.897 453.432 101.161 453.328C101.425 453.224 101.631 453.052 101.779 452.812C101.927 452.572 102.001 452.244 102.001 451.828ZM103.465 451.816C103.465 452.46 103.327 452.982 103.051 453.382C102.779 453.782 102.399 454.076 101.911 454.264C101.423 454.452 100.863 454.546 100.231 454.546H99.2294V457.498H97.8374V449.218H100.135C101.175 449.218 101.989 449.432 102.577 449.86C103.169 450.284 103.465 450.936 103.465 451.816ZM107.493 450.994C108.113 450.994 108.635 451.132 109.059 451.408C109.483 451.684 109.803 452.07 110.019 452.566C110.239 453.062 110.349 453.646 110.349 454.318C110.349 454.986 110.237 455.572 110.013 456.076C109.793 456.576 109.469 456.966 109.041 457.246C108.617 457.522 108.099 457.66 107.487 457.66C106.875 457.66 106.355 457.526 105.927 457.258C105.503 456.986 105.179 456.6 104.955 456.1C104.735 455.6 104.625 455.01 104.625 454.33C104.625 453.67 104.735 453.09 104.955 452.59C105.179 452.09 105.505 451.7 105.933 451.42C106.361 451.136 106.881 450.994 107.493 450.994ZM107.493 452.038C107.009 452.038 106.645 452.224 106.401 452.596C106.157 452.964 106.035 453.542 106.035 454.33C106.035 455.114 106.155 455.692 106.395 456.064C106.639 456.436 107.003 456.622 107.487 456.622C107.971 456.622 108.333 456.436 108.573 456.064C108.817 455.692 108.939 455.11 108.939 454.318C108.939 453.538 108.819 452.964 108.579 452.596C108.339 452.224 107.977 452.038 107.493 452.038ZM117.106 457.498H115.426L114.712 452.998L113.944 457.498H112.3L111.226 451.162H112.522L113.182 456.664L114.064 451.966H115.408L116.23 456.664L116.89 451.162H118.138L117.106 457.498ZM120.461 454.762C120.489 455.194 120.581 455.548 120.737 455.824C120.893 456.096 121.097 456.296 121.349 456.424C121.605 456.552 121.885 456.616 122.189 456.616C122.501 456.616 122.789 456.568 123.053 456.472C123.317 456.376 123.583 456.24 123.851 456.064L124.433 456.868C124.137 457.108 123.791 457.3 123.395 457.444C122.999 457.588 122.575 457.66 122.123 457.66C121.467 457.66 120.911 457.52 120.455 457.24C120.003 456.96 119.659 456.57 119.423 456.07C119.187 455.57 119.069 454.992 119.069 454.336C119.069 453.7 119.185 453.132 119.417 452.632C119.649 452.128 119.981 451.73 120.413 451.438C120.845 451.142 121.361 450.994 121.961 450.994C122.525 450.994 123.009 451.122 123.413 451.378C123.821 451.634 124.135 451.998 124.355 452.47C124.579 452.938 124.691 453.502 124.691 454.162C124.691 454.27 124.687 454.378 124.679 454.486C124.675 454.59 124.669 454.682 124.661 454.762H120.461ZM121.973 451.99C121.553 451.99 121.205 452.14 120.929 452.44C120.657 452.74 120.499 453.208 120.455 453.844H123.389C123.377 453.248 123.249 452.79 123.005 452.47C122.765 452.15 122.421 451.99 121.973 451.99ZM126.601 457.498V456.538H127.531V452.116H126.601V451.162H128.557L128.803 452.632C129.039 452.1 129.331 451.696 129.679 451.42C130.031 451.14 130.483 451 131.035 451C131.223 451 131.391 451.016 131.539 451.048C131.691 451.076 131.841 451.114 131.989 451.162L131.587 452.314C131.459 452.278 131.339 452.252 131.227 452.236C131.115 452.216 130.991 452.206 130.855 452.206C130.395 452.206 129.997 452.378 129.661 452.722C129.329 453.066 129.067 453.554 128.875 454.186V456.538H130.153V457.498H126.601ZM130.801 453.496V451.936L130.969 451.162H131.989L131.761 453.496H130.801ZM134.852 454.762C134.88 455.194 134.972 455.548 135.128 455.824C135.284 456.096 135.488 456.296 135.74 456.424C135.996 456.552 136.276 456.616 136.58 456.616C136.892 456.616 137.18 456.568 137.444 456.472C137.708 456.376 137.974 456.24 138.242 456.064L138.824 456.868C138.528 457.108 138.182 457.3 137.786 457.444C137.39 457.588 136.966 457.66 136.514 457.66C135.858 457.66 135.302 457.52 134.846 457.24C134.394 456.96 134.05 456.57 133.814 456.07C133.578 455.57 133.46 454.992 133.46 454.336C133.46 453.7 133.576 453.132 133.808 452.632C134.04 452.128 134.372 451.73 134.804 451.438C135.236 451.142 135.752 450.994 136.352 450.994C136.916 450.994 137.4 451.122 137.804 451.378C138.212 451.634 138.526 451.998 138.746 452.47C138.97 452.938 139.082 453.502 139.082 454.162C139.082 454.27 139.078 454.378 139.07 454.486C139.066 454.59 139.06 454.682 139.052 454.762H134.852ZM136.364 451.99C135.944 451.99 135.596 452.14 135.32 452.44C135.048 452.74 134.89 453.208 134.846 453.844H137.78C137.768 453.248 137.64 452.79 137.396 452.47C137.156 452.15 136.812 451.99 136.364 451.99ZM144.651 448.468L145.995 448.618V457.498H144.813L144.717 456.718C144.501 457.018 144.243 457.25 143.943 457.414C143.643 457.578 143.307 457.66 142.935 457.66C142.391 457.66 141.943 457.522 141.591 457.246C141.239 456.966 140.977 456.576 140.805 456.076C140.637 455.572 140.553 454.99 140.553 454.33C140.553 453.686 140.653 453.114 140.853 452.614C141.053 452.11 141.339 451.714 141.711 451.426C142.083 451.138 142.531 450.994 143.055 450.994C143.387 450.994 143.685 451.054 143.949 451.174C144.213 451.29 144.447 451.46 144.651 451.684V448.468ZM143.409 452.026C142.957 452.026 142.605 452.214 142.353 452.59C142.101 452.962 141.975 453.542 141.975 454.33C141.975 454.87 142.027 455.31 142.131 455.65C142.235 455.986 142.385 456.234 142.581 456.394C142.777 456.55 143.013 456.628 143.289 456.628C143.593 456.628 143.857 456.54 144.081 456.364C144.305 456.188 144.495 455.976 144.651 455.728V452.728C144.495 452.504 144.313 452.332 144.105 452.212C143.897 452.088 143.665 452.026 143.409 452.026ZM160.836 455.158C160.836 455.646 160.71 456.08 160.458 456.46C160.21 456.836 159.85 457.13 159.378 457.342C158.91 457.554 158.344 457.66 157.68 457.66C157.008 457.66 156.418 457.56 155.91 457.36C155.406 457.156 154.98 456.886 154.632 456.55L155.394 455.698C155.69 455.966 156.024 456.178 156.396 456.334C156.768 456.486 157.194 456.562 157.674 456.562C157.986 456.562 158.272 456.514 158.532 456.418C158.792 456.318 159 456.17 159.156 455.974C159.312 455.774 159.39 455.524 159.39 455.224C159.39 454.98 159.34 454.774 159.24 454.606C159.14 454.438 158.966 454.286 158.718 454.15C158.474 454.014 158.132 453.882 157.692 453.754C157.108 453.578 156.618 453.382 156.222 453.166C155.826 452.95 155.526 452.692 155.322 452.392C155.122 452.088 155.022 451.72 155.022 451.288C155.022 450.84 155.144 450.448 155.388 450.112C155.636 449.776 155.974 449.516 156.402 449.332C156.834 449.144 157.322 449.05 157.866 449.05C158.466 449.05 158.99 449.136 159.438 449.308C159.886 449.48 160.286 449.726 160.638 450.046L159.906 450.874C159.614 450.618 159.3 450.432 158.964 450.316C158.632 450.2 158.294 450.142 157.95 450.142C157.67 450.142 157.416 450.182 157.188 450.262C156.96 450.342 156.78 450.46 156.648 450.616C156.516 450.772 156.45 450.97 156.45 451.21C156.45 451.422 156.508 451.604 156.624 451.756C156.744 451.908 156.944 452.05 157.224 452.182C157.508 452.31 157.896 452.448 158.388 452.596C158.852 452.732 159.268 452.9 159.636 453.1C160.008 453.3 160.3 453.562 160.512 453.886C160.728 454.21 160.836 454.634 160.836 455.158ZM165.055 450.994C165.675 450.994 166.197 451.132 166.621 451.408C167.045 451.684 167.365 452.07 167.581 452.566C167.801 453.062 167.911 453.646 167.911 454.318C167.911 454.986 167.799 455.572 167.575 456.076C167.355 456.576 167.031 456.966 166.603 457.246C166.179 457.522 165.661 457.66 165.049 457.66C164.437 457.66 163.917 457.526 163.489 457.258C163.065 456.986 162.741 456.6 162.517 456.1C162.297 455.6 162.187 455.01 162.187 454.33C162.187 453.67 162.297 453.09 162.517 452.59C162.741 452.09 163.067 451.7 163.495 451.42C163.923 451.136 164.443 450.994 165.055 450.994ZM165.055 452.038C164.571 452.038 164.207 452.224 163.963 452.596C163.719 452.964 163.597 453.542 163.597 454.33C163.597 455.114 163.717 455.692 163.957 456.064C164.201 456.436 164.565 456.622 165.049 456.622C165.533 456.622 165.895 456.436 166.135 456.064C166.379 455.692 166.501 455.11 166.501 454.318C166.501 453.538 166.381 452.964 166.141 452.596C165.901 452.224 165.539 452.038 165.055 452.038ZM172.497 448.618V455.77C172.497 456.062 172.585 456.27 172.761 456.394C172.941 456.514 173.173 456.574 173.457 456.574C173.641 456.574 173.815 456.554 173.979 456.514C174.143 456.474 174.303 456.424 174.459 456.364L174.801 457.3C174.613 457.396 174.381 457.48 174.105 457.552C173.833 457.624 173.521 457.66 173.169 457.66C172.533 457.66 172.037 457.482 171.681 457.126C171.329 456.766 171.153 456.274 171.153 455.65V449.608H169.239V448.618H172.497ZM178.252 451.162V455.59C178.252 455.966 178.326 456.234 178.474 456.394C178.626 456.554 178.854 456.634 179.158 456.634C179.446 456.634 179.724 456.548 179.992 456.376C180.26 456.204 180.472 455.994 180.628 455.746V451.162H181.972V457.498H180.814L180.73 456.688C180.494 457.004 180.196 457.246 179.836 457.414C179.476 457.578 179.108 457.66 178.732 457.66C178.12 457.66 177.662 457.492 177.358 457.156C177.058 456.816 176.908 456.35 176.908 455.758V451.162H178.252ZM189.395 457.162C189.163 457.31 188.885 457.43 188.561 457.522C188.237 457.614 187.899 457.66 187.547 457.66C186.811 457.66 186.251 457.47 185.867 457.09C185.487 456.706 185.297 456.202 185.297 455.578V452.14H183.887V451.162H185.297V449.746L186.641 449.584V451.162H188.777L188.627 452.14H186.641V455.566C186.641 455.906 186.725 456.16 186.893 456.328C187.065 456.492 187.345 456.574 187.733 456.574C187.965 456.574 188.179 456.546 188.375 456.49C188.571 456.434 188.749 456.362 188.909 456.274L189.395 457.162ZM194.76 451.162V456.514H196.482V457.498H191.52V456.514H193.416V452.146H191.58V451.162H194.76ZM193.824 448.06C194.088 448.06 194.3 448.14 194.46 448.3C194.624 448.46 194.706 448.66 194.706 448.9C194.706 449.14 194.624 449.342 194.46 449.506C194.3 449.67 194.088 449.752 193.824 449.752C193.568 449.752 193.358 449.67 193.194 449.506C193.03 449.342 192.948 449.14 192.948 448.9C192.948 448.66 193.03 448.46 193.194 448.3C193.358 448.14 193.568 448.06 193.824 448.06ZM201.032 450.994C201.652 450.994 202.174 451.132 202.598 451.408C203.022 451.684 203.342 452.07 203.558 452.566C203.778 453.062 203.888 453.646 203.888 454.318C203.888 454.986 203.776 455.572 203.552 456.076C203.332 456.576 203.008 456.966 202.58 457.246C202.156 457.522 201.638 457.66 201.026 457.66C200.414 457.66 199.894 457.526 199.466 457.258C199.042 456.986 198.718 456.6 198.494 456.1C198.274 455.6 198.164 455.01 198.164 454.33C198.164 453.67 198.274 453.09 198.494 452.59C198.718 452.09 199.044 451.7 199.472 451.42C199.9 451.136 200.42 450.994 201.032 450.994ZM201.032 452.038C200.548 452.038 200.184 452.224 199.94 452.596C199.696 452.964 199.574 453.542 199.574 454.33C199.574 455.114 199.694 455.692 199.934 456.064C200.178 456.436 200.542 456.622 201.026 456.622C201.51 456.622 201.872 456.436 202.112 456.064C202.356 455.692 202.478 455.11 202.478 454.318C202.478 453.538 202.358 452.964 202.118 452.596C201.878 452.224 201.516 452.038 201.032 452.038ZM205.689 457.498V451.162H206.847L206.949 451.984C207.213 451.66 207.525 451.414 207.885 451.246C208.245 451.078 208.615 450.994 208.995 450.994C209.587 450.994 210.029 451.16 210.321 451.492C210.617 451.82 210.765 452.282 210.765 452.878V457.498H209.421V453.544C209.421 453.176 209.399 452.88 209.355 452.656C209.311 452.432 209.223 452.27 209.091 452.17C208.963 452.07 208.771 452.02 208.515 452.02C208.311 452.02 208.117 452.064 207.933 452.152C207.749 452.24 207.581 452.356 207.429 452.5C207.277 452.64 207.145 452.79 207.033 452.95V457.498H205.689ZM215.188 456.628C215.608 456.628 215.942 456.554 216.19 456.406C216.438 456.254 216.562 456.046 216.562 455.782C216.562 455.61 216.526 455.464 216.454 455.344C216.382 455.22 216.238 455.108 216.022 455.008C215.806 454.904 215.478 454.796 215.038 454.684C214.622 454.576 214.256 454.448 213.94 454.3C213.628 454.152 213.386 453.96 213.214 453.724C213.042 453.488 212.956 453.184 212.956 452.812C212.956 452.448 213.058 452.13 213.262 451.858C213.466 451.586 213.758 451.374 214.138 451.222C214.522 451.07 214.972 450.994 215.488 450.994C216.02 450.994 216.484 451.064 216.88 451.204C217.276 451.344 217.614 451.518 217.894 451.726L217.33 452.572C217.082 452.408 216.81 452.274 216.514 452.17C216.222 452.066 215.892 452.014 215.524 452.014C215.096 452.014 214.788 452.078 214.6 452.206C214.416 452.334 214.324 452.504 214.324 452.716C214.324 452.872 214.37 453.004 214.462 453.112C214.558 453.216 214.722 453.314 214.954 453.406C215.186 453.494 215.514 453.598 215.938 453.718C216.35 453.83 216.708 453.962 217.012 454.114C217.32 454.266 217.558 454.468 217.726 454.72C217.898 454.968 217.984 455.292 217.984 455.692C217.984 456.148 217.852 456.522 217.588 456.814C217.328 457.102 216.984 457.316 216.556 457.456C216.132 457.592 215.676 457.66 215.188 457.66C214.6 457.66 214.092 457.576 213.664 457.408C213.236 457.236 212.876 457.022 212.584 456.766L213.298 455.95C213.546 456.15 213.83 456.314 214.15 456.442C214.47 456.566 214.816 456.628 215.188 456.628Z" fill="white"/>
<path d="M82.5199 509.498H79.7395C77.1802 509.498 75.1055 511.564 75.1055 514.113V516.883C75.1055 519.432 77.1802 521.498 79.7395 521.498H82.5199C85.0792 521.498 87.154 519.432 87.154 516.883V514.113C87.154 511.564 85.0792 509.498 82.5199 509.498Z" fill="white" fill-opacity="0.05"/>
<path d="M146.723 509.498H98.8746C96.2838 509.498 94.1836 511.564 94.1836 514.113V516.883C94.1836 519.432 96.2838 521.498 98.8746 521.498H146.723C149.314 521.498 151.414 519.432 151.414 516.883V514.113C151.414 511.564 149.314 509.498 146.723 509.498Z" fill="white" fill-opacity="0.05"/>
<path d="M199.914 509.498H163.154C160.551 509.498 158.441 511.564 158.441 514.113V516.883C158.441 519.432 160.551 521.498 163.154 521.498H199.914C202.517 521.498 204.627 519.432 204.627 516.883V514.113C204.627 511.564 202.517 509.498 199.914 509.498Z" fill="white" fill-opacity="0.05"/>
<path d="M133.709 533.498H79.7565C77.1878 533.498 75.1055 535.564 75.1055 538.113V540.883C75.1055 543.432 77.1878 545.498 79.7565 545.498H133.709C136.278 545.498 138.36 543.432 138.36 540.883V538.113C138.36 535.564 136.278 533.498 133.709 533.498Z" fill="white" fill-opacity="0.05"/>
<path d="M192.937 533.498H150.05C147.476 533.498 145.389 535.564 145.389 538.113V540.883C145.389 543.432 147.476 545.498 150.05 545.498H192.937C195.512 545.498 197.599 543.432 197.599 540.883V538.113C197.599 535.564 195.512 533.498 192.937 533.498Z" fill="white" fill-opacity="0.05"/>
<path d="M271.292 533.498H210.257C207.703 533.498 205.633 535.564 205.633 538.113V540.883C205.633 543.432 207.703 545.498 210.257 545.498H271.292C273.845 545.498 275.916 543.432 275.916 540.883V538.113C275.916 535.564 273.845 533.498 271.292 533.498Z" fill="white" fill-opacity="0.05"/>
<path d="M114.681 485.498H79.7073C77.1658 485.498 75.1055 487.564 75.1055 490.113V492.883C75.1055 495.432 77.1658 497.498 79.7073 497.498H114.681C117.223 497.498 119.283 495.432 119.283 492.883V490.113C119.283 487.564 117.223 485.498 114.681 485.498Z" fill="white" fill-opacity="0.05"/>
<path d="M188.981 485.498H131.918C129.377 485.498 127.316 487.564 127.316 490.113V492.883C127.316 495.432 129.377 497.498 131.918 497.498H188.981C191.523 497.498 193.583 495.432 193.583 492.883V490.113C193.583 487.564 191.523 485.498 188.981 485.498Z" fill="white" fill-opacity="0.05"/>
<path d="M263.215 485.498H206.282C203.705 485.498 201.615 487.564 201.615 490.113V492.883C201.615 495.432 203.705 497.498 206.282 497.498H263.215C265.793 497.498 267.882 495.432 267.882 492.883V490.113C267.882 487.564 265.793 485.498 263.215 485.498Z" fill="white" fill-opacity="0.05"/>
<rect x="44.6016" y="0.5" width="245" height="48" rx="10" fill="white" fill-opacity="0.05"/>
<rect x="45.1016" y="1" width="244" height="47" rx="9.5" stroke="white" stroke-opacity="0.1"/>
<circle cx="8" cy="8" r="8" transform="matrix(1 0 0 -1 56.6016 32.5)" fill="#66FFA3"/>
<path d="M87.3896 19.47L88.7336 19.62V28.5H87.5516L87.4556 27.72C87.2396 28.02 86.9816 28.252 86.6816 28.416C86.3816 28.58 86.0456 28.662 85.6736 28.662C85.1296 28.662 84.6816 28.524 84.3296 28.248C83.9776 27.968 83.7156 27.578 83.5436 27.078C83.3756 26.574 83.2916 25.992 83.2916 25.332C83.2916 24.688 83.3916 24.116 83.5916 23.616C83.7916 23.112 84.0776 22.716 84.4496 22.428C84.8216 22.14 85.2696 21.996 85.7936 21.996C86.1256 21.996 86.4236 22.056 86.6876 22.176C86.9516 22.292 87.1856 22.462 87.3896 22.686V19.47ZM86.1476 23.028C85.6956 23.028 85.3436 23.216 85.0916 23.592C84.8396 23.964 84.7136 24.544 84.7136 25.332C84.7136 25.872 84.7656 26.312 84.8696 26.652C84.9736 26.988 85.1236 27.236 85.3196 27.396C85.5156 27.552 85.7516 27.63 86.0276 27.63C86.3316 27.63 86.5956 27.542 86.8196 27.366C87.0436 27.19 87.2336 26.978 87.3896 26.73V23.73C87.2336 23.506 87.0516 23.334 86.8436 23.214C86.6356 23.09 86.4036 23.028 86.1476 23.028ZM94.3269 22.164V27.516H96.0489V28.5H91.0869V27.516H92.9829V23.148H91.1469V22.164H94.3269ZM93.3909 19.062C93.6549 19.062 93.8669 19.142 94.0269 19.302C94.1909 19.462 94.2729 19.662 94.2729 19.902C94.2729 20.142 94.1909 20.344 94.0269 20.508C93.8669 20.672 93.6549 20.754 93.3909 20.754C93.1349 20.754 92.9249 20.672 92.7609 20.508C92.5969 20.344 92.5149 20.142 92.5149 19.902C92.5149 19.662 92.5969 19.462 92.7609 19.302C92.9249 19.142 93.1349 19.062 93.3909 19.062ZM103.394 21.36L103.754 22.476C103.502 22.56 103.224 22.616 102.92 22.644C102.62 22.672 102.284 22.686 101.912 22.686C102.292 22.854 102.578 23.07 102.77 23.334C102.962 23.594 103.058 23.914 103.058 24.294C103.058 24.706 102.958 25.074 102.758 25.398C102.558 25.722 102.272 25.976 101.9 26.16C101.528 26.344 101.082 26.436 100.562 26.436C100.378 26.436 100.218 26.428 100.082 26.412C99.9502 26.396 99.8202 26.37 99.6922 26.334C99.6122 26.39 99.5442 26.466 99.4882 26.562C99.4362 26.654 99.4102 26.752 99.4102 26.856C99.4102 26.984 99.4622 27.096 99.5662 27.192C99.6742 27.284 99.8862 27.33 100.202 27.33H101.306C101.758 27.33 102.156 27.408 102.5 27.564C102.848 27.716 103.12 27.926 103.316 28.194C103.516 28.458 103.616 28.758 103.616 29.094C103.616 29.726 103.344 30.216 102.8 30.564C102.256 30.912 101.472 31.086 100.448 31.086C99.7242 31.086 99.1562 31.012 98.7442 30.864C98.3322 30.716 98.0422 30.496 97.8742 30.204C97.7062 29.912 97.6222 29.554 97.6222 29.13H98.8282C98.8282 29.35 98.8702 29.532 98.9542 29.676C99.0422 29.82 99.2042 29.928 99.4402 30C99.6762 30.072 100.016 30.108 100.46 30.108C100.904 30.108 101.256 30.07 101.516 29.994C101.78 29.922 101.97 29.816 102.086 29.676C102.206 29.54 102.266 29.376 102.266 29.184C102.266 28.928 102.154 28.73 101.93 28.59C101.706 28.45 101.406 28.38 101.03 28.38H99.9442C99.3442 28.38 98.9042 28.258 98.6242 28.014C98.3482 27.77 98.2102 27.486 98.2102 27.162C98.2102 26.946 98.2702 26.738 98.3902 26.538C98.5142 26.338 98.6902 26.164 98.9182 26.016C98.5382 25.816 98.2602 25.574 98.0842 25.29C97.9122 25.002 97.8262 24.654 97.8262 24.246C97.8262 23.798 97.9382 23.406 98.1622 23.07C98.3862 22.734 98.6962 22.472 99.0922 22.284C99.4922 22.096 99.9522 22.002 100.472 22.002C100.98 22.002 101.404 21.976 101.744 21.924C102.084 21.868 102.38 21.79 102.632 21.69C102.888 21.59 103.142 21.48 103.394 21.36ZM100.484 22.926C100.056 22.926 99.7342 23.048 99.5182 23.292C99.3022 23.532 99.1942 23.846 99.1942 24.234C99.1942 24.634 99.3042 24.956 99.5242 25.2C99.7482 25.44 100.074 25.56 100.502 25.56C100.898 25.56 101.2 25.444 101.408 25.212C101.62 24.98 101.726 24.65 101.726 24.222C101.726 23.79 101.622 23.466 101.414 23.25C101.206 23.034 100.896 22.926 100.484 22.926ZM108.718 22.164V27.516H110.44V28.5H105.478V27.516H107.374V23.148H105.538V22.164H108.718ZM107.782 19.062C108.046 19.062 108.258 19.142 108.418 19.302C108.582 19.462 108.664 19.662 108.664 19.902C108.664 20.142 108.582 20.344 108.418 20.508C108.258 20.672 108.046 20.754 107.782 20.754C107.526 20.754 107.316 20.672 107.152 20.508C106.988 20.344 106.906 20.142 106.906 19.902C106.906 19.662 106.988 19.462 107.152 19.302C107.316 19.142 107.526 19.062 107.782 19.062ZM117.743 28.164C117.511 28.312 117.233 28.432 116.909 28.524C116.585 28.616 116.247 28.662 115.895 28.662C115.159 28.662 114.599 28.472 114.215 28.092C113.835 27.708 113.645 27.204 113.645 26.58V23.142H112.235V22.164H113.645V20.748L114.989 20.586V22.164H117.125L116.975 23.142H114.989V26.568C114.989 26.908 115.073 27.162 115.241 27.33C115.413 27.494 115.693 27.576 116.081 27.576C116.313 27.576 116.527 27.548 116.723 27.492C116.919 27.436 117.097 27.364 117.257 27.276L117.743 28.164ZM124.488 26.946C124.488 27.194 124.526 27.376 124.602 27.492C124.678 27.604 124.8 27.688 124.968 27.744L124.668 28.656C124.356 28.62 124.088 28.534 123.864 28.398C123.64 28.262 123.47 28.056 123.354 27.78C123.122 28.072 122.828 28.292 122.472 28.44C122.116 28.588 121.736 28.662 121.332 28.662C120.692 28.662 120.184 28.482 119.808 28.122C119.436 27.758 119.25 27.282 119.25 26.694C119.25 26.026 119.51 25.512 120.03 25.152C120.55 24.792 121.294 24.612 122.262 24.612H123.168V24.198C123.168 23.79 123.044 23.496 122.796 23.316C122.552 23.136 122.206 23.046 121.758 23.046C121.55 23.046 121.298 23.074 121.002 23.13C120.706 23.182 120.396 23.264 120.072 23.376L119.742 22.428C120.138 22.28 120.526 22.172 120.906 22.104C121.286 22.032 121.638 21.996 121.962 21.996C122.81 21.996 123.442 22.184 123.858 22.56C124.278 22.936 124.488 23.456 124.488 24.12V26.946ZM121.74 27.672C122.012 27.672 122.278 27.6 122.538 27.456C122.798 27.312 123.008 27.11 123.168 26.85V25.452H122.424C121.792 25.452 121.34 25.558 121.068 25.77C120.796 25.978 120.66 26.266 120.66 26.634C120.66 26.97 120.75 27.228 120.93 27.408C121.114 27.584 121.384 27.672 121.74 27.672ZM129.625 19.62V26.772C129.625 27.064 129.713 27.272 129.889 27.396C130.069 27.516 130.301 27.576 130.585 27.576C130.769 27.576 130.943 27.556 131.107 27.516C131.271 27.476 131.431 27.426 131.587 27.366L131.929 28.302C131.741 28.398 131.509 28.482 131.233 28.554C130.961 28.626 130.649 28.662 130.297 28.662C129.661 28.662 129.165 28.484 128.809 28.128C128.457 27.768 128.281 27.276 128.281 26.652V20.61H126.367V19.62H129.625ZM146.524 28.164C146.292 28.312 146.014 28.432 145.69 28.524C145.366 28.616 145.028 28.662 144.676 28.662C143.94 28.662 143.38 28.472 142.996 28.092C142.616 27.708 142.426 27.204 142.426 26.58V23.142H141.016V22.164H142.426V20.748L143.77 20.586V22.164H145.906L145.756 23.142H143.77V26.568C143.77 26.908 143.854 27.162 144.022 27.33C144.194 27.494 144.474 27.576 144.862 27.576C145.094 27.576 145.308 27.548 145.504 27.492C145.7 27.436 145.878 27.364 146.038 27.276L146.524 28.164ZM148.487 28.5V27.54H149.417V23.118H148.487V22.164H150.443L150.689 23.634C150.925 23.102 151.217 22.698 151.565 22.422C151.917 22.142 152.369 22.002 152.921 22.002C153.109 22.002 153.277 22.018 153.425 22.05C153.577 22.078 153.727 22.116 153.875 22.164L153.473 23.316C153.345 23.28 153.225 23.254 153.113 23.238C153.001 23.218 152.877 23.208 152.741 23.208C152.281 23.208 151.883 23.38 151.547 23.724C151.215 24.068 150.953 24.556 150.761 25.188V27.54H152.039V28.5H148.487ZM152.687 24.498V22.938L152.855 22.164H153.875L153.647 24.498H152.687ZM160.465 26.946C160.465 27.194 160.503 27.376 160.579 27.492C160.655 27.604 160.777 27.688 160.945 27.744L160.645 28.656C160.333 28.62 160.065 28.534 159.841 28.398C159.617 28.262 159.447 28.056 159.331 27.78C159.099 28.072 158.805 28.292 158.449 28.44C158.093 28.588 157.713 28.662 157.309 28.662C156.669 28.662 156.161 28.482 155.785 28.122C155.413 27.758 155.227 27.282 155.227 26.694C155.227 26.026 155.487 25.512 156.007 25.152C156.527 24.792 157.271 24.612 158.239 24.612H159.145V24.198C159.145 23.79 159.021 23.496 158.773 23.316C158.529 23.136 158.183 23.046 157.735 23.046C157.527 23.046 157.275 23.074 156.979 23.13C156.683 23.182 156.373 23.264 156.049 23.376L155.719 22.428C156.115 22.28 156.503 22.172 156.883 22.104C157.263 22.032 157.615 21.996 157.939 21.996C158.787 21.996 159.419 22.184 159.835 22.56C160.255 22.936 160.465 23.456 160.465 24.12V26.946ZM157.717 27.672C157.989 27.672 158.255 27.6 158.515 27.456C158.775 27.312 158.985 27.11 159.145 26.85V25.452H158.401C157.769 25.452 157.317 25.558 157.045 25.77C156.773 25.978 156.637 26.266 156.637 26.634C156.637 26.97 156.727 27.228 156.907 27.408C157.091 27.584 157.361 27.672 157.717 27.672ZM162.818 28.5V22.164H163.976L164.078 22.986C164.342 22.662 164.654 22.416 165.014 22.248C165.374 22.08 165.744 21.996 166.124 21.996C166.716 21.996 167.158 22.162 167.45 22.494C167.746 22.822 167.894 23.284 167.894 23.88V28.5H166.55V24.546C166.55 24.178 166.528 23.882 166.484 23.658C166.44 23.434 166.352 23.272 166.22 23.172C166.092 23.072 165.9 23.022 165.644 23.022C165.44 23.022 165.246 23.066 165.062 23.154C164.878 23.242 164.71 23.358 164.558 23.502C164.406 23.642 164.274 23.792 164.162 23.952V28.5H162.818ZM172.317 27.63C172.737 27.63 173.071 27.556 173.319 27.408C173.567 27.256 173.691 27.048 173.691 26.784C173.691 26.612 173.655 26.466 173.583 26.346C173.511 26.222 173.367 26.11 173.151 26.01C172.935 25.906 172.607 25.798 172.167 25.686C171.751 25.578 171.385 25.45 171.069 25.302C170.757 25.154 170.515 24.962 170.343 24.726C170.171 24.49 170.085 24.186 170.085 23.814C170.085 23.45 170.187 23.132 170.391 22.86C170.595 22.588 170.887 22.376 171.267 22.224C171.651 22.072 172.101 21.996 172.617 21.996C173.149 21.996 173.613 22.066 174.009 22.206C174.405 22.346 174.743 22.52 175.023 22.728L174.459 23.574C174.211 23.41 173.939 23.276 173.643 23.172C173.351 23.068 173.021 23.016 172.653 23.016C172.225 23.016 171.917 23.08 171.729 23.208C171.545 23.336 171.453 23.506 171.453 23.718C171.453 23.874 171.499 24.006 171.591 24.114C171.687 24.218 171.851 24.316 172.083 24.408C172.315 24.496 172.643 24.6 173.067 24.72C173.479 24.832 173.837 24.964 174.141 25.116C174.449 25.268 174.687 25.47 174.855 25.722C175.027 25.97 175.113 26.294 175.113 26.694C175.113 27.15 174.981 27.524 174.717 27.816C174.457 28.104 174.113 28.318 173.685 28.458C173.261 28.594 172.805 28.662 172.317 28.662C171.729 28.662 171.221 28.578 170.793 28.41C170.365 28.238 170.005 28.024 169.713 27.768L170.427 26.952C170.675 27.152 170.959 27.316 171.279 27.444C171.599 27.568 171.945 27.63 172.317 27.63ZM181.061 19.47C181.449 19.47 181.795 19.504 182.099 19.572C182.407 19.636 182.691 19.724 182.951 19.836L182.555 20.766C182.343 20.678 182.121 20.614 181.889 20.574C181.661 20.534 181.429 20.514 181.193 20.514C180.777 20.514 180.469 20.594 180.269 20.754C180.069 20.91 179.969 21.158 179.969 21.498V22.62H182.087L181.943 23.61H179.969V28.5H178.631V23.61H177.191V22.62H178.631V21.486C178.631 21.086 178.731 20.736 178.931 20.436C179.135 20.132 179.419 19.896 179.783 19.728C180.147 19.556 180.573 19.47 181.061 19.47ZM186.942 21.996C187.562 21.996 188.084 22.134 188.508 22.41C188.932 22.686 189.252 23.072 189.468 23.568C189.688 24.064 189.798 24.648 189.798 25.32C189.798 25.988 189.686 26.574 189.462 27.078C189.242 27.578 188.918 27.968 188.49 28.248C188.066 28.524 187.548 28.662 186.936 28.662C186.324 28.662 185.804 28.528 185.376 28.26C184.952 27.988 184.628 27.602 184.404 27.102C184.184 26.602 184.074 26.012 184.074 25.332C184.074 24.672 184.184 24.092 184.404 23.592C184.628 23.092 184.954 22.702 185.382 22.422C185.81 22.138 186.33 21.996 186.942 21.996ZM186.942 23.04C186.458 23.04 186.094 23.226 185.85 23.598C185.606 23.966 185.484 24.544 185.484 25.332C185.484 26.116 185.604 26.694 185.844 27.066C186.088 27.438 186.452 27.624 186.936 27.624C187.42 27.624 187.782 27.438 188.022 27.066C188.266 26.694 188.388 26.112 188.388 25.32C188.388 24.54 188.268 23.966 188.028 23.598C187.788 23.226 187.426 23.04 186.942 23.04ZM191.659 28.5V27.54H192.589V23.118H191.659V22.164H193.615L193.861 23.634C194.097 23.102 194.389 22.698 194.737 22.422C195.089 22.142 195.541 22.002 196.093 22.002C196.281 22.002 196.449 22.018 196.597 22.05C196.749 22.078 196.899 22.116 197.047 22.164L196.645 23.316C196.517 23.28 196.397 23.254 196.285 23.238C196.173 23.218 196.049 23.208 195.913 23.208C195.453 23.208 195.055 23.38 194.719 23.724C194.387 24.068 194.125 24.556 193.933 25.188V27.54H195.211V28.5H191.659ZM195.859 24.498V22.938L196.027 22.164H197.047L196.819 24.498H195.859ZM203.163 21.996C203.403 21.996 203.619 22.048 203.811 22.152C204.003 22.256 204.153 22.438 204.261 22.698C204.373 22.958 204.429 23.322 204.429 23.79V28.5H203.235V23.976C203.235 23.644 203.211 23.406 203.163 23.262C203.119 23.118 203.001 23.046 202.809 23.046C202.657 23.046 202.503 23.094 202.347 23.19C202.191 23.282 202.033 23.442 201.873 23.67V28.5H200.787V23.976C200.787 23.644 200.763 23.406 200.715 23.262C200.671 23.118 200.553 23.046 200.361 23.046C200.205 23.046 200.049 23.094 199.893 23.19C199.741 23.282 199.585 23.442 199.425 23.67V28.5H198.225V22.164H199.239L199.329 22.848C199.509 22.596 199.705 22.392 199.917 22.236C200.129 22.076 200.385 21.996 200.685 21.996C200.925 21.996 201.143 22.056 201.339 22.176C201.535 22.296 201.679 22.506 201.771 22.806C201.947 22.566 202.147 22.372 202.371 22.224C202.595 22.072 202.859 21.996 203.163 21.996ZM210.832 26.946C210.832 27.194 210.87 27.376 210.946 27.492C211.022 27.604 211.144 27.688 211.312 27.744L211.012 28.656C210.7 28.62 210.432 28.534 210.208 28.398C209.984 28.262 209.814 28.056 209.698 27.78C209.466 28.072 209.172 28.292 208.816 28.44C208.46 28.588 208.08 28.662 207.676 28.662C207.036 28.662 206.528 28.482 206.152 28.122C205.78 27.758 205.594 27.282 205.594 26.694C205.594 26.026 205.854 25.512 206.374 25.152C206.894 24.792 207.638 24.612 208.606 24.612H209.512V24.198C209.512 23.79 209.388 23.496 209.14 23.316C208.896 23.136 208.55 23.046 208.102 23.046C207.894 23.046 207.642 23.074 207.346 23.13C207.05 23.182 206.74 23.264 206.416 23.376L206.086 22.428C206.482 22.28 206.87 22.172 207.25 22.104C207.63 22.032 207.982 21.996 208.306 21.996C209.154 21.996 209.786 22.184 210.202 22.56C210.622 22.936 210.832 23.456 210.832 24.12V26.946ZM208.084 27.672C208.356 27.672 208.622 27.6 208.882 27.456C209.142 27.312 209.352 27.11 209.512 26.85V25.452H208.768C208.136 25.452 207.684 25.558 207.412 25.77C207.14 25.978 207.004 26.266 207.004 26.634C207.004 26.97 207.094 27.228 207.274 27.408C207.458 27.584 207.728 27.672 208.084 27.672ZM218.477 28.164C218.245 28.312 217.967 28.432 217.643 28.524C217.319 28.616 216.981 28.662 216.629 28.662C215.893 28.662 215.333 28.472 214.949 28.092C214.569 27.708 214.379 27.204 214.379 26.58V23.142H212.969V22.164H214.379V20.748L215.723 20.586V22.164H217.859L217.709 23.142H215.723V26.568C215.723 26.908 215.807 27.162 215.975 27.33C216.147 27.494 216.427 27.576 216.815 27.576C217.047 27.576 217.261 27.548 217.457 27.492C217.653 27.436 217.831 27.364 217.991 27.276L218.477 28.164ZM223.843 22.164V27.516H225.565V28.5H220.603V27.516H222.499V23.148H220.663V22.164H223.843ZM222.907 19.062C223.171 19.062 223.383 19.142 223.543 19.302C223.707 19.462 223.789 19.662 223.789 19.902C223.789 20.142 223.707 20.344 223.543 20.508C223.383 20.672 223.171 20.754 222.907 20.754C222.651 20.754 222.441 20.672 222.277 20.508C222.113 20.344 222.031 20.142 222.031 19.902C222.031 19.662 222.113 19.462 222.277 19.302C222.441 19.142 222.651 19.062 222.907 19.062ZM230.114 21.996C230.734 21.996 231.256 22.134 231.68 22.41C232.104 22.686 232.424 23.072 232.64 23.568C232.86 24.064 232.97 24.648 232.97 25.32C232.97 25.988 232.858 26.574 232.634 27.078C232.414 27.578 232.09 27.968 231.662 28.248C231.238 28.524 230.72 28.662 230.108 28.662C229.496 28.662 228.976 28.528 228.548 28.26C228.124 27.988 227.8 27.602 227.576 27.102C227.356 26.602 227.246 26.012 227.246 25.332C227.246 24.672 227.356 24.092 227.576 23.592C227.8 23.092 228.126 22.702 228.554 22.422C228.982 22.138 229.502 21.996 230.114 21.996ZM230.114 23.04C229.63 23.04 229.266 23.226 229.022 23.598C228.778 23.966 228.656 24.544 228.656 25.332C228.656 26.116 228.776 26.694 229.016 27.066C229.26 27.438 229.624 27.624 230.108 27.624C230.592 27.624 230.954 27.438 231.194 27.066C231.438 26.694 231.56 26.112 231.56 25.32C231.56 24.54 231.44 23.966 231.2 23.598C230.96 23.226 230.598 23.04 230.114 23.04ZM234.771 28.5V22.164H235.929L236.031 22.986C236.295 22.662 236.607 22.416 236.967 22.248C237.327 22.08 237.697 21.996 238.077 21.996C238.669 21.996 239.111 22.162 239.403 22.494C239.699 22.822 239.847 23.284 239.847 23.88V28.5H238.503V24.546C238.503 24.178 238.481 23.882 238.437 23.658C238.393 23.434 238.305 23.272 238.173 23.172C238.045 23.072 237.853 23.022 237.597 23.022C237.393 23.022 237.199 23.066 237.015 23.154C236.831 23.242 236.663 23.358 236.511 23.502C236.359 23.642 236.227 23.792 236.115 23.952V28.5H234.771Z" fill="white"/>
<rect x="44.6016" y="60.5" width="245" height="48" rx="10" fill="white" fill-opacity="0.05"/>
<rect x="45.1016" y="61" width="244" height="47" rx="9.5" stroke="white" stroke-opacity="0.1"/>
<circle cx="8" cy="8" r="8" transform="matrix(1 0 0 -1 56.6016 92.5)" fill="#EE7171"/>
<path d="M86.7236 87.558C87.0196 87.558 87.2956 87.508 87.5516 87.408C87.8076 87.304 88.0516 87.17 88.2836 87.006L88.9076 87.87C88.6316 88.106 88.2956 88.298 87.8996 88.446C87.5076 88.59 87.1016 88.662 86.6816 88.662C86.0336 88.662 85.4796 88.526 85.0196 88.254C84.5596 87.978 84.2076 87.592 83.9636 87.096C83.7196 86.6 83.5976 86.022 83.5976 85.362C83.5976 84.718 83.7196 84.144 83.9636 83.64C84.2116 83.132 84.5676 82.732 85.0316 82.44C85.4956 82.144 86.0536 81.996 86.7056 81.996C87.1376 81.996 87.5356 82.06 87.8996 82.188C88.2636 82.316 88.5976 82.506 88.9016 82.758L88.2836 83.604C88.0356 83.432 87.7816 83.302 87.5216 83.214C87.2656 83.122 87.0016 83.076 86.7296 83.076C86.2296 83.076 85.8196 83.26 85.4996 83.628C85.1836 83.996 85.0256 84.574 85.0256 85.362C85.0256 85.89 85.0976 86.316 85.2416 86.64C85.3896 86.96 85.5916 87.194 85.8476 87.342C86.1036 87.486 86.3956 87.558 86.7236 87.558ZM92.2089 82.164V86.592C92.2089 86.968 92.2829 87.236 92.4309 87.396C92.5829 87.556 92.8109 87.636 93.1149 87.636C93.4029 87.636 93.6809 87.55 93.9489 87.378C94.2169 87.206 94.4289 86.996 94.5849 86.748V82.164H95.9289V88.5H94.7709L94.6869 87.69C94.4509 88.006 94.1529 88.248 93.7929 88.416C93.4329 88.58 93.0649 88.662 92.6889 88.662C92.0769 88.662 91.6189 88.494 91.3149 88.158C91.0149 87.818 90.8649 87.352 90.8649 86.76V82.164H92.2089ZM100.364 87.63C100.784 87.63 101.118 87.556 101.366 87.408C101.614 87.256 101.738 87.048 101.738 86.784C101.738 86.612 101.702 86.466 101.63 86.346C101.558 86.222 101.414 86.11 101.198 86.01C100.982 85.906 100.654 85.798 100.214 85.686C99.7982 85.578 99.4322 85.45 99.1162 85.302C98.8042 85.154 98.5622 84.962 98.3902 84.726C98.2182 84.49 98.1322 84.186 98.1322 83.814C98.1322 83.45 98.2342 83.132 98.4382 82.86C98.6422 82.588 98.9342 82.376 99.3142 82.224C99.6982 82.072 100.148 81.996 100.664 81.996C101.196 81.996 101.66 82.066 102.056 82.206C102.452 82.346 102.79 82.52 103.07 82.728L102.506 83.574C102.258 83.41 101.986 83.276 101.69 83.172C101.398 83.068 101.068 83.016 100.7 83.016C100.272 83.016 99.9642 83.08 99.7762 83.208C99.5922 83.336 99.5002 83.506 99.5002 83.718C99.5002 83.874 99.5462 84.006 99.6382 84.114C99.7342 84.218 99.8982 84.316 100.13 84.408C100.362 84.496 100.69 84.6 101.114 84.72C101.526 84.832 101.884 84.964 102.188 85.116C102.496 85.268 102.734 85.47 102.902 85.722C103.074 85.97 103.16 86.294 103.16 86.694C103.16 87.15 103.028 87.524 102.764 87.816C102.504 88.104 102.16 88.318 101.732 88.458C101.308 88.594 100.852 88.662 100.364 88.662C99.7762 88.662 99.2682 88.578 98.8402 88.41C98.4122 88.238 98.0522 88.024 97.7602 87.768L98.4742 86.952C98.7222 87.152 99.0062 87.316 99.3262 87.444C99.6462 87.568 99.9922 87.63 100.364 87.63ZM110.548 88.164C110.316 88.312 110.038 88.432 109.714 88.524C109.39 88.616 109.052 88.662 108.7 88.662C107.964 88.662 107.404 88.472 107.02 88.092C106.64 87.708 106.45 87.204 106.45 86.58V83.142H105.04V82.164H106.45V80.748L107.794 80.586V82.164H109.93L109.78 83.142H107.794V86.568C107.794 86.908 107.878 87.162 108.046 87.33C108.218 87.494 108.498 87.576 108.886 87.576C109.118 87.576 109.332 87.548 109.528 87.492C109.724 87.436 109.902 87.364 110.062 87.276L110.548 88.164ZM114.989 81.996C115.609 81.996 116.131 82.134 116.555 82.41C116.979 82.686 117.299 83.072 117.515 83.568C117.735 84.064 117.845 84.648 117.845 85.32C117.845 85.988 117.733 86.574 117.509 87.078C117.289 87.578 116.965 87.968 116.537 88.248C116.113 88.524 115.595 88.662 114.983 88.662C114.371 88.662 113.851 88.528 113.423 88.26C112.999 87.988 112.675 87.602 112.451 87.102C112.231 86.602 112.121 86.012 112.121 85.332C112.121 84.672 112.231 84.092 112.451 83.592C112.675 83.092 113.001 82.702 113.429 82.422C113.857 82.138 114.377 81.996 114.989 81.996ZM114.989 83.04C114.505 83.04 114.141 83.226 113.897 83.598C113.653 83.966 113.531 84.544 113.531 85.332C113.531 86.116 113.651 86.694 113.891 87.066C114.135 87.438 114.499 87.624 114.983 87.624C115.467 87.624 115.829 87.438 116.069 87.066C116.313 86.694 116.435 86.112 116.435 85.32C116.435 84.54 116.315 83.966 116.075 83.598C115.835 83.226 115.473 83.04 114.989 83.04ZM124.014 81.996C124.254 81.996 124.47 82.048 124.662 82.152C124.854 82.256 125.004 82.438 125.112 82.698C125.224 82.958 125.28 83.322 125.28 83.79V88.5H124.086V83.976C124.086 83.644 124.062 83.406 124.014 83.262C123.97 83.118 123.852 83.046 123.66 83.046C123.508 83.046 123.354 83.094 123.198 83.19C123.042 83.282 122.884 83.442 122.724 83.67V88.5H121.638V83.976C121.638 83.644 121.614 83.406 121.566 83.262C121.522 83.118 121.404 83.046 121.212 83.046C121.056 83.046 120.9 83.094 120.744 83.19C120.592 83.282 120.436 83.442 120.276 83.67V88.5H119.076V82.164H120.09L120.18 82.848C120.36 82.596 120.556 82.392 120.768 82.236C120.98 82.076 121.236 81.996 121.536 81.996C121.776 81.996 121.994 82.056 122.19 82.176C122.386 82.296 122.53 82.506 122.622 82.806C122.798 82.566 122.998 82.372 123.222 82.224C123.446 82.072 123.71 81.996 124.014 81.996ZM136.341 87.63C136.761 87.63 137.095 87.556 137.343 87.408C137.591 87.256 137.715 87.048 137.715 86.784C137.715 86.612 137.679 86.466 137.607 86.346C137.535 86.222 137.391 86.11 137.175 86.01C136.959 85.906 136.631 85.798 136.191 85.686C135.775 85.578 135.409 85.45 135.093 85.302C134.781 85.154 134.539 84.962 134.367 84.726C134.195 84.49 134.109 84.186 134.109 83.814C134.109 83.45 134.211 83.132 134.415 82.86C134.619 82.588 134.911 82.376 135.291 82.224C135.675 82.072 136.125 81.996 136.641 81.996C137.173 81.996 137.637 82.066 138.033 82.206C138.429 82.346 138.767 82.52 139.047 82.728L138.483 83.574C138.235 83.41 137.963 83.276 137.667 83.172C137.375 83.068 137.045 83.016 136.677 83.016C136.249 83.016 135.941 83.08 135.753 83.208C135.569 83.336 135.477 83.506 135.477 83.718C135.477 83.874 135.523 84.006 135.615 84.114C135.711 84.218 135.875 84.316 136.107 84.408C136.339 84.496 136.667 84.6 137.091 84.72C137.503 84.832 137.861 84.964 138.165 85.116C138.473 85.268 138.711 85.47 138.879 85.722C139.051 85.97 139.137 86.294 139.137 86.694C139.137 87.15 139.005 87.524 138.741 87.816C138.481 88.104 138.137 88.318 137.709 88.458C137.285 88.594 136.829 88.662 136.341 88.662C135.753 88.662 135.245 88.578 134.817 88.41C134.389 88.238 134.029 88.024 133.737 87.768L134.451 86.952C134.699 87.152 134.983 87.316 135.303 87.444C135.623 87.568 135.969 87.63 136.341 87.63ZM143.77 81.996C144.39 81.996 144.912 82.134 145.336 82.41C145.76 82.686 146.08 83.072 146.296 83.568C146.516 84.064 146.626 84.648 146.626 85.32C146.626 85.988 146.514 86.574 146.29 87.078C146.07 87.578 145.746 87.968 145.318 88.248C144.894 88.524 144.376 88.662 143.764 88.662C143.152 88.662 142.632 88.528 142.204 88.26C141.78 87.988 141.456 87.602 141.232 87.102C141.012 86.602 140.902 86.012 140.902 85.332C140.902 84.672 141.012 84.092 141.232 83.592C141.456 83.092 141.782 82.702 142.21 82.422C142.638 82.138 143.158 81.996 143.77 81.996ZM143.77 83.04C143.286 83.04 142.922 83.226 142.678 83.598C142.434 83.966 142.312 84.544 142.312 85.332C142.312 86.116 142.432 86.694 142.672 87.066C142.916 87.438 143.28 87.624 143.764 87.624C144.248 87.624 144.61 87.438 144.85 87.066C145.094 86.694 145.216 86.112 145.216 85.32C145.216 84.54 145.096 83.966 144.856 83.598C144.616 83.226 144.254 83.04 143.77 83.04ZM152.279 79.47C152.667 79.47 153.013 79.504 153.317 79.572C153.625 79.636 153.909 79.724 154.169 79.836L153.773 80.766C153.561 80.678 153.339 80.614 153.107 80.574C152.879 80.534 152.647 80.514 152.411 80.514C151.995 80.514 151.687 80.594 151.487 80.754C151.287 80.91 151.187 81.158 151.187 81.498V82.62H153.305L153.161 83.61H151.187V88.5H149.849V83.61H148.409V82.62H149.849V81.486C149.849 81.086 149.949 80.736 150.149 80.436C150.353 80.132 150.637 79.896 151.001 79.728C151.365 79.556 151.791 79.47 152.279 79.47ZM160.915 88.164C160.683 88.312 160.405 88.432 160.081 88.524C159.757 88.616 159.419 88.662 159.067 88.662C158.331 88.662 157.771 88.472 157.387 88.092C157.007 87.708 156.817 87.204 156.817 86.58V83.142H155.407V82.164H156.817V80.748L158.161 80.586V82.164H160.297L160.147 83.142H158.161V86.568C158.161 86.908 158.245 87.162 158.413 87.33C158.585 87.494 158.865 87.576 159.253 87.576C159.485 87.576 159.699 87.548 159.895 87.492C160.091 87.436 160.269 87.364 160.429 87.276L160.915 88.164ZM167.774 88.5H166.094L165.38 84L164.612 88.5H162.968L161.894 82.164H163.19L163.85 87.666L164.732 82.968H166.076L166.898 87.666L167.558 82.164H168.806L167.774 88.5ZM174.855 86.946C174.855 87.194 174.893 87.376 174.969 87.492C175.045 87.604 175.167 87.688 175.335 87.744L175.035 88.656C174.723 88.62 174.455 88.534 174.231 88.398C174.007 88.262 173.837 88.056 173.721 87.78C173.489 88.072 173.195 88.292 172.839 88.44C172.483 88.588 172.103 88.662 171.699 88.662C171.059 88.662 170.551 88.482 170.175 88.122C169.803 87.758 169.617 87.282 169.617 86.694C169.617 86.026 169.877 85.512 170.397 85.152C170.917 84.792 171.661 84.612 172.629 84.612H173.535V84.198C173.535 83.79 173.411 83.496 173.163 83.316C172.919 83.136 172.573 83.046 172.125 83.046C171.917 83.046 171.665 83.074 171.369 83.13C171.073 83.182 170.763 83.264 170.439 83.376L170.109 82.428C170.505 82.28 170.893 82.172 171.273 82.104C171.653 82.032 172.005 81.996 172.329 81.996C173.177 81.996 173.809 82.184 174.225 82.56C174.645 82.936 174.855 83.456 174.855 84.12V86.946ZM172.107 87.672C172.379 87.672 172.645 87.6 172.905 87.456C173.165 87.312 173.375 87.11 173.535 86.85V85.452H172.791C172.159 85.452 171.707 85.558 171.435 85.77C171.163 85.978 171.027 86.266 171.027 86.634C171.027 86.97 171.117 87.228 171.297 87.408C171.481 87.584 171.751 87.672 172.107 87.672ZM177.269 88.5V87.54H178.199V83.118H177.269V82.164H179.225L179.471 83.634C179.707 83.102 179.999 82.698 180.347 82.422C180.699 82.142 181.151 82.002 181.703 82.002C181.891 82.002 182.059 82.018 182.207 82.05C182.359 82.078 182.509 82.116 182.657 82.164L182.255 83.316C182.127 83.28 182.007 83.254 181.895 83.238C181.783 83.218 181.659 83.208 181.523 83.208C181.063 83.208 180.665 83.38 180.329 83.724C179.997 84.068 179.735 84.556 179.543 85.188V87.54H180.821V88.5H177.269ZM181.469 84.498V82.938L181.637 82.164H182.657L182.429 84.498H181.469ZM185.52 85.764C185.548 86.196 185.64 86.55 185.796 86.826C185.952 87.098 186.156 87.298 186.408 87.426C186.664 87.554 186.944 87.618 187.248 87.618C187.56 87.618 187.848 87.57 188.112 87.474C188.376 87.378 188.642 87.242 188.91 87.066L189.492 87.87C189.196 88.11 188.85 88.302 188.454 88.446C188.058 88.59 187.634 88.662 187.182 88.662C186.526 88.662 185.97 88.522 185.514 88.242C185.062 87.962 184.718 87.572 184.482 87.072C184.246 86.572 184.128 85.994 184.128 85.338C184.128 84.702 184.244 84.134 184.476 83.634C184.708 83.13 185.04 82.732 185.472 82.44C185.904 82.144 186.42 81.996 187.02 81.996C187.584 81.996 188.068 82.124 188.472 82.38C188.88 82.636 189.194 83 189.414 83.472C189.638 83.94 189.75 84.504 189.75 85.164C189.75 85.272 189.746 85.38 189.738 85.488C189.734 85.592 189.728 85.684 189.72 85.764H185.52ZM187.032 82.992C186.612 82.992 186.264 83.142 185.988 83.442C185.716 83.742 185.558 84.21 185.514 84.846H188.448C188.436 84.25 188.308 83.792 188.064 83.472C187.824 83.152 187.48 82.992 187.032 82.992ZM202.515 79.47L203.859 79.62V88.5H202.677L202.581 87.72C202.365 88.02 202.107 88.252 201.807 88.416C201.507 88.58 201.171 88.662 200.799 88.662C200.255 88.662 199.807 88.524 199.455 88.248C199.103 87.968 198.841 87.578 198.669 87.078C198.501 86.574 198.417 85.992 198.417 85.332C198.417 84.688 198.517 84.116 198.717 83.616C198.917 83.112 199.203 82.716 199.575 82.428C199.947 82.14 200.395 81.996 200.919 81.996C201.251 81.996 201.549 82.056 201.813 82.176C202.077 82.292 202.311 82.462 202.515 82.686V79.47ZM201.273 83.028C200.821 83.028 200.469 83.216 200.217 83.592C199.965 83.964 199.839 84.544 199.839 85.332C199.839 85.872 199.891 86.312 199.995 86.652C200.099 86.988 200.249 87.236 200.445 87.396C200.641 87.552 200.877 87.63 201.153 87.63C201.457 87.63 201.721 87.542 201.945 87.366C202.169 87.19 202.359 86.978 202.515 86.73V83.73C202.359 83.506 202.177 83.334 201.969 83.214C201.761 83.09 201.529 83.028 201.273 83.028ZM207.106 85.764C207.134 86.196 207.226 86.55 207.382 86.826C207.538 87.098 207.742 87.298 207.994 87.426C208.25 87.554 208.53 87.618 208.834 87.618C209.146 87.618 209.434 87.57 209.698 87.474C209.962 87.378 210.228 87.242 210.496 87.066L211.078 87.87C210.782 88.11 210.436 88.302 210.04 88.446C209.644 88.59 209.22 88.662 208.768 88.662C208.112 88.662 207.556 88.522 207.1 88.242C206.648 87.962 206.304 87.572 206.068 87.072C205.832 86.572 205.714 85.994 205.714 85.338C205.714 84.702 205.83 84.134 206.062 83.634C206.294 83.13 206.626 82.732 207.058 82.44C207.49 82.144 208.006 81.996 208.606 81.996C209.17 81.996 209.654 82.124 210.058 82.38C210.466 82.636 210.78 83 211 83.472C211.224 83.94 211.336 84.504 211.336 85.164C211.336 85.272 211.332 85.38 211.324 85.488C211.32 85.592 211.314 85.684 211.306 85.764H207.106ZM208.618 82.992C208.198 82.992 207.85 83.142 207.574 83.442C207.302 83.742 207.144 84.21 207.1 84.846H210.034C210.022 84.25 209.894 83.792 209.65 83.472C209.41 83.152 209.066 82.992 208.618 82.992ZM218.735 82.164L216.503 88.5H214.931L212.699 82.164H214.139L215.747 87.384L217.361 82.164H218.735ZM221.497 85.764C221.525 86.196 221.617 86.55 221.773 86.826C221.929 87.098 222.133 87.298 222.385 87.426C222.641 87.554 222.921 87.618 223.225 87.618C223.537 87.618 223.825 87.57 224.089 87.474C224.353 87.378 224.619 87.242 224.887 87.066L225.469 87.87C225.173 88.11 224.827 88.302 224.431 88.446C224.035 88.59 223.611 88.662 223.159 88.662C222.503 88.662 221.947 88.522 221.491 88.242C221.039 87.962 220.695 87.572 220.459 87.072C220.223 86.572 220.104 85.994 220.104 85.338C220.104 84.702 220.221 84.134 220.453 83.634C220.685 83.13 221.017 82.732 221.449 82.44C221.881 82.144 222.397 81.996 222.997 81.996C223.561 81.996 224.045 82.124 224.449 82.38C224.857 82.636 225.171 83 225.391 83.472C225.615 83.94 225.727 84.504 225.727 85.164C225.727 85.272 225.723 85.38 225.715 85.488C225.711 85.592 225.705 85.684 225.697 85.764H221.497ZM223.009 82.992C222.589 82.992 222.241 83.142 221.965 83.442C221.693 83.742 221.535 84.21 221.491 84.846H224.425C224.413 84.25 224.285 83.792 224.041 83.472C223.801 83.152 223.457 82.992 223.009 82.992ZM230.36 79.62V86.772C230.36 87.064 230.448 87.272 230.624 87.396C230.804 87.516 231.036 87.576 231.32 87.576C231.504 87.576 231.678 87.556 231.842 87.516C232.006 87.476 232.166 87.426 232.322 87.366L232.664 88.302C232.476 88.398 232.244 88.482 231.968 88.554C231.696 88.626 231.384 88.662 231.032 88.662C230.396 88.662 229.9 88.484 229.544 88.128C229.192 87.768 229.016 87.276 229.016 86.652V80.61H227.102V79.62H230.36ZM237.309 81.996C237.929 81.996 238.451 82.134 238.875 82.41C239.299 82.686 239.619 83.072 239.835 83.568C240.055 84.064 240.165 84.648 240.165 85.32C240.165 85.988 240.053 86.574 239.829 87.078C239.609 87.578 239.285 87.968 238.857 88.248C238.433 88.524 237.915 88.662 237.303 88.662C236.691 88.662 236.171 88.528 235.743 88.26C235.319 87.988 234.995 87.602 234.771 87.102C234.551 86.602 234.441 86.012 234.441 85.332C234.441 84.672 234.551 84.092 234.771 83.592C234.995 83.092 235.321 82.702 235.749 82.422C236.177 82.138 236.697 81.996 237.309 81.996ZM237.309 83.04C236.825 83.04 236.461 83.226 236.217 83.598C235.973 83.966 235.851 84.544 235.851 85.332C235.851 86.116 235.971 86.694 236.211 87.066C236.455 87.438 236.819 87.624 237.303 87.624C237.787 87.624 238.149 87.438 238.389 87.066C238.633 86.694 238.755 86.112 238.755 85.32C238.755 84.54 238.635 83.966 238.395 83.598C238.155 83.226 237.793 83.04 237.309 83.04ZM245.056 81.996C245.616 81.996 246.064 82.134 246.4 82.41C246.736 82.682 246.98 83.068 247.132 83.568C247.284 84.064 247.36 84.648 247.36 85.32C247.36 85.964 247.268 86.538 247.084 87.042C246.9 87.546 246.626 87.942 246.262 88.23C245.902 88.518 245.454 88.662 244.918 88.662C244.254 88.662 243.718 88.428 243.31 87.96V90.936L241.966 91.086V82.164H243.136L243.22 82.98C243.46 82.652 243.738 82.406 244.054 82.242C244.374 82.078 244.708 81.996 245.056 81.996ZM244.684 83.034C244.384 83.034 244.12 83.124 243.892 83.304C243.664 83.484 243.47 83.696 243.31 83.94V86.904C243.462 87.132 243.642 87.308 243.85 87.432C244.062 87.552 244.3 87.612 244.564 87.612C245.016 87.612 245.36 87.43 245.596 87.066C245.832 86.702 245.95 86.122 245.95 85.326C245.95 84.786 245.902 84.348 245.806 84.012C245.714 83.672 245.574 83.424 245.386 83.268C245.202 83.112 244.968 83.034 244.684 83.034ZM253.53 81.996C253.77 81.996 253.986 82.048 254.178 82.152C254.37 82.256 254.52 82.438 254.628 82.698C254.74 82.958 254.796 83.322 254.796 83.79V88.5H253.602V83.976C253.602 83.644 253.578 83.406 253.53 83.262C253.486 83.118 253.368 83.046 253.176 83.046C253.024 83.046 252.87 83.094 252.714 83.19C252.558 83.282 252.4 83.442 252.24 83.67V88.5H251.154V83.976C251.154 83.644 251.13 83.406 251.082 83.262C251.038 83.118 250.92 83.046 250.728 83.046C250.572 83.046 250.416 83.094 250.26 83.19C250.108 83.282 249.952 83.442 249.792 83.67V88.5H248.592V82.164H249.606L249.696 82.848C249.876 82.596 250.072 82.392 250.284 82.236C250.496 82.076 250.752 81.996 251.052 81.996C251.292 81.996 251.51 82.056 251.706 82.176C251.902 82.296 252.046 82.506 252.138 82.806C252.314 82.566 252.514 82.372 252.738 82.224C252.962 82.072 253.226 81.996 253.53 81.996ZM257.473 85.764C257.501 86.196 257.593 86.55 257.749 86.826C257.905 87.098 258.109 87.298 258.361 87.426C258.617 87.554 258.897 87.618 259.201 87.618C259.513 87.618 259.801 87.57 260.065 87.474C260.329 87.378 260.595 87.242 260.863 87.066L261.445 87.87C261.149 88.11 260.803 88.302 260.407 88.446C260.011 88.59 259.587 88.662 259.135 88.662C258.479 88.662 257.923 88.522 257.467 88.242C257.015 87.962 256.671 87.572 256.435 87.072C256.199 86.572 256.081 85.994 256.081 85.338C256.081 84.702 256.197 84.134 256.429 83.634C256.661 83.13 256.993 82.732 257.425 82.44C257.857 82.144 258.373 81.996 258.973 81.996C259.537 81.996 260.021 82.124 260.425 82.38C260.833 82.636 261.147 83 261.367 83.472C261.591 83.94 261.703 84.504 261.703 85.164C261.703 85.272 261.699 85.38 261.691 85.488C261.687 85.592 261.681 85.684 261.673 85.764H257.473ZM258.985 82.992C258.565 82.992 258.217 83.142 257.941 83.442C257.669 83.742 257.511 84.21 257.467 84.846H260.401C260.389 84.25 260.261 83.792 260.017 83.472C259.777 83.152 259.433 82.992 258.985 82.992ZM263.552 88.5V82.164H264.71L264.812 82.986C265.076 82.662 265.388 82.416 265.748 82.248C266.108 82.08 266.478 81.996 266.858 81.996C267.45 81.996 267.892 82.162 268.184 82.494C268.48 82.822 268.628 83.284 268.628 83.88V88.5H267.284V84.546C267.284 84.178 267.262 83.882 267.218 83.658C267.174 83.434 267.086 83.272 266.954 83.172C266.826 83.072 266.634 83.022 266.378 83.022C266.174 83.022 265.98 83.066 265.796 83.154C265.612 83.242 265.444 83.358 265.292 83.502C265.14 83.642 265.008 83.792 264.896 83.952V88.5H263.552ZM276.04 88.164C275.808 88.312 275.53 88.432 275.206 88.524C274.882 88.616 274.544 88.662 274.192 88.662C273.456 88.662 272.896 88.472 272.512 88.092C272.132 87.708 271.942 87.204 271.942 86.58V83.142H270.532V82.164H271.942V80.748L273.286 80.586V82.164H275.422L275.272 83.142H273.286V86.568C273.286 86.908 273.37 87.162 273.538 87.33C273.71 87.494 273.99 87.576 274.378 87.576C274.61 87.576 274.824 87.548 275.02 87.492C275.216 87.436 275.394 87.364 275.554 87.276L276.04 88.164Z" fill="white"/>
<rect x="44.6016" y="120.5" width="245" height="48" rx="10" fill="white" fill-opacity="0.05"/>
<rect x="45.1016" y="121" width="244" height="47" rx="9.5" stroke="white" stroke-opacity="0.1"/>
<circle cx="8" cy="8" r="8" transform="matrix(1 0 0 -1 56.6016 152.5)" fill="white" fill-opacity="0.4"/>
<path d="M86.7236 147.558C87.0196 147.558 87.2956 147.508 87.5516 147.408C87.8076 147.304 88.0516 147.17 88.2836 147.006L88.9076 147.87C88.6316 148.106 88.2956 148.298 87.8996 148.446C87.5076 148.59 87.1016 148.662 86.6816 148.662C86.0336 148.662 85.4796 148.526 85.0196 148.254C84.5596 147.978 84.2076 147.592 83.9636 147.096C83.7196 146.6 83.5976 146.022 83.5976 145.362C83.5976 144.718 83.7196 144.144 83.9636 143.64C84.2116 143.132 84.5676 142.732 85.0316 142.44C85.4956 142.144 86.0536 141.996 86.7056 141.996C87.1376 141.996 87.5356 142.06 87.8996 142.188C88.2636 142.316 88.5976 142.506 88.9016 142.758L88.2836 143.604C88.0356 143.432 87.7816 143.302 87.5216 143.214C87.2656 143.122 87.0016 143.076 86.7296 143.076C86.2296 143.076 85.8196 143.26 85.4996 143.628C85.1836 143.996 85.0256 144.574 85.0256 145.362C85.0256 145.89 85.0976 146.316 85.2416 146.64C85.3896 146.96 85.5916 147.194 85.8476 147.342C86.1036 147.486 86.3956 147.558 86.7236 147.558ZM93.6489 139.62V146.772C93.6489 147.064 93.7369 147.272 93.9129 147.396C94.0929 147.516 94.3249 147.576 94.6089 147.576C94.7929 147.576 94.9669 147.556 95.1309 147.516C95.2949 147.476 95.4549 147.426 95.6109 147.366L95.9529 148.302C95.7649 148.398 95.5329 148.482 95.2569 148.554C94.9849 148.626 94.6729 148.662 94.3209 148.662C93.6849 148.662 93.1889 148.484 92.8329 148.128C92.4809 147.768 92.3049 147.276 92.3049 146.652V140.61H90.3909V139.62H93.6489ZM100.598 141.996C101.218 141.996 101.74 142.134 102.164 142.41C102.588 142.686 102.908 143.072 103.124 143.568C103.344 144.064 103.454 144.648 103.454 145.32C103.454 145.988 103.342 146.574 103.118 147.078C102.898 147.578 102.574 147.968 102.146 148.248C101.722 148.524 101.204 148.662 100.592 148.662C99.9802 148.662 99.4602 148.528 99.0322 148.26C98.6082 147.988 98.2842 147.602 98.0602 147.102C97.8402 146.602 97.7302 146.012 97.7302 145.332C97.7302 144.672 97.8402 144.092 98.0602 143.592C98.2842 143.092 98.6102 142.702 99.0382 142.422C99.4662 142.138 99.9862 141.996 100.598 141.996ZM100.598 143.04C100.114 143.04 99.7502 143.226 99.5062 143.598C99.2622 143.966 99.1402 144.544 99.1402 145.332C99.1402 146.116 99.2602 146.694 99.5002 147.066C99.7442 147.438 100.108 147.624 100.592 147.624C101.076 147.624 101.438 147.438 101.678 147.066C101.922 146.694 102.044 146.112 102.044 145.32C102.044 144.54 101.924 143.966 101.684 143.598C101.444 143.226 101.082 143.04 100.598 143.04ZM106.6 142.164V146.592C106.6 146.968 106.674 147.236 106.822 147.396C106.974 147.556 107.202 147.636 107.506 147.636C107.794 147.636 108.072 147.55 108.34 147.378C108.608 147.206 108.82 146.996 108.976 146.748V142.164H110.32V148.5H109.162L109.078 147.69C108.842 148.006 108.544 148.248 108.184 148.416C107.824 148.58 107.456 148.662 107.08 148.662C106.468 148.662 106.01 148.494 105.706 148.158C105.406 147.818 105.256 147.352 105.256 146.76V142.164H106.6ZM116.171 139.47L117.515 139.62V148.5H116.333L116.237 147.72C116.021 148.02 115.763 148.252 115.463 148.416C115.163 148.58 114.827 148.662 114.455 148.662C113.911 148.662 113.463 148.524 113.111 148.248C112.759 147.968 112.497 147.578 112.325 147.078C112.157 146.574 112.073 145.992 112.073 145.332C112.073 144.688 112.173 144.116 112.373 143.616C112.573 143.112 112.859 142.716 113.231 142.428C113.603 142.14 114.051 141.996 114.575 141.996C114.907 141.996 115.205 142.056 115.469 142.176C115.733 142.292 115.967 142.462 116.171 142.686V139.47ZM114.929 143.028C114.477 143.028 114.125 143.216 113.873 143.592C113.621 143.964 113.495 144.544 113.495 145.332C113.495 145.872 113.547 146.312 113.651 146.652C113.755 146.988 113.905 147.236 114.101 147.396C114.297 147.552 114.533 147.63 114.809 147.63C115.113 147.63 115.377 147.542 115.601 147.366C115.825 147.19 116.015 146.978 116.171 146.73V143.73C116.015 143.506 115.833 143.334 115.625 143.214C115.417 143.09 115.185 143.028 114.929 143.028ZM130.303 142.164V147.516H132.025V148.5H127.063V147.516H128.959V143.148H127.123V142.164H130.303ZM129.367 139.062C129.631 139.062 129.843 139.142 130.003 139.302C130.167 139.462 130.249 139.662 130.249 139.902C130.249 140.142 130.167 140.344 130.003 140.508C129.843 140.672 129.631 140.754 129.367 140.754C129.111 140.754 128.901 140.672 128.737 140.508C128.573 140.344 128.491 140.142 128.491 139.902C128.491 139.662 128.573 139.462 128.737 139.302C128.901 139.142 129.111 139.062 129.367 139.062ZM134.037 148.5V142.164H135.195L135.297 142.986C135.561 142.662 135.873 142.416 136.233 142.248C136.593 142.08 136.963 141.996 137.343 141.996C137.935 141.996 138.377 142.162 138.669 142.494C138.965 142.822 139.113 143.284 139.113 143.88V148.5H137.769V144.546C137.769 144.178 137.747 143.882 137.703 143.658C137.659 143.434 137.571 143.272 137.439 143.172C137.311 143.072 137.119 143.022 136.863 143.022C136.659 143.022 136.465 143.066 136.281 143.154C136.097 143.242 135.929 143.358 135.777 143.502C135.625 143.642 135.493 143.792 135.381 143.952V148.5H134.037ZM146.524 148.164C146.292 148.312 146.014 148.432 145.69 148.524C145.366 148.616 145.028 148.662 144.676 148.662C143.94 148.662 143.38 148.472 142.996 148.092C142.616 147.708 142.426 147.204 142.426 146.58V143.142H141.016V142.164H142.426V140.748L143.77 140.586V142.164H145.906L145.756 143.142H143.77V146.568C143.77 146.908 143.854 147.162 144.022 147.33C144.194 147.494 144.474 147.576 144.862 147.576C145.094 147.576 145.308 147.548 145.504 147.492C145.7 147.436 145.878 147.364 146.038 147.276L146.524 148.164ZM149.543 145.764C149.571 146.196 149.663 146.55 149.819 146.826C149.975 147.098 150.179 147.298 150.431 147.426C150.687 147.554 150.967 147.618 151.271 147.618C151.583 147.618 151.871 147.57 152.135 147.474C152.399 147.378 152.665 147.242 152.933 147.066L153.515 147.87C153.219 148.11 152.873 148.302 152.477 148.446C152.081 148.59 151.657 148.662 151.205 148.662C150.549 148.662 149.993 148.522 149.537 148.242C149.085 147.962 148.741 147.572 148.505 147.072C148.269 146.572 148.151 145.994 148.151 145.338C148.151 144.702 148.267 144.134 148.499 143.634C148.731 143.13 149.063 142.732 149.495 142.44C149.927 142.144 150.443 141.996 151.043 141.996C151.607 141.996 152.091 142.124 152.495 142.38C152.903 142.636 153.217 143 153.437 143.472C153.661 143.94 153.773 144.504 153.773 145.164C153.773 145.272 153.769 145.38 153.761 145.488C153.757 145.592 153.751 145.684 153.743 145.764H149.543ZM151.055 142.992C150.635 142.992 150.287 143.142 150.011 143.442C149.739 143.742 149.581 144.21 149.537 144.846H152.471C152.459 144.25 152.331 143.792 152.087 143.472C151.847 143.152 151.503 142.992 151.055 142.992ZM160.957 141.36L161.317 142.476C161.065 142.56 160.787 142.616 160.483 142.644C160.183 142.672 159.847 142.686 159.475 142.686C159.855 142.854 160.141 143.07 160.333 143.334C160.525 143.594 160.621 143.914 160.621 144.294C160.621 144.706 160.521 145.074 160.321 145.398C160.121 145.722 159.835 145.976 159.463 146.16C159.091 146.344 158.645 146.436 158.125 146.436C157.941 146.436 157.781 146.428 157.645 146.412C157.513 146.396 157.383 146.37 157.255 146.334C157.175 146.39 157.107 146.466 157.051 146.562C156.999 146.654 156.973 146.752 156.973 146.856C156.973 146.984 157.025 147.096 157.129 147.192C157.237 147.284 157.449 147.33 157.765 147.33H158.869C159.321 147.33 159.719 147.408 160.063 147.564C160.411 147.716 160.683 147.926 160.879 148.194C161.079 148.458 161.179 148.758 161.179 149.094C161.179 149.726 160.907 150.216 160.363 150.564C159.819 150.912 159.035 151.086 158.011 151.086C157.287 151.086 156.719 151.012 156.307 150.864C155.895 150.716 155.605 150.496 155.437 150.204C155.269 149.912 155.185 149.554 155.185 149.13H156.391C156.391 149.35 156.433 149.532 156.517 149.676C156.605 149.82 156.767 149.928 157.003 150C157.239 150.072 157.579 150.108 158.023 150.108C158.467 150.108 158.819 150.07 159.079 149.994C159.343 149.922 159.533 149.816 159.649 149.676C159.769 149.54 159.829 149.376 159.829 149.184C159.829 148.928 159.717 148.73 159.493 148.59C159.269 148.45 158.969 148.38 158.593 148.38H157.507C156.907 148.38 156.467 148.258 156.187 148.014C155.911 147.77 155.773 147.486 155.773 147.162C155.773 146.946 155.833 146.738 155.953 146.538C156.077 146.338 156.253 146.164 156.481 146.016C156.101 145.816 155.823 145.574 155.647 145.29C155.475 145.002 155.389 144.654 155.389 144.246C155.389 143.798 155.501 143.406 155.725 143.07C155.949 142.734 156.259 142.472 156.655 142.284C157.055 142.096 157.515 142.002 158.035 142.002C158.543 142.002 158.967 141.976 159.307 141.924C159.647 141.868 159.943 141.79 160.195 141.69C160.451 141.59 160.705 141.48 160.957 141.36ZM158.047 142.926C157.619 142.926 157.297 143.048 157.081 143.292C156.865 143.532 156.757 143.846 156.757 144.234C156.757 144.634 156.867 144.956 157.087 145.2C157.311 145.44 157.637 145.56 158.065 145.56C158.461 145.56 158.763 145.444 158.971 145.212C159.183 144.98 159.289 144.65 159.289 144.222C159.289 143.79 159.185 143.466 158.977 143.25C158.769 143.034 158.459 142.926 158.047 142.926ZM162.878 148.5V147.54H163.808V143.118H162.878V142.164H164.834L165.08 143.634C165.316 143.102 165.608 142.698 165.956 142.422C166.308 142.142 166.76 142.002 167.312 142.002C167.5 142.002 167.668 142.018 167.816 142.05C167.968 142.078 168.118 142.116 168.266 142.164L167.864 143.316C167.736 143.28 167.616 143.254 167.504 143.238C167.392 143.218 167.268 143.208 167.132 143.208C166.672 143.208 166.274 143.38 165.938 143.724C165.606 144.068 165.344 144.556 165.152 145.188V147.54H166.43V148.5H162.878ZM167.078 144.498V142.938L167.246 142.164H168.266L168.038 144.498H167.078ZM174.855 146.946C174.855 147.194 174.893 147.376 174.969 147.492C175.045 147.604 175.167 147.688 175.335 147.744L175.035 148.656C174.723 148.62 174.455 148.534 174.231 148.398C174.007 148.262 173.837 148.056 173.721 147.78C173.489 148.072 173.195 148.292 172.839 148.44C172.483 148.588 172.103 148.662 171.699 148.662C171.059 148.662 170.551 148.482 170.175 148.122C169.803 147.758 169.617 147.282 169.617 146.694C169.617 146.026 169.877 145.512 170.397 145.152C170.917 144.792 171.661 144.612 172.629 144.612H173.535V144.198C173.535 143.79 173.411 143.496 173.163 143.316C172.919 143.136 172.573 143.046 172.125 143.046C171.917 143.046 171.665 143.074 171.369 143.13C171.073 143.182 170.763 143.264 170.439 143.376L170.109 142.428C170.505 142.28 170.893 142.172 171.273 142.104C171.653 142.032 172.005 141.996 172.329 141.996C173.177 141.996 173.809 142.184 174.225 142.56C174.645 142.936 174.855 143.456 174.855 144.12V146.946ZM172.107 147.672C172.379 147.672 172.645 147.6 172.905 147.456C173.165 147.312 173.375 147.11 173.535 146.85V145.452H172.791C172.159 145.452 171.707 145.558 171.435 145.77C171.163 145.978 171.027 146.266 171.027 146.634C171.027 146.97 171.117 147.228 171.297 147.408C171.481 147.584 171.751 147.672 172.107 147.672ZM182.501 148.164C182.269 148.312 181.991 148.432 181.667 148.524C181.343 148.616 181.005 148.662 180.653 148.662C179.917 148.662 179.357 148.472 178.973 148.092C178.593 147.708 178.403 147.204 178.403 146.58V143.142H176.993V142.164H178.403V140.748L179.747 140.586V142.164H181.883L181.733 143.142H179.747V146.568C179.747 146.908 179.831 147.162 179.999 147.33C180.171 147.494 180.451 147.576 180.839 147.576C181.071 147.576 181.285 147.548 181.481 147.492C181.677 147.436 181.855 147.364 182.015 147.276L182.501 148.164ZM187.866 142.164V147.516H189.588V148.5H184.626V147.516H186.522V143.148H184.686V142.164H187.866ZM186.93 139.062C187.194 139.062 187.406 139.142 187.566 139.302C187.73 139.462 187.812 139.662 187.812 139.902C187.812 140.142 187.73 140.344 187.566 140.508C187.406 140.672 187.194 140.754 186.93 140.754C186.674 140.754 186.464 140.672 186.3 140.508C186.136 140.344 186.054 140.142 186.054 139.902C186.054 139.662 186.136 139.462 186.3 139.302C186.464 139.142 186.674 139.062 186.93 139.062ZM194.137 141.996C194.757 141.996 195.279 142.134 195.703 142.41C196.127 142.686 196.447 143.072 196.663 143.568C196.883 144.064 196.993 144.648 196.993 145.32C196.993 145.988 196.881 146.574 196.657 147.078C196.437 147.578 196.113 147.968 195.685 148.248C195.261 148.524 194.743 148.662 194.131 148.662C193.519 148.662 192.999 148.528 192.571 148.26C192.147 147.988 191.823 147.602 191.599 147.102C191.379 146.602 191.269 146.012 191.269 145.332C191.269 144.672 191.379 144.092 191.599 143.592C191.823 143.092 192.149 142.702 192.577 142.422C193.005 142.138 193.525 141.996 194.137 141.996ZM194.137 143.04C193.653 143.04 193.289 143.226 193.045 143.598C192.801 143.966 192.679 144.544 192.679 145.332C192.679 146.116 192.799 146.694 193.039 147.066C193.283 147.438 193.647 147.624 194.131 147.624C194.615 147.624 194.977 147.438 195.217 147.066C195.461 146.694 195.583 146.112 195.583 145.32C195.583 144.54 195.463 143.966 195.223 143.598C194.983 143.226 194.621 143.04 194.137 143.04ZM198.795 148.5V142.164H199.953L200.055 142.986C200.319 142.662 200.631 142.416 200.991 142.248C201.351 142.08 201.721 141.996 202.101 141.996C202.693 141.996 203.135 142.162 203.427 142.494C203.723 142.822 203.871 143.284 203.871 143.88V148.5H202.527V144.546C202.527 144.178 202.505 143.882 202.461 143.658C202.417 143.434 202.329 143.272 202.197 143.172C202.069 143.072 201.877 143.022 201.621 143.022C201.417 143.022 201.223 143.066 201.039 143.154C200.855 143.242 200.687 143.358 200.535 143.502C200.383 143.642 200.251 143.792 200.139 143.952V148.5H198.795Z" fill="white"/>
<ellipse cx="167.263" cy="281.498" rx="65.2626" ry="65" fill="white" fill-opacity="0.04"/>
<ellipse cx="167.263" cy="281.498" rx="53.2141" ry="53" fill="white" fill-opacity="0.08"/>
<ellipse cx="167.263" cy="281.498" rx="37.1495" ry="37" fill="white" fill-opacity="0.12"/>
<g clip-path="url(#clip0_299_5449)">
<path d="M159.539 286.384H161.973V282.387H165.019V280.515H161.973V278.432H166.044V276.504H159.539V286.384Z" fill="white"/>
<path d="M172.193 278.911C171.539 278.587 170.818 278.418 170.086 278.418C169.355 278.418 168.634 278.587 167.98 278.911C167.36 279.233 166.847 279.724 166.5 280.325C166.139 280.94 165.959 281.651 165.959 282.458C165.959 283.274 166.137 283.987 166.493 284.596C166.835 285.194 167.343 285.683 167.957 286.004C168.58 286.331 169.28 286.494 170.058 286.494C170.792 286.504 171.517 286.335 172.169 286.001C172.793 285.68 173.311 285.189 173.664 284.587C174.028 283.973 174.211 283.262 174.211 282.455C174.212 281.648 174.032 280.937 173.671 280.323C173.324 279.723 172.812 279.233 172.193 278.911ZM171.246 283.908C171.095 284.07 170.911 284.199 170.707 284.287C170.502 284.374 170.281 284.417 170.058 284.414C169.839 284.419 169.621 284.376 169.421 284.289C169.221 284.201 169.042 284.071 168.898 283.908C168.59 283.571 168.435 283.088 168.435 282.459C168.435 281.82 168.592 281.335 168.906 281.004C169.057 280.846 169.24 280.719 169.443 280.634C169.646 280.548 169.864 280.504 170.085 280.504C170.305 280.505 170.524 280.55 170.726 280.637C170.928 280.724 171.11 280.852 171.261 281.011C171.578 281.348 171.737 281.832 171.738 282.461C171.738 283.09 171.574 283.572 171.246 283.907V283.908Z" fill="white"/>
<path d="M177.601 279.84V278.532H175.17V286.385H177.601V282.74C177.601 282.093 177.753 281.64 178.056 281.382C178.36 281.124 178.815 280.995 179.423 280.995H180.091V278.447C179.591 278.441 179.099 278.57 178.668 278.82C178.237 279.073 177.871 279.423 177.601 279.84Z" fill="white"/>
<path d="M184.743 280.473C185.37 280.473 185.792 280.773 186.01 281.373H188.6C188.392 280.436 187.953 279.708 187.284 279.192C186.615 278.676 185.783 278.418 184.789 278.418C184.01 278.418 183.32 278.582 182.717 278.911C182.12 279.235 181.631 279.724 181.31 280.318C180.973 280.928 180.804 281.641 180.805 282.458C180.805 283.274 180.974 283.987 181.31 284.596C181.631 285.191 182.12 285.68 182.717 286.004C183.32 286.333 184.011 286.497 184.789 286.497C185.775 286.497 186.605 286.234 187.279 285.709C187.953 285.183 188.394 284.461 188.603 283.541H186.01C185.791 284.142 185.369 284.442 184.743 284.442C184.537 284.448 184.332 284.404 184.146 284.315C183.96 284.225 183.799 284.093 183.676 283.928C183.41 283.586 183.278 283.095 183.277 282.458C183.277 281.82 183.41 281.33 183.676 280.987C183.799 280.822 183.96 280.69 184.146 280.6C184.332 280.511 184.537 280.467 184.743 280.473Z" fill="white"/>
<path d="M197.382 282.331C197.382 281.542 197.213 280.853 196.876 280.262C196.552 279.683 196.065 279.209 195.475 278.897C194.878 278.578 194.195 278.418 193.428 278.418C192.64 278.418 191.943 278.582 191.336 278.911C190.735 279.233 190.242 279.722 189.919 280.318C189.583 280.928 189.414 281.641 189.414 282.458C189.414 283.274 189.585 283.987 189.926 284.596C190.252 285.192 190.747 285.681 191.349 286.004C191.957 286.333 192.649 286.497 193.427 286.497C194.029 286.505 194.626 286.385 195.177 286.145C195.681 285.924 196.126 285.592 196.48 285.174C196.822 284.769 197.068 284.294 197.199 283.782H194.607C194.369 284.288 193.947 284.541 193.339 284.541C192.957 284.551 192.587 284.412 192.308 284.154C192.028 283.896 191.869 283.523 191.831 283.035H197.339C197.367 282.801 197.381 282.566 197.382 282.331ZM191.845 281.698C191.912 281.267 192.085 280.933 192.364 280.698C192.654 280.461 193.021 280.336 193.396 280.347C193.823 280.347 194.179 280.469 194.464 280.713C194.749 280.957 194.892 281.286 194.891 281.698H191.845Z" fill="white"/>
<path d="M151.837 276.498H149.802L148.992 280.509H151.837V279.57L154.246 281.445L151.837 283.321V286.385H157.957V284.457H154.271V282.367H157.531V280.509H154.271V278.433H157.957V276.505H151.837V276.498Z" fill="#32C27D"/>
<path d="M140.749 276.498H138.145L139.173 280.509H141.551L140.749 276.498Z" fill="#32C27D"/>
<path d="M148.349 283.69L148.035 282.367V282.367L146.641 276.498H143.965L142.186 283.69L141.921 282.367H139.648L140.677 286.378H143.624L145.275 279.876L146.868 286.378H149.815L150.872 282.367H148.616L148.349 283.69Z" fill="#32C27D"/>
</g>
<path d="M110.534 409.998C108.024 409.998 106.016 411.998 106.016 414.498C106.016 416.998 108.024 418.998 110.534 418.998C113.044 418.998 115.052 416.998 115.052 414.498C115.052 411.998 113.044 409.998 110.534 409.998Z" fill="#6016FC"/>
<path d="M110.534 409.998C108.024 409.998 106.016 411.998 106.016 414.498C106.016 416.998 108.024 418.998 110.534 418.998C113.044 418.998 115.052 416.998 115.052 414.498C115.052 411.998 113.044 409.998 110.534 409.998ZM110.534 409.998V400.498C110.534 389.452 119.488 380.498 130.534 380.498H147.262C158.308 380.498 167.262 371.544 167.262 360.498V346.498" stroke="white" stroke-opacity="0.1" stroke-width="3"/>
<path d="M163 168.017C163 170.528 165 172.536 167.5 172.536C170 172.536 172 170.528 172 168.017C172 165.507 170 163.499 167.5 163.499C165 163.499 163 165.507 163 168.017Z" fill="#6016FC"/>
<path d="M167.5 172.536C165 172.536 163 170.528 163 168.017C163 165.507 165 163.499 167.5 163.499C170 163.499 172 165.507 172 168.017C172 170.528 170 172.536 167.5 172.536ZM167.5 172.536V172.536C167.5 174.203 167.909 196.031 167.926 197.698C167.971 202.173 168.001 208.231 168.001 216.43" stroke="white" stroke-opacity="0.1" stroke-width="3"/>
<defs>
<clipPath id="clip0_299_5449">
<rect width="59.2384" height="10" fill="white" transform="translate(138.145 276.498)"/>
</clipPath>
</defs>
</svg>
