<svg width="272" height="350" viewBox="0 0 102 130" fill="none" xmlns="http://www.w3.org/2000/svg">
<path opacity="0.07" d="M91.6808 62.0345C95.4246 58.8234 97.7286 52.8476 97.7286 44.7839C97.7286 28.2245 88.0233 9.18843 76.0717 2.42068C64.1058 -4.36147 54.5733 3.58703 54.6885 20.276C54.7461 28.2101 57.0212 36.7202 60.6931 44.1215C63.5298 49.8237 65.3873 56.1883 66.0065 62.1065C66.2513 64.6408 67.7633 67.2615 69.5056 68.2695L82.8683 75.9732C84.625 76.9955 86.1226 76.074 86.3962 73.8421C87.0009 68.6438 88.8297 64.4968 91.6808 62.0345Z" fill="url(#paint0_linear_682_2606)"/>
<path opacity="0.07" d="M86.1379 89.3938V85.8515C86.1379 83.9508 85.0435 81.8053 83.6755 80.9845L68.6713 72.316C67.3033 71.5241 66.209 72.4168 66.209 74.3176V77.8598C66.209 80.7109 67.7065 83.8788 69.6649 85.434L82.7108 92.9649C84.6403 93.6993 86.1379 92.2161 86.1379 89.3938Z" fill="url(#paint1_linear_682_2606)"/>
<path opacity="0.4" d="M84.4679 67.765C88.2117 64.5539 90.5157 58.5781 90.5157 50.5144C90.5157 33.955 80.8104 14.9189 68.8589 8.15115C56.8785 1.369 47.3604 9.3175 47.4756 26.0065C47.5332 33.9406 49.8084 42.4507 53.4802 49.852C56.3169 55.5542 58.1744 61.9188 58.7936 67.837C59.0384 70.3713 60.5504 72.992 62.2927 73.9999L75.6554 81.7037C77.4121 82.726 78.9097 81.8045 79.1833 79.5725C79.8025 74.3743 81.6312 70.2129 84.4679 67.765Z" fill="url(#paint2_linear_682_2606)"/>
<path opacity="0.4" d="M78.9386 95.1243V91.582C78.9386 89.6813 77.8443 87.5358 76.4763 86.715L61.4721 78.0465C60.1041 77.2545 59.0098 78.1473 59.0098 80.048V83.5903C59.0098 86.4414 60.5073 89.6093 62.4656 91.1644L75.5116 98.6953C77.4411 99.4297 78.9386 97.9466 78.9386 95.1243Z" fill="url(#paint3_linear_682_2606)"/>
<path opacity="0.3" d="M47.4173 96.3633L4.56445 71.625L4.57885 93.9586L43.6446 116.508L47.4317 122.11L47.4173 96.3633Z" fill="url(#paint4_linear_682_2606)"/>
<path d="M0 80.3356V74.2734L16.185 83.6043V89.6665L0 80.3356Z" fill="#6FE6A6"/>
<path opacity="0.15" d="M36.4021 95.4415L27.0137 90.0273V91.9857L36.4021 97.3999V95.4415Z" fill="white"/>
<path opacity="0.15" d="M36.4009 99.3732L18.3008 88.9336V90.8919L36.4009 101.332V99.3732Z" fill="white"/>
<path opacity="0.15" d="M36.4011 103.29L14.4707 90.6328V92.5911L36.4011 105.248V103.29Z" fill="white"/>
<path d="M38.7207 98.8246C38.7207 100.668 39.8151 102.784 41.1542 103.562C42.4934 104.34 43.5877 103.476 43.5877 101.633C43.5877 99.7894 42.4934 97.6727 41.1542 96.8951C39.8007 96.1175 38.7207 96.9815 38.7207 98.8246Z" fill="#6FE6A6"/>
<path opacity="0.3" d="M50.7578 82.9277L93.5962 107.666L93.6106 130L54.5449 107.45L50.7722 108.688L50.7578 82.9277Z" fill="url(#paint5_linear_682_2606)"/>
<path d="M81.1406 111.597V105.535L97.3112 114.866V120.928L81.1406 111.597Z" fill="#12B769"/>
<path opacity="0.15" d="M61.7734 94.7363L71.1619 100.151V102.109L61.7734 96.6947V94.7363Z" fill="white"/>
<path opacity="0.15" d="M61.7734 98.6523L78.7216 108.43V110.388L61.7734 100.625V98.6523Z" fill="white"/>
<path opacity="0.15" d="M61.7734 102.584L83.7038 115.241V117.199L61.7734 104.542V102.584Z" fill="white"/>
<path d="M59.4549 95.4411C59.4549 97.2843 58.3606 98.1482 57.0214 97.3707C55.6822 96.5931 54.5879 94.4764 54.5879 92.6332C54.5879 90.7901 55.6822 89.9261 57.0214 90.7037C58.375 91.4813 59.4549 93.598 59.4549 95.4411Z" fill="#12B769"/>
<path opacity="0.15" d="M98.5651 81.0566L99.645 83.447L90.5446 85.5637L100.005 98.7392L98.9251 99.8768L87.3047 83.6773L98.5651 81.0566Z" fill="white"/>
<path d="M101.574 83.7354C101.574 85.5929 100.48 86.4713 99.1405 85.7081C97.8014 84.9305 96.707 82.7994 96.707 80.9275C96.707 79.07 97.8014 78.1916 99.1405 78.9548C100.48 79.7323 101.574 81.8779 101.574 83.7354Z" fill="#6FE6A6"/>
<path d="M101.574 100.235C101.574 102.093 100.48 102.971 99.1405 102.208C97.8014 101.431 96.707 99.2994 96.707 97.4275C96.707 95.57 97.8014 94.6916 99.1405 95.4548C100.48 96.2467 101.574 98.3779 101.574 100.235Z" fill="#6FE6A6"/>
<path d="M91.1912 85.7783C91.1912 87.6359 90.0969 88.5142 88.7577 87.7511C87.4186 86.9735 86.3242 84.8424 86.3242 82.9704C86.3242 81.1129 87.4186 80.2346 88.7577 80.9977C90.0969 81.7753 91.1912 83.9208 91.1912 85.7783Z" fill="#12B769"/>
<path opacity="0.3" d="M23.2988 36.4609L47.4323 50.3852V95.0956L23.2988 81.1713V36.4609Z" fill="url(#paint6_linear_682_2606)"/>
<path opacity="0.15" d="M25.6738 63L45.0555 74.1884V76.1467L25.6738 64.9583V63Z" fill="white"/>
<path opacity="0.15" d="M27.0273 67.6074L43.6875 77.2263V79.1846L27.0273 69.5658V67.6074Z" fill="white"/>
<path d="M34.0691 75.5991L17.2793 65.9082V70.9048L34.0691 80.5957V75.5991Z" fill="#12B769"/>
<path d="M38.1163 54.0431C38.1163 56.203 36.8635 57.2253 35.3228 56.3326C33.7821 55.4254 32.5293 52.9487 32.5293 50.7744C32.5293 48.6145 33.7821 47.5921 35.3228 48.4849C36.8635 49.392 38.1163 51.8831 38.1163 54.0431Z" fill="#12B769"/>
<path d="M35.3083 58.074C32.8172 56.6196 30.7581 57.9876 30.3981 61.1123C30.3405 61.6594 30.7437 62.3794 31.2476 62.6674L39.3689 67.4192C39.8729 67.7072 40.2761 67.4768 40.2185 66.8576C39.8729 63.2866 37.7994 59.5283 35.3083 58.074Z" fill="#12B769"/>
<path opacity="0.2" d="M58.7507 127.322C50.039 116.12 56.3459 112.059 58.7507 118.625C61.1554 114.852 67.4623 126.17 58.7507 127.322Z" fill="url(#paint7_linear_682_2606)"/>
<defs>
<linearGradient id="paint0_linear_682_2606" x1="93.1015" y1="21.0705" x2="49.0326" y2="61.1952" gradientUnits="userSpaceOnUse">
<stop stop-color="white"/>
<stop offset="1" stop-color="white" stop-opacity="0"/>
</linearGradient>
<linearGradient id="paint1_linear_682_2606" x1="115.908" y1="46.1109" x2="71.8391" y2="86.2357" gradientUnits="userSpaceOnUse">
<stop stop-color="white"/>
<stop offset="1" stop-color="white" stop-opacity="0"/>
</linearGradient>
<linearGradient id="paint2_linear_682_2606" x1="85.9003" y1="26.7981" x2="41.8314" y2="66.9229" gradientUnits="userSpaceOnUse">
<stop stop-color="white"/>
<stop offset="1" stop-color="white" stop-opacity="0"/>
</linearGradient>
<linearGradient id="paint3_linear_682_2606" x1="108.706" y1="51.8384" x2="64.6373" y2="91.9632" gradientUnits="userSpaceOnUse">
<stop stop-color="white"/>
<stop offset="1" stop-color="white" stop-opacity="0"/>
</linearGradient>
<linearGradient id="paint4_linear_682_2606" x1="38.0733" y1="87.4179" x2="15.9485" y2="104.741" gradientUnits="userSpaceOnUse">
<stop stop-color="white"/>
<stop offset="1" stop-color="white" stop-opacity="0"/>
</linearGradient>
<linearGradient id="paint5_linear_682_2606" x1="69.1587" y1="83.6553" x2="74.6982" y2="128.586" gradientUnits="userSpaceOnUse">
<stop stop-color="white"/>
<stop offset="1" stop-color="white" stop-opacity="0"/>
</linearGradient>
<linearGradient id="paint6_linear_682_2606" x1="50.0128" y1="40.4016" x2="28.5911" y2="77.5146" gradientUnits="userSpaceOnUse">
<stop stop-color="white"/>
<stop offset="1" stop-color="white" stop-opacity="0"/>
</linearGradient>
<linearGradient id="paint7_linear_682_2606" x1="60.5899" y1="119.057" x2="54.1443" y2="124.625" gradientUnits="userSpaceOnUse">
<stop stop-color="white"/>
<stop offset="1" stop-color="white" stop-opacity="0"/>
</linearGradient>
</defs>
</svg>
