<svg width="316" height="162" viewBox="0 0 316 162" fill="none" xmlns="http://www.w3.org/2000/svg">
<rect x="1" y="1" width="314" height="160" rx="12" fill="#051A12"/>
<rect x="1" y="1" width="314" height="160" rx="12" stroke="#536750" stroke-width="0.5"/>
<path opacity="0.07" d="M198.681 78.0345C202.425 74.8234 204.729 68.8476 204.729 60.7839C204.729 44.2245 195.023 25.1884 183.072 18.4207C171.106 11.6385 161.573 19.587 161.689 36.276C161.746 44.2101 164.021 52.7202 167.693 60.1215C170.53 65.8237 172.387 72.1883 173.007 78.1065C173.251 80.6408 174.763 83.2615 176.506 84.2695L189.868 91.9732C191.625 92.9955 193.123 92.074 193.396 89.8421C194.001 84.6438 195.83 80.4968 198.681 78.0345Z" fill="url(#paint0_linear_682_2605)"/>
<path opacity="0.07" d="M193.138 105.394V101.852C193.138 99.9508 192.043 97.8053 190.676 96.9845L175.671 88.316C174.303 87.5241 173.209 88.4168 173.209 90.3176V93.8598C173.209 96.7109 174.707 99.8788 176.665 101.434L189.711 108.965C191.64 109.699 193.138 108.216 193.138 105.394Z" fill="url(#paint1_linear_682_2605)"/>
<path opacity="0.4" d="M191.468 83.765C195.212 80.5539 197.516 74.5781 197.516 66.5144C197.516 49.955 187.81 30.9189 175.859 24.1511C163.878 17.369 154.36 25.3175 154.476 42.0065C154.533 49.9406 156.808 58.4507 160.48 65.852C163.317 71.5542 165.174 77.9188 165.794 83.837C166.038 86.3713 167.55 88.992 169.293 89.9999L182.655 97.7037C184.412 98.726 185.91 97.8045 186.183 95.5725C186.802 90.3743 188.631 86.2129 191.468 83.765Z" fill="url(#paint2_linear_682_2605)"/>
<path opacity="0.4" d="M185.939 111.124V107.582C185.939 105.681 184.844 103.536 183.476 102.715L168.472 94.0465C167.104 93.2545 166.01 94.1473 166.01 96.048V99.5903C166.01 102.441 167.507 105.609 169.466 107.164L182.512 114.695C184.441 115.43 185.939 113.947 185.939 111.124Z" fill="url(#paint3_linear_682_2605)"/>
<path opacity="0.3" d="M154.417 112.363L111.564 87.625L111.579 109.959L150.645 132.508L154.432 138.11L154.417 112.363Z" fill="url(#paint4_linear_682_2605)"/>
<path d="M107 96.3356V90.2734L123.185 99.6043V105.666L107 96.3356Z" fill="#6FE6A6"/>
<path opacity="0.15" d="M143.402 111.442L134.014 106.027V107.986L143.402 113.4V111.442Z" fill="white"/>
<path opacity="0.15" d="M143.401 115.373L125.301 104.934V106.892L143.401 117.332V115.373Z" fill="white"/>
<path opacity="0.15" d="M143.401 119.29L121.471 106.633V108.591L143.401 121.248V119.29Z" fill="white"/>
<path d="M145.721 114.825C145.721 116.668 146.815 118.784 148.154 119.562C149.493 120.34 150.588 119.476 150.588 117.633C150.588 115.789 149.493 113.673 148.154 112.895C146.801 112.118 145.721 112.982 145.721 114.825Z" fill="#6FE6A6"/>
<path opacity="0.3" d="M157.758 98.9277L200.596 123.666L200.611 146L161.545 123.45L157.772 124.688L157.758 98.9277Z" fill="url(#paint5_linear_682_2605)"/>
<path d="M188.141 127.597V121.535L204.311 130.866V136.928L188.141 127.597Z" fill="#12B769"/>
<path opacity="0.15" d="M168.773 110.736L178.162 116.151V118.109L168.773 112.695V110.736Z" fill="white"/>
<path opacity="0.15" d="M168.773 114.652L185.722 124.43V126.388L168.773 116.625V114.652Z" fill="white"/>
<path opacity="0.15" d="M168.773 118.584L190.704 131.241V133.199L168.773 120.542V118.584Z" fill="white"/>
<path d="M166.455 111.441C166.455 113.284 165.361 114.148 164.021 113.371C162.682 112.593 161.588 110.476 161.588 108.633C161.588 106.79 162.682 105.926 164.021 106.704C165.375 107.481 166.455 109.598 166.455 111.441Z" fill="#12B769"/>
<path opacity="0.15" d="M205.565 97.0566L206.645 99.447L197.545 101.564L207.005 114.739L205.925 115.877L194.305 99.6773L205.565 97.0566Z" fill="white"/>
<path d="M208.574 99.7354C208.574 101.593 207.48 102.471 206.141 101.708C204.801 100.931 203.707 98.7994 203.707 96.9275C203.707 95.07 204.801 94.1916 206.141 94.9548C207.48 95.7323 208.574 97.8779 208.574 99.7354Z" fill="#6FE6A6"/>
<path d="M208.574 116.235C208.574 118.093 207.48 118.971 206.141 118.208C204.801 117.431 203.707 115.299 203.707 113.427C203.707 111.57 204.801 110.692 206.141 111.455C207.48 112.247 208.574 114.378 208.574 116.235Z" fill="#6FE6A6"/>
<path d="M198.191 101.778C198.191 103.636 197.097 104.514 195.758 103.751C194.419 102.974 193.324 100.842 193.324 98.9704C193.324 97.1129 194.419 96.2346 195.758 96.9977C197.097 97.7753 198.191 99.9208 198.191 101.778Z" fill="#12B769"/>
<path opacity="0.3" d="M130.299 52.4609L154.432 66.3852V111.096L130.299 97.1713V52.4609Z" fill="url(#paint6_linear_682_2605)"/>
<path opacity="0.15" d="M132.674 79L152.056 90.1884V92.1467L132.674 80.9583V79Z" fill="white"/>
<path opacity="0.15" d="M134.027 83.6074L150.688 93.2263V95.1846L134.027 85.5658V83.6074Z" fill="white"/>
<path d="M141.069 91.5991L124.279 81.9082V86.9048L141.069 96.5957V91.5991Z" fill="#12B769"/>
<path d="M145.116 70.0431C145.116 72.203 143.864 73.2253 142.323 72.3326C140.782 71.4254 139.529 68.9487 139.529 66.7744C139.529 64.6145 140.782 63.5921 142.323 64.4849C143.864 65.392 145.116 67.8831 145.116 70.0431Z" fill="#12B769"/>
<path d="M142.308 74.074C139.817 72.6196 137.758 73.9876 137.398 77.1123C137.34 77.6594 137.744 78.3794 138.248 78.6674L146.369 83.4192C146.873 83.7072 147.276 83.4768 147.219 82.8576C146.873 79.2866 144.799 75.5283 142.308 74.074Z" fill="#12B769"/>
<path opacity="0.2" d="M165.751 143.322C157.039 132.12 163.346 128.059 165.751 134.625C168.155 130.852 174.462 142.17 165.751 143.322Z" fill="url(#paint7_linear_682_2605)"/>
<defs>
<linearGradient id="paint0_linear_682_2605" x1="200.101" y1="37.0705" x2="156.033" y2="77.1952" gradientUnits="userSpaceOnUse">
<stop stop-color="white"/>
<stop offset="1" stop-color="white" stop-opacity="0"/>
</linearGradient>
<linearGradient id="paint1_linear_682_2605" x1="222.908" y1="62.1109" x2="178.839" y2="102.236" gradientUnits="userSpaceOnUse">
<stop stop-color="white"/>
<stop offset="1" stop-color="white" stop-opacity="0"/>
</linearGradient>
<linearGradient id="paint2_linear_682_2605" x1="192.9" y1="42.7981" x2="148.831" y2="82.9229" gradientUnits="userSpaceOnUse">
<stop stop-color="white"/>
<stop offset="1" stop-color="white" stop-opacity="0"/>
</linearGradient>
<linearGradient id="paint3_linear_682_2605" x1="215.706" y1="67.8384" x2="171.637" y2="107.963" gradientUnits="userSpaceOnUse">
<stop stop-color="white"/>
<stop offset="1" stop-color="white" stop-opacity="0"/>
</linearGradient>
<linearGradient id="paint4_linear_682_2605" x1="145.073" y1="103.418" x2="122.948" y2="120.741" gradientUnits="userSpaceOnUse">
<stop stop-color="white"/>
<stop offset="1" stop-color="white" stop-opacity="0"/>
</linearGradient>
<linearGradient id="paint5_linear_682_2605" x1="176.159" y1="99.6553" x2="181.698" y2="144.586" gradientUnits="userSpaceOnUse">
<stop stop-color="white"/>
<stop offset="1" stop-color="white" stop-opacity="0"/>
</linearGradient>
<linearGradient id="paint6_linear_682_2605" x1="157.013" y1="56.4016" x2="135.591" y2="93.5146" gradientUnits="userSpaceOnUse">
<stop stop-color="white"/>
<stop offset="1" stop-color="white" stop-opacity="0"/>
</linearGradient>
<linearGradient id="paint7_linear_682_2605" x1="167.59" y1="135.057" x2="161.144" y2="140.625" gradientUnits="userSpaceOnUse">
<stop stop-color="white"/>
<stop offset="1" stop-color="white" stop-opacity="0"/>
</linearGradient>
</defs>
</svg>
