<svg width="80" height="80" viewBox="0 0 80 80" fill="none" xmlns="http://www.w3.org/2000/svg">
<rect width="80" height="80" rx="16" fill="#D0F4D8"/>
<g clip-path="url(#clip0_291_2762)">
<g clip-path="url(#clip1_291_2762)">
<mask id="mask0_291_2762" style="mask-type:luminance" maskUnits="userSpaceOnUse" x="16" y="16" width="48" height="48">
<path d="M63.4665 16H16.5332V64H63.4665V16Z" fill="white"/>
</mask>
<g mask="url(#mask0_291_2762)">
<path d="M24.0708 47.2755V40.7372C24.0708 36.1355 21.3722 34.4883 17.2441 34.4883V40.7372V50.2815C17.2442 52.4412 18.0354 54.5368 19.4878 56.2234L24.0708 61.544V62.9325" stroke="#167E4C" stroke-width="1.06667" stroke-linecap="square" stroke-linejoin="round"/>
<path d="M27.4851 53.6176L24.413 48.8614C24.0628 48.2158 23.9791 47.4734 24.1779 46.7742C24.3766 46.0752 24.8439 45.4679 25.4916 45.067C25.8503 44.845 26.254 44.6928 26.6778 44.6198C27.1017 44.5469 27.5373 44.5546 27.9577 44.6425C28.3784 44.7304 28.7754 44.8968 29.1249 45.1315C29.4741 45.3662 29.7687 45.6643 29.9904 46.0078L32.5891 49.6308C33.7132 51.1954 34.3126 53.0344 34.3117 54.9155V61.257V62.9332" stroke="#167E4C" stroke-width="1.06667" stroke-linecap="square" stroke-linejoin="round"/>
<path d="M55.9297 47.2755V40.7372C55.9297 36.1355 58.6284 34.4883 62.7565 34.4883V40.7372V50.2815C62.7565 52.4412 61.9652 54.5368 60.5128 56.2234L55.9297 61.544V62.9325" stroke="#167E4C" stroke-width="1.06667" stroke-linecap="square" stroke-linejoin="round"/>
<path d="M52.5141 53.6176L55.5862 48.8614C55.9364 48.2158 56.02 47.4734 55.8213 46.7742C55.6226 46.0752 55.1552 45.4679 54.5074 45.067C54.1487 44.845 53.7451 44.6928 53.3213 44.6198C52.8973 44.5469 52.4619 44.5546 52.0413 44.6425C51.6206 44.7304 51.2237 44.8968 50.8743 45.1315C50.5249 45.3662 50.2304 45.6643 50.0087 46.0078L47.4101 49.6308C46.2859 51.1954 45.6864 53.0344 45.6875 54.9155V61.257V62.9332" stroke="#167E4C" stroke-width="1.06667" stroke-linecap="square" stroke-linejoin="round"/>
<path d="M53.1989 18.4373C52.4242 17.6652 51.5044 17.0528 50.4921 16.6349C49.4799 16.2171 48.3949 16.002 47.2993 16.002C46.2036 16.002 45.1187 16.2171 44.1064 16.6349C43.0941 17.0528 42.1745 17.6652 41.3996 18.4373C40.8156 19.0193 40.3754 19.6802 40.0002 20.3682C39.6298 19.6593 39.1576 19.0081 38.5985 18.4352C37.0339 16.876 34.9116 16 32.6988 16C30.4861 16 28.3639 16.876 26.7991 18.4352C25.2345 19.9944 24.3555 22.1092 24.3555 24.3143C24.3555 26.5194 25.2345 28.6342 26.7991 30.1934L40.0002 43.0221L53.1989 30.1934C53.9741 29.4219 54.5891 28.5055 55.0086 27.4969C55.4282 26.4883 55.6442 25.4072 55.6442 24.3153C55.6442 23.2235 55.4282 22.1424 55.0086 21.1338C54.5891 20.1252 53.9741 19.2089 53.1989 18.4373Z" fill="url(#paint0_radial_291_2762)"/>
</g>
</g>
</g>
<defs>
<radialGradient id="paint0_radial_291_2762" cx="0" cy="0" r="1" gradientUnits="userSpaceOnUse" gradientTransform="translate(39.9997 55.4667) rotate(-90) scale(42.1333 117.622)">
<stop offset="0.0628645" stop-color="#20A666"/>
<stop offset="1" stop-color="#C9F7D2"/>
</radialGradient>
<clipPath id="clip0_291_2762">
<rect width="48" height="48" fill="white" transform="translate(16 16)"/>
</clipPath>
<clipPath id="clip1_291_2762">
<rect width="46.9333" height="48" fill="white" transform="translate(16.5332 16)"/>
</clipPath>
</defs>
</svg>
