<svg width="20" height="20" viewBox="0 0 25 25" fill="none" xmlns="http://www.w3.org/2000/svg">
<path d="M23.5 3.75029C22.5424 4.42577 21.4821 4.9424 20.36 5.28029C19.7577 4.5878 18.9573 4.09698 18.067 3.87422C17.1767 3.65145 16.2395 3.70749 15.3821 4.03474C14.5247 4.362 13.7884 4.94469 13.273 5.70401C12.7575 6.46332 12.4877 7.36263 12.5 8.28029V9.28029C10.7426 9.32586 9.00127 8.9361 7.43101 8.14574C5.86074 7.35537 4.51032 6.18893 3.5 4.75029C3.5 4.75029 -0.5 13.7503 8.5 17.7503C6.44053 19.1483 3.98716 19.8492 1.5 19.7503C10.5 24.7503 21.5 19.7503 21.5 8.25029C21.4991 7.97174 21.4723 7.69388 21.42 7.42029C22.4406 6.41378 23.1608 5.143 23.5 3.75029Z" fill="white"/>
</svg>
